<?xml version="1.0" encoding="UTF-8" standalone="no"?><!DOCTYPE svg PUBLIC "-//W3C//DTD SVG 1.1//EN" "http://www.w3.org/Graphics/SVG/1.1/DTD/svg11.dtd"><svg width="100%" height="100%" viewBox="0 0 368 142" version="1.1" xmlns="http://www.w3.org/2000/svg" xmlns:xlink="http://www.w3.org/1999/xlink" xml:space="preserve" xmlns:serif="http://www.serif.com/" style="fill-rule:evenodd;clip-rule:evenodd;stroke-linejoin:round;stroke-miterlimit:2;"><g transform="matrix(3.89244,0,0,3.70834,-2111.31,-1249.26)"><g transform="matrix(12,0,0,12,542.127,345.376)"><path d="M0.486,-0.7c0.003,0 0.006,0.001 0.008,0.004c0.002,0.002 0.003,0.005 0.002,0.008l-0.012,0.097c-0.001,0.003 -0.002,0.006 -0.005,0.009c-0.002,0.002 -0.005,0.003 -0.008,0.003l-0.122,0c-0.001,0 -0.003,0.001 -0.004,0.002c-0.001,0.001 -0.001,0.002 -0.001,0.003l-0.069,0.562c-0.001,0.003 -0.002,0.006 -0.004,0.009c-0.003,0.002 -0.006,0.003 -0.009,0.003l-0.114,0c-0.003,0 -0.006,-0.001 -0.008,-0.003c-0.002,-0.003 -0.003,-0.006 -0.002,-0.009l0.069,-0.562c0.001,-0.003 0,-0.005 -0.004,-0.005l-0.116,0c-0.007,0 -0.011,-0.004 -0.011,-0.012l0.012,-0.097c0.001,-0.003 0.002,-0.006 0.005,-0.008c0.002,-0.003 0.005,-0.004 0.008,-0.004l0.385,0Z" style="fill-rule:nonzero;"/></g><g transform="matrix(12,0,0,12,547.575,345.376)"><path d="M0.351,-0.688c0.001,-0.003 0.002,-0.006 0.004,-0.008c0.003,-0.003 0.006,-0.004 0.009,-0.004l0.114,0c0.003,0 0.006,0.001 0.008,0.004c0.002,0.002 0.003,0.005 0.002,0.008l-0.083,0.676c-0.001,0.003 -0.002,0.006 -0.005,0.009c-0.002,0.002 -0.005,0.003 -0.008,0.003l-0.114,0c-0.003,0 -0.006,-0.001 -0.008,-0.003c-0.002,-0.003 -0.003,-0.006 -0.002,-0.009l0.034,-0.273c-0,-0.003 -0.001,-0.005 -0.004,-0.005l-0.097,0c-0.004,0 -0.006,0.002 -0.006,0.005l-0.033,0.273c-0.001,0.003 -0.002,0.006 -0.005,0.009c-0.003,0.002 -0.006,0.003 -0.009,0.003l-0.113,0c-0.003,0 -0.006,-0.001 -0.008,-0.003c-0.002,-0.003 -0.003,-0.006 -0.002,-0.009l0.083,-0.676c0.001,-0.003 0.002,-0.006 0.004,-0.008c0.003,-0.003 0.006,-0.004 0.009,-0.004l0.113,0c0.007,0 0.011,0.004 0.011,0.012l-0.034,0.272c-0,0.003 0.001,0.005 0.004,0.005l0.097,0c0.003,0 0.005,-0.002 0.006,-0.005l0.033,-0.272Z" style="fill-rule:nonzero;"/></g><g transform="matrix(12,0,0,12,553.167,345.376)"><path d="M0.209,0.008c-0.054,-0 -0.096,-0.015 -0.128,-0.045c-0.03,-0.029 -0.046,-0.07 -0.046,-0.121c0,-0.007 0.001,-0.017 0.002,-0.032l0.039,-0.32c0.007,-0.06 0.031,-0.108 0.071,-0.144c0.04,-0.036 0.09,-0.054 0.149,-0.054c0.054,0 0.097,0.015 0.128,0.045c0.031,0.029 0.047,0.07 0.047,0.121c0,0.007 -0.001,0.017 -0.002,0.032l-0.039,0.32c-0.007,0.06 -0.031,0.108 -0.072,0.144c-0.04,0.036 -0.09,0.054 -0.149,0.054Zm0.014,-0.121c0.019,-0 0.034,-0.007 0.047,-0.02c0.012,-0.013 0.019,-0.03 0.022,-0.051l0.041,-0.332c0.001,-0.003 0.001,-0.007 0.001,-0.012c0,-0.018 -0.005,-0.032 -0.014,-0.043c-0.009,-0.011 -0.022,-0.016 -0.038,-0.016c-0.018,0 -0.033,0.007 -0.046,0.02c-0.012,0.013 -0.019,0.03 -0.022,0.051l-0.041,0.332c-0.001,0.003 -0.001,0.007 -0.001,0.012c-0,0.018 0.005,0.032 0.014,0.043c0.009,0.011 0.022,0.016 0.037,0.016Z" style="fill-rule:nonzero;"/></g><g transform="matrix(12,0,0,12,558.663,345.376)"><path d="M0.212,0.008c-0.052,-0 -0.093,-0.016 -0.124,-0.047c-0.03,-0.031 -0.045,-0.072 -0.045,-0.124c0,-0.016 0.001,-0.028 0.002,-0.036l0.06,-0.489c0.001,-0.003 0.002,-0.006 0.005,-0.009c0.002,-0.002 0.005,-0.003 0.008,-0.003l0.113,0c0.007,0 0.011,0.004 0.011,0.012l-0.062,0.503c-0.001,0.003 -0.001,0.008 -0.001,0.014c0,0.017 0.004,0.031 0.013,0.042c0.009,0.011 0.02,0.016 0.035,0.016c0.017,-0 0.031,-0.007 0.043,-0.02c0.011,-0.013 0.018,-0.031 0.021,-0.052l0.062,-0.503c0.001,-0.003 0.002,-0.006 0.004,-0.009c0.003,-0.002 0.006,-0.003 0.009,-0.003l0.114,0c0.003,0 0.006,0.001 0.008,0.003c0.002,0.003 0.003,0.006 0.002,0.009l-0.06,0.489c-0.007,0.063 -0.031,0.113 -0.071,0.15c-0.04,0.038 -0.089,0.057 -0.147,0.057Z" style="fill-rule:nonzero;"/></g><g transform="matrix(12,0,0,12,564.207,345.376)"><path d="M0.206,0.008c-0.053,-0 -0.095,-0.014 -0.126,-0.043c-0.031,-0.029 -0.046,-0.068 -0.046,-0.117c-0,-0.006 0.001,-0.016 0.002,-0.029l0.041,-0.338c0.007,-0.057 0.03,-0.103 0.069,-0.137c0.04,-0.035 0.089,-0.052 0.148,-0.052c0.053,0 0.094,0.015 0.125,0.044c0.031,0.029 0.047,0.068 0.047,0.117c0,0.006 -0.001,0.016 -0.002,0.029l-0.004,0.038c-0.001,0.003 -0.002,0.006 -0.005,0.009c-0.003,0.002 -0.006,0.003 -0.009,0.003l-0.113,0c-0.003,0 -0.006,-0.001 -0.008,-0.003c-0.002,-0.003 -0.003,-0.006 -0.002,-0.009l0.005,-0.04c0.001,-0.003 0.001,-0.007 0.001,-0.012c0,-0.017 -0.005,-0.03 -0.014,-0.04c-0.009,-0.01 -0.021,-0.015 -0.036,-0.015c-0.017,0 -0.031,0.006 -0.043,0.019c-0.012,0.012 -0.019,0.028 -0.022,0.048l-0.042,0.34c-0.002,0.02 0.001,0.036 0.01,0.048c0.009,0.013 0.021,0.019 0.038,0.019c0.017,0 0.032,-0.006 0.044,-0.019c0.012,-0.012 0.019,-0.028 0.022,-0.048l0.01,-0.08c-0,-0.003 -0.001,-0.005 -0.004,-0.005l-0.043,0c-0.003,0 -0.006,-0.001 -0.008,-0.004c-0.002,-0.002 -0.003,-0.005 -0.002,-0.008l0.011,-0.089c0,-0.003 0.001,-0.006 0.004,-0.009c0.003,-0.002 0.006,-0.003 0.009,-0.003l0.172,0c0.007,0 0.011,0.004 0.011,0.012l-0.023,0.185c-0.007,0.057 -0.03,0.103 -0.07,0.138c-0.04,0.034 -0.089,0.051 -0.147,0.051Z" style="fill-rule:nonzero;"/></g><g transform="matrix(12,0,0,12,569.643,345.376)"><path d="M0.351,-0.688c0.001,-0.003 0.002,-0.006 0.004,-0.008c0.003,-0.003 0.006,-0.004 0.009,-0.004l0.114,0c0.003,0 0.006,0.001 0.008,0.004c0.002,0.002 0.003,0.005 0.002,0.008l-0.083,0.676c-0.001,0.003 -0.002,0.006 -0.005,0.009c-0.002,0.002 -0.005,0.003 -0.008,0.003l-0.114,0c-0.003,0 -0.006,-0.001 -0.008,-0.003c-0.002,-0.003 -0.003,-0.006 -0.002,-0.009l0.034,-0.273c-0,-0.003 -0.001,-0.005 -0.004,-0.005l-0.097,0c-0.004,0 -0.006,0.002 -0.006,0.005l-0.033,0.273c-0.001,0.003 -0.002,0.006 -0.005,0.009c-0.003,0.002 -0.006,0.003 -0.009,0.003l-0.113,0c-0.003,0 -0.006,-0.001 -0.008,-0.003c-0.002,-0.003 -0.003,-0.006 -0.002,-0.009l0.083,-0.676c0.001,-0.003 0.002,-0.006 0.004,-0.008c0.003,-0.003 0.006,-0.004 0.009,-0.004l0.113,0c0.007,0 0.011,0.004 0.011,0.012l-0.034,0.272c-0,0.003 0.001,0.005 0.004,0.005l0.097,0c0.003,0 0.005,-0.002 0.006,-0.005l0.033,-0.272Z" style="fill-rule:nonzero;"/></g><g transform="matrix(12,0,0,12,575.235,345.376)"><path d="M0.486,-0.7c0.003,0 0.006,0.001 0.008,0.004c0.002,0.002 0.003,0.005 0.002,0.008l-0.012,0.097c-0.001,0.003 -0.002,0.006 -0.005,0.009c-0.002,0.002 -0.005,0.003 -0.008,0.003l-0.122,0c-0.001,0 -0.003,0.001 -0.004,0.002c-0.001,0.001 -0.001,0.002 -0.001,0.003l-0.069,0.562c-0.001,0.003 -0.002,0.006 -0.004,0.009c-0.003,0.002 -0.006,0.003 -0.009,0.003l-0.114,0c-0.003,0 -0.006,-0.001 -0.008,-0.003c-0.002,-0.003 -0.003,-0.006 -0.002,-0.009l0.069,-0.562c0.001,-0.003 0,-0.005 -0.004,-0.005l-0.116,0c-0.007,0 -0.011,-0.004 -0.011,-0.012l0.012,-0.097c0.001,-0.003 0.002,-0.006 0.005,-0.008c0.002,-0.003 0.005,-0.004 0.008,-0.004l0.385,0Z" style="fill-rule:nonzero;"/></g><g transform="matrix(12,0,0,12,580.683,345.376)"><path d="M0.197,0.008c-0.051,-0 -0.092,-0.014 -0.123,-0.043c-0.03,-0.029 -0.045,-0.066 -0.045,-0.113c-0,-0.006 0.001,-0.015 0.002,-0.027l0.004,-0.029c0.001,-0.003 0.002,-0.006 0.004,-0.008c0.003,-0.003 0.006,-0.004 0.009,-0.004l0.111,0c0.007,0 0.011,0.004 0.011,0.012l-0.003,0.022c-0.001,0.003 -0.001,0.007 -0.001,0.012c-0,0.017 0.004,0.031 0.013,0.042c0.009,0.01 0.02,0.015 0.034,0.015c0.017,0 0.032,-0.007 0.044,-0.022c0.013,-0.014 0.019,-0.032 0.019,-0.053c-0,-0.017 -0.006,-0.033 -0.017,-0.046c-0.011,-0.013 -0.033,-0.033 -0.065,-0.059c-0.027,-0.021 -0.048,-0.041 -0.065,-0.057c-0.017,-0.018 -0.031,-0.038 -0.043,-0.062c-0.011,-0.023 -0.017,-0.05 -0.017,-0.081c-0,-0.042 0.009,-0.079 0.027,-0.112c0.019,-0.033 0.044,-0.058 0.076,-0.076c0.033,-0.018 0.069,-0.027 0.109,-0.027c0.051,0 0.092,0.015 0.123,0.044c0.03,0.03 0.045,0.07 0.045,0.119c0,0.006 -0.001,0.016 -0.002,0.029l-0.003,0.024c-0.001,0.003 -0.002,0.006 -0.005,0.008c-0.003,0.003 -0.006,0.004 -0.009,0.004l-0.111,-0c-0.003,-0 -0.006,-0.001 -0.008,-0.004c-0.002,-0.002 -0.003,-0.005 -0.002,-0.008l0.003,-0.027c0.001,-0.003 0.001,-0.007 0.001,-0.013c0,-0.017 -0.004,-0.03 -0.013,-0.04c-0.008,-0.01 -0.019,-0.015 -0.034,-0.015c-0.017,0 -0.032,0.007 -0.044,0.021c-0.011,0.015 -0.017,0.034 -0.017,0.058c-0,0.016 0.005,0.031 0.016,0.045c0.011,0.015 0.032,0.034 0.061,0.059c0.033,0.028 0.058,0.05 0.075,0.067c0.017,0.017 0.031,0.036 0.041,0.056c0.01,0.02 0.015,0.043 0.015,0.069c-0,0.005 -0.001,0.015 -0.002,0.028c-0.007,0.059 -0.031,0.105 -0.07,0.14c-0.039,0.035 -0.087,0.052 -0.144,0.052Z" style="fill-rule:nonzero;"/></g><g transform="matrix(12,0,0,12,588.183,345.376)"><path d="M0.416,-0.364c0.003,0 0.006,0.001 0.008,0.004c0.002,0.002 0.003,0.005 0.002,0.008l-0.01,0.082c-0.001,0.003 -0.002,0.006 -0.005,0.008c-0.002,0.003 -0.005,0.004 -0.008,0.004l-0.122,-0c-0.003,-0 -0.005,0.002 -0.005,0.005l-0.016,0.125c-0.001,0.003 -0.002,0.006 -0.005,0.008c-0.002,0.003 -0.005,0.004 -0.008,0.004l-0.079,-0c-0.003,-0 -0.006,-0.001 -0.008,-0.004c-0.003,-0.002 -0.004,-0.005 -0.003,-0.008l0.016,-0.125c0,-0.003 -0.002,-0.005 -0.005,-0.005l-0.121,-0c-0.003,-0 -0.006,-0.001 -0.008,-0.004c-0.002,-0.002 -0.003,-0.005 -0.002,-0.008l0.01,-0.082c0.001,-0.003 0.002,-0.006 0.005,-0.009c0.002,-0.002 0.005,-0.003 0.008,-0.003l0.121,0c0.004,0 0.006,-0.002 0.006,-0.005l0.015,-0.126c0.001,-0.003 0.002,-0.006 0.005,-0.008c0.003,-0.003 0.006,-0.004 0.009,-0.004l0.079,0c0.003,0 0.006,0.001 0.008,0.004c0.002,0.002 0.003,0.005 0.002,0.008l-0.015,0.126c-0.001,0.003 -0,0.005 0.004,0.005l0.122,0Z" style="fill-rule:nonzero;"/></g><g transform="matrix(12,0,0,12,595.611,345.376)"><path d="M0.385,-0.688c0.001,-0.003 0.002,-0.006 0.005,-0.008c0.002,-0.003 0.005,-0.004 0.008,-0.004l0.113,0c0.003,0 0.006,0.001 0.008,0.004c0.002,0.002 0.003,0.005 0.002,0.008l-0.083,0.676c-0.001,0.003 -0.002,0.006 -0.005,0.009c-0.002,0.002 -0.005,0.003 -0.008,0.003l-0.128,0c-0.006,0 -0.01,-0.003 -0.012,-0.01l-0.072,-0.387c-0.001,-0.002 -0.002,-0.003 -0.003,-0.003c-0.002,0.001 -0.003,0.002 -0.003,0.004l-0.046,0.384c-0.001,0.003 -0.002,0.006 -0.005,0.009c-0.003,0.002 -0.006,0.003 -0.009,0.003l-0.112,0c-0.003,0 -0.006,-0.001 -0.008,-0.003c-0.002,-0.003 -0.003,-0.006 -0.002,-0.009l0.083,-0.676c0.001,-0.003 0.002,-0.006 0.005,-0.008c0.002,-0.003 0.005,-0.004 0.008,-0.004l0.127,0c0.006,0 0.01,0.003 0.011,0.01l0.074,0.387c0.001,0.002 0.002,0.003 0.004,0.003c0.001,-0.001 0.002,-0.002 0.002,-0.004l0.046,-0.384Z" style="fill-rule:nonzero;"/></g><g transform="matrix(12,0,0,12,601.599,345.376)"><path d="M0.209,0.008c-0.054,-0 -0.096,-0.015 -0.128,-0.045c-0.03,-0.029 -0.046,-0.07 -0.046,-0.121c0,-0.007 0.001,-0.017 0.002,-0.032l0.039,-0.32c0.007,-0.06 0.031,-0.108 0.071,-0.144c0.04,-0.036 0.09,-0.054 0.149,-0.054c0.054,0 0.097,0.015 0.128,0.045c0.031,0.029 0.047,0.07 0.047,0.121c0,0.007 -0.001,0.017 -0.002,0.032l-0.039,0.32c-0.007,0.06 -0.031,0.108 -0.072,0.144c-0.04,0.036 -0.09,0.054 -0.149,0.054Zm0.014,-0.121c0.019,-0 0.034,-0.007 0.047,-0.02c0.012,-0.013 0.019,-0.03 0.022,-0.051l0.041,-0.332c0.001,-0.003 0.001,-0.007 0.001,-0.012c0,-0.018 -0.005,-0.032 -0.014,-0.043c-0.009,-0.011 -0.022,-0.016 -0.038,-0.016c-0.018,0 -0.033,0.007 -0.046,0.02c-0.012,0.013 -0.019,0.03 -0.022,0.051l-0.041,0.332c-0.001,0.003 -0.001,0.007 -0.001,0.012c-0,0.018 0.005,0.032 0.014,0.043c0.009,0.011 0.022,0.016 0.037,0.016Z" style="fill-rule:nonzero;"/></g><g transform="matrix(12,0,0,12,607.095,345.376)"><path d="M0.486,-0.7c0.003,0 0.006,0.001 0.008,0.004c0.002,0.002 0.003,0.005 0.002,0.008l-0.012,0.097c-0.001,0.003 -0.002,0.006 -0.005,0.009c-0.002,0.002 -0.005,0.003 -0.008,0.003l-0.122,0c-0.001,0 -0.003,0.001 -0.004,0.002c-0.001,0.001 -0.001,0.002 -0.001,0.003l-0.069,0.562c-0.001,0.003 -0.002,0.006 -0.004,0.009c-0.003,0.002 -0.006,0.003 -0.009,0.003l-0.114,0c-0.003,0 -0.006,-0.001 -0.008,-0.003c-0.002,-0.003 -0.003,-0.006 -0.002,-0.009l0.069,-0.562c0.001,-0.003 0,-0.005 -0.004,-0.005l-0.116,0c-0.007,0 -0.011,-0.004 -0.011,-0.012l0.012,-0.097c0.001,-0.003 0.002,-0.006 0.005,-0.008c0.002,-0.003 0.005,-0.004 0.008,-0.004l0.385,0Z" style="fill-rule:nonzero;"/></g><g transform="matrix(12,0,0,12,612.543,345.376)"><path d="M0.452,-0.591c-0.001,0.003 -0.002,0.006 -0.005,0.008c-0.002,0.003 -0.005,0.004 -0.008,0.004l-0.203,0c-0.003,0 -0.005,0.002 -0.005,0.005l-0.02,0.158c0,0.003 0.001,0.005 0.004,0.005l0.117,-0c0.003,-0 0.006,0.001 0.008,0.003c0.002,0.003 0.003,0.006 0.002,0.009l-0.012,0.097c-0.001,0.003 -0.002,0.006 -0.005,0.008c-0.002,0.003 -0.005,0.004 -0.008,0.004l-0.116,-0c-0.004,-0 -0.006,0.002 -0.006,0.005l-0.019,0.159c-0.001,0.003 -0,0.005 0.004,0.005l0.202,-0c0.003,-0 0.006,0.001 0.009,0.003c0.002,0.003 0.003,0.006 0.002,0.009l-0.012,0.097c-0.001,0.003 -0.002,0.006 -0.005,0.008c-0.002,0.003 -0.005,0.004 -0.008,0.004l-0.333,-0c-0.003,-0 -0.006,-0.001 -0.008,-0.004c-0.002,-0.002 -0.003,-0.005 -0.002,-0.008l0.083,-0.676c0.001,-0.003 0.002,-0.006 0.005,-0.009c0.002,-0.002 0.005,-0.003 0.008,-0.003l0.333,0c0.003,0 0.006,0.001 0.008,0.003c0.002,0.003 0.003,0.006 0.002,0.009l-0.012,0.097Z" style="fill-rule:nonzero;"/></g><g transform="matrix(12,0,0,12,617.643,345.376)"><path d="M0.197,0.008c-0.051,-0 -0.092,-0.014 -0.123,-0.043c-0.03,-0.029 -0.045,-0.066 -0.045,-0.113c-0,-0.006 0.001,-0.015 0.002,-0.027l0.004,-0.029c0.001,-0.003 0.002,-0.006 0.004,-0.008c0.003,-0.003 0.006,-0.004 0.009,-0.004l0.111,0c0.007,0 0.011,0.004 0.011,0.012l-0.003,0.022c-0.001,0.003 -0.001,0.007 -0.001,0.012c-0,0.017 0.004,0.031 0.013,0.042c0.009,0.01 0.02,0.015 0.034,0.015c0.017,0 0.032,-0.007 0.044,-0.022c0.013,-0.014 0.019,-0.032 0.019,-0.053c-0,-0.017 -0.006,-0.033 -0.017,-0.046c-0.011,-0.013 -0.033,-0.033 -0.065,-0.059c-0.027,-0.021 -0.048,-0.041 -0.065,-0.057c-0.017,-0.018 -0.031,-0.038 -0.043,-0.062c-0.011,-0.023 -0.017,-0.05 -0.017,-0.081c-0,-0.042 0.009,-0.079 0.027,-0.112c0.019,-0.033 0.044,-0.058 0.076,-0.076c0.033,-0.018 0.069,-0.027 0.109,-0.027c0.051,0 0.092,0.015 0.123,0.044c0.03,0.03 0.045,0.07 0.045,0.119c0,0.006 -0.001,0.016 -0.002,0.029l-0.003,0.024c-0.001,0.003 -0.002,0.006 -0.005,0.008c-0.003,0.003 -0.006,0.004 -0.009,0.004l-0.111,-0c-0.003,-0 -0.006,-0.001 -0.008,-0.004c-0.002,-0.002 -0.003,-0.005 -0.002,-0.008l0.003,-0.027c0.001,-0.003 0.001,-0.007 0.001,-0.013c0,-0.017 -0.004,-0.03 -0.013,-0.04c-0.008,-0.01 -0.019,-0.015 -0.034,-0.015c-0.017,0 -0.032,0.007 -0.044,0.021c-0.011,0.015 -0.017,0.034 -0.017,0.058c-0,0.016 0.005,0.031 0.016,0.045c0.011,0.015 0.032,0.034 0.061,0.059c0.033,0.028 0.058,0.05 0.075,0.067c0.017,0.017 0.031,0.036 0.041,0.056c0.01,0.02 0.015,0.043 0.015,0.069c-0,0.005 -0.001,0.015 -0.002,0.028c-0.007,0.059 -0.031,0.105 -0.07,0.14c-0.039,0.035 -0.087,0.052 -0.144,0.052Z" style="fill-rule:nonzero;"/></g><g transform="matrix(12,0,0,12,625.143,345.376)"><path d="M0.209,0.008c-0.054,-0 -0.096,-0.015 -0.128,-0.045c-0.03,-0.029 -0.046,-0.07 -0.046,-0.121c0,-0.007 0.001,-0.017 0.002,-0.032l0.039,-0.32c0.007,-0.06 0.031,-0.108 0.071,-0.144c0.04,-0.036 0.09,-0.054 0.149,-0.054c0.054,0 0.097,0.015 0.128,0.045c0.031,0.029 0.047,0.07 0.047,0.121c0,0.007 -0.001,0.017 -0.002,0.032l-0.039,0.32c-0.007,0.06 -0.031,0.108 -0.072,0.144c-0.04,0.036 -0.09,0.054 -0.149,0.054Zm0.014,-0.121c0.019,-0 0.034,-0.007 0.047,-0.02c0.012,-0.013 0.019,-0.03 0.022,-0.051l0.041,-0.332c0.001,-0.003 0.001,-0.007 0.001,-0.012c0,-0.018 -0.005,-0.032 -0.014,-0.043c-0.009,-0.011 -0.022,-0.016 -0.038,-0.016c-0.018,0 -0.033,0.007 -0.046,0.02c-0.012,0.013 -0.019,0.03 -0.022,0.051l-0.041,0.332c-0.001,0.003 -0.001,0.007 -0.001,0.012c-0,0.018 0.005,0.032 0.014,0.043c0.009,0.011 0.022,0.016 0.037,0.016Z" style="fill-rule:nonzero;"/></g><g transform="matrix(12,0,0,12,630.639,345.376)"><path d="M0.385,-0.688c0.001,-0.003 0.002,-0.006 0.005,-0.008c0.002,-0.003 0.005,-0.004 0.008,-0.004l0.113,0c0.003,0 0.006,0.001 0.008,0.004c0.002,0.002 0.003,0.005 0.002,0.008l-0.083,0.676c-0.001,0.003 -0.002,0.006 -0.005,0.009c-0.002,0.002 -0.005,0.003 -0.008,0.003l-0.128,0c-0.006,0 -0.01,-0.003 -0.012,-0.01l-0.072,-0.387c-0.001,-0.002 -0.002,-0.003 -0.003,-0.003c-0.002,0.001 -0.003,0.002 -0.003,0.004l-0.046,0.384c-0.001,0.003 -0.002,0.006 -0.005,0.009c-0.003,0.002 -0.006,0.003 -0.009,0.003l-0.112,0c-0.003,0 -0.006,-0.001 -0.008,-0.003c-0.002,-0.003 -0.003,-0.006 -0.002,-0.009l0.083,-0.676c0.001,-0.003 0.002,-0.006 0.005,-0.008c0.002,-0.003 0.005,-0.004 0.008,-0.004l0.127,0c0.006,0 0.01,0.003 0.011,0.01l0.074,0.387c0.001,0.002 0.002,0.003 0.004,0.003c0.001,-0.001 0.002,-0.002 0.002,-0.004l0.046,-0.384Z" style="fill-rule:nonzero;"/></g><g transform="matrix(12,0,0,12,542.127,357.376)"><path d="M0.316,-0.701c0.049,0 0.087,0.016 0.115,0.048c0.029,0.032 0.043,0.074 0.043,0.127c0,0.017 -0.001,0.029 -0.002,0.038c-0.007,0.062 -0.029,0.112 -0.066,0.149c-0.037,0.037 -0.082,0.056 -0.135,0.056l-0.072,0c-0.003,0 -0.005,0.002 -0.006,0.005l-0.032,0.266c-0.001,0.003 -0.002,0.006 -0.005,0.009c-0.003,0.002 -0.006,0.003 -0.009,0.003l-0.113,0c-0.003,0 -0.006,-0.001 -0.008,-0.003c-0.002,-0.003 -0.003,-0.006 -0.002,-0.009l0.083,-0.677c0.001,-0.003 0.002,-0.006 0.005,-0.008c0.002,-0.003 0.005,-0.004 0.008,-0.004l0.196,0Zm-0.061,0.308c0.023,0 0.043,-0.01 0.058,-0.03c0.015,-0.02 0.023,-0.047 0.023,-0.082c0,-0.023 -0.005,-0.041 -0.015,-0.054c-0.011,-0.013 -0.025,-0.02 -0.043,-0.02l-0.043,0c-0.003,0 -0.005,0.002 -0.005,0.005l-0.022,0.176c0,0.003 0.001,0.005 0.004,0.005l0.043,0Z" style="fill-rule:nonzero;"/></g><g transform="matrix(12,0,0,12,547.539,357.376)"><path d="M0.291,-0c-0.007,-0 -0.011,-0.003 -0.012,-0.01l-0.041,-0.276c-0.001,-0.003 -0.003,-0.004 -0.005,-0.004l-0.032,0c-0.004,0 -0.006,0.002 -0.006,0.005l-0.033,0.273c-0.001,0.003 -0.002,0.006 -0.005,0.009c-0.003,0.002 -0.006,0.003 -0.009,0.003l-0.113,0c-0.003,0 -0.006,-0.001 -0.008,-0.003c-0.002,-0.003 -0.003,-0.006 -0.002,-0.009l0.083,-0.676c0.001,-0.003 0.002,-0.006 0.005,-0.008c0.002,-0.003 0.005,-0.004 0.008,-0.004l0.196,0c0.048,0 0.086,0.016 0.115,0.048c0.029,0.031 0.043,0.073 0.043,0.126c0,0.016 -0.001,0.028 -0.002,0.037c-0.005,0.039 -0.016,0.073 -0.034,0.104c-0.019,0.03 -0.042,0.053 -0.07,0.07c-0.001,0.001 -0.002,0.002 -0.003,0.003c-0.001,0.001 -0.001,0.002 0,0.003l0.053,0.295l0,0.002c0,0.003 -0.001,0.006 -0.003,0.009c-0.003,0.002 -0.006,0.003 -0.009,0.003l-0.116,0Zm-0.055,-0.579c-0.003,0 -0.005,0.002 -0.005,0.005l-0.021,0.171c-0.001,0.003 0,0.005 0.004,0.005l0.043,-0c0.023,-0 0.042,-0.01 0.057,-0.03c0.015,-0.02 0.023,-0.046 0.023,-0.079c0,-0.022 -0.005,-0.04 -0.015,-0.053c-0.011,-0.013 -0.025,-0.019 -0.042,-0.019l-0.044,0Z" style="fill-rule:nonzero;"/></g><g transform="matrix(12,0,0,12,553.023,357.376)"><path d="M0.209,0.008c-0.054,-0 -0.096,-0.015 -0.128,-0.045c-0.03,-0.029 -0.046,-0.07 -0.046,-0.121c0,-0.007 0.001,-0.017 0.002,-0.032l0.039,-0.32c0.007,-0.06 0.031,-0.108 0.071,-0.144c0.04,-0.036 0.09,-0.054 0.149,-0.054c0.054,0 0.097,0.015 0.128,0.045c0.031,0.029 0.047,0.07 0.047,0.121c0,0.007 -0.001,0.017 -0.002,0.032l-0.039,0.32c-0.007,0.06 -0.031,0.108 -0.072,0.144c-0.04,0.036 -0.09,0.054 -0.149,0.054Zm0.014,-0.121c0.019,-0 0.034,-0.007 0.047,-0.02c0.012,-0.013 0.019,-0.03 0.022,-0.051l0.041,-0.332c0.001,-0.003 0.001,-0.007 0.001,-0.012c0,-0.018 -0.005,-0.032 -0.014,-0.043c-0.009,-0.011 -0.022,-0.016 -0.038,-0.016c-0.018,0 -0.033,0.007 -0.046,0.02c-0.012,0.013 -0.019,0.03 -0.022,0.051l-0.041,0.332c-0.001,0.003 -0.001,0.007 -0.001,0.012c-0,0.018 0.005,0.032 0.014,0.043c0.009,0.011 0.022,0.016 0.037,0.016Z" style="fill-rule:nonzero;"/></g><g transform="matrix(12,0,0,12,558.519,357.376)"><path d="M0.206,0.008c-0.053,-0 -0.095,-0.014 -0.126,-0.043c-0.031,-0.029 -0.046,-0.068 -0.046,-0.117c-0,-0.006 0.001,-0.016 0.002,-0.029l0.041,-0.338c0.007,-0.057 0.03,-0.103 0.069,-0.137c0.04,-0.035 0.089,-0.052 0.148,-0.052c0.053,0 0.094,0.015 0.125,0.044c0.031,0.029 0.047,0.068 0.047,0.117c0,0.006 -0.001,0.016 -0.002,0.029l-0.004,0.038c-0.001,0.003 -0.002,0.006 -0.005,0.009c-0.003,0.002 -0.006,0.003 -0.009,0.003l-0.113,0c-0.003,0 -0.006,-0.001 -0.008,-0.003c-0.002,-0.003 -0.003,-0.006 -0.002,-0.009l0.005,-0.04c0.001,-0.003 0.001,-0.007 0.001,-0.012c0,-0.017 -0.005,-0.03 -0.014,-0.04c-0.009,-0.01 -0.021,-0.015 -0.036,-0.015c-0.017,0 -0.031,0.006 -0.043,0.019c-0.012,0.012 -0.019,0.028 -0.022,0.048l-0.042,0.34c-0.002,0.02 0.001,0.036 0.01,0.048c0.009,0.013 0.021,0.019 0.038,0.019c0.017,0 0.032,-0.006 0.044,-0.019c0.012,-0.012 0.019,-0.028 0.022,-0.048l0.01,-0.08c-0,-0.003 -0.001,-0.005 -0.004,-0.005l-0.043,0c-0.003,0 -0.006,-0.001 -0.008,-0.004c-0.002,-0.002 -0.003,-0.005 -0.002,-0.008l0.011,-0.089c0,-0.003 0.001,-0.006 0.004,-0.009c0.003,-0.002 0.006,-0.003 0.009,-0.003l0.172,0c0.007,0 0.011,0.004 0.011,0.012l-0.023,0.185c-0.007,0.057 -0.03,0.103 -0.07,0.138c-0.04,0.034 -0.089,0.051 -0.147,0.051Z" style="fill-rule:nonzero;"/></g><g transform="matrix(12,0,0,12,563.955,357.376)"><path d="M0.291,-0c-0.007,-0 -0.011,-0.003 -0.012,-0.01l-0.041,-0.276c-0.001,-0.003 -0.003,-0.004 -0.005,-0.004l-0.032,0c-0.004,0 -0.006,0.002 -0.006,0.005l-0.033,0.273c-0.001,0.003 -0.002,0.006 -0.005,0.009c-0.003,0.002 -0.006,0.003 -0.009,0.003l-0.113,0c-0.003,0 -0.006,-0.001 -0.008,-0.003c-0.002,-0.003 -0.003,-0.006 -0.002,-0.009l0.083,-0.676c0.001,-0.003 0.002,-0.006 0.005,-0.008c0.002,-0.003 0.005,-0.004 0.008,-0.004l0.196,0c0.048,0 0.086,0.016 0.115,0.048c0.029,0.031 0.043,0.073 0.043,0.126c0,0.016 -0.001,0.028 -0.002,0.037c-0.005,0.039 -0.016,0.073 -0.034,0.104c-0.019,0.03 -0.042,0.053 -0.07,0.07c-0.001,0.001 -0.002,0.002 -0.003,0.003c-0.001,0.001 -0.001,0.002 0,0.003l0.053,0.295l0,0.002c0,0.003 -0.001,0.006 -0.003,0.009c-0.003,0.002 -0.006,0.003 -0.009,0.003l-0.116,0Zm-0.055,-0.579c-0.003,0 -0.005,0.002 -0.005,0.005l-0.021,0.171c-0.001,0.003 0,0.005 0.004,0.005l0.043,-0c0.023,-0 0.042,-0.01 0.057,-0.03c0.015,-0.02 0.023,-0.046 0.023,-0.079c0,-0.022 -0.005,-0.04 -0.015,-0.053c-0.011,-0.013 -0.025,-0.019 -0.042,-0.019l-0.044,0Z" style="fill-rule:nonzero;"/></g><g transform="matrix(12,0,0,12,569.499,357.376)"><path d="M0.308,-0c-0.007,-0 -0.011,-0.004 -0.011,-0.011l-0.004,-0.096c0.001,-0.001 0,-0.003 -0.001,-0.004c-0.001,-0.001 -0.003,-0.001 -0.004,-0.001l-0.123,0c-0.004,0 -0.006,0.002 -0.006,0.005l-0.028,0.096c-0.002,0.007 -0.007,0.011 -0.014,0.011l-0.113,-0c-0.008,-0 -0.011,-0.004 -0.008,-0.013l0.225,-0.676c0.002,-0.007 0.007,-0.011 0.014,-0.011l0.131,0c0.007,0 0.011,0.004 0.012,0.011l0.058,0.676l0,0.003c0,0.007 -0.004,0.01 -0.011,0.01l-0.117,0Zm-0.115,-0.226c-0.001,0.003 -0,0.005 0.003,0.005l0.087,0c0.003,0 0.005,-0.002 0.005,-0.005l-0.012,-0.273c-0.001,-0.002 -0.002,-0.003 -0.003,-0.003c-0.001,0 -0.002,0.001 -0.003,0.003l-0.077,0.273Z" style="fill-rule:nonzero;"/></g><g transform="matrix(12,0,0,12,575.115,357.376)"><path d="M0.419,-0.692c0.003,-0.005 0.008,-0.008 0.015,-0.008l0.113,0c0.003,0 0.006,0.001 0.008,0.004c0.002,0.002 0.003,0.005 0.002,0.008l-0.083,0.676c-0.001,0.003 -0.002,0.006 -0.005,0.009c-0.002,0.002 -0.005,0.003 -0.008,0.003l-0.114,0c-0.003,0 -0.006,-0.001 -0.008,-0.003c-0.002,-0.003 -0.003,-0.006 -0.002,-0.009l0.055,-0.449c0.001,-0.003 0,-0.004 -0.001,-0.004c-0.001,0 -0.003,0.001 -0.004,0.003l-0.093,0.138c-0.004,0.005 -0.007,0.008 -0.009,0.008c-0.001,0 -0.004,-0.003 -0.007,-0.008l-0.058,-0.138c-0.001,-0.002 -0.003,-0.003 -0.004,-0.003c-0.001,0 -0.002,0.001 -0.002,0.004l-0.055,0.449c-0.001,0.003 -0.002,0.006 -0.005,0.009c-0.002,0.002 -0.005,0.003 -0.008,0.003l-0.114,0c-0.003,0 -0.006,-0.001 -0.008,-0.003c-0.002,-0.003 -0.003,-0.006 -0.002,-0.009l0.083,-0.676c0.001,-0.003 0.002,-0.006 0.004,-0.008c0.003,-0.003 0.006,-0.004 0.009,-0.004l0.112,0c0.003,0 0.005,0.001 0.008,0.002c0.003,0.001 0.004,0.003 0.005,0.006l0.067,0.159c0.001,0.003 0.003,0.003 0.006,0l0.103,-0.159Z" style="fill-rule:nonzero;"/></g><g transform="matrix(12,0,0,12,581.487,357.376)"><path d="M0.419,-0.692c0.003,-0.005 0.008,-0.008 0.015,-0.008l0.113,0c0.003,0 0.006,0.001 0.008,0.004c0.002,0.002 0.003,0.005 0.002,0.008l-0.083,0.676c-0.001,0.003 -0.002,0.006 -0.005,0.009c-0.002,0.002 -0.005,0.003 -0.008,0.003l-0.114,0c-0.003,0 -0.006,-0.001 -0.008,-0.003c-0.002,-0.003 -0.003,-0.006 -0.002,-0.009l0.055,-0.449c0.001,-0.003 0,-0.004 -0.001,-0.004c-0.001,0 -0.003,0.001 -0.004,0.003l-0.093,0.138c-0.004,0.005 -0.007,0.008 -0.009,0.008c-0.001,0 -0.004,-0.003 -0.007,-0.008l-0.058,-0.138c-0.001,-0.002 -0.003,-0.003 -0.004,-0.003c-0.001,0 -0.002,0.001 -0.002,0.004l-0.055,0.449c-0.001,0.003 -0.002,0.006 -0.005,0.009c-0.002,0.002 -0.005,0.003 -0.008,0.003l-0.114,0c-0.003,0 -0.006,-0.001 -0.008,-0.003c-0.002,-0.003 -0.003,-0.006 -0.002,-0.009l0.083,-0.676c0.001,-0.003 0.002,-0.006 0.004,-0.008c0.003,-0.003 0.006,-0.004 0.009,-0.004l0.112,0c0.003,0 0.005,0.001 0.008,0.002c0.003,0.001 0.004,0.003 0.005,0.006l0.067,0.159c0.001,0.003 0.003,0.003 0.006,0l0.103,-0.159Z" style="fill-rule:nonzero;"/></g><g transform="matrix(12,0,0,12,587.859,357.376)"><path d="M0.035,-0c-0.003,-0 -0.006,-0.001 -0.008,-0.004c-0.002,-0.002 -0.003,-0.005 -0.002,-0.008l0.083,-0.676c0.001,-0.003 0.002,-0.006 0.004,-0.008c0.003,-0.003 0.006,-0.004 0.009,-0.004l0.113,0c0.007,0 0.011,0.004 0.011,0.012l-0.083,0.676c-0.001,0.003 -0.002,0.006 -0.005,0.009c-0.003,0.002 -0.006,0.003 -0.009,0.003l-0.113,0Z" style="fill-rule:nonzero;"/></g><g transform="matrix(12,0,0,12,590.535,357.376)"><path d="M0.385,-0.688c0.001,-0.003 0.002,-0.006 0.005,-0.008c0.002,-0.003 0.005,-0.004 0.008,-0.004l0.113,0c0.003,0 0.006,0.001 0.008,0.004c0.002,0.002 0.003,0.005 0.002,0.008l-0.083,0.676c-0.001,0.003 -0.002,0.006 -0.005,0.009c-0.002,0.002 -0.005,0.003 -0.008,0.003l-0.128,0c-0.006,0 -0.01,-0.003 -0.012,-0.01l-0.072,-0.387c-0.001,-0.002 -0.002,-0.003 -0.003,-0.003c-0.002,0.001 -0.003,0.002 -0.003,0.004l-0.046,0.384c-0.001,0.003 -0.002,0.006 -0.005,0.009c-0.003,0.002 -0.006,0.003 -0.009,0.003l-0.112,0c-0.003,0 -0.006,-0.001 -0.008,-0.003c-0.002,-0.003 -0.003,-0.006 -0.002,-0.009l0.083,-0.676c0.001,-0.003 0.002,-0.006 0.005,-0.008c0.002,-0.003 0.005,-0.004 0.008,-0.004l0.127,0c0.006,0 0.01,0.003 0.011,0.01l0.074,0.387c0.001,0.002 0.002,0.003 0.004,0.003c0.001,-0.001 0.002,-0.002 0.002,-0.004l0.046,-0.384Z" style="fill-rule:nonzero;"/></g><g transform="matrix(12,0,0,12,596.523,357.376)"><path d="M0.206,0.008c-0.053,-0 -0.095,-0.014 -0.126,-0.043c-0.031,-0.029 -0.046,-0.068 -0.046,-0.117c-0,-0.006 0.001,-0.016 0.002,-0.029l0.041,-0.338c0.007,-0.057 0.03,-0.103 0.069,-0.137c0.04,-0.035 0.089,-0.052 0.148,-0.052c0.053,0 0.094,0.015 0.125,0.044c0.031,0.029 0.047,0.068 0.047,0.117c0,0.006 -0.001,0.016 -0.002,0.029l-0.004,0.038c-0.001,0.003 -0.002,0.006 -0.005,0.009c-0.003,0.002 -0.006,0.003 -0.009,0.003l-0.113,0c-0.003,0 -0.006,-0.001 -0.008,-0.003c-0.002,-0.003 -0.003,-0.006 -0.002,-0.009l0.005,-0.04c0.001,-0.003 0.001,-0.007 0.001,-0.012c0,-0.017 -0.005,-0.03 -0.014,-0.04c-0.009,-0.01 -0.021,-0.015 -0.036,-0.015c-0.017,0 -0.031,0.006 -0.043,0.019c-0.012,0.012 -0.019,0.028 -0.022,0.048l-0.042,0.34c-0.002,0.02 0.001,0.036 0.01,0.048c0.009,0.013 0.021,0.019 0.038,0.019c0.017,0 0.032,-0.006 0.044,-0.019c0.012,-0.012 0.019,-0.028 0.022,-0.048l0.01,-0.08c-0,-0.003 -0.001,-0.005 -0.004,-0.005l-0.043,0c-0.003,0 -0.006,-0.001 -0.008,-0.004c-0.002,-0.002 -0.003,-0.005 -0.002,-0.008l0.011,-0.089c0,-0.003 0.001,-0.006 0.004,-0.009c0.003,-0.002 0.006,-0.003 0.009,-0.003l0.172,0c0.007,0 0.011,0.004 0.011,0.012l-0.023,0.185c-0.007,0.057 -0.03,0.103 -0.07,0.138c-0.04,0.034 -0.089,0.051 -0.147,0.051Z" style="fill-rule:nonzero;"/></g><g transform="matrix(12,0,0,12,604.287,357.376)"><path d="M0.308,-0c-0.007,-0 -0.011,-0.004 -0.011,-0.011l-0.004,-0.096c0.001,-0.001 0,-0.003 -0.001,-0.004c-0.001,-0.001 -0.003,-0.001 -0.004,-0.001l-0.123,0c-0.004,0 -0.006,0.002 -0.006,0.005l-0.028,0.096c-0.002,0.007 -0.007,0.011 -0.014,0.011l-0.113,-0c-0.008,-0 -0.011,-0.004 -0.008,-0.013l0.225,-0.676c0.002,-0.007 0.007,-0.011 0.014,-0.011l0.131,0c0.007,0 0.011,0.004 0.012,0.011l0.058,0.676l0,0.003c0,0.007 -0.004,0.01 -0.011,0.01l-0.117,0Zm-0.115,-0.226c-0.001,0.003 -0,0.005 0.003,0.005l0.087,0c0.003,0 0.005,-0.002 0.005,-0.005l-0.012,-0.273c-0.001,-0.002 -0.002,-0.003 -0.003,-0.003c-0.001,0 -0.002,0.001 -0.003,0.003l-0.077,0.273Z" style="fill-rule:nonzero;"/></g><g transform="matrix(12,0,0,12,609.903,357.376)"><path d="M0.385,-0.688c0.001,-0.003 0.002,-0.006 0.005,-0.008c0.002,-0.003 0.005,-0.004 0.008,-0.004l0.113,0c0.003,0 0.006,0.001 0.008,0.004c0.002,0.002 0.003,0.005 0.002,0.008l-0.083,0.676c-0.001,0.003 -0.002,0.006 -0.005,0.009c-0.002,0.002 -0.005,0.003 -0.008,0.003l-0.128,0c-0.006,0 -0.01,-0.003 -0.012,-0.01l-0.072,-0.387c-0.001,-0.002 -0.002,-0.003 -0.003,-0.003c-0.002,0.001 -0.003,0.002 -0.003,0.004l-0.046,0.384c-0.001,0.003 -0.002,0.006 -0.005,0.009c-0.003,0.002 -0.006,0.003 -0.009,0.003l-0.112,0c-0.003,0 -0.006,-0.001 -0.008,-0.003c-0.002,-0.003 -0.003,-0.006 -0.002,-0.009l0.083,-0.676c0.001,-0.003 0.002,-0.006 0.005,-0.008c0.002,-0.003 0.005,-0.004 0.008,-0.004l0.127,0c0.006,0 0.01,0.003 0.011,0.01l0.074,0.387c0.001,0.002 0.002,0.003 0.004,0.003c0.001,-0.001 0.002,-0.002 0.002,-0.004l0.046,-0.384Z" style="fill-rule:nonzero;"/></g><g transform="matrix(12,0,0,12,615.891,357.376)"><path d="M0.035,-0c-0.003,-0 -0.006,-0.001 -0.008,-0.004c-0.002,-0.002 -0.003,-0.005 -0.002,-0.008l0.083,-0.676c0.001,-0.003 0.002,-0.006 0.004,-0.008c0.003,-0.003 0.006,-0.004 0.009,-0.004l0.175,0c0.054,0 0.096,0.015 0.127,0.045c0.031,0.029 0.047,0.069 0.047,0.119c-0,0.007 -0.001,0.017 -0.002,0.03l-0.039,0.312c-0.007,0.059 -0.031,0.106 -0.071,0.141c-0.039,0.035 -0.089,0.053 -0.148,0.053l-0.175,-0Zm0.141,-0.126c-0.001,0.003 -0,0.005 0.004,0.005l0.044,-0.001c0.017,-0.001 0.032,-0.008 0.045,-0.023c0.013,-0.015 0.022,-0.034 0.025,-0.058l0.036,-0.294c0.001,-0.004 0.001,-0.01 0.001,-0.017c-0,-0.02 -0.005,-0.036 -0.014,-0.047c-0.009,-0.012 -0.021,-0.018 -0.038,-0.018l-0.043,0c-0.003,0 -0.005,0.002 -0.005,0.005l-0.055,0.448Z" style="fill-rule:nonzero;"/></g><g transform="matrix(12,0,0,12,623.763,357.376)"><path d="M0.035,-0c-0.003,-0 -0.006,-0.001 -0.008,-0.004c-0.002,-0.002 -0.003,-0.005 -0.002,-0.008l0.083,-0.676c0.001,-0.003 0.002,-0.006 0.004,-0.008c0.003,-0.003 0.006,-0.004 0.009,-0.004l0.113,0c0.007,0 0.011,0.004 0.011,0.012l-0.083,0.676c-0.001,0.003 -0.002,0.006 -0.005,0.009c-0.003,0.002 -0.006,0.003 -0.009,0.003l-0.113,0Z" style="fill-rule:nonzero;"/></g><g transform="matrix(12,0,0,12,626.439,357.376)"><path d="M0.486,-0.7c0.003,0 0.006,0.001 0.008,0.004c0.002,0.002 0.003,0.005 0.002,0.008l-0.012,0.097c-0.001,0.003 -0.002,0.006 -0.005,0.009c-0.002,0.002 -0.005,0.003 -0.008,0.003l-0.122,0c-0.001,0 -0.003,0.001 -0.004,0.002c-0.001,0.001 -0.001,0.002 -0.001,0.003l-0.069,0.562c-0.001,0.003 -0.002,0.006 -0.004,0.009c-0.003,0.002 -0.006,0.003 -0.009,0.003l-0.114,0c-0.003,0 -0.006,-0.001 -0.008,-0.003c-0.002,-0.003 -0.003,-0.006 -0.002,-0.009l0.069,-0.562c0.001,-0.003 0,-0.005 -0.004,-0.005l-0.116,0c-0.007,0 -0.011,-0.004 -0.011,-0.012l0.012,-0.097c0.001,-0.003 0.002,-0.006 0.005,-0.008c0.002,-0.003 0.005,-0.004 0.008,-0.004l0.385,0Z" style="fill-rule:nonzero;"/></g></g><path d="M148.692,137.62c-0.861,-0.113 -1.609,-0.491 -2.245,-1.137c-0.636,-0.645 -1.085,-1.398 -1.347,-2.258c-0.336,-0.767 -0.505,-1.758 -0.505,-2.974c0,-1.253 0.187,-2.572 0.562,-3.956c0.224,-0.767 0.355,-1.384 0.392,-1.852c0.038,-0.131 0.365,-0.907 0.982,-2.329c0.711,-1.608 1.16,-2.674 1.347,-3.198c0.393,-0.86 1.099,-2.025 2.118,-3.493c1.02,-1.468 1.698,-2.334 2.034,-2.595c0.038,-0.038 0.15,-0.141 0.337,-0.309c0.187,-0.168 0.356,-0.271 0.505,-0.309c0.075,-0.187 0.22,-0.35 0.435,-0.491c0.215,-0.14 0.416,-0.21 0.603,-0.21c0.3,-0.168 0.627,-0.253 0.982,-0.253c0.318,0 0.599,0.085 0.842,0.253c0.243,0.168 0.411,0.43 0.505,0.786l0.056,0.336c0,0.112 -0.037,0.192 -0.112,0.239c-0.075,0.046 -0.262,0.145 -0.561,0.294c-0.243,0.094 -0.496,0.211 -0.758,0.351c-0.262,0.14 -0.449,0.276 -0.561,0.407c-0.168,0.224 -0.355,0.435 -0.561,0.631c-0.206,0.197 -0.365,0.332 -0.477,0.407c-0.337,0.131 -0.505,0.281 -0.505,0.449c-0.037,0.093 -0.14,0.294 -0.309,0.603c-0.168,0.309 -0.402,0.65 -0.701,1.024c-0.374,0.599 -0.627,1.02 -0.758,1.263c-0.093,0.168 -0.336,0.58 -0.729,1.234c-0.056,0.094 -0.159,0.281 -0.309,0.561c-0.149,0.281 -0.327,0.543 -0.533,0.786c0,0.093 -0.033,0.243 -0.098,0.449c-0.065,0.206 -0.173,0.421 -0.323,0.645c-0.112,0.412 -0.336,0.963 -0.673,1.655c-0.224,0.468 -0.463,1.109 -0.715,1.922c-0.253,0.814 -0.379,1.352 -0.379,1.614c-0.056,-0 -0.108,0.112 -0.155,0.336c-0.046,0.225 -0.098,0.608 -0.154,1.151l-0.14,1.01c-0.038,1.234 0.037,2.169 0.224,2.805c0.187,0.636 0.543,1.235 1.066,1.796c0.225,0.187 0.44,0.327 0.646,0.421c0.205,0.093 0.439,0.149 0.701,0.168l0.954,0.589c-0.112,0.412 -0.332,0.72 -0.659,0.926c-0.328,0.206 -0.669,0.29 -1.024,0.253Z" style="fill-rule:nonzero;"/><path d="M166.227,133.103c-0.243,-0 -0.43,-0.038 -0.561,-0.113c-0.15,-0.056 -0.341,-0.191 -0.575,-0.406c-0.234,-0.216 -0.44,-0.524 -0.617,-0.926c-0.178,-0.402 -0.267,-0.884 -0.267,-1.445c0,-0.356 0.023,-0.669 0.07,-0.94c0.047,-0.271 0.07,-0.444 0.07,-0.519c0,-0.094 -0.028,-0.141 -0.084,-0.141c-0.486,0 -1.543,0.889 -3.17,2.666c-0.056,0.037 -0.103,0.084 -0.141,0.14c-0.224,0.169 -0.43,0.346 -0.617,0.533c-0.28,0.262 -0.509,0.454 -0.687,0.575c-0.178,0.122 -0.37,0.192 -0.575,0.211c-0.131,-0 -0.272,-0.056 -0.421,-0.169l-0.309,-0.252c-0.093,-0.056 -0.178,-0.159 -0.252,-0.309c-0.075,-0.149 -0.113,-0.29 -0.113,-0.42l0,-0.141l0.646,-1.88c0.467,-1.028 0.701,-1.636 0.701,-1.823c0,-0.038 -0.009,-0.056 -0.028,-0.056c-0.168,-0.019 -0.416,0.126 -0.743,0.435c-0.328,0.308 -0.791,0.79 -1.389,1.444l-1.263,1.319c-0.149,0.15 -0.552,0.599 -1.206,1.347c-0.412,0.505 -0.627,0.757 -0.645,0.757c-0.412,0 -0.781,-0.159 -1.109,-0.477c-0.327,-0.318 -0.491,-0.701 -0.491,-1.15c0,-0.224 0.038,-0.524 0.113,-0.898c0.074,-0.374 0.159,-0.767 0.252,-1.178c0.037,-0.15 0.08,-0.318 0.126,-0.505c0.047,-0.187 0.098,-0.402 0.155,-0.645c0.037,-0.188 0.079,-0.393 0.126,-0.618c0.047,-0.224 0.145,-0.519 0.294,-0.883c0.15,-0.365 0.365,-0.875 0.646,-1.53c0.075,-0.243 0.112,-0.495 0.112,-0.757c-0,-0.131 -0.009,-0.257 -0.028,-0.379c-0.019,-0.121 -0.028,-0.201 -0.028,-0.238c-0,-0.281 0.135,-0.519 0.407,-0.716c0.271,-0.196 0.575,-0.294 0.912,-0.294c0.486,-0 0.851,0.173 1.094,0.519c0.243,0.346 0.364,0.706 0.364,1.08c0,0.318 -0.074,0.626 -0.224,0.926l-0.309,0.757c-0.074,0.169 -0.21,0.473 -0.406,0.912c-0.197,0.44 -0.295,0.706 -0.295,0.8c-0,0.056 0.019,0.084 0.056,0.084l0.028,-0c0.094,-0 0.243,-0.103 0.449,-0.309c0.599,-0.561 1.323,-1.145 2.174,-1.753c0.851,-0.608 1.464,-0.968 1.838,-1.08c0.15,-0 0.346,0.074 0.589,0.224c0.244,0.15 0.459,0.351 0.646,0.603c0.187,0.253 0.28,0.529 0.28,0.828l-0.028,0.224c-0.019,0.075 -0.098,0.393 -0.238,0.954c-0.141,0.561 -0.248,0.889 -0.323,0.982c0.355,-0.411 0.973,-0.921 1.852,-1.529c0.879,-0.608 1.524,-0.921 1.936,-0.94c0.617,0 1.019,0.253 1.206,0.758c0.187,0.505 0.318,1.244 0.393,2.216c0.075,0.917 0.178,1.534 0.309,1.852c0.037,0.112 0.168,0.206 0.392,0.281c0.225,0.074 0.407,0.163 0.547,0.266c0.141,0.103 0.211,0.304 0.211,0.603c-0,0.412 -0.183,0.702 -0.547,0.87c-0.365,0.168 -0.8,0.253 -1.305,0.253Z" style="fill-rule:nonzero;"/><path d="M177.197,123.339c0.169,0.337 0.253,0.72 0.253,1.15c-0,0.543 -0.122,0.992 -0.365,1.347c-0.187,0.262 -0.351,0.655 -0.491,1.178c-0.14,0.524 -0.276,1.225 -0.407,2.105c-0.168,0.71 -0.374,1.804 -0.617,3.282c-0.299,0.786 -0.486,1.375 -0.561,1.768c-0.019,0.112 -0.108,0.346 -0.267,0.701c-0.159,0.356 -0.285,0.636 -0.378,0.842c-0.842,1.702 -1.838,2.983 -2.988,3.844c-1.151,0.86 -2.325,1.328 -3.522,1.402c-0.299,0.038 -0.477,0.057 -0.533,0.057c-0.168,-0 -0.322,-0.029 -0.463,-0.085c-0.14,-0.056 -0.294,-0.131 -0.463,-0.224c-0.374,-0.262 -0.589,-0.449 -0.645,-0.561c-0.093,-0.187 -0.14,-0.374 -0.14,-0.561c-0,-0.281 0.131,-0.473 0.393,-0.576c0.262,-0.102 0.561,-0.154 0.897,-0.154c0.131,0.075 0.356,0.112 0.674,0.112c0.318,0 0.505,-0.037 0.561,-0.112c0.037,-0.037 0.15,-0.098 0.337,-0.182c0.187,-0.084 0.402,-0.154 0.645,-0.211c0.617,-0.299 1.089,-0.598 1.417,-0.897c0.327,-0.3 0.687,-0.777 1.08,-1.431c0.468,-0.711 0.776,-1.356 0.926,-1.936c0.243,-0.617 0.533,-1.534 0.87,-2.75l-0.028,0.028c-0.094,0.113 -0.328,0.276 -0.702,0.491c-0.374,0.215 -0.598,0.323 -0.673,0.323c-0.019,-0 -0.047,0.009 -0.084,0.028c-0.038,0.019 -0.056,0.056 -0.056,0.112c-0,0.075 -0.244,0.192 -0.73,0.351c-0.486,0.159 -0.795,0.238 -0.926,0.238c-0.187,0 -0.388,-0.102 -0.603,-0.308c-0.215,-0.206 -0.369,-0.393 -0.463,-0.561c-0.075,-0.169 -0.215,-0.337 -0.421,-0.505c-0.224,-0.225 -0.393,-0.426 -0.505,-0.604c-0.112,-0.177 -0.168,-0.388 -0.168,-0.631c-0,-0.131 0.009,-0.234 0.028,-0.308c0.224,-0.842 0.64,-2.137 1.248,-3.886c0.608,-1.749 1.053,-2.839 1.333,-3.269c0.075,-0.112 0.215,-0.206 0.421,-0.281c0.206,-0.074 0.411,-0.112 0.617,-0.112c0.374,0 0.627,0.112 0.758,0.337c0.224,0.318 0.336,0.589 0.336,0.814c0,0.261 -0.131,0.645 -0.392,1.15c-0.075,0.206 -0.169,0.43 -0.281,0.673c-0.112,0.243 -0.168,0.393 -0.168,0.449c-0.019,0.075 -0.075,0.304 -0.169,0.688c-0.093,0.383 -0.177,0.575 -0.252,0.575c-0.112,0.112 -0.239,0.5 -0.379,1.164c-0.14,0.664 -0.21,1.192 -0.21,1.585c-0,0.225 0.028,0.337 0.084,0.337c0.505,-0 0.991,-0.136 1.459,-0.407c0.467,-0.271 0.954,-0.706 1.459,-1.305c0.075,-0.467 0.182,-0.972 0.322,-1.515c0.141,-0.542 0.239,-0.907 0.295,-1.094c0.337,-1.159 0.561,-2.095 0.673,-2.805c0.113,-0.262 0.197,-0.417 0.253,-0.463c0.056,-0.047 0.178,-0.071 0.365,-0.071c0.224,0 0.472,0.066 0.743,0.197c0.271,0.131 0.472,0.29 0.603,0.477Z" style="fill-rule:nonzero;"/><path d="M196.304,125.499c0.056,0.131 0.084,0.281 0.084,0.449c0,0.486 -0.309,1.3 -0.926,2.441c-0.318,0.58 -0.683,1.136 -1.094,1.669c-0.412,0.533 -0.804,0.978 -1.178,1.333c-0.131,0.075 -0.295,0.197 -0.491,0.365c-0.197,0.168 -0.37,0.346 -0.519,0.533c-0.375,0.337 -0.833,0.589 -1.375,0.757c-0.543,0.169 -1.104,0.253 -1.684,0.253c-0.598,-0 -1.131,-0.089 -1.599,-0.267c-0.467,-0.177 -0.767,-0.416 -0.898,-0.715c0,-0.112 -0.014,-0.234 -0.042,-0.365c-0.028,-0.131 -0.033,-0.224 -0.014,-0.28c-0.206,-0 -0.425,-0.024 -0.659,-0.07c-0.234,-0.047 -0.36,-0.099 -0.379,-0.155c0.019,-0.561 0.084,-0.944 0.197,-1.15c-0,-0.094 0.074,-0.346 0.224,-0.758c0.112,-0.299 0.187,-0.533 0.224,-0.701c0.038,-0.15 0.122,-0.575 0.253,-1.277c0.131,-0.701 0.327,-1.36 0.589,-1.978c0.486,-1.72 0.889,-2.946 1.207,-3.675c0.243,-0.935 0.472,-1.674 0.687,-2.217c0.215,-0.542 0.5,-1.197 0.856,-1.963l0.421,-0.87c0.056,-0.112 0.196,-0.505 0.42,-1.179c0.094,-0.187 0.225,-0.332 0.393,-0.435c0.168,-0.102 0.346,-0.154 0.533,-0.154c0.225,0 0.421,0.084 0.589,0.253c0.038,0.037 0.117,0.117 0.239,0.238c0.121,0.122 0.21,0.243 0.266,0.365c0.057,0.121 0.085,0.257 0.085,0.407c-0,0.411 -0.187,1.075 -0.562,1.992c-0.149,0.187 -0.317,0.542 -0.505,1.066c-0.187,0.524 -0.308,0.87 -0.364,1.038c-0.43,1.029 -0.814,2.067 -1.151,3.114c-0.131,0.468 -0.299,0.964 -0.505,1.487c-0.205,0.524 -0.336,0.87 -0.392,1.038l0.757,-0.813c0.617,-0.543 1.347,-0.996 2.189,-1.361c0.841,-0.365 1.533,-0.547 2.076,-0.547c0.411,-0 0.823,0.201 1.234,0.603c0.412,0.402 0.683,0.912 0.814,1.529Zm-3.367,2.638c0.318,-0.412 0.571,-0.828 0.758,-1.249c0.187,-0.421 0.28,-0.79 0.28,-1.108c0,-0.169 -0.047,-0.253 -0.14,-0.253c-0.094,0 -0.421,0.112 -0.982,0.337c-0.561,0.224 -0.907,0.402 -1.038,0.533c-0,0.056 -0.047,0.108 -0.14,0.154c-0.094,0.047 -0.159,0.08 -0.197,0.099c-0.617,0.467 -1.057,0.813 -1.319,1.038c-0.261,0.224 -0.495,0.467 -0.701,0.729l-0.365,0.477c-0.168,0.206 -0.467,0.636 -0.898,1.291c-0.243,0.467 -0.439,0.795 -0.589,0.982l0.449,0.028c0.487,-0.038 0.786,-0.056 0.898,-0.056c0.337,-0 0.627,-0.028 0.87,-0.085c0.243,-0.056 0.533,-0.187 0.87,-0.392c0.579,-0.468 1.197,-1.141 1.851,-2.02l0.393,-0.505Z" style="fill-rule:nonzero;"/><path d="M198.745,134.056c-0.056,0.019 -0.131,0.029 -0.225,0.029c-0.392,-0 -0.72,-0.225 -0.982,-0.674c-0.262,-0.449 -0.392,-1.019 -0.392,-1.711c-0,-0.374 0.037,-0.739 0.112,-1.094c0.206,-0.543 0.308,-0.936 0.308,-1.179c0.057,-0.355 0.248,-0.996 0.576,-1.922c0.327,-0.926 0.537,-1.482 0.631,-1.669c0.075,-0 0.14,-0.061 0.196,-0.182c0.056,-0.122 0.084,-0.258 0.084,-0.407c0,-0.169 0.033,-0.342 0.099,-0.519c0.065,-0.178 0.135,-0.304 0.21,-0.379c0,-0.056 0.023,-0.159 0.07,-0.309c0.047,-0.149 0.07,-0.252 0.07,-0.308c0,-0.038 0.024,-0.108 0.07,-0.211c0.047,-0.103 0.071,-0.182 0.071,-0.238c0.299,-0.58 0.823,-1.885 1.571,-3.914c0.748,-2.03 1.122,-3.157 1.122,-3.381c0,-0.15 0.056,-0.29 0.168,-0.421c0.113,-0.131 0.244,-0.196 0.393,-0.196c0.056,-0.056 0.178,-0.098 0.365,-0.127c0.187,-0.028 0.337,-0.042 0.449,-0.042l0.449,0.449c0.205,0.187 0.364,0.356 0.477,0.505c0.112,0.15 0.168,0.328 0.168,0.533c0,0.337 -0.061,0.669 -0.182,0.996c-0.122,0.328 -0.473,1.099 -1.052,2.315c-0.038,0.094 -0.187,0.43 -0.449,1.01c-0.187,0.374 -0.281,0.589 -0.281,0.645c0,0.057 -0.037,0.173 -0.112,0.351c-0.075,0.178 -0.14,0.36 -0.197,0.547c-0.149,0.3 -0.388,0.828 -0.715,1.585c-0.327,0.758 -0.491,1.174 -0.491,1.249c0,0.206 -0.047,0.355 -0.14,0.449c-0.056,-0 -0.094,0.042 -0.112,0.126c-0.019,0.084 -0.029,0.145 -0.029,0.183c0,0.187 -0.149,0.682 -0.448,1.487l-0.253,0.813c-0.355,1.216 -0.603,2.104 -0.743,2.666c-0.141,0.561 -0.211,1.038 -0.211,1.43c0,0.412 -0.065,0.749 -0.196,1.01c-0.131,0.262 -0.281,0.431 -0.449,0.505Z" style="fill-rule:nonzero;"/><path d="M204.468,133.551c-0.224,0 -0.402,-0.037 -0.533,-0.112c-0.131,-0.075 -0.318,-0.215 -0.561,-0.421c-0.374,-0.392 -0.664,-0.799 -0.87,-1.22c-0.205,-0.421 -0.28,-0.79 -0.224,-1.108c0.056,-0.131 0.079,-0.262 0.07,-0.393c-0.009,-0.131 -0.014,-0.215 -0.014,-0.253c-0.075,-0.074 -0.112,-0.126 -0.112,-0.154c-0,-0.028 0.019,-0.056 0.056,-0.084c0.037,-0.028 0.065,-0.061 0.084,-0.098c0.112,-0 0.15,-0.103 0.112,-0.309c-0.037,-0.15 0.028,-0.477 0.197,-0.982c0.168,-0.505 0.383,-0.973 0.645,-1.403c0.206,-0.336 0.51,-0.757 0.912,-1.262c0.402,-0.505 0.762,-0.889 1.08,-1.151c0.935,-0.804 1.777,-1.29 2.525,-1.459c0.374,-0.093 0.739,-0.14 1.094,-0.14c0.543,0 0.964,0.15 1.263,0.449c0.411,0.168 0.711,0.412 0.898,0.73c0.187,0.318 0.308,0.738 0.364,1.262c0.019,0.112 0.029,0.299 0.029,0.561c-0,1.384 -0.524,2.825 -1.572,4.321c-0.43,0.617 -0.86,1.113 -1.29,1.487c-0.43,0.374 -0.954,0.748 -1.571,1.122c-0.337,0.225 -0.692,0.374 -1.067,0.449c-0.374,0.075 -0.879,0.131 -1.515,0.168Zm2.862,-3.422c0.356,-0.318 0.613,-0.641 0.772,-0.968c0.159,-0.328 0.388,-0.903 0.687,-1.726c0.112,-0.168 0.168,-0.505 0.168,-1.01c0,-0.449 -0.065,-0.701 -0.196,-0.757c-0.093,-0.075 -0.206,-0.113 -0.337,-0.113c-0.168,0 -0.439,0.131 -0.813,0.393c-0.655,0.561 -1.202,1.146 -1.642,1.754c-0.439,0.608 -0.743,1.304 -0.911,2.09c-0.019,0.075 -0.029,0.187 -0.029,0.337c0,0.636 0.225,0.953 0.674,0.953c0.43,0 0.972,-0.317 1.627,-0.953Z" style="fill-rule:nonzero;"/><path d="M215.102,139.219c-0.543,-0 -1.085,-0.145 -1.627,-0.435c-0.543,-0.29 -0.992,-0.65 -1.347,-1.08c-0.356,-0.43 -0.533,-0.823 -0.533,-1.179c-0,-0.355 0.075,-0.612 0.224,-0.771c0.15,-0.159 0.337,-0.239 0.561,-0.239c0.169,0 0.346,0.071 0.533,0.211c0.187,0.14 0.403,0.341 0.646,0.603c0.243,0.243 0.458,0.435 0.645,0.575c0.187,0.141 0.365,0.211 0.533,0.211c0.636,-0 1.122,-0.402 1.459,-1.207c0.337,-0.804 0.683,-1.945 1.038,-3.423l0.393,-1.683l0.056,-0.196c0,-0.019 -0.009,-0.024 -0.028,-0.015c-0.019,0.01 -0.037,0.005 -0.056,-0.014c-0.299,0.225 -0.889,0.477 -1.768,0.758c-0.879,0.281 -1.618,0.421 -2.216,0.421c-0.356,-0 -0.669,-0.187 -0.94,-0.561c-0.271,-0.374 -0.407,-0.861 -0.407,-1.459l0,-0.169c0.038,-0.074 0.253,-0.636 0.645,-1.683c0.393,-1.047 0.683,-1.552 0.87,-1.515c0.056,-0 0.145,-0.108 0.267,-0.323c0.121,-0.215 0.182,-0.36 0.182,-0.435c0.019,-0.056 0.126,-0.163 0.323,-0.322c0.196,-0.159 0.35,-0.285 0.463,-0.379l0.729,-0.561c0.674,-0.617 1.272,-1.08 1.796,-1.389c0.523,-0.309 1,-0.482 1.431,-0.519l0.28,0.028c0.056,0 0.164,0.005 0.323,0.014c0.159,0.009 0.444,0.089 0.856,0.239c0.411,0.168 0.832,0.579 1.262,1.234c0.43,0.655 0.664,1.225 0.702,1.712c-0.038,0.43 -0.131,0.846 -0.281,1.248c-0.15,0.402 -0.299,0.603 -0.449,0.603c-0.262,0 -0.458,0.066 -0.589,0.197c-0.131,0.131 -0.253,0.346 -0.365,0.645c-0.206,0.43 -0.346,0.692 -0.421,0.786l-0.449,2.16l-0.392,1.796c-0.225,0.879 -0.459,1.627 -0.702,2.244c-0.093,0.673 -0.341,1.305 -0.743,1.894c-0.402,0.589 -0.87,1.061 -1.403,1.417c-0.533,0.355 -1.034,0.542 -1.501,0.561Zm-0.084,-9.68c0.355,0 0.893,-0.145 1.613,-0.435c0.72,-0.289 1.164,-0.556 1.333,-0.799c0.093,-0.112 0.276,-0.36 0.547,-0.744c0.271,-0.383 0.575,-0.678 0.912,-0.883c0.112,-0.057 0.219,-0.159 0.322,-0.309c0.103,-0.15 0.155,-0.29 0.155,-0.421l-0,-0.056c-0.019,-0.075 -0.075,-0.206 -0.169,-0.393c-0.093,-0.187 -0.229,-0.365 -0.407,-0.533c-0.177,-0.168 -0.378,-0.252 -0.603,-0.252c-0.187,0.037 -0.622,0.374 -1.304,1.01c-0.683,0.636 -1.319,1.309 -1.908,2.02c-0.59,0.711 -0.884,1.206 -0.884,1.487c-0,0.205 0.131,0.308 0.393,0.308Z" style="fill-rule:nonzero;"/><path d="M222.144,137.536c-0.355,-0.094 -0.701,-0.295 -1.038,-0.604c-0.337,-0.308 -0.514,-0.603 -0.533,-0.883c-0,-0.038 0.005,-0.15 0.014,-0.337c0.009,-0.187 0.051,-0.337 0.126,-0.449c0.019,0.019 0.061,0.042 0.126,0.07c0.066,0.028 0.164,0.042 0.295,0.042c0.15,0 0.281,-0.019 0.393,-0.056c0.355,0.019 0.631,-0.014 0.827,-0.098c0.197,-0.084 0.435,-0.295 0.716,-0.631l0.505,-0.646c0.43,-0.505 0.683,-0.86 0.757,-1.066c0.262,-0.187 0.459,-0.36 0.59,-0.519c0.131,-0.159 0.271,-0.36 0.421,-0.603c-0,-0.412 0.168,-0.889 0.505,-1.431c0.243,-0.524 0.42,-0.879 0.533,-1.066c0.224,-0.449 0.336,-0.702 0.336,-0.758c0.019,-0.037 0.052,-0.121 0.098,-0.252c0.047,-0.131 0.061,-0.271 0.043,-0.421c0.112,-0.056 0.21,-0.182 0.294,-0.379c0.084,-0.196 0.117,-0.397 0.098,-0.603c0.019,-0.075 0.108,-0.304 0.267,-0.687c0.159,-0.384 0.248,-0.763 0.266,-1.137c0.3,-0.954 0.496,-1.795 0.59,-2.525c0.093,-0.729 0.187,-1.889 0.28,-3.479l0.056,-1.487c0.019,-0.243 0.028,-0.533 0.028,-0.87c0,-0.28 -0.018,-0.5 -0.056,-0.659c-0.037,-0.159 -0.112,-0.332 -0.224,-0.519c-0.187,-0.599 -0.346,-0.898 -0.477,-0.898c-0.038,0 -0.075,-0.051 -0.112,-0.154c-0.038,-0.103 -0.056,-0.239 -0.056,-0.407c-0,-0.168 0.028,-0.337 0.084,-0.505c-0.019,-0.075 0.117,-0.159 0.407,-0.253c0.289,-0.093 0.519,-0.13 0.687,-0.112c0.112,0 0.248,0.052 0.407,0.155c0.159,0.102 0.276,0.191 0.35,0.266c0.131,-0.131 0.421,0.421 0.87,1.655c0.169,0.375 0.276,0.655 0.323,0.842c0.047,0.187 0.07,0.449 0.07,0.786l-0.056,1.178l-0.056,0.926c-0.019,0.935 -0.103,1.992 -0.253,3.17c-0.149,1.179 -0.327,2.264 -0.533,3.255c-0.243,0.973 -0.669,2.24 -1.276,3.802c-0.608,1.561 -1.053,2.567 -1.333,3.016c0.075,-0.019 -0.243,0.486 -0.954,1.515l-1.094,1.683c-0.449,0.617 -1.02,1.155 -1.712,1.613c-0.692,0.459 -1.225,0.632 -1.599,0.52Z" style="fill-rule:nonzero;"/></svg>