<?xml version="1.0" encoding="UTF-8" standalone="no"?><!DOCTYPE svg PUBLIC "-//W3C//DTD SVG 1.1//EN" "http://www.w3.org/Graphics/SVG/1.1/DTD/svg11.dtd"><svg width="100%" height="100%" viewBox="0 0 70 30" version="1.1" xmlns="http://www.w3.org/2000/svg" xmlns:xlink="http://www.w3.org/1999/xlink" xml:space="preserve" xmlns:serif="http://www.serif.com/" style="fill-rule:evenodd;clip-rule:evenodd;stroke-linejoin:round;stroke-miterlimit:2;"><path d="M35.349,22.964c4.808,3.992 9.953,6.162 15.396,6.232c5.328,0.068 11.048,-1.881 17.094,-6.619c1.948,-1.526 2.29,-4.347 0.763,-6.295c-1.527,-1.948 -4.347,-2.29 -6.295,-0.763c-4.083,3.199 -7.849,4.756 -11.447,4.71c-3.484,-0.045 -6.704,-1.61 -9.782,-4.165c-1.904,-1.581 -4.733,-1.318 -6.314,0.586c-1.581,1.904 -1.319,4.733 0.585,6.314Z" style="fill:#007aff;"/><path d="M48.866,7.668l-0.269,-2.968c-0.246,-2.72 -2.654,-4.728 -5.374,-4.482c-2.719,0.246 -4.727,2.654 -4.481,5.374l0.269,2.968c0.246,2.72 2.654,4.728 5.373,4.481c2.72,-0.246 4.728,-2.654 4.482,-5.373Z" style="fill:#007aff;"/><path d="M63.297,6.537l0.088,-1.24c0.192,-2.724 -1.863,-5.092 -4.587,-5.284c-2.724,-0.193 -5.092,1.862 -5.284,4.586l-0.088,1.24c-0.192,2.724 1.863,5.092 4.587,5.285c2.724,0.192 5.091,-1.863 5.284,-4.587Z" style="fill:#007aff;"/><path d="M5.272,24.685c-1.578,-0 -2.851,-0.462 -3.819,-1.386c-0.969,-0.923 -1.453,-2.147 -1.453,-3.672l0,-1.856c0,-0.089 0.031,-0.166 0.094,-0.228c0.063,-0.063 0.139,-0.095 0.229,-0.095l3.147,0c0.09,0 0.166,0.032 0.229,0.095c0.063,0.062 0.094,0.139 0.094,0.228l-0,1.91c-0,0.52 0.134,0.942 0.403,1.264c0.269,0.323 0.628,0.485 1.076,0.485c0.467,-0 0.839,-0.162 1.117,-0.485c0.278,-0.322 0.417,-0.744 0.417,-1.264l-0,-13.719c-0,-0.089 0.031,-0.166 0.094,-0.228c0.063,-0.063 0.139,-0.095 0.229,-0.095l3.147,0c0.089,0 0.166,0.032 0.228,0.095c0.063,0.062 0.095,0.139 0.095,0.228l-0,13.665c-0,1.525 -0.489,2.749 -1.466,3.672c-0.978,0.924 -2.265,1.386 -3.861,1.386Z" style="fill-rule:nonzero;"/><path d="M16.328,24.469c-0.197,0 -0.314,-0.098 -0.349,-0.296l-3.632,-18.184l-0.027,-0.108c0,-0.161 0.099,-0.242 0.296,-0.242l3.282,0c0.215,0 0.332,0.099 0.35,0.296l1.533,9.684c0.018,0.072 0.045,0.108 0.081,0.108c0.035,-0 0.062,-0.036 0.08,-0.108l1.453,-9.684c0.018,-0.197 0.134,-0.296 0.35,-0.296l2.717,0c0.215,0 0.331,0.099 0.349,0.296l1.587,9.684c0.018,0.072 0.045,0.108 0.081,0.108c0.036,-0 0.063,-0.036 0.081,-0.108l1.372,-9.684c0.018,-0.197 0.134,-0.296 0.349,-0.296l3.175,0c0.233,0 0.331,0.117 0.295,0.35l-3.416,18.184c-0.018,0.198 -0.134,0.296 -0.35,0.296l-2.905,0c-0.215,0 -0.332,-0.098 -0.349,-0.296l-1.588,-9.953c-0.018,-0.071 -0.044,-0.107 -0.08,-0.107c-0.036,-0 -0.063,0.036 -0.081,0.107l-1.426,9.953c-0.018,0.198 -0.134,0.296 -0.349,0.296l-2.879,0Z" style="fill-rule:nonzero;"/></svg>