<?xml version="1.0" encoding="UTF-8" standalone="no"?>
<!DOCTYPE svg PUBLIC "-//W3C//DTD SVG 1.1//EN" "http://www.w3.org/Graphics/SVG/1.1/DTD/svg11.dtd">
<svg width="100%" height="100%" viewBox="0 0 338 97" version="1.1" xmlns="http://www.w3.org/2000/svg" xmlns:xlink="http://www.w3.org/1999/xlink" xml:space="preserve" xmlns:serif="http://www.serif.com/" style="fill-rule:evenodd;clip-rule:evenodd;stroke-linejoin:round;stroke-miterlimit:2;">
    <g transform="matrix(1,0,0,1,-2085.97,-206.737)">
        <g transform="matrix(0.989556,0,0,0.985447,1573.06,12.8469)">
            <g transform="matrix(4.71251,0,0,4.73216,-2038.38,-1397.42)">
                <g transform="matrix(12,0,0,12,542.127,345.376)">
                    <path d="M0.446,-0.193C0.446,-0.131 0.427,-0.083 0.39,-0.05C0.353,-0.017 0.304,-0 0.245,-0L0.056,-0C0.053,-0 0.05,-0.001 0.048,-0.004C0.045,-0.006 0.044,-0.009 0.044,-0.012L0.044,-0.688C0.044,-0.691 0.045,-0.694 0.048,-0.697C0.05,-0.699 0.053,-0.7 0.056,-0.7L0.223,-0.7C0.29,-0.7 0.342,-0.684 0.38,-0.652C0.417,-0.62 0.436,-0.572 0.436,-0.509C0.436,-0.443 0.413,-0.395 0.368,-0.365C0.365,-0.363 0.365,-0.361 0.367,-0.359C0.42,-0.322 0.446,-0.266 0.446,-0.193ZM0.19,-0.579C0.187,-0.579 0.185,-0.577 0.185,-0.574L0.185,-0.417C0.185,-0.414 0.187,-0.412 0.19,-0.412L0.226,-0.412C0.249,-0.412 0.266,-0.419 0.279,-0.434C0.292,-0.448 0.298,-0.468 0.298,-0.494C0.298,-0.521 0.292,-0.542 0.28,-0.557C0.267,-0.572 0.249,-0.579 0.226,-0.579L0.19,-0.579ZM0.234,-0.122C0.256,-0.122 0.273,-0.13 0.286,-0.146C0.299,-0.162 0.305,-0.185 0.305,-0.214C0.305,-0.243 0.299,-0.267 0.286,-0.284C0.273,-0.301 0.256,-0.31 0.235,-0.31L0.19,-0.31C0.187,-0.31 0.185,-0.308 0.185,-0.305L0.185,-0.127C0.185,-0.124 0.187,-0.122 0.19,-0.122L0.234,-0.122Z" style="fill-rule:nonzero;"/>
                </g>
                <g transform="matrix(12,0,0,12,547.767,345.376)">
                    <path d="M0.24,0.008C0.18,0.008 0.132,-0.011 0.096,-0.049C0.059,-0.086 0.041,-0.136 0.041,-0.199L0.041,-0.688C0.041,-0.691 0.042,-0.694 0.045,-0.697C0.047,-0.699 0.05,-0.7 0.053,-0.7L0.17,-0.7C0.173,-0.7 0.176,-0.699 0.179,-0.697C0.181,-0.694 0.182,-0.691 0.182,-0.688L0.182,-0.185C0.182,-0.164 0.187,-0.146 0.198,-0.133C0.209,-0.12 0.223,-0.113 0.24,-0.113C0.257,-0.113 0.271,-0.12 0.281,-0.133C0.292,-0.146 0.297,-0.164 0.297,-0.185L0.297,-0.688C0.297,-0.691 0.298,-0.694 0.301,-0.697C0.303,-0.699 0.306,-0.7 0.309,-0.7L0.426,-0.7C0.429,-0.7 0.432,-0.699 0.435,-0.697C0.437,-0.694 0.438,-0.691 0.438,-0.688L0.438,-0.199C0.438,-0.136 0.42,-0.086 0.384,-0.049C0.347,-0.011 0.299,0.008 0.24,0.008Z" style="fill-rule:nonzero;"/>
                </g>
                <g transform="matrix(12,0,0,12,553.515,345.376)">
                    <path d="M0.056,-0C0.053,-0 0.05,-0.001 0.048,-0.004C0.045,-0.006 0.044,-0.009 0.044,-0.012L0.044,-0.688C0.044,-0.691 0.045,-0.694 0.048,-0.697C0.05,-0.699 0.053,-0.7 0.056,-0.7L0.173,-0.7C0.176,-0.7 0.179,-0.699 0.182,-0.697C0.184,-0.694 0.185,-0.691 0.185,-0.688L0.185,-0.012C0.185,-0.009 0.184,-0.006 0.182,-0.004C0.179,-0.001 0.176,-0 0.173,-0L0.056,-0Z" style="fill-rule:nonzero;"/>
                </g>
                <g transform="matrix(12,0,0,12,556.275,345.376)">
                    <path d="M0.056,-0C0.053,-0 0.05,-0.001 0.048,-0.004C0.045,-0.006 0.044,-0.009 0.044,-0.012L0.044,-0.688C0.044,-0.691 0.045,-0.694 0.048,-0.697C0.05,-0.699 0.053,-0.7 0.056,-0.7L0.173,-0.7C0.176,-0.7 0.179,-0.699 0.182,-0.697C0.184,-0.694 0.185,-0.691 0.185,-0.688L0.185,-0.126C0.185,-0.123 0.187,-0.121 0.19,-0.121L0.4,-0.121C0.403,-0.121 0.406,-0.12 0.408,-0.117C0.411,-0.115 0.412,-0.112 0.412,-0.109L0.412,-0.012C0.412,-0.009 0.411,-0.006 0.408,-0.004C0.406,-0.001 0.403,-0 0.4,-0L0.056,-0Z" style="fill-rule:nonzero;"/>
                </g>
                <g transform="matrix(12,0,0,12,561.387,345.376)">
                    <path d="M0.056,-0C0.053,-0 0.05,-0.001 0.048,-0.004C0.045,-0.006 0.044,-0.009 0.044,-0.012L0.044,-0.688C0.044,-0.691 0.045,-0.694 0.048,-0.697C0.05,-0.699 0.053,-0.7 0.056,-0.7L0.237,-0.7C0.298,-0.7 0.346,-0.682 0.383,-0.647C0.42,-0.612 0.438,-0.565 0.438,-0.506L0.438,-0.194C0.438,-0.135 0.42,-0.088 0.383,-0.053C0.346,-0.018 0.298,-0 0.237,-0L0.056,-0ZM0.185,-0.126C0.185,-0.123 0.187,-0.121 0.19,-0.121L0.235,-0.122C0.253,-0.123 0.268,-0.13 0.279,-0.145C0.29,-0.16 0.296,-0.179 0.297,-0.203L0.297,-0.497C0.297,-0.522 0.291,-0.542 0.28,-0.557C0.269,-0.572 0.253,-0.579 0.234,-0.579L0.19,-0.579C0.187,-0.579 0.185,-0.577 0.185,-0.574L0.185,-0.126Z" style="fill-rule:nonzero;"/>
                </g>
                <g transform="matrix(12,0,0,12,567.099,345.376)">
                    <path d="M0.056,-0C0.053,-0 0.05,-0.001 0.048,-0.004C0.045,-0.006 0.044,-0.009 0.044,-0.012L0.044,-0.688C0.044,-0.691 0.045,-0.694 0.048,-0.697C0.05,-0.699 0.053,-0.7 0.056,-0.7L0.173,-0.7C0.176,-0.7 0.179,-0.699 0.182,-0.697C0.184,-0.694 0.185,-0.691 0.185,-0.688L0.185,-0.012C0.185,-0.009 0.184,-0.006 0.182,-0.004C0.179,-0.001 0.176,-0 0.173,-0L0.056,-0Z" style="fill-rule:nonzero;"/>
                </g>
                <g transform="matrix(12,0,0,12,569.859,345.376)">
                    <path d="M0.33,-0.688C0.33,-0.691 0.331,-0.694 0.334,-0.697C0.336,-0.699 0.339,-0.7 0.342,-0.7L0.458,-0.7C0.461,-0.7 0.464,-0.699 0.467,-0.697C0.469,-0.694 0.47,-0.691 0.47,-0.688L0.47,-0.012C0.47,-0.009 0.469,-0.006 0.467,-0.004C0.464,-0.001 0.461,-0 0.458,-0L0.326,-0C0.319,-0 0.315,-0.003 0.313,-0.01L0.189,-0.397C0.188,-0.399 0.187,-0.4 0.186,-0.4C0.184,-0.399 0.183,-0.398 0.183,-0.396L0.184,-0.012C0.184,-0.009 0.183,-0.006 0.181,-0.004C0.178,-0.001 0.175,-0 0.172,-0L0.056,-0C0.053,-0 0.05,-0.001 0.048,-0.004C0.045,-0.006 0.044,-0.009 0.044,-0.012L0.044,-0.688C0.044,-0.691 0.045,-0.694 0.048,-0.697C0.05,-0.699 0.053,-0.7 0.056,-0.7L0.187,-0.7C0.194,-0.7 0.198,-0.697 0.2,-0.69L0.325,-0.303C0.326,-0.301 0.327,-0.3 0.329,-0.301C0.33,-0.301 0.331,-0.302 0.331,-0.304L0.33,-0.688Z" style="fill-rule:nonzero;"/>
                </g>
                <g transform="matrix(12,0,0,12,576.027,345.376)">
                    <path d="M0.233,0.008C0.173,0.008 0.125,-0.009 0.089,-0.043C0.052,-0.078 0.034,-0.124 0.034,-0.181L0.034,-0.519C0.034,-0.576 0.052,-0.622 0.089,-0.657C0.125,-0.691 0.173,-0.708 0.233,-0.708C0.293,-0.708 0.341,-0.691 0.378,-0.656C0.415,-0.621 0.433,-0.575 0.433,-0.518L0.433,-0.48C0.433,-0.477 0.432,-0.474 0.43,-0.471C0.427,-0.469 0.424,-0.468 0.421,-0.468L0.304,-0.468C0.301,-0.468 0.298,-0.469 0.296,-0.471C0.293,-0.474 0.292,-0.477 0.292,-0.48L0.292,-0.52C0.292,-0.54 0.287,-0.556 0.276,-0.569C0.265,-0.581 0.251,-0.587 0.233,-0.587C0.216,-0.587 0.202,-0.581 0.191,-0.569C0.18,-0.556 0.175,-0.54 0.175,-0.52L0.175,-0.18C0.175,-0.16 0.18,-0.144 0.191,-0.132C0.202,-0.119 0.216,-0.113 0.233,-0.113C0.251,-0.113 0.265,-0.119 0.276,-0.132C0.287,-0.144 0.292,-0.16 0.292,-0.18L0.292,-0.26C0.292,-0.263 0.29,-0.265 0.287,-0.265L0.243,-0.265C0.24,-0.265 0.237,-0.266 0.234,-0.269C0.232,-0.271 0.231,-0.274 0.231,-0.277L0.231,-0.366C0.231,-0.369 0.232,-0.372 0.234,-0.375C0.237,-0.377 0.24,-0.378 0.243,-0.378L0.421,-0.378C0.424,-0.378 0.427,-0.377 0.43,-0.375C0.432,-0.372 0.433,-0.369 0.433,-0.366L0.433,-0.181C0.433,-0.124 0.415,-0.078 0.378,-0.043C0.341,-0.009 0.293,0.008 0.233,0.008Z" style="fill-rule:nonzero;"/>
                </g>
                <g transform="matrix(12,0,0,12,584.031,345.376)">
                    <path d="M0.432,-0.7C0.435,-0.7 0.438,-0.699 0.441,-0.697C0.443,-0.694 0.444,-0.691 0.444,-0.688L0.444,-0.591C0.444,-0.588 0.443,-0.585 0.441,-0.583C0.438,-0.58 0.435,-0.579 0.432,-0.579L0.307,-0.579C0.304,-0.579 0.302,-0.577 0.302,-0.574L0.302,-0.012C0.302,-0.009 0.301,-0.006 0.299,-0.004C0.296,-0.001 0.293,-0 0.29,-0L0.173,-0C0.17,-0 0.167,-0.001 0.165,-0.004C0.162,-0.006 0.161,-0.009 0.161,-0.012L0.161,-0.574C0.161,-0.577 0.159,-0.579 0.156,-0.579L0.036,-0.579C0.033,-0.579 0.03,-0.58 0.028,-0.583C0.025,-0.585 0.024,-0.588 0.024,-0.591L0.024,-0.688C0.024,-0.691 0.025,-0.694 0.028,-0.697C0.03,-0.699 0.033,-0.7 0.036,-0.7L0.432,-0.7Z" style="fill-rule:nonzero;"/>
                </g>
                <g transform="matrix(12,0,0,12,589.647,345.376)">
                    <path d="M0.295,-0.688C0.295,-0.691 0.296,-0.694 0.299,-0.697C0.301,-0.699 0.304,-0.7 0.307,-0.7L0.424,-0.7C0.427,-0.7 0.43,-0.699 0.433,-0.697C0.435,-0.694 0.436,-0.691 0.436,-0.688L0.436,-0.012C0.436,-0.009 0.435,-0.006 0.433,-0.004C0.43,-0.001 0.427,-0 0.424,-0L0.307,-0C0.304,-0 0.301,-0.001 0.299,-0.004C0.296,-0.006 0.295,-0.009 0.295,-0.012L0.295,-0.285C0.295,-0.288 0.293,-0.29 0.29,-0.29L0.19,-0.29C0.187,-0.29 0.185,-0.288 0.185,-0.285L0.185,-0.012C0.185,-0.009 0.184,-0.006 0.182,-0.004C0.179,-0.001 0.176,-0 0.173,-0L0.056,-0C0.053,-0 0.05,-0.001 0.048,-0.004C0.045,-0.006 0.044,-0.009 0.044,-0.012L0.044,-0.688C0.044,-0.691 0.045,-0.694 0.048,-0.697C0.05,-0.699 0.053,-0.7 0.056,-0.7L0.173,-0.7C0.176,-0.7 0.179,-0.699 0.182,-0.697C0.184,-0.694 0.185,-0.691 0.185,-0.688L0.185,-0.416C0.185,-0.413 0.187,-0.411 0.19,-0.411L0.29,-0.411C0.293,-0.411 0.295,-0.413 0.295,-0.416L0.295,-0.688Z" style="fill-rule:nonzero;"/>
                </g>
                <g transform="matrix(12,0,0,12,595.407,345.376)">
                    <path d="M0.056,-0C0.053,-0 0.05,-0.001 0.048,-0.004C0.045,-0.006 0.044,-0.009 0.044,-0.012L0.044,-0.688C0.044,-0.691 0.045,-0.694 0.048,-0.697C0.05,-0.699 0.053,-0.7 0.056,-0.7L0.173,-0.7C0.176,-0.7 0.179,-0.699 0.182,-0.697C0.184,-0.694 0.185,-0.691 0.185,-0.688L0.185,-0.012C0.185,-0.009 0.184,-0.006 0.182,-0.004C0.179,-0.001 0.176,-0 0.173,-0L0.056,-0Z" style="fill-rule:nonzero;"/>
                </g>
                <g transform="matrix(12,0,0,12,598.167,345.376)">
                    <path d="M0.33,-0.688C0.33,-0.691 0.331,-0.694 0.334,-0.697C0.336,-0.699 0.339,-0.7 0.342,-0.7L0.458,-0.7C0.461,-0.7 0.464,-0.699 0.467,-0.697C0.469,-0.694 0.47,-0.691 0.47,-0.688L0.47,-0.012C0.47,-0.009 0.469,-0.006 0.467,-0.004C0.464,-0.001 0.461,-0 0.458,-0L0.326,-0C0.319,-0 0.315,-0.003 0.313,-0.01L0.189,-0.397C0.188,-0.399 0.187,-0.4 0.186,-0.4C0.184,-0.399 0.183,-0.398 0.183,-0.396L0.184,-0.012C0.184,-0.009 0.183,-0.006 0.181,-0.004C0.178,-0.001 0.175,-0 0.172,-0L0.056,-0C0.053,-0 0.05,-0.001 0.048,-0.004C0.045,-0.006 0.044,-0.009 0.044,-0.012L0.044,-0.688C0.044,-0.691 0.045,-0.694 0.048,-0.697C0.05,-0.699 0.053,-0.7 0.056,-0.7L0.187,-0.7C0.194,-0.7 0.198,-0.697 0.2,-0.69L0.325,-0.303C0.326,-0.301 0.327,-0.3 0.329,-0.301C0.33,-0.301 0.331,-0.302 0.331,-0.304L0.33,-0.688Z" style="fill-rule:nonzero;"/>
                </g>
                <g transform="matrix(12,0,0,12,604.335,345.376)">
                    <path d="M0.233,0.008C0.173,0.008 0.125,-0.009 0.089,-0.043C0.052,-0.078 0.034,-0.124 0.034,-0.181L0.034,-0.519C0.034,-0.576 0.052,-0.622 0.089,-0.657C0.125,-0.691 0.173,-0.708 0.233,-0.708C0.293,-0.708 0.341,-0.691 0.378,-0.656C0.415,-0.621 0.433,-0.575 0.433,-0.518L0.433,-0.48C0.433,-0.477 0.432,-0.474 0.43,-0.471C0.427,-0.469 0.424,-0.468 0.421,-0.468L0.304,-0.468C0.301,-0.468 0.298,-0.469 0.296,-0.471C0.293,-0.474 0.292,-0.477 0.292,-0.48L0.292,-0.52C0.292,-0.54 0.287,-0.556 0.276,-0.569C0.265,-0.581 0.251,-0.587 0.233,-0.587C0.216,-0.587 0.202,-0.581 0.191,-0.569C0.18,-0.556 0.175,-0.54 0.175,-0.52L0.175,-0.18C0.175,-0.16 0.18,-0.144 0.191,-0.132C0.202,-0.119 0.216,-0.113 0.233,-0.113C0.251,-0.113 0.265,-0.119 0.276,-0.132C0.287,-0.144 0.292,-0.16 0.292,-0.18L0.292,-0.26C0.292,-0.263 0.29,-0.265 0.287,-0.265L0.243,-0.265C0.24,-0.265 0.237,-0.266 0.234,-0.269C0.232,-0.271 0.231,-0.274 0.231,-0.277L0.231,-0.366C0.231,-0.369 0.232,-0.372 0.234,-0.375C0.237,-0.377 0.24,-0.378 0.243,-0.378L0.421,-0.378C0.424,-0.378 0.427,-0.377 0.43,-0.375C0.432,-0.372 0.433,-0.369 0.433,-0.366L0.433,-0.181C0.433,-0.124 0.415,-0.078 0.378,-0.043C0.341,-0.009 0.293,0.008 0.233,0.008Z" style="fill-rule:nonzero;"/>
                </g>
                <g transform="matrix(12,0,0,12,609.939,345.376)">
                    <path d="M0.224,0.008C0.185,0.008 0.151,0 0.122,-0.015C0.093,-0.03 0.07,-0.052 0.054,-0.08C0.038,-0.107 0.03,-0.139 0.03,-0.175L0.03,-0.204C0.03,-0.207 0.031,-0.21 0.034,-0.213C0.036,-0.215 0.039,-0.216 0.042,-0.216L0.157,-0.216C0.16,-0.216 0.163,-0.215 0.166,-0.213C0.168,-0.21 0.169,-0.207 0.169,-0.204L0.169,-0.182C0.169,-0.161 0.174,-0.145 0.185,-0.132C0.196,-0.119 0.209,-0.113 0.225,-0.113C0.241,-0.113 0.254,-0.119 0.265,-0.131C0.276,-0.143 0.281,-0.159 0.281,-0.178C0.281,-0.198 0.274,-0.215 0.261,-0.23C0.248,-0.244 0.222,-0.265 0.183,-0.293C0.15,-0.317 0.123,-0.338 0.102,-0.357C0.081,-0.376 0.064,-0.399 0.049,-0.426C0.034,-0.453 0.027,-0.485 0.027,-0.521C0.027,-0.578 0.045,-0.623 0.08,-0.657C0.115,-0.691 0.162,-0.708 0.22,-0.708C0.279,-0.708 0.326,-0.69 0.362,-0.655C0.397,-0.62 0.415,-0.573 0.415,-0.516L0.415,-0.492C0.415,-0.489 0.414,-0.486 0.411,-0.484C0.409,-0.481 0.406,-0.48 0.403,-0.48L0.288,-0.48C0.285,-0.48 0.282,-0.481 0.28,-0.484C0.277,-0.486 0.276,-0.489 0.276,-0.492L0.276,-0.519C0.276,-0.54 0.271,-0.556 0.261,-0.569C0.25,-0.581 0.237,-0.587 0.22,-0.587C0.204,-0.587 0.191,-0.581 0.181,-0.57C0.171,-0.558 0.166,-0.542 0.166,-0.521C0.166,-0.501 0.172,-0.483 0.185,-0.468C0.198,-0.453 0.223,-0.431 0.26,-0.404C0.301,-0.373 0.333,-0.348 0.354,-0.33C0.375,-0.311 0.391,-0.29 0.403,-0.267C0.414,-0.244 0.42,-0.216 0.42,-0.184C0.42,-0.125 0.402,-0.079 0.366,-0.044C0.33,-0.009 0.283,0.008 0.224,0.008Z" style="fill-rule:nonzero;"/>
                </g>
                <g transform="matrix(12,0,0,12,542.127,357.376)">
                    <path d="M0.233,0.008C0.173,0.008 0.125,-0.009 0.089,-0.043C0.052,-0.078 0.034,-0.124 0.034,-0.181L0.034,-0.519C0.034,-0.576 0.052,-0.622 0.089,-0.657C0.125,-0.691 0.173,-0.708 0.233,-0.708C0.293,-0.708 0.341,-0.691 0.378,-0.656C0.415,-0.621 0.433,-0.575 0.433,-0.518L0.433,-0.48C0.433,-0.477 0.432,-0.474 0.43,-0.471C0.427,-0.469 0.424,-0.468 0.421,-0.468L0.304,-0.468C0.301,-0.468 0.298,-0.469 0.296,-0.471C0.293,-0.474 0.292,-0.477 0.292,-0.48L0.292,-0.52C0.292,-0.54 0.287,-0.556 0.276,-0.569C0.265,-0.581 0.251,-0.587 0.233,-0.587C0.216,-0.587 0.202,-0.581 0.191,-0.569C0.18,-0.556 0.175,-0.54 0.175,-0.52L0.175,-0.18C0.175,-0.16 0.18,-0.144 0.191,-0.132C0.202,-0.119 0.216,-0.113 0.233,-0.113C0.251,-0.113 0.265,-0.119 0.276,-0.132C0.287,-0.144 0.292,-0.16 0.292,-0.18L0.292,-0.26C0.292,-0.263 0.29,-0.265 0.287,-0.265L0.243,-0.265C0.24,-0.265 0.237,-0.266 0.234,-0.269C0.232,-0.271 0.231,-0.274 0.231,-0.277L0.231,-0.366C0.231,-0.369 0.232,-0.372 0.234,-0.375C0.237,-0.377 0.24,-0.378 0.243,-0.378L0.421,-0.378C0.424,-0.378 0.427,-0.377 0.43,-0.375C0.432,-0.372 0.433,-0.369 0.433,-0.366L0.433,-0.181C0.433,-0.124 0.415,-0.078 0.378,-0.043C0.341,-0.009 0.293,0.008 0.233,0.008Z" style="fill-rule:nonzero;"/>
                </g>
                <g transform="matrix(12,0,0,12,547.731,357.376)">
                    <path d="M0.056,-0C0.053,-0 0.05,-0.001 0.048,-0.004C0.045,-0.006 0.044,-0.009 0.044,-0.012L0.044,-0.688C0.044,-0.691 0.045,-0.694 0.048,-0.697C0.05,-0.699 0.053,-0.7 0.056,-0.7L0.173,-0.7C0.176,-0.7 0.179,-0.699 0.182,-0.697C0.184,-0.694 0.185,-0.691 0.185,-0.688L0.185,-0.012C0.185,-0.009 0.184,-0.006 0.182,-0.004C0.179,-0.001 0.176,-0 0.173,-0L0.056,-0Z" style="fill-rule:nonzero;"/>
                </g>
                <g transform="matrix(12,0,0,12,550.491,357.376)">
                    <path d="M0.179,-0C0.172,-0 0.167,-0.004 0.166,-0.011L0.023,-0.687L0.022,-0.691C0.022,-0.697 0.026,-0.7 0.033,-0.7L0.162,-0.7C0.17,-0.7 0.174,-0.696 0.175,-0.689L0.244,-0.249C0.245,-0.246 0.246,-0.245 0.247,-0.245C0.248,-0.245 0.249,-0.246 0.25,-0.249L0.317,-0.689C0.318,-0.696 0.322,-0.7 0.33,-0.7L0.455,-0.7C0.464,-0.7 0.467,-0.696 0.465,-0.687L0.321,-0.011C0.32,-0.004 0.315,-0 0.308,-0L0.179,-0Z" style="fill-rule:nonzero;"/>
                </g>
                <g transform="matrix(12,0,0,12,556.347,357.376)">
                    <path d="M0.411,-0.591C0.411,-0.588 0.41,-0.585 0.407,-0.583C0.405,-0.58 0.402,-0.579 0.399,-0.579L0.19,-0.579C0.187,-0.579 0.185,-0.577 0.185,-0.574L0.185,-0.416C0.185,-0.413 0.187,-0.411 0.19,-0.411L0.31,-0.411C0.313,-0.411 0.316,-0.41 0.319,-0.407C0.321,-0.405 0.322,-0.402 0.322,-0.399L0.322,-0.302C0.322,-0.299 0.321,-0.296 0.319,-0.294C0.316,-0.291 0.313,-0.29 0.31,-0.29L0.19,-0.29C0.187,-0.29 0.185,-0.288 0.185,-0.285L0.185,-0.126C0.185,-0.123 0.187,-0.121 0.19,-0.121L0.399,-0.121C0.402,-0.121 0.405,-0.12 0.407,-0.117C0.41,-0.115 0.411,-0.112 0.411,-0.109L0.411,-0.012C0.411,-0.009 0.41,-0.006 0.407,-0.004C0.405,-0.001 0.402,-0 0.399,-0L0.056,-0C0.053,-0 0.05,-0.001 0.048,-0.004C0.045,-0.006 0.044,-0.009 0.044,-0.012L0.044,-0.688C0.044,-0.691 0.045,-0.694 0.048,-0.697C0.05,-0.699 0.053,-0.7 0.056,-0.7L0.399,-0.7C0.402,-0.7 0.405,-0.699 0.407,-0.697C0.41,-0.694 0.411,-0.691 0.411,-0.688L0.411,-0.591Z" style="fill-rule:nonzero;"/>
                </g>
                <g transform="matrix(12,0,0,12,561.603,357.376)">
                    <path d="M0.224,0.008C0.185,0.008 0.151,0 0.122,-0.015C0.093,-0.03 0.07,-0.052 0.054,-0.08C0.038,-0.107 0.03,-0.139 0.03,-0.175L0.03,-0.204C0.03,-0.207 0.031,-0.21 0.034,-0.213C0.036,-0.215 0.039,-0.216 0.042,-0.216L0.157,-0.216C0.16,-0.216 0.163,-0.215 0.166,-0.213C0.168,-0.21 0.169,-0.207 0.169,-0.204L0.169,-0.182C0.169,-0.161 0.174,-0.145 0.185,-0.132C0.196,-0.119 0.209,-0.113 0.225,-0.113C0.241,-0.113 0.254,-0.119 0.265,-0.131C0.276,-0.143 0.281,-0.159 0.281,-0.178C0.281,-0.198 0.274,-0.215 0.261,-0.23C0.248,-0.244 0.222,-0.265 0.183,-0.293C0.15,-0.317 0.123,-0.338 0.102,-0.357C0.081,-0.376 0.064,-0.399 0.049,-0.426C0.034,-0.453 0.027,-0.485 0.027,-0.521C0.027,-0.578 0.045,-0.623 0.08,-0.657C0.115,-0.691 0.162,-0.708 0.22,-0.708C0.279,-0.708 0.326,-0.69 0.362,-0.655C0.397,-0.62 0.415,-0.573 0.415,-0.516L0.415,-0.492C0.415,-0.489 0.414,-0.486 0.411,-0.484C0.409,-0.481 0.406,-0.48 0.403,-0.48L0.288,-0.48C0.285,-0.48 0.282,-0.481 0.28,-0.484C0.277,-0.486 0.276,-0.489 0.276,-0.492L0.276,-0.519C0.276,-0.54 0.271,-0.556 0.261,-0.569C0.25,-0.581 0.237,-0.587 0.22,-0.587C0.204,-0.587 0.191,-0.581 0.181,-0.57C0.171,-0.558 0.166,-0.542 0.166,-0.521C0.166,-0.501 0.172,-0.483 0.185,-0.468C0.198,-0.453 0.223,-0.431 0.26,-0.404C0.301,-0.373 0.333,-0.348 0.354,-0.33C0.375,-0.311 0.391,-0.29 0.403,-0.267C0.414,-0.244 0.42,-0.216 0.42,-0.184C0.42,-0.125 0.402,-0.079 0.366,-0.044C0.33,-0.009 0.283,0.008 0.224,0.008Z" style="fill-rule:nonzero;"/>
                </g>
                <g transform="matrix(12,0,0,12,569.331,357.376)">
                    <path d="M0.364,-0.692C0.367,-0.697 0.372,-0.7 0.379,-0.7L0.495,-0.7C0.498,-0.7 0.501,-0.699 0.503,-0.697C0.506,-0.694 0.507,-0.691 0.507,-0.688L0.507,-0.012C0.507,-0.009 0.506,-0.006 0.503,-0.004C0.501,-0.001 0.498,-0 0.495,-0L0.378,-0C0.375,-0 0.372,-0.001 0.37,-0.004C0.367,-0.006 0.366,-0.009 0.366,-0.012L0.366,-0.461C0.366,-0.464 0.365,-0.465 0.364,-0.465C0.363,-0.465 0.361,-0.464 0.36,-0.462L0.282,-0.324C0.279,-0.319 0.276,-0.316 0.274,-0.316C0.272,-0.316 0.269,-0.319 0.266,-0.324L0.188,-0.462C0.187,-0.464 0.185,-0.465 0.184,-0.465C0.183,-0.465 0.182,-0.464 0.182,-0.461L0.182,-0.012C0.182,-0.009 0.181,-0.006 0.179,-0.004C0.176,-0.001 0.173,-0 0.17,-0L0.053,-0C0.05,-0 0.047,-0.001 0.045,-0.004C0.042,-0.006 0.041,-0.009 0.041,-0.012L0.041,-0.688C0.041,-0.691 0.042,-0.694 0.045,-0.697C0.047,-0.699 0.05,-0.7 0.053,-0.7L0.168,-0.7C0.175,-0.7 0.18,-0.697 0.183,-0.692L0.272,-0.533C0.274,-0.53 0.276,-0.53 0.278,-0.533L0.364,-0.692Z" style="fill-rule:nonzero;"/>
                </g>
                <g transform="matrix(12,0,0,12,575.907,357.376)">
                    <path d="M0.411,-0.591C0.411,-0.588 0.41,-0.585 0.407,-0.583C0.405,-0.58 0.402,-0.579 0.399,-0.579L0.19,-0.579C0.187,-0.579 0.185,-0.577 0.185,-0.574L0.185,-0.416C0.185,-0.413 0.187,-0.411 0.19,-0.411L0.31,-0.411C0.313,-0.411 0.316,-0.41 0.319,-0.407C0.321,-0.405 0.322,-0.402 0.322,-0.399L0.322,-0.302C0.322,-0.299 0.321,-0.296 0.319,-0.294C0.316,-0.291 0.313,-0.29 0.31,-0.29L0.19,-0.29C0.187,-0.29 0.185,-0.288 0.185,-0.285L0.185,-0.126C0.185,-0.123 0.187,-0.121 0.19,-0.121L0.399,-0.121C0.402,-0.121 0.405,-0.12 0.407,-0.117C0.41,-0.115 0.411,-0.112 0.411,-0.109L0.411,-0.012C0.411,-0.009 0.41,-0.006 0.407,-0.004C0.405,-0.001 0.402,-0 0.399,-0L0.056,-0C0.053,-0 0.05,-0.001 0.048,-0.004C0.045,-0.006 0.044,-0.009 0.044,-0.012L0.044,-0.688C0.044,-0.691 0.045,-0.694 0.048,-0.697C0.05,-0.699 0.053,-0.7 0.056,-0.7L0.399,-0.7C0.402,-0.7 0.405,-0.699 0.407,-0.697C0.41,-0.694 0.411,-0.691 0.411,-0.688L0.411,-0.591Z" style="fill-rule:nonzero;"/>
                </g>
                <g transform="matrix(12,0,0,12,583.563,357.376)">
                    <path d="M0.21,0.008C0.151,0.008 0.104,-0.009 0.068,-0.043C0.032,-0.078 0.014,-0.123 0.014,-0.18L0.014,-0.249C0.014,-0.252 0.015,-0.255 0.018,-0.258C0.02,-0.26 0.023,-0.261 0.026,-0.261L0.143,-0.261C0.146,-0.261 0.149,-0.26 0.152,-0.258C0.154,-0.255 0.155,-0.252 0.155,-0.249L0.155,-0.178C0.155,-0.159 0.16,-0.143 0.17,-0.131C0.18,-0.119 0.193,-0.113 0.21,-0.113C0.227,-0.113 0.241,-0.119 0.252,-0.131C0.262,-0.143 0.267,-0.159 0.267,-0.178L0.267,-0.688C0.267,-0.691 0.268,-0.694 0.271,-0.697C0.273,-0.699 0.276,-0.7 0.279,-0.7L0.396,-0.7C0.399,-0.7 0.402,-0.699 0.405,-0.697C0.407,-0.694 0.408,-0.691 0.408,-0.688L0.408,-0.18C0.408,-0.123 0.39,-0.078 0.354,-0.043C0.317,-0.009 0.269,0.008 0.21,0.008Z" style="fill-rule:nonzero;"/>
                </g>
                <g transform="matrix(12,0,0,12,588.951,357.376)">
                    <path d="M0.236,0.008C0.175,0.008 0.126,-0.01 0.089,-0.046C0.052,-0.082 0.034,-0.13 0.034,-0.19L0.034,-0.51C0.034,-0.57 0.052,-0.618 0.089,-0.654C0.126,-0.69 0.175,-0.708 0.236,-0.708C0.297,-0.708 0.346,-0.69 0.384,-0.654C0.421,-0.618 0.439,-0.57 0.439,-0.51L0.439,-0.19C0.439,-0.13 0.421,-0.082 0.384,-0.046C0.346,-0.01 0.297,0.008 0.236,0.008ZM0.236,-0.113C0.255,-0.113 0.27,-0.119 0.281,-0.133C0.292,-0.146 0.298,-0.163 0.298,-0.184L0.298,-0.516C0.298,-0.537 0.292,-0.555 0.281,-0.568C0.27,-0.581 0.255,-0.587 0.236,-0.587C0.217,-0.587 0.203,-0.581 0.192,-0.568C0.181,-0.555 0.175,-0.537 0.175,-0.516L0.175,-0.184C0.175,-0.163 0.181,-0.146 0.192,-0.133C0.203,-0.119 0.217,-0.113 0.236,-0.113Z" style="fill-rule:nonzero;"/>
                </g>
                <g transform="matrix(12,0,0,12,594.471,357.376)">
                    <path d="M0.178,-0.001C0.175,-0.001 0.172,-0.002 0.17,-0.005C0.167,-0.007 0.166,-0.01 0.166,-0.013L0.166,-0.273L0.165,-0.279L0.025,-0.686C0.024,-0.687 0.024,-0.689 0.024,-0.691C0.024,-0.697 0.028,-0.7 0.035,-0.7L0.158,-0.7C0.165,-0.7 0.17,-0.697 0.172,-0.69L0.234,-0.451C0.235,-0.449 0.236,-0.448 0.237,-0.448C0.238,-0.448 0.239,-0.449 0.24,-0.451L0.302,-0.69C0.304,-0.697 0.309,-0.7 0.316,-0.7L0.439,-0.7C0.443,-0.7 0.446,-0.699 0.448,-0.697C0.45,-0.694 0.45,-0.691 0.449,-0.686L0.308,-0.279L0.307,-0.273L0.307,-0.013C0.307,-0.01 0.306,-0.007 0.304,-0.005C0.301,-0.002 0.298,-0.001 0.295,-0.001L0.178,-0.001Z" style="fill-rule:nonzero;"/>
                </g>
                <g transform="matrix(12,0,0,12,600.159,357.376)">
                    <path d="M0.095,-0.24C0.092,-0.24 0.089,-0.241 0.086,-0.244C0.084,-0.246 0.083,-0.249 0.083,-0.252L0.068,-0.688C0.068,-0.691 0.069,-0.694 0.071,-0.697C0.074,-0.699 0.077,-0.7 0.08,-0.7L0.197,-0.7C0.2,-0.7 0.203,-0.699 0.205,-0.697C0.208,-0.694 0.209,-0.691 0.209,-0.688L0.195,-0.252C0.195,-0.249 0.194,-0.246 0.192,-0.244C0.189,-0.241 0.186,-0.24 0.183,-0.24L0.095,-0.24ZM0.14,-0.001C0.117,-0.001 0.099,-0.009 0.084,-0.024C0.069,-0.039 0.061,-0.057 0.061,-0.08C0.061,-0.103 0.068,-0.122 0.083,-0.137C0.098,-0.152 0.117,-0.159 0.14,-0.159C0.163,-0.159 0.182,-0.152 0.197,-0.137C0.211,-0.122 0.218,-0.103 0.218,-0.08C0.218,-0.057 0.211,-0.039 0.196,-0.024C0.181,-0.009 0.163,-0.001 0.14,-0.001Z" style="fill-rule:nonzero;"/>
                </g>
            </g>
        </g>
    </g>
</svg>
