<?xml version="1.0" encoding="UTF-8" standalone="no"?>
<!DOCTYPE svg PUBLIC "-//W3C//DTD SVG 1.1//EN" "http://www.w3.org/Graphics/SVG/1.1/DTD/svg11.dtd">
<svg width="100%" height="100%" viewBox="0 0 156 148" version="1.1" xmlns="http://www.w3.org/2000/svg" xmlns:xlink="http://www.w3.org/1999/xlink" xml:space="preserve" xmlns:serif="http://www.serif.com/" style="fill-rule:evenodd;clip-rule:evenodd;stroke-linejoin:round;stroke-miterlimit:2;">
    <g transform="matrix(1,0,0,1,-2338.61,-159.101)">
        <g transform="matrix(0.989556,0,0,0.985447,1573.06,12.8469)">
            <g transform="matrix(3.98989,2.13449,-3.61397,6.81186,-833.962,-1710.75)">
                <path d="M514.563,122.87C519.382,125.307 524.576,126.659 530.11,126.757C535.528,126.854 541.38,125.747 547.612,122.976C549.62,122.083 550.018,120.399 548.5,119.218C546.981,118.037 544.118,117.803 542.111,118.696C537.902,120.567 534.044,121.459 530.386,121.394C526.843,121.331 523.596,120.362 520.511,118.802C518.602,117.836 515.72,117.964 514.079,119.086C512.437,120.209 512.654,121.904 514.563,122.87Z" style="fill:rgb(0,122,255);"/>
            </g>
        </g>
        <g transform="matrix(0.989556,0,0,0.985447,1573.06,12.8469)">
            <g transform="matrix(-4.50857,-0.333525,0.33214,-4.52737,3177.73,774.813)">
                <path d="M519.934,90.187L518.915,93.042C517.98,95.658 519.346,98.54 521.961,99.474C524.577,100.408 527.46,99.043 528.394,96.427L529.413,93.572C530.348,90.957 528.982,88.074 526.366,87.14C523.751,86.206 520.868,87.571 519.934,90.187Z" style="fill:rgb(0,122,255);"/>
            </g>
        </g>
        <g transform="matrix(0.989556,0,0,0.985447,1573.06,12.8469)">
            <g transform="matrix(-3.91341,-1.80001,-0.304301,-2.32798,2986.23,1366.72)">
                <path d="M519.934,90.187L518.915,93.042C516.676,99.311 516.981,105.16 519.597,106.094C522.213,107.028 526.155,102.697 528.394,96.427L529.413,93.572C531.652,87.303 531.347,81.454 528.731,80.52C526.115,79.586 522.173,83.918 519.934,90.187Z" style="fill:rgb(0,122,255);"/>
            </g>
        </g>
    </g>
</svg>
