<?xml version="1.0" encoding="UTF-8" standalone="no"?><!DOCTYPE svg PUBLIC "-//W3C//DTD SVG 1.1//EN" "http://www.w3.org/Graphics/SVG/1.1/DTD/svg11.dtd"><svg width="100%" height="100%" viewBox="0 0 300 156" version="1.1" xmlns="http://www.w3.org/2000/svg" xmlns:xlink="http://www.w3.org/1999/xlink" xml:space="preserve" xmlns:serif="http://www.serif.com/" style="fill-rule:evenodd;clip-rule:evenodd;stroke-linejoin:round;stroke-miterlimit:2;"><path d="M119.016,155.129c-0.861,-0.112 -1.609,-0.491 -2.245,-1.136c-0.636,-0.645 -1.085,-1.398 -1.346,-2.258c-0.337,-0.767 -0.505,-1.759 -0.505,-2.974c-0,-1.254 0.187,-2.572 0.561,-3.956c0.224,-0.767 0.355,-1.385 0.392,-1.852c0.038,-0.131 0.365,-0.907 0.982,-2.329c0.711,-1.608 1.16,-2.675 1.347,-3.198c0.393,-0.861 1.099,-2.025 2.118,-3.493c1.02,-1.469 1.698,-2.334 2.035,-2.596c0.037,-0.037 0.149,-0.14 0.336,-0.308c0.187,-0.169 0.356,-0.271 0.505,-0.309c0.075,-0.187 0.22,-0.351 0.435,-0.491c0.215,-0.14 0.416,-0.21 0.603,-0.21c0.3,-0.169 0.627,-0.253 0.982,-0.253c0.318,0 0.599,0.084 0.842,0.253c0.243,0.168 0.412,0.43 0.505,0.785l0.056,0.337c0,0.112 -0.037,0.192 -0.112,0.238c-0.075,0.047 -0.262,0.145 -0.561,0.295c-0.243,0.094 -0.496,0.21 -0.758,0.351c-0.262,0.14 -0.449,0.276 -0.561,0.407c-0.168,0.224 -0.355,0.434 -0.561,0.631c-0.206,0.196 -0.365,0.332 -0.477,0.407c-0.337,0.131 -0.505,0.28 -0.505,0.449c-0.037,0.093 -0.14,0.294 -0.309,0.603c-0.168,0.308 -0.402,0.65 -0.701,1.024c-0.374,0.598 -0.627,1.019 -0.758,1.262c-0.093,0.169 -0.336,0.58 -0.729,1.235c-0.056,0.093 -0.159,0.28 -0.309,0.561c-0.149,0.281 -0.327,0.542 -0.533,0.786c0,0.093 -0.032,0.243 -0.098,0.449c-0.065,0.205 -0.173,0.42 -0.323,0.645c-0.112,0.411 -0.336,0.963 -0.673,1.655c-0.224,0.468 -0.463,1.108 -0.715,1.922c-0.253,0.814 -0.379,1.351 -0.379,1.613c-0.056,0 -0.108,0.113 -0.154,0.337c-0.047,0.224 -0.099,0.608 -0.155,1.15l-0.14,1.01c-0.037,1.235 0.037,2.17 0.224,2.806c0.187,0.636 0.543,1.235 1.067,1.796c0.224,0.187 0.439,0.327 0.645,0.421c0.206,0.093 0.439,0.149 0.701,0.168l0.954,0.589c-0.112,0.412 -0.332,0.72 -0.659,0.926c-0.327,0.206 -0.669,0.29 -1.024,0.252Z" style="fill-rule:nonzero;"/><path d="M123.785,150.668c-0.056,-0.112 -0.215,-0.261 -0.477,-0.448c-0.261,-0.188 -0.392,-0.3 -0.392,-0.337c-0,-0.075 -0.042,-0.183 -0.127,-0.323c-0.084,-0.14 -0.163,-0.266 -0.238,-0.379c-0.15,-0.149 -0.047,-0.636 0.309,-1.459c0.355,-0.823 0.832,-1.795 1.43,-2.917c0.113,-0.113 0.258,-0.309 0.435,-0.59c0.178,-0.28 0.295,-0.439 0.351,-0.477c0,-0.074 0.028,-0.145 0.084,-0.21c0.056,-0.065 0.122,-0.098 0.197,-0.098l0.224,-0.449c0.075,-0.168 0.44,-0.571 1.094,-1.207c0.655,-0.635 1.169,-1.066 1.543,-1.29c0.356,-0.243 0.739,-0.365 1.151,-0.365c0.449,0 0.832,0.131 1.15,0.393l0.758,0.645c0.561,0.468 0.879,0.739 0.953,0.814l1.039,0.926l-0.477,1.403c-0.169,0.505 -0.253,0.982 -0.253,1.43c0,0.711 0.196,1.375 0.589,1.992c0.094,0.206 0.22,0.365 0.379,0.477c0.159,0.113 0.369,0.187 0.631,0.225c0.412,0.075 0.618,0.28 0.618,0.617c-0,0.412 -0.075,0.72 -0.225,0.926c-0.15,0.206 -0.327,0.337 -0.533,0.393c-0.299,0.037 -0.505,0.056 -0.617,0.056c-0.543,-0 -1.038,-0.14 -1.487,-0.421c-0.449,-0.281 -0.842,-0.757 -1.179,-1.431c-0.074,-0.112 -0.173,-0.318 -0.294,-0.617c-0.122,-0.299 -0.192,-0.505 -0.211,-0.617c-0.131,0.187 -0.346,0.43 -0.645,0.729c-1.926,1.945 -3.488,2.918 -4.685,2.918c-0.412,0 -0.777,-0.103 -1.095,-0.309Zm1.544,-2.328c0.299,0.037 0.879,-0.3 1.739,-1.01c0.094,-0.075 0.196,-0.164 0.309,-0.267c0.112,-0.103 0.233,-0.21 0.364,-0.323c0.524,-0.43 0.931,-0.79 1.221,-1.08c0.29,-0.29 0.584,-0.64 0.884,-1.052l0.617,-1.01c-0.187,-0.411 -0.355,-0.687 -0.505,-0.828c-0.15,-0.14 -0.299,-0.21 -0.449,-0.21c-0.374,0 -0.842,0.332 -1.403,0.996c-0.561,0.664 -1.234,1.669 -2.02,3.016c-0.206,0.337 -0.374,0.688 -0.505,1.052c-0.131,0.365 -0.215,0.603 -0.252,0.716Z" style="fill-rule:nonzero;"/><path d="M139.245,151.089c-0.692,-0.075 -1.151,-0.374 -1.375,-0.898c-0.15,-0.149 -0.239,-0.271 -0.267,-0.364c-0.028,-0.094 -0.032,-0.187 -0.014,-0.281c0.225,0 0.356,-0.037 0.393,-0.112c0,-0.056 0.033,-0.094 0.098,-0.112c0.066,-0.019 0.136,-0.019 0.211,-0c0.486,0.037 1.164,-0.225 2.034,-0.786c0.87,-0.561 1.809,-1.309 2.82,-2.244c0.523,-0.674 0.879,-1.155 1.066,-1.445c0.187,-0.29 0.28,-0.529 0.28,-0.716c0,-0.093 -0.047,-0.234 -0.14,-0.421c-0.094,-0.149 -0.243,-0.224 -0.449,-0.224c-0.337,-0 -0.795,0.187 -1.375,0.561c-0.804,0.505 -1.449,0.968 -1.936,1.389c-0.486,0.421 -0.935,0.912 -1.346,1.473c-0.244,0.318 -0.473,0.603 -0.688,0.856c-0.215,0.252 -0.36,0.425 -0.435,0.519c0,0.074 -0.107,0.168 -0.322,0.28c-0.215,0.112 -0.398,0.169 -0.547,0.169c-0.094,-0.038 -0.201,-0.113 -0.323,-0.225c-0.122,-0.112 -0.192,-0.243 -0.21,-0.393c-0.038,-0.037 -0.117,-0.098 -0.239,-0.182c-0.122,-0.084 -0.21,-0.182 -0.266,-0.295c-0.057,-0.112 -0.085,-0.243 -0.085,-0.392c0,-0.281 0.094,-0.758 0.281,-1.431c0.168,-0.767 0.36,-1.529 0.575,-2.287c0.215,-0.758 0.36,-1.174 0.435,-1.249c0.019,-0.037 0.061,-0.14 0.126,-0.308c0.066,-0.168 0.098,-0.346 0.098,-0.533c0.038,-0.169 0.099,-0.36 0.183,-0.575c0.084,-0.215 0.126,-0.342 0.126,-0.379c0.094,-0.075 0.393,-0.814 0.898,-2.217c-0,-0.074 0.206,-0.57 0.617,-1.487c0.599,-1.402 0.973,-2.3 1.122,-2.693c0.094,-0.15 0.253,-0.421 0.477,-0.814c0.038,-0.056 0.117,-0.182 0.239,-0.378c0.121,-0.197 0.22,-0.314 0.294,-0.351c0.131,-0.038 0.417,0.056 0.856,0.28c0.44,0.225 0.725,0.44 0.856,0.646c0.019,0.037 0.042,0.079 0.07,0.126c0.028,0.047 0.042,0.098 0.042,0.154c0,0.094 -0.051,0.262 -0.154,0.505c-0.103,0.243 -0.215,0.491 -0.337,0.744c-0.121,0.252 -0.21,0.444 -0.266,0.575l-0.814,1.683c-0.786,1.721 -1.459,3.395 -2.02,5.022c-0.169,0.524 -0.318,0.945 -0.449,1.263l-0.14,0.617l0.729,-0.813c0.337,-0.337 0.758,-0.683 1.263,-1.038c0.224,-0.15 0.551,-0.318 0.982,-0.505c0.43,-0.188 0.729,-0.3 0.897,-0.337c0.599,-0.15 1.113,-0.225 1.544,-0.225c0.692,0 1.328,0.496 1.907,1.487c0.169,0.3 0.253,0.683 0.253,1.151c-0,0.336 -0.047,0.673 -0.14,1.01c-0.094,0.336 -0.215,0.636 -0.365,0.898c-0.094,0.074 -0.187,0.173 -0.281,0.294c-0.093,0.122 -0.14,0.22 -0.14,0.295c-0.019,0.112 -0.178,0.364 -0.477,0.757c-0.299,0.393 -0.626,0.786 -0.982,1.179c-0.486,0.505 -1.127,1.01 -1.922,1.515c-0.795,0.505 -1.454,0.851 -1.978,1.038c-0.112,0.019 -0.322,0.051 -0.631,0.098c-0.309,0.047 -0.528,0.089 -0.659,0.126Z" style="fill-rule:nonzero;"/><path d="M150.748,151.033c-0.094,0.019 -0.215,0.028 -0.365,0.028c-0.243,0 -0.439,-0.042 -0.589,-0.126c-0.15,-0.084 -0.327,-0.229 -0.533,-0.435c-0.43,-0.206 -0.804,-0.552 -1.122,-1.038c-0.318,-0.486 -0.459,-0.87 -0.421,-1.15c0.093,-0.898 0.346,-1.875 0.757,-2.932c0.412,-1.057 0.95,-2.011 1.614,-2.862c0.664,-0.851 1.37,-1.445 2.118,-1.782c0.337,-0.131 0.645,-0.196 0.926,-0.196c0.58,-0 0.963,0.187 1.15,0.561c0.131,0.262 0.196,0.458 0.196,0.589c0,0.225 -0.131,0.374 -0.392,0.449c-0.056,0 -0.122,0.028 -0.197,0.084c-0.075,0.056 -0.112,0.113 -0.112,0.169c0.019,0.018 0.103,0.028 0.253,0.028c0.317,-0 0.71,-0.047 1.178,-0.141c0.468,-0.093 0.767,-0.196 0.898,-0.308c0.112,-0.056 0.205,-0.084 0.28,-0.084l0.393,0.056c0.318,0.093 0.477,0.206 0.477,0.336c0,0.094 0.033,0.216 0.098,0.365c0.066,0.15 0.126,0.225 0.183,0.225c0.093,-0 0.14,0.065 0.14,0.196c-0,0.112 -0.061,0.257 -0.182,0.435c-0.122,0.178 -0.295,0.351 -0.52,0.519c-0.093,0.056 -0.229,0.14 -0.406,0.253c-0.178,0.112 -0.281,0.205 -0.309,0.28c-0.028,0.075 -0.023,0.178 0.014,0.309c0.075,0.149 0.112,0.336 0.112,0.561c0,0.636 -0.308,1.379 -0.926,2.23c-0.617,0.851 -1.37,1.604 -2.258,2.259c-0.889,0.655 -1.707,1.029 -2.455,1.122Zm0.084,-2.357c0.112,0 0.393,-0.112 0.842,-0.336c0.243,-0.243 0.439,-0.393 0.589,-0.449c0.056,-0 0.107,-0.052 0.154,-0.154c0.047,-0.103 0.131,-0.262 0.253,-0.477c0.121,-0.216 0.322,-0.501 0.603,-0.856c0.299,-0.337 0.51,-0.608 0.631,-0.814c0.122,-0.206 0.183,-0.411 0.183,-0.617c-0,-0.075 -0.019,-0.206 -0.056,-0.393c-0.019,-0.056 -0.08,-0.107 -0.183,-0.154c-0.103,-0.047 -0.201,-0.089 -0.294,-0.126c-0.094,-0 -0.187,0.023 -0.281,0.07c-0.094,0.046 -0.159,0.07 -0.196,0.07c-0.094,-0 -0.197,-0.047 -0.309,-0.14l-0.449,-0.562l-0.477,0.477c-0.43,0.431 -0.79,1.01 -1.08,1.74c-0.29,0.729 -0.463,1.393 -0.519,1.992c-0.019,0.262 0.023,0.444 0.126,0.547c0.103,0.103 0.257,0.164 0.463,0.182Z" style="fill-rule:nonzero;"/><path d="M160.203,150.276c-0.468,-0.431 -0.809,-0.809 -1.024,-1.137c-0.215,-0.327 -0.36,-0.818 -0.435,-1.473c-0.056,-0.43 0.023,-1.089 0.239,-1.978c0.215,-0.888 0.5,-1.758 0.855,-2.609c0.356,-0.851 0.702,-1.445 1.038,-1.782c0.412,-0.523 0.879,-0.785 1.403,-0.785c0.206,-0 0.384,0.037 0.533,0.112c0.225,0.243 0.337,0.58 0.337,1.01c-0,0.43 -0.112,0.814 -0.337,1.15c-0.355,0.487 -0.673,1.104 -0.954,1.852c-0.28,0.748 -0.467,1.44 -0.561,2.076c-0.112,0.356 -0.168,0.646 -0.168,0.87c-0,0.206 0.051,0.356 0.154,0.449c0.103,0.094 0.267,0.14 0.491,0.14c0.486,0 0.991,-0.336 1.515,-1.01c0.524,-0.673 1.001,-1.552 1.431,-2.637c0.094,-0.243 0.178,-0.561 0.253,-0.954c0.131,-0.449 0.205,-0.701 0.224,-0.757c0.112,-0.393 0.313,-0.711 0.603,-0.954c0.29,-0.244 0.575,-0.365 0.856,-0.365c0.168,-0 0.29,0.037 0.365,0.112c0.561,0.243 0.813,0.664 0.757,1.263c0,0.411 -0.056,0.771 -0.168,1.08c-0.112,0.308 -0.29,0.706 -0.533,1.192c-0.206,0.356 -0.374,0.702 -0.505,1.038c-0.281,0.655 -0.758,1.38 -1.431,2.175c-0.673,0.795 -1.253,1.295 -1.74,1.501c-0.654,0.411 -1.328,0.617 -2.02,0.617c-0.411,0 -0.804,-0.065 -1.178,-0.196Z" style="fill-rule:nonzero;"/><path d="M172.267,151.426c-0.411,-0.112 -0.944,-0.458 -1.599,-1.038c-0.318,-0.412 -0.505,-0.781 -0.561,-1.108c-0.056,-0.328 -0.084,-0.978 -0.084,-1.95c-0,-0.449 0.224,-1.571 0.673,-3.367c0.019,-0.075 0.084,-0.327 0.197,-0.758c0.056,-0.205 -0.019,-0.336 -0.225,-0.392c-0.206,-0.057 -0.496,-0.085 -0.87,-0.085c-0.318,0 -0.505,-0.018 -0.561,-0.056c-0.056,-0.018 -0.089,-0.103 -0.098,-0.252c-0.009,-0.15 -0.014,-0.253 -0.014,-0.309c0,-0.056 -0.042,-0.112 -0.126,-0.168c-0.084,-0.056 -0.145,-0.112 -0.183,-0.169c-0.056,-0.074 -0.009,-0.215 0.141,-0.42c0.149,-0.206 0.318,-0.328 0.505,-0.365c0.112,-0.019 0.355,-0.047 0.729,-0.084c0.374,-0.038 0.734,-0.113 1.08,-0.225c0.346,-0.112 0.604,-0.271 0.772,-0.477c0.243,-0.636 0.528,-1.309 0.856,-2.02c0.327,-0.711 0.556,-1.131 0.687,-1.262c0.299,-0.15 0.571,-0.225 0.814,-0.225c0.411,0 0.729,0.169 0.954,0.505c0.056,0.075 0.121,0.15 0.196,0.225c0.075,0.074 0.112,0.159 0.112,0.252c0,0.131 -0.061,0.337 -0.182,0.617c-0.122,0.281 -0.36,0.739 -0.716,1.375l-0.364,0.702c0.056,0.018 0.187,0.028 0.392,0.028c0.206,-0 0.375,-0.01 0.505,-0.028c0.412,-0.075 0.73,-0.113 0.954,-0.113c0.169,0 0.29,0.01 0.365,0.028c0.786,0 1.216,0.431 1.291,1.291c0.037,0.225 -0.042,0.407 -0.239,0.547c-0.196,0.14 -0.537,0.211 -1.024,0.211c-1.926,0.074 -2.899,0.159 -2.918,0.252c-0.093,0.056 -0.243,0.346 -0.449,0.87c-0.205,0.524 -0.374,1.019 -0.505,1.487c-0.224,0.972 -0.336,1.889 -0.336,2.749c-0,0.823 0.121,1.356 0.364,1.6c0.075,0.074 0.178,0.112 0.309,0.112c0.337,-0 0.814,-0.253 1.431,-0.758c0.206,-0.187 0.43,-0.28 0.673,-0.28c0.206,-0 0.37,0.075 0.491,0.224c0.122,0.15 0.183,0.346 0.183,0.589c-0,0.281 -0.094,0.552 -0.281,0.814c-0.28,0.43 -0.701,0.786 -1.262,1.066c-0.562,0.281 -1.095,0.421 -1.6,0.421c-0.224,0 -0.383,-0.019 -0.477,-0.056Z" style="fill-rule:nonzero;"/><path d="M198.641,148.985c0.131,0.187 0.196,0.365 0.196,0.533c0,0.187 -0.065,0.355 -0.196,0.505c-0.131,0.15 -0.244,0.225 -0.337,0.225c-0.449,-0 -0.949,-0.108 -1.501,-0.323c-0.552,-0.215 -0.828,-0.528 -0.828,-0.94l0,-1.739c0,-0.749 -0.065,-1.179 -0.196,-1.291c-0.281,-0.15 -0.655,0.061 -1.122,0.631c-0.468,0.571 -1.039,1.417 -1.712,2.539c-0.262,0.412 -0.486,0.706 -0.673,0.884c-0.187,0.178 -0.356,0.267 -0.505,0.267c-0.131,-0 -0.243,-0.038 -0.337,-0.113c-0.58,-0.168 -0.87,-0.495 -0.87,-0.982c0,-0.056 0.019,-0.177 0.056,-0.364c0.169,-0.58 0.351,-1.225 0.548,-1.936c0.196,-0.711 0.35,-1.319 0.462,-1.824c-0.056,-0.112 -0.149,-0.168 -0.28,-0.168c-0.187,-0 -0.402,0.093 -0.645,0.28c-0.075,0.056 -0.211,0.145 -0.407,0.267c-0.197,0.121 -0.393,0.28 -0.589,0.477c-0.197,0.196 -0.398,0.463 -0.604,0.799c-0.074,0.131 -0.205,0.328 -0.392,0.59c-0.936,1.421 -1.506,2.225 -1.712,2.412c-0.093,0.262 -0.182,0.445 -0.266,0.548c-0.085,0.102 -0.183,0.154 -0.295,0.154c-0.075,-0 -0.168,-0.028 -0.281,-0.084c-0.355,-0.169 -0.64,-0.407 -0.855,-0.716c-0.215,-0.308 -0.323,-0.678 -0.323,-1.108c0,-0.281 0.084,-0.842 0.253,-1.683c0.168,-0.842 0.355,-1.628 0.561,-2.357c0.149,-0.299 0.266,-0.613 0.35,-0.94c0.085,-0.327 0.127,-0.556 0.127,-0.687c0.056,-0.356 0.168,-0.837 0.336,-1.445c0.169,-0.608 0.29,-0.94 0.365,-0.996c0.112,-0.113 0.318,-0.169 0.617,-0.169c0.206,0 0.402,0.038 0.589,0.113c0.188,0.074 0.318,0.187 0.393,0.336c0.243,0.281 0.365,0.664 0.365,1.151c0,0.448 -0.094,0.925 -0.281,1.43c-0.187,0.431 -0.42,1.057 -0.701,1.88c0,0 0.019,-0.018 0.056,-0.056c0.449,-0.636 1.029,-1.347 1.74,-2.132c0.336,-0.374 0.715,-0.664 1.136,-0.87c0.421,-0.206 0.762,-0.309 1.024,-0.309c0.449,0.075 0.828,0.295 1.136,0.66c0.309,0.365 0.501,0.865 0.575,1.501c0,0.224 -0.018,0.5 -0.056,0.827c-0.037,0.328 -0.065,0.538 -0.084,0.632c0.075,-0.094 0.267,-0.323 0.575,-0.688c0.309,-0.364 0.688,-0.743 1.137,-1.136c0.411,-0.318 0.795,-0.477 1.15,-0.477c0.299,0 0.561,0.122 0.786,0.365c0.411,0.243 0.734,0.636 0.968,1.178c0.233,0.543 0.35,1.16 0.35,1.852c0,0.243 -0.009,0.43 -0.028,0.561c-0.019,0.131 -0.028,0.318 -0.028,0.561c0,0.262 0.028,0.51 0.084,0.744c0.056,0.234 0.113,0.444 0.169,0.631Z" style="fill-rule:nonzero;"/><path d="M204.112,151.258c-1.066,-0 -1.927,-0.3 -2.582,-0.898c-0.654,-0.599 -0.982,-1.45 -0.982,-2.553c0,-0.431 0.029,-0.908 0.085,-1.431c0.037,-0.449 0.219,-1.066 0.547,-1.852c0.327,-0.786 0.776,-1.552 1.346,-2.301c0.571,-0.748 1.24,-1.3 2.007,-1.655c0.355,-0.168 0.654,-0.285 0.897,-0.351c0.243,-0.065 0.524,-0.098 0.842,-0.098c0.767,0 1.389,0.14 1.866,0.421c0.477,0.281 0.813,0.599 1.01,0.954c0.196,0.355 0.294,0.664 0.294,0.926l0,0.224c0,0.225 -0.13,0.636 -0.392,1.235c-0.262,0.598 -0.678,1.159 -1.249,1.683c-0.57,0.524 -1.305,0.814 -2.202,0.87c-0.449,-0 -0.884,-0.042 -1.305,-0.126c-0.421,-0.085 -0.687,-0.127 -0.8,-0.127c-0.28,0 -0.458,0.103 -0.533,0.309c-0.074,0.206 -0.112,0.552 -0.112,1.038c0.056,0.524 0.201,0.889 0.435,1.094c0.234,0.206 0.575,0.309 1.024,0.309c0.225,-0 0.486,-0.066 0.786,-0.196c0.299,-0.15 0.654,-0.384 1.066,-0.702c0.224,-0.187 0.402,-0.318 0.533,-0.393c0.131,-0.075 0.29,-0.112 0.477,-0.112c0.168,0 0.365,0.112 0.589,0.337c0.224,0.224 0.346,0.439 0.365,0.645c-0.038,0.225 -0.243,0.561 -0.617,1.01c-0.375,0.449 -0.861,0.851 -1.459,1.207c-0.599,0.355 -1.244,0.533 -1.936,0.533Zm0.982,-6.762c0.355,-0 0.598,-0.037 0.729,-0.112c0.187,-0.094 0.472,-0.332 0.856,-0.716c0.383,-0.383 0.584,-0.65 0.603,-0.799c0,-0.187 -0.079,-0.342 -0.238,-0.463c-0.159,-0.122 -0.379,-0.201 -0.66,-0.239l-0.308,0c-0.244,0 -0.594,0.201 -1.052,0.603c-0.459,0.403 -0.856,0.866 -1.193,1.389c0.019,0.094 0.159,0.173 0.421,0.239c0.262,0.065 0.542,0.098 0.842,0.098Z" style="fill-rule:nonzero;"/><path d="M209.246,155.045c-0.355,-0.093 -0.701,-0.294 -1.038,-0.603c-0.337,-0.309 -0.514,-0.603 -0.533,-0.884c-0,-0.037 0.005,-0.149 0.014,-0.336c0.009,-0.187 0.051,-0.337 0.126,-0.449c0.019,0.018 0.061,0.042 0.126,0.07c0.066,0.028 0.164,0.042 0.295,0.042c0.15,-0 0.281,-0.019 0.393,-0.056c0.355,0.018 0.631,-0.014 0.827,-0.098c0.197,-0.085 0.435,-0.295 0.716,-0.632l0.505,-0.645c0.43,-0.505 0.683,-0.86 0.757,-1.066c0.262,-0.187 0.459,-0.36 0.59,-0.519c0.131,-0.159 0.271,-0.36 0.421,-0.603c-0,-0.412 0.168,-0.889 0.505,-1.431c0.243,-0.524 0.42,-0.879 0.533,-1.066c0.224,-0.449 0.336,-0.702 0.336,-0.758c0.019,-0.037 0.052,-0.122 0.098,-0.252c0.047,-0.131 0.061,-0.272 0.043,-0.421c0.112,-0.056 0.21,-0.183 0.294,-0.379c0.084,-0.197 0.117,-0.398 0.098,-0.603c0.019,-0.075 0.108,-0.304 0.267,-0.688c0.159,-0.383 0.248,-0.762 0.266,-1.136c0.3,-0.954 0.496,-1.796 0.59,-2.525c0.093,-0.73 0.187,-1.889 0.28,-3.479l0.056,-1.487c0.019,-0.243 0.028,-0.533 0.028,-0.87c0,-0.28 -0.018,-0.5 -0.056,-0.659c-0.037,-0.159 -0.112,-0.332 -0.224,-0.519c-0.187,-0.599 -0.346,-0.898 -0.477,-0.898c-0.038,-0 -0.075,-0.052 -0.112,-0.154c-0.038,-0.103 -0.057,-0.239 -0.057,-0.407c0,-0.169 0.029,-0.337 0.085,-0.505c-0.019,-0.075 0.117,-0.159 0.406,-0.253c0.29,-0.093 0.52,-0.131 0.688,-0.112c0.112,0 0.248,0.051 0.407,0.154c0.159,0.103 0.276,0.192 0.35,0.267c0.131,-0.131 0.421,0.421 0.87,1.655c0.169,0.374 0.276,0.655 0.323,0.842c0.047,0.187 0.07,0.449 0.07,0.785l-0.056,1.179l-0.056,0.926c-0.019,0.935 -0.103,1.992 -0.253,3.17c-0.149,1.179 -0.327,2.263 -0.533,3.255c-0.243,0.972 -0.669,2.24 -1.276,3.801c-0.608,1.562 -1.053,2.568 -1.333,3.016c0.075,-0.018 -0.243,0.487 -0.954,1.516l-1.094,1.683c-0.449,0.617 -1.02,1.155 -1.712,1.613c-0.692,0.458 -1.225,0.631 -1.599,0.519Z" style="fill-rule:nonzero;"/><g transform="matrix(4.22997,0,0,4.22997,-2294.44,-1424.99)"><g transform="matrix(12,0,0,12,542.127,345.376)"><path d="M0.437,-0.197c-0.007,0.063 -0.03,0.112 -0.071,0.146c-0.04,0.034 -0.089,0.051 -0.148,0.051l-0.183,0c-0.003,0 -0.006,-0.001 -0.008,-0.003c-0.002,-0.003 -0.003,-0.006 -0.002,-0.009l0.083,-0.676c0.001,-0.003 0.002,-0.006 0.004,-0.008c0.003,-0.003 0.006,-0.004 0.009,-0.004l0.162,0c0.059,0 0.104,0.013 0.136,0.04c0.033,0.026 0.049,0.065 0.049,0.117c0,0.007 -0.001,0.018 -0.002,0.034c-0.008,0.065 -0.036,0.113 -0.084,0.144c-0.003,0.002 -0.003,0.004 -0.001,0.006c0.039,0.031 0.058,0.074 0.058,0.131c0,0.006 -0.001,0.016 -0.002,0.031Zm-0.201,-0.382c-0.003,0 -0.005,0.002 -0.005,0.005l-0.02,0.157c0,0.003 0.001,0.005 0.004,0.005l0.035,-0c0.025,-0 0.045,-0.009 0.059,-0.027c0.015,-0.018 0.022,-0.043 0.022,-0.075c0,-0.021 -0.005,-0.038 -0.016,-0.049c-0.01,-0.011 -0.025,-0.016 -0.044,-0.016l-0.035,0Zm-0.013,0.457c0.021,-0 0.039,-0.008 0.053,-0.024c0.014,-0.016 0.023,-0.039 0.027,-0.068c0.001,-0.005 0.001,-0.012 0.001,-0.021c-0,-0.023 -0.005,-0.042 -0.015,-0.055c-0.01,-0.013 -0.024,-0.02 -0.042,-0.02l-0.044,-0c-0.003,-0 -0.005,0.002 -0.006,0.005l-0.021,0.178c-0.001,0.003 -0,0.005 0.004,0.005l0.043,-0Z" style="fill-rule:nonzero;"/></g><g transform="matrix(12,0,0,12,547.599,345.376)"><path d="M0.212,0.008c-0.052,-0 -0.093,-0.016 -0.124,-0.047c-0.03,-0.031 -0.045,-0.072 -0.045,-0.124c0,-0.016 0.001,-0.028 0.002,-0.036l0.06,-0.489c0.001,-0.003 0.002,-0.006 0.005,-0.009c0.002,-0.002 0.005,-0.003 0.008,-0.003l0.113,0c0.007,0 0.011,0.004 0.011,0.012l-0.062,0.503c-0.001,0.003 -0.001,0.008 -0.001,0.014c0,0.017 0.004,0.031 0.013,0.042c0.009,0.011 0.02,0.016 0.035,0.016c0.017,-0 0.031,-0.007 0.043,-0.02c0.011,-0.013 0.018,-0.031 0.021,-0.052l0.062,-0.503c0.001,-0.003 0.002,-0.006 0.004,-0.009c0.003,-0.002 0.006,-0.003 0.009,-0.003l0.114,0c0.003,0 0.006,0.001 0.008,0.003c0.002,0.003 0.003,0.006 0.002,0.009l-0.06,0.489c-0.007,0.063 -0.031,0.113 -0.071,0.15c-0.04,0.038 -0.089,0.057 -0.147,0.057Z" style="fill-rule:nonzero;"/></g><g transform="matrix(12,0,0,12,553.179,345.376)"><path d="M0.035,-0c-0.003,-0 -0.006,-0.001 -0.008,-0.004c-0.002,-0.002 -0.003,-0.005 -0.002,-0.008l0.083,-0.676c0.001,-0.003 0.002,-0.006 0.004,-0.008c0.003,-0.003 0.006,-0.004 0.009,-0.004l0.113,0c0.007,0 0.011,0.004 0.011,0.012l-0.083,0.676c-0.001,0.003 -0.002,0.006 -0.005,0.009c-0.003,0.002 -0.006,0.003 -0.009,0.003l-0.113,0Z" style="fill-rule:nonzero;"/></g><g transform="matrix(12,0,0,12,555.855,345.376)"><path d="M0.035,-0c-0.003,-0 -0.006,-0.001 -0.008,-0.004c-0.002,-0.002 -0.003,-0.005 -0.002,-0.008l0.083,-0.676c0.001,-0.003 0.002,-0.006 0.004,-0.008c0.003,-0.003 0.006,-0.004 0.009,-0.004l0.113,0c0.007,0 0.011,0.004 0.011,0.012l-0.069,0.562c-0.001,0.003 -0,0.005 0.004,0.005l0.203,0c0.007,0 0.011,0.004 0.011,0.012l-0.012,0.097c-0.001,0.003 -0.002,0.006 -0.005,0.008c-0.002,0.003 -0.005,0.004 -0.008,0.004l-0.334,-0Z" style="fill-rule:nonzero;"/></g><g transform="matrix(12,0,0,12,560.811,345.376)"><path d="M0.035,-0c-0.003,-0 -0.006,-0.001 -0.008,-0.004c-0.002,-0.002 -0.003,-0.005 -0.002,-0.008l0.083,-0.676c0.001,-0.003 0.002,-0.006 0.004,-0.008c0.003,-0.003 0.006,-0.004 0.009,-0.004l0.175,0c0.054,0 0.096,0.015 0.127,0.045c0.031,0.029 0.047,0.069 0.047,0.119c-0,0.007 -0.001,0.017 -0.002,0.03l-0.039,0.312c-0.007,0.059 -0.031,0.106 -0.071,0.141c-0.039,0.035 -0.089,0.053 -0.148,0.053l-0.175,-0Zm0.141,-0.126c-0.001,0.003 -0,0.005 0.004,0.005l0.044,-0.001c0.017,-0.001 0.032,-0.008 0.045,-0.023c0.013,-0.015 0.022,-0.034 0.025,-0.058l0.036,-0.294c0.001,-0.004 0.001,-0.01 0.001,-0.017c-0,-0.02 -0.005,-0.036 -0.014,-0.047c-0.009,-0.012 -0.021,-0.018 -0.038,-0.018l-0.043,0c-0.003,0 -0.005,0.002 -0.005,0.005l-0.055,0.448Z" style="fill-rule:nonzero;"/></g><g transform="matrix(12,0,0,12,566.355,345.376)"><path d="M0.035,-0c-0.003,-0 -0.006,-0.001 -0.008,-0.004c-0.002,-0.002 -0.003,-0.005 -0.002,-0.008l0.083,-0.676c0.001,-0.003 0.002,-0.006 0.004,-0.008c0.003,-0.003 0.006,-0.004 0.009,-0.004l0.113,0c0.007,0 0.011,0.004 0.011,0.012l-0.083,0.676c-0.001,0.003 -0.002,0.006 -0.005,0.009c-0.003,0.002 -0.006,0.003 -0.009,0.003l-0.113,0Z" style="fill-rule:nonzero;"/></g><g transform="matrix(12,0,0,12,569.031,345.376)"><path d="M0.385,-0.688c0.001,-0.003 0.002,-0.006 0.005,-0.008c0.002,-0.003 0.005,-0.004 0.008,-0.004l0.113,0c0.003,0 0.006,0.001 0.008,0.004c0.002,0.002 0.003,0.005 0.002,0.008l-0.083,0.676c-0.001,0.003 -0.002,0.006 -0.005,0.009c-0.002,0.002 -0.005,0.003 -0.008,0.003l-0.128,0c-0.006,0 -0.01,-0.003 -0.012,-0.01l-0.072,-0.387c-0.001,-0.002 -0.002,-0.003 -0.003,-0.003c-0.002,0.001 -0.003,0.002 -0.003,0.004l-0.046,0.384c-0.001,0.003 -0.002,0.006 -0.005,0.009c-0.003,0.002 -0.006,0.003 -0.009,0.003l-0.112,0c-0.003,0 -0.006,-0.001 -0.008,-0.003c-0.002,-0.003 -0.003,-0.006 -0.002,-0.009l0.083,-0.676c0.001,-0.003 0.002,-0.006 0.005,-0.008c0.002,-0.003 0.005,-0.004 0.008,-0.004l0.127,0c0.006,0 0.01,0.003 0.011,0.01l0.074,0.387c0.001,0.002 0.002,0.003 0.004,0.003c0.001,-0.001 0.002,-0.002 0.002,-0.004l0.046,-0.384Z" style="fill-rule:nonzero;"/></g><g transform="matrix(12,0,0,12,575.019,345.376)"><path d="M0.206,0.008c-0.053,-0 -0.095,-0.014 -0.126,-0.043c-0.031,-0.029 -0.046,-0.068 -0.046,-0.117c-0,-0.006 0.001,-0.016 0.002,-0.029l0.041,-0.338c0.007,-0.057 0.03,-0.103 0.069,-0.137c0.04,-0.035 0.089,-0.052 0.148,-0.052c0.053,0 0.094,0.015 0.125,0.044c0.031,0.029 0.047,0.068 0.047,0.117c0,0.006 -0.001,0.016 -0.002,0.029l-0.004,0.038c-0.001,0.003 -0.002,0.006 -0.005,0.009c-0.003,0.002 -0.006,0.003 -0.009,0.003l-0.113,0c-0.003,0 -0.006,-0.001 -0.008,-0.003c-0.002,-0.003 -0.003,-0.006 -0.002,-0.009l0.005,-0.04c0.001,-0.003 0.001,-0.007 0.001,-0.012c0,-0.017 -0.005,-0.03 -0.014,-0.04c-0.009,-0.01 -0.021,-0.015 -0.036,-0.015c-0.017,0 -0.031,0.006 -0.043,0.019c-0.012,0.012 -0.019,0.028 -0.022,0.048l-0.042,0.34c-0.002,0.02 0.001,0.036 0.01,0.048c0.009,0.013 0.021,0.019 0.038,0.019c0.017,0 0.032,-0.006 0.044,-0.019c0.012,-0.012 0.019,-0.028 0.022,-0.048l0.01,-0.08c-0,-0.003 -0.001,-0.005 -0.004,-0.005l-0.043,0c-0.003,0 -0.006,-0.001 -0.008,-0.004c-0.002,-0.002 -0.003,-0.005 -0.002,-0.008l0.011,-0.089c0,-0.003 0.001,-0.006 0.004,-0.009c0.003,-0.002 0.006,-0.003 0.009,-0.003l0.172,0c0.007,0 0.011,0.004 0.011,0.012l-0.023,0.185c-0.007,0.057 -0.03,0.103 -0.07,0.138c-0.04,0.034 -0.089,0.051 -0.147,0.051Z" style="fill-rule:nonzero;"/></g><g transform="matrix(12,0,0,12,582.783,345.376)"><path d="M0.486,-0.7c0.003,0 0.006,0.001 0.008,0.004c0.002,0.002 0.003,0.005 0.002,0.008l-0.012,0.097c-0.001,0.003 -0.002,0.006 -0.005,0.009c-0.002,0.002 -0.005,0.003 -0.008,0.003l-0.122,0c-0.001,0 -0.003,0.001 -0.004,0.002c-0.001,0.001 -0.001,0.002 -0.001,0.003l-0.069,0.562c-0.001,0.003 -0.002,0.006 -0.004,0.009c-0.003,0.002 -0.006,0.003 -0.009,0.003l-0.114,0c-0.003,0 -0.006,-0.001 -0.008,-0.003c-0.002,-0.003 -0.003,-0.006 -0.002,-0.009l0.069,-0.562c0.001,-0.003 0,-0.005 -0.004,-0.005l-0.116,0c-0.007,0 -0.011,-0.004 -0.011,-0.012l0.012,-0.097c0.001,-0.003 0.002,-0.006 0.005,-0.008c0.002,-0.003 0.005,-0.004 0.008,-0.004l0.385,0Z" style="fill-rule:nonzero;"/></g><g transform="matrix(12,0,0,12,588.231,345.376)"><path d="M0.351,-0.688c0.001,-0.003 0.002,-0.006 0.004,-0.008c0.003,-0.003 0.006,-0.004 0.009,-0.004l0.114,0c0.003,0 0.006,0.001 0.008,0.004c0.002,0.002 0.003,0.005 0.002,0.008l-0.083,0.676c-0.001,0.003 -0.002,0.006 -0.005,0.009c-0.002,0.002 -0.005,0.003 -0.008,0.003l-0.114,0c-0.003,0 -0.006,-0.001 -0.008,-0.003c-0.002,-0.003 -0.003,-0.006 -0.002,-0.009l0.034,-0.273c-0,-0.003 -0.001,-0.005 -0.004,-0.005l-0.097,0c-0.004,0 -0.006,0.002 -0.006,0.005l-0.033,0.273c-0.001,0.003 -0.002,0.006 -0.005,0.009c-0.003,0.002 -0.006,0.003 -0.009,0.003l-0.113,0c-0.003,0 -0.006,-0.001 -0.008,-0.003c-0.002,-0.003 -0.003,-0.006 -0.002,-0.009l0.083,-0.676c0.001,-0.003 0.002,-0.006 0.004,-0.008c0.003,-0.003 0.006,-0.004 0.009,-0.004l0.113,0c0.007,0 0.011,0.004 0.011,0.012l-0.034,0.272c-0,0.003 0.001,0.005 0.004,0.005l0.097,0c0.003,0 0.005,-0.002 0.006,-0.005l0.033,-0.272Z" style="fill-rule:nonzero;"/></g><g transform="matrix(12,0,0,12,593.823,345.376)"><path d="M0.035,-0c-0.003,-0 -0.006,-0.001 -0.008,-0.004c-0.002,-0.002 -0.003,-0.005 -0.002,-0.008l0.083,-0.676c0.001,-0.003 0.002,-0.006 0.004,-0.008c0.003,-0.003 0.006,-0.004 0.009,-0.004l0.113,0c0.007,0 0.011,0.004 0.011,0.012l-0.083,0.676c-0.001,0.003 -0.002,0.006 -0.005,0.009c-0.003,0.002 -0.006,0.003 -0.009,0.003l-0.113,0Z" style="fill-rule:nonzero;"/></g><g transform="matrix(12,0,0,12,596.499,345.376)"><path d="M0.385,-0.688c0.001,-0.003 0.002,-0.006 0.005,-0.008c0.002,-0.003 0.005,-0.004 0.008,-0.004l0.113,0c0.003,0 0.006,0.001 0.008,0.004c0.002,0.002 0.003,0.005 0.002,0.008l-0.083,0.676c-0.001,0.003 -0.002,0.006 -0.005,0.009c-0.002,0.002 -0.005,0.003 -0.008,0.003l-0.128,0c-0.006,0 -0.01,-0.003 -0.012,-0.01l-0.072,-0.387c-0.001,-0.002 -0.002,-0.003 -0.003,-0.003c-0.002,0.001 -0.003,0.002 -0.003,0.004l-0.046,0.384c-0.001,0.003 -0.002,0.006 -0.005,0.009c-0.003,0.002 -0.006,0.003 -0.009,0.003l-0.112,0c-0.003,0 -0.006,-0.001 -0.008,-0.003c-0.002,-0.003 -0.003,-0.006 -0.002,-0.009l0.083,-0.676c0.001,-0.003 0.002,-0.006 0.005,-0.008c0.002,-0.003 0.005,-0.004 0.008,-0.004l0.127,0c0.006,0 0.01,0.003 0.011,0.01l0.074,0.387c0.001,0.002 0.002,0.003 0.004,0.003c0.001,-0.001 0.002,-0.002 0.002,-0.004l0.046,-0.384Z" style="fill-rule:nonzero;"/></g><g transform="matrix(12,0,0,12,602.487,345.376)"><path d="M0.206,0.008c-0.053,-0 -0.095,-0.014 -0.126,-0.043c-0.031,-0.029 -0.046,-0.068 -0.046,-0.117c-0,-0.006 0.001,-0.016 0.002,-0.029l0.041,-0.338c0.007,-0.057 0.03,-0.103 0.069,-0.137c0.04,-0.035 0.089,-0.052 0.148,-0.052c0.053,0 0.094,0.015 0.125,0.044c0.031,0.029 0.047,0.068 0.047,0.117c0,0.006 -0.001,0.016 -0.002,0.029l-0.004,0.038c-0.001,0.003 -0.002,0.006 -0.005,0.009c-0.003,0.002 -0.006,0.003 -0.009,0.003l-0.113,0c-0.003,0 -0.006,-0.001 -0.008,-0.003c-0.002,-0.003 -0.003,-0.006 -0.002,-0.009l0.005,-0.04c0.001,-0.003 0.001,-0.007 0.001,-0.012c0,-0.017 -0.005,-0.03 -0.014,-0.04c-0.009,-0.01 -0.021,-0.015 -0.036,-0.015c-0.017,0 -0.031,0.006 -0.043,0.019c-0.012,0.012 -0.019,0.028 -0.022,0.048l-0.042,0.34c-0.002,0.02 0.001,0.036 0.01,0.048c0.009,0.013 0.021,0.019 0.038,0.019c0.017,0 0.032,-0.006 0.044,-0.019c0.012,-0.012 0.019,-0.028 0.022,-0.048l0.01,-0.08c-0,-0.003 -0.001,-0.005 -0.004,-0.005l-0.043,0c-0.003,0 -0.006,-0.001 -0.008,-0.004c-0.002,-0.002 -0.003,-0.005 -0.002,-0.008l0.011,-0.089c0,-0.003 0.001,-0.006 0.004,-0.009c0.003,-0.002 0.006,-0.003 0.009,-0.003l0.172,0c0.007,0 0.011,0.004 0.011,0.012l-0.023,0.185c-0.007,0.057 -0.03,0.103 -0.07,0.138c-0.04,0.034 -0.089,0.051 -0.147,0.051Z" style="fill-rule:nonzero;"/></g><g transform="matrix(12,0,0,12,607.923,345.376)"><path d="M0.197,0.008c-0.051,-0 -0.092,-0.014 -0.123,-0.043c-0.03,-0.029 -0.045,-0.066 -0.045,-0.113c-0,-0.006 0.001,-0.015 0.002,-0.027l0.004,-0.029c0.001,-0.003 0.002,-0.006 0.004,-0.008c0.003,-0.003 0.006,-0.004 0.009,-0.004l0.111,0c0.007,0 0.011,0.004 0.011,0.012l-0.003,0.022c-0.001,0.003 -0.001,0.007 -0.001,0.012c-0,0.017 0.004,0.031 0.013,0.042c0.009,0.01 0.02,0.015 0.034,0.015c0.017,0 0.032,-0.007 0.044,-0.022c0.013,-0.014 0.019,-0.032 0.019,-0.053c-0,-0.017 -0.006,-0.033 -0.017,-0.046c-0.011,-0.013 -0.033,-0.033 -0.065,-0.059c-0.027,-0.021 -0.048,-0.041 -0.065,-0.057c-0.017,-0.018 -0.031,-0.038 -0.043,-0.062c-0.011,-0.023 -0.017,-0.05 -0.017,-0.081c-0,-0.042 0.009,-0.079 0.027,-0.112c0.019,-0.033 0.044,-0.058 0.076,-0.076c0.033,-0.018 0.069,-0.027 0.109,-0.027c0.051,0 0.092,0.015 0.123,0.044c0.03,0.03 0.045,0.07 0.045,0.119c0,0.006 -0.001,0.016 -0.002,0.029l-0.003,0.024c-0.001,0.003 -0.002,0.006 -0.005,0.008c-0.003,0.003 -0.006,0.004 -0.009,0.004l-0.111,-0c-0.003,-0 -0.006,-0.001 -0.008,-0.004c-0.002,-0.002 -0.003,-0.005 -0.002,-0.008l0.003,-0.027c0.001,-0.003 0.001,-0.007 0.001,-0.013c0,-0.017 -0.004,-0.03 -0.013,-0.04c-0.008,-0.01 -0.019,-0.015 -0.034,-0.015c-0.017,0 -0.032,0.007 -0.044,0.021c-0.011,0.015 -0.017,0.034 -0.017,0.058c-0,0.016 0.005,0.031 0.016,0.045c0.011,0.015 0.032,0.034 0.061,0.059c0.033,0.028 0.058,0.05 0.075,0.067c0.017,0.017 0.031,0.036 0.041,0.056c0.01,0.02 0.015,0.043 0.015,0.069c-0,0.005 -0.001,0.015 -0.002,0.028c-0.007,0.059 -0.031,0.105 -0.07,0.14c-0.039,0.035 -0.087,0.052 -0.144,0.052Z" style="fill-rule:nonzero;"/></g><g transform="matrix(12,0,0,12,542.127,357.376)"><path d="M0.437,-0.197c-0.007,0.063 -0.03,0.112 -0.071,0.146c-0.04,0.034 -0.089,0.051 -0.148,0.051l-0.183,0c-0.003,0 -0.006,-0.001 -0.008,-0.003c-0.002,-0.003 -0.003,-0.006 -0.002,-0.009l0.083,-0.676c0.001,-0.003 0.002,-0.006 0.004,-0.008c0.003,-0.003 0.006,-0.004 0.009,-0.004l0.162,0c0.059,0 0.104,0.013 0.136,0.04c0.033,0.026 0.049,0.065 0.049,0.117c0,0.007 -0.001,0.018 -0.002,0.034c-0.008,0.065 -0.036,0.113 -0.084,0.144c-0.003,0.002 -0.003,0.004 -0.001,0.006c0.039,0.031 0.058,0.074 0.058,0.131c0,0.006 -0.001,0.016 -0.002,0.031Zm-0.201,-0.382c-0.003,0 -0.005,0.002 -0.005,0.005l-0.02,0.157c0,0.003 0.001,0.005 0.004,0.005l0.035,-0c0.025,-0 0.045,-0.009 0.059,-0.027c0.015,-0.018 0.022,-0.043 0.022,-0.075c0,-0.021 -0.005,-0.038 -0.016,-0.049c-0.01,-0.011 -0.025,-0.016 -0.044,-0.016l-0.035,0Zm-0.013,0.457c0.021,-0 0.039,-0.008 0.053,-0.024c0.014,-0.016 0.023,-0.039 0.027,-0.068c0.001,-0.005 0.001,-0.012 0.001,-0.021c-0,-0.023 -0.005,-0.042 -0.015,-0.055c-0.01,-0.013 -0.024,-0.02 -0.042,-0.02l-0.044,-0c-0.003,-0 -0.005,0.002 -0.006,0.005l-0.021,0.178c-0.001,0.003 -0,0.005 0.004,0.005l0.043,-0Z" style="fill-rule:nonzero;"/></g><g transform="matrix(12,0,0,12,547.599,357.376)"><path d="M0.291,-0c-0.007,-0 -0.011,-0.003 -0.012,-0.01l-0.041,-0.276c-0.001,-0.003 -0.003,-0.004 -0.005,-0.004l-0.032,0c-0.004,0 -0.006,0.002 -0.006,0.005l-0.033,0.273c-0.001,0.003 -0.002,0.006 -0.005,0.009c-0.003,0.002 -0.006,0.003 -0.009,0.003l-0.113,0c-0.003,0 -0.006,-0.001 -0.008,-0.003c-0.002,-0.003 -0.003,-0.006 -0.002,-0.009l0.083,-0.676c0.001,-0.003 0.002,-0.006 0.005,-0.008c0.002,-0.003 0.005,-0.004 0.008,-0.004l0.196,0c0.048,0 0.086,0.016 0.115,0.048c0.029,0.031 0.043,0.073 0.043,0.126c0,0.016 -0.001,0.028 -0.002,0.037c-0.005,0.039 -0.016,0.073 -0.034,0.104c-0.019,0.03 -0.042,0.053 -0.07,0.07c-0.001,0.001 -0.002,0.002 -0.003,0.003c-0.001,0.001 -0.001,0.002 0,0.003l0.053,0.295l0,0.002c0,0.003 -0.001,0.006 -0.003,0.009c-0.003,0.002 -0.006,0.003 -0.009,0.003l-0.116,0Zm-0.055,-0.579c-0.003,0 -0.005,0.002 -0.005,0.005l-0.021,0.171c-0.001,0.003 0,0.005 0.004,0.005l0.043,-0c0.023,-0 0.042,-0.01 0.057,-0.03c0.015,-0.02 0.023,-0.046 0.023,-0.079c0,-0.022 -0.005,-0.04 -0.015,-0.053c-0.011,-0.013 -0.025,-0.019 -0.042,-0.019l-0.044,0Z" style="fill-rule:nonzero;"/></g><g transform="matrix(12,0,0,12,553.083,357.376)"><path d="M0.035,-0c-0.003,-0 -0.006,-0.001 -0.008,-0.004c-0.002,-0.002 -0.003,-0.005 -0.002,-0.008l0.083,-0.676c0.001,-0.003 0.002,-0.006 0.004,-0.008c0.003,-0.003 0.006,-0.004 0.009,-0.004l0.113,0c0.007,0 0.011,0.004 0.011,0.012l-0.083,0.676c-0.001,0.003 -0.002,0.006 -0.005,0.009c-0.003,0.002 -0.006,0.003 -0.009,0.003l-0.113,0Z" style="fill-rule:nonzero;"/></g><g transform="matrix(12,0,0,12,555.759,357.376)"><path d="M0.385,-0.688c0.001,-0.003 0.002,-0.006 0.005,-0.008c0.002,-0.003 0.005,-0.004 0.008,-0.004l0.113,0c0.003,0 0.006,0.001 0.008,0.004c0.002,0.002 0.003,0.005 0.002,0.008l-0.083,0.676c-0.001,0.003 -0.002,0.006 -0.005,0.009c-0.002,0.002 -0.005,0.003 -0.008,0.003l-0.128,0c-0.006,0 -0.01,-0.003 -0.012,-0.01l-0.072,-0.387c-0.001,-0.002 -0.002,-0.003 -0.003,-0.003c-0.002,0.001 -0.003,0.002 -0.003,0.004l-0.046,0.384c-0.001,0.003 -0.002,0.006 -0.005,0.009c-0.003,0.002 -0.006,0.003 -0.009,0.003l-0.112,0c-0.003,0 -0.006,-0.001 -0.008,-0.003c-0.002,-0.003 -0.003,-0.006 -0.002,-0.009l0.083,-0.676c0.001,-0.003 0.002,-0.006 0.005,-0.008c0.002,-0.003 0.005,-0.004 0.008,-0.004l0.127,0c0.006,0 0.01,0.003 0.011,0.01l0.074,0.387c0.001,0.002 0.002,0.003 0.004,0.003c0.001,-0.001 0.002,-0.002 0.002,-0.004l0.046,-0.384Z" style="fill-rule:nonzero;"/></g><g transform="matrix(12,0,0,12,561.747,357.376)"><path d="M0.206,0.008c-0.053,-0 -0.095,-0.014 -0.126,-0.043c-0.031,-0.029 -0.046,-0.068 -0.046,-0.117c-0,-0.006 0.001,-0.016 0.002,-0.029l0.041,-0.338c0.007,-0.057 0.03,-0.103 0.069,-0.137c0.04,-0.035 0.089,-0.052 0.148,-0.052c0.053,0 0.094,0.015 0.125,0.044c0.031,0.029 0.047,0.068 0.047,0.117c0,0.006 -0.001,0.016 -0.002,0.029l-0.004,0.038c-0.001,0.003 -0.002,0.006 -0.005,0.009c-0.003,0.002 -0.006,0.003 -0.009,0.003l-0.113,0c-0.003,0 -0.006,-0.001 -0.008,-0.003c-0.002,-0.003 -0.003,-0.006 -0.002,-0.009l0.005,-0.04c0.001,-0.003 0.001,-0.007 0.001,-0.012c0,-0.017 -0.005,-0.03 -0.014,-0.04c-0.009,-0.01 -0.021,-0.015 -0.036,-0.015c-0.017,0 -0.031,0.006 -0.043,0.019c-0.012,0.012 -0.019,0.028 -0.022,0.048l-0.042,0.34c-0.002,0.02 0.001,0.036 0.01,0.048c0.009,0.013 0.021,0.019 0.038,0.019c0.017,0 0.032,-0.006 0.044,-0.019c0.012,-0.012 0.019,-0.028 0.022,-0.048l0.01,-0.08c-0,-0.003 -0.001,-0.005 -0.004,-0.005l-0.043,0c-0.003,0 -0.006,-0.001 -0.008,-0.004c-0.002,-0.002 -0.003,-0.005 -0.002,-0.008l0.011,-0.089c0,-0.003 0.001,-0.006 0.004,-0.009c0.003,-0.002 0.006,-0.003 0.009,-0.003l0.172,0c0.007,0 0.011,0.004 0.011,0.012l-0.023,0.185c-0.007,0.057 -0.03,0.103 -0.07,0.138c-0.04,0.034 -0.089,0.051 -0.147,0.051Z" style="fill-rule:nonzero;"/></g><g transform="matrix(12,0,0,12,567.183,357.376)"><path d="M0.197,0.008c-0.051,-0 -0.092,-0.014 -0.123,-0.043c-0.03,-0.029 -0.045,-0.066 -0.045,-0.113c-0,-0.006 0.001,-0.015 0.002,-0.027l0.004,-0.029c0.001,-0.003 0.002,-0.006 0.004,-0.008c0.003,-0.003 0.006,-0.004 0.009,-0.004l0.111,0c0.007,0 0.011,0.004 0.011,0.012l-0.003,0.022c-0.001,0.003 -0.001,0.007 -0.001,0.012c-0,0.017 0.004,0.031 0.013,0.042c0.009,0.01 0.02,0.015 0.034,0.015c0.017,0 0.032,-0.007 0.044,-0.022c0.013,-0.014 0.019,-0.032 0.019,-0.053c-0,-0.017 -0.006,-0.033 -0.017,-0.046c-0.011,-0.013 -0.033,-0.033 -0.065,-0.059c-0.027,-0.021 -0.048,-0.041 -0.065,-0.057c-0.017,-0.018 -0.031,-0.038 -0.043,-0.062c-0.011,-0.023 -0.017,-0.05 -0.017,-0.081c-0,-0.042 0.009,-0.079 0.027,-0.112c0.019,-0.033 0.044,-0.058 0.076,-0.076c0.033,-0.018 0.069,-0.027 0.109,-0.027c0.051,0 0.092,0.015 0.123,0.044c0.03,0.03 0.045,0.07 0.045,0.119c0,0.006 -0.001,0.016 -0.002,0.029l-0.003,0.024c-0.001,0.003 -0.002,0.006 -0.005,0.008c-0.003,0.003 -0.006,0.004 -0.009,0.004l-0.111,-0c-0.003,-0 -0.006,-0.001 -0.008,-0.004c-0.002,-0.002 -0.003,-0.005 -0.002,-0.008l0.003,-0.027c0.001,-0.003 0.001,-0.007 0.001,-0.013c0,-0.017 -0.004,-0.03 -0.013,-0.04c-0.008,-0.01 -0.019,-0.015 -0.034,-0.015c-0.017,0 -0.032,0.007 -0.044,0.021c-0.011,0.015 -0.017,0.034 -0.017,0.058c-0,0.016 0.005,0.031 0.016,0.045c0.011,0.015 0.032,0.034 0.061,0.059c0.033,0.028 0.058,0.05 0.075,0.067c0.017,0.017 0.031,0.036 0.041,0.056c0.01,0.02 0.015,0.043 0.015,0.069c-0,0.005 -0.001,0.015 -0.002,0.028c-0.007,0.059 -0.031,0.105 -0.07,0.14c-0.039,0.035 -0.087,0.052 -0.144,0.052Z" style="fill-rule:nonzero;"/></g><g transform="matrix(12,0,0,12,574.683,357.376)"><path d="M0.419,-0.692c0.003,-0.005 0.008,-0.008 0.015,-0.008l0.113,0c0.003,0 0.006,0.001 0.008,0.004c0.002,0.002 0.003,0.005 0.002,0.008l-0.083,0.676c-0.001,0.003 -0.002,0.006 -0.005,0.009c-0.002,0.002 -0.005,0.003 -0.008,0.003l-0.114,0c-0.003,0 -0.006,-0.001 -0.008,-0.003c-0.002,-0.003 -0.003,-0.006 -0.002,-0.009l0.055,-0.449c0.001,-0.003 0,-0.004 -0.001,-0.004c-0.001,0 -0.003,0.001 -0.004,0.003l-0.093,0.138c-0.004,0.005 -0.007,0.008 -0.009,0.008c-0.001,0 -0.004,-0.003 -0.007,-0.008l-0.058,-0.138c-0.001,-0.002 -0.003,-0.003 -0.004,-0.003c-0.001,0 -0.002,0.001 -0.002,0.004l-0.055,0.449c-0.001,0.003 -0.002,0.006 -0.005,0.009c-0.002,0.002 -0.005,0.003 -0.008,0.003l-0.114,0c-0.003,0 -0.006,-0.001 -0.008,-0.003c-0.002,-0.003 -0.003,-0.006 -0.002,-0.009l0.083,-0.676c0.001,-0.003 0.002,-0.006 0.004,-0.008c0.003,-0.003 0.006,-0.004 0.009,-0.004l0.112,0c0.003,0 0.005,0.001 0.008,0.002c0.003,0.001 0.004,0.003 0.005,0.006l0.067,0.159c0.001,0.003 0.003,0.003 0.006,0l0.103,-0.159Z" style="fill-rule:nonzero;"/></g><g transform="matrix(12,0,0,12,581.055,357.376)"><path d="M0.452,-0.591c-0.001,0.003 -0.002,0.006 -0.005,0.008c-0.002,0.003 -0.005,0.004 -0.008,0.004l-0.203,0c-0.003,0 -0.005,0.002 -0.005,0.005l-0.02,0.158c0,0.003 0.001,0.005 0.004,0.005l0.117,-0c0.003,-0 0.006,0.001 0.008,0.003c0.002,0.003 0.003,0.006 0.002,0.009l-0.012,0.097c-0.001,0.003 -0.002,0.006 -0.005,0.008c-0.002,0.003 -0.005,0.004 -0.008,0.004l-0.116,-0c-0.004,-0 -0.006,0.002 -0.006,0.005l-0.019,0.159c-0.001,0.003 -0,0.005 0.004,0.005l0.202,-0c0.003,-0 0.006,0.001 0.009,0.003c0.002,0.003 0.003,0.006 0.002,0.009l-0.012,0.097c-0.001,0.003 -0.002,0.006 -0.005,0.008c-0.002,0.003 -0.005,0.004 -0.008,0.004l-0.333,-0c-0.003,-0 -0.006,-0.001 -0.008,-0.004c-0.002,-0.002 -0.003,-0.005 -0.002,-0.008l0.083,-0.676c0.001,-0.003 0.002,-0.006 0.005,-0.009c0.002,-0.002 0.005,-0.003 0.008,-0.003l0.333,0c0.003,0 0.006,0.001 0.008,0.003c0.002,0.003 0.003,0.006 0.002,0.009l-0.012,0.097Z" style="fill-rule:nonzero;"/></g><g transform="matrix(12,0,0,12,588.483,357.376)"><path d="M0.183,0.008c-0.052,-0 -0.093,-0.014 -0.124,-0.043c-0.03,-0.029 -0.045,-0.067 -0.045,-0.116c0,-0.006 0.001,-0.016 0.002,-0.029l0.009,-0.069c0.001,-0.003 0.002,-0.006 0.004,-0.008c0.003,-0.003 0.006,-0.004 0.009,-0.004l0.113,0c0.007,0 0.011,0.004 0.011,0.012l-0.009,0.071c-0.001,0.003 -0.001,0.007 -0.001,0.013c-0,0.015 0.004,0.028 0.012,0.037c0.009,0.01 0.02,0.015 0.034,0.015c0.017,-0 0.031,-0.006 0.042,-0.018c0.012,-0.012 0.019,-0.028 0.021,-0.047l0.063,-0.51c0.001,-0.003 0.002,-0.006 0.004,-0.009c0.003,-0.002 0.006,-0.003 0.009,-0.003l0.114,0c0.003,0 0.006,0.001 0.008,0.003c0.002,0.003 0.003,0.006 0.002,0.009l-0.063,0.508c-0.007,0.057 -0.03,0.102 -0.07,0.136c-0.039,0.035 -0.088,0.052 -0.145,0.052Z" style="fill-rule:nonzero;"/></g><g transform="matrix(12,0,0,12,593.715,357.376)"><path d="M0.209,0.008c-0.054,-0 -0.096,-0.015 -0.128,-0.045c-0.03,-0.029 -0.046,-0.07 -0.046,-0.121c0,-0.007 0.001,-0.017 0.002,-0.032l0.039,-0.32c0.007,-0.06 0.031,-0.108 0.071,-0.144c0.04,-0.036 0.09,-0.054 0.149,-0.054c0.054,0 0.097,0.015 0.128,0.045c0.031,0.029 0.047,0.07 0.047,0.121c0,0.007 -0.001,0.017 -0.002,0.032l-0.039,0.32c-0.007,0.06 -0.031,0.108 -0.072,0.144c-0.04,0.036 -0.09,0.054 -0.149,0.054Zm0.014,-0.121c0.019,-0 0.034,-0.007 0.047,-0.02c0.012,-0.013 0.019,-0.03 0.022,-0.051l0.041,-0.332c0.001,-0.003 0.001,-0.007 0.001,-0.012c0,-0.018 -0.005,-0.032 -0.014,-0.043c-0.009,-0.011 -0.022,-0.016 -0.038,-0.016c-0.018,0 -0.033,0.007 -0.046,0.02c-0.012,0.013 -0.019,0.03 -0.022,0.051l-0.041,0.332c-0.001,0.003 -0.001,0.007 -0.001,0.012c-0,0.018 0.005,0.032 0.014,0.043c0.009,0.011 0.022,0.016 0.037,0.016Z" style="fill-rule:nonzero;"/></g><g transform="matrix(12,0,0,12,599.055,357.376)"><path d="M0.153,-0.001c-0.003,0 -0.006,-0.001 -0.008,-0.003c-0.002,-0.003 -0.003,-0.006 -0.002,-0.009l0.032,-0.26c0,-0.001 0,-0.002 0.001,-0.003c-0,-0.001 -0,-0.002 -0.001,-0.003l-0.086,-0.407l0,-0.003c0,-0.003 0.001,-0.006 0.003,-0.008c0.002,-0.002 0.005,-0.003 0.008,-0.003l0.12,0c0.007,0 0.011,0.003 0.012,0.01l0.031,0.239c0,0.002 0.001,0.003 0.003,0.003c0.001,0 0.002,-0.001 0.003,-0.003l0.089,-0.239c0.003,-0.007 0.008,-0.01 0.015,-0.01l0.119,0c0.004,0 0.007,0.001 0.008,0.004c0.002,0.002 0.002,0.005 0,0.01l-0.186,0.407c-0.001,0.002 -0.002,0.004 -0.002,0.006l-0.032,0.26c-0.001,0.003 -0.002,0.006 -0.005,0.009c-0.002,0.002 -0.005,0.003 -0.008,0.003l-0.114,0Z" style="fill-rule:nonzero;"/></g><g transform="matrix(12,0,0,12,604.575,357.376)"><path d="M0.102,-0.24c-0.003,0 -0.006,-0.001 -0.008,-0.004c-0.002,-0.002 -0.003,-0.005 -0.002,-0.008l0.039,-0.436c0.001,-0.003 0.002,-0.006 0.005,-0.009c0.002,-0.002 0.005,-0.003 0.008,-0.003l0.114,0c0.003,0 0.006,0.001 0.008,0.003c0.002,0.003 0.003,0.006 0.002,0.009l-0.067,0.436c-0.001,0.003 -0.002,0.006 -0.005,0.008c-0.002,0.003 -0.005,0.004 -0.008,0.004l-0.086,-0Zm0.015,0.239c-0.02,-0 -0.036,-0.006 -0.049,-0.019c-0.013,-0.013 -0.019,-0.029 -0.019,-0.048c0,-0.027 0.008,-0.049 0.025,-0.066c0.017,-0.017 0.037,-0.025 0.062,-0.025c0.021,-0 0.037,0.006 0.049,0.018c0.012,0.012 0.018,0.028 0.018,0.048c0,0.025 -0.009,0.047 -0.026,0.065c-0.017,0.018 -0.037,0.027 -0.06,0.027Z" style="fill-rule:nonzero;"/></g></g></svg>