<?xml version="1.0" encoding="UTF-8" standalone="no"?>
<!DOCTYPE svg PUBLIC "-//W3C//DTD SVG 1.1//EN" "http://www.w3.org/Graphics/SVG/1.1/DTD/svg11.dtd">
<svg width="100%" height="100%" viewBox="0 0 377 142" version="1.1" xmlns="http://www.w3.org/2000/svg" xmlns:xlink="http://www.w3.org/1999/xlink" xml:space="preserve" xmlns:serif="http://www.serif.com/" style="fill-rule:evenodd;clip-rule:evenodd;stroke-linejoin:round;stroke-miterlimit:2;">
    <g transform="matrix(1,0,0,1,-524.112,-214.708)">
        <g transform="matrix(0.989556,0,0,0.985447,11.6119,12.8469)">
            <g transform="matrix(3.93353,0,0,3.7631,-1615.7,-1062.87)">
                <g transform="matrix(12,0,0,12,542.127,345.376)">
                    <path d="M0.432,-0.7C0.435,-0.7 0.438,-0.699 0.441,-0.697C0.443,-0.694 0.444,-0.691 0.444,-0.688L0.444,-0.591C0.444,-0.588 0.443,-0.585 0.441,-0.583C0.438,-0.58 0.435,-0.579 0.432,-0.579L0.307,-0.579C0.304,-0.579 0.302,-0.577 0.302,-0.574L0.302,-0.012C0.302,-0.009 0.301,-0.006 0.299,-0.004C0.296,-0.001 0.293,-0 0.29,-0L0.173,-0C0.17,-0 0.167,-0.001 0.165,-0.004C0.162,-0.006 0.161,-0.009 0.161,-0.012L0.161,-0.574C0.161,-0.577 0.159,-0.579 0.156,-0.579L0.036,-0.579C0.033,-0.579 0.03,-0.58 0.028,-0.583C0.025,-0.585 0.024,-0.588 0.024,-0.591L0.024,-0.688C0.024,-0.691 0.025,-0.694 0.028,-0.697C0.03,-0.699 0.033,-0.7 0.036,-0.7L0.432,-0.7Z" style="fill-rule:nonzero;"/>
                </g>
                <g transform="matrix(12,0,0,12,547.743,345.376)">
                    <path d="M0.295,-0.688C0.295,-0.691 0.296,-0.694 0.299,-0.697C0.301,-0.699 0.304,-0.7 0.307,-0.7L0.424,-0.7C0.427,-0.7 0.43,-0.699 0.433,-0.697C0.435,-0.694 0.436,-0.691 0.436,-0.688L0.436,-0.012C0.436,-0.009 0.435,-0.006 0.433,-0.004C0.43,-0.001 0.427,-0 0.424,-0L0.307,-0C0.304,-0 0.301,-0.001 0.299,-0.004C0.296,-0.006 0.295,-0.009 0.295,-0.012L0.295,-0.285C0.295,-0.288 0.293,-0.29 0.29,-0.29L0.19,-0.29C0.187,-0.29 0.185,-0.288 0.185,-0.285L0.185,-0.012C0.185,-0.009 0.184,-0.006 0.182,-0.004C0.179,-0.001 0.176,-0 0.173,-0L0.056,-0C0.053,-0 0.05,-0.001 0.048,-0.004C0.045,-0.006 0.044,-0.009 0.044,-0.012L0.044,-0.688C0.044,-0.691 0.045,-0.694 0.048,-0.697C0.05,-0.699 0.053,-0.7 0.056,-0.7L0.173,-0.7C0.176,-0.7 0.179,-0.699 0.182,-0.697C0.184,-0.694 0.185,-0.691 0.185,-0.688L0.185,-0.416C0.185,-0.413 0.187,-0.411 0.19,-0.411L0.29,-0.411C0.293,-0.411 0.295,-0.413 0.295,-0.416L0.295,-0.688Z" style="fill-rule:nonzero;"/>
                </g>
                <g transform="matrix(12,0,0,12,553.503,345.376)">
                    <path d="M0.236,0.008C0.175,0.008 0.126,-0.01 0.089,-0.046C0.052,-0.082 0.034,-0.13 0.034,-0.19L0.034,-0.51C0.034,-0.57 0.052,-0.618 0.089,-0.654C0.126,-0.69 0.175,-0.708 0.236,-0.708C0.297,-0.708 0.346,-0.69 0.384,-0.654C0.421,-0.618 0.439,-0.57 0.439,-0.51L0.439,-0.19C0.439,-0.13 0.421,-0.082 0.384,-0.046C0.346,-0.01 0.297,0.008 0.236,0.008ZM0.236,-0.113C0.255,-0.113 0.27,-0.119 0.281,-0.133C0.292,-0.146 0.298,-0.163 0.298,-0.184L0.298,-0.516C0.298,-0.537 0.292,-0.555 0.281,-0.568C0.27,-0.581 0.255,-0.587 0.236,-0.587C0.217,-0.587 0.203,-0.581 0.192,-0.568C0.181,-0.555 0.175,-0.537 0.175,-0.516L0.175,-0.184C0.175,-0.163 0.181,-0.146 0.192,-0.133C0.203,-0.119 0.217,-0.113 0.236,-0.113Z" style="fill-rule:nonzero;"/>
                </g>
                <g transform="matrix(12,0,0,12,559.179,345.376)">
                    <path d="M0.24,0.008C0.18,0.008 0.132,-0.011 0.096,-0.049C0.059,-0.086 0.041,-0.136 0.041,-0.199L0.041,-0.688C0.041,-0.691 0.042,-0.694 0.045,-0.697C0.047,-0.699 0.05,-0.7 0.053,-0.7L0.17,-0.7C0.173,-0.7 0.176,-0.699 0.179,-0.697C0.181,-0.694 0.182,-0.691 0.182,-0.688L0.182,-0.185C0.182,-0.164 0.187,-0.146 0.198,-0.133C0.209,-0.12 0.223,-0.113 0.24,-0.113C0.257,-0.113 0.271,-0.12 0.281,-0.133C0.292,-0.146 0.297,-0.164 0.297,-0.185L0.297,-0.688C0.297,-0.691 0.298,-0.694 0.301,-0.697C0.303,-0.699 0.306,-0.7 0.309,-0.7L0.426,-0.7C0.429,-0.7 0.432,-0.699 0.435,-0.697C0.437,-0.694 0.438,-0.691 0.438,-0.688L0.438,-0.199C0.438,-0.136 0.42,-0.086 0.384,-0.049C0.347,-0.011 0.299,0.008 0.24,0.008Z" style="fill-rule:nonzero;"/>
                </g>
                <g transform="matrix(12,0,0,12,564.891,345.376)">
                    <path d="M0.233,0.008C0.173,0.008 0.125,-0.009 0.089,-0.043C0.052,-0.078 0.034,-0.124 0.034,-0.181L0.034,-0.519C0.034,-0.576 0.052,-0.622 0.089,-0.657C0.125,-0.691 0.173,-0.708 0.233,-0.708C0.293,-0.708 0.341,-0.691 0.378,-0.656C0.415,-0.621 0.433,-0.575 0.433,-0.518L0.433,-0.48C0.433,-0.477 0.432,-0.474 0.43,-0.471C0.427,-0.469 0.424,-0.468 0.421,-0.468L0.304,-0.468C0.301,-0.468 0.298,-0.469 0.296,-0.471C0.293,-0.474 0.292,-0.477 0.292,-0.48L0.292,-0.52C0.292,-0.54 0.287,-0.556 0.276,-0.569C0.265,-0.581 0.251,-0.587 0.233,-0.587C0.216,-0.587 0.202,-0.581 0.191,-0.569C0.18,-0.556 0.175,-0.54 0.175,-0.52L0.175,-0.18C0.175,-0.16 0.18,-0.144 0.191,-0.132C0.202,-0.119 0.216,-0.113 0.233,-0.113C0.251,-0.113 0.265,-0.119 0.276,-0.132C0.287,-0.144 0.292,-0.16 0.292,-0.18L0.292,-0.26C0.292,-0.263 0.29,-0.265 0.287,-0.265L0.243,-0.265C0.24,-0.265 0.237,-0.266 0.234,-0.269C0.232,-0.271 0.231,-0.274 0.231,-0.277L0.231,-0.366C0.231,-0.369 0.232,-0.372 0.234,-0.375C0.237,-0.377 0.24,-0.378 0.243,-0.378L0.421,-0.378C0.424,-0.378 0.427,-0.377 0.43,-0.375C0.432,-0.372 0.433,-0.369 0.433,-0.366L0.433,-0.181C0.433,-0.124 0.415,-0.078 0.378,-0.043C0.341,-0.009 0.293,0.008 0.233,0.008Z" style="fill-rule:nonzero;"/>
                </g>
                <g transform="matrix(12,0,0,12,570.495,345.376)">
                    <path d="M0.295,-0.688C0.295,-0.691 0.296,-0.694 0.299,-0.697C0.301,-0.699 0.304,-0.7 0.307,-0.7L0.424,-0.7C0.427,-0.7 0.43,-0.699 0.433,-0.697C0.435,-0.694 0.436,-0.691 0.436,-0.688L0.436,-0.012C0.436,-0.009 0.435,-0.006 0.433,-0.004C0.43,-0.001 0.427,-0 0.424,-0L0.307,-0C0.304,-0 0.301,-0.001 0.299,-0.004C0.296,-0.006 0.295,-0.009 0.295,-0.012L0.295,-0.285C0.295,-0.288 0.293,-0.29 0.29,-0.29L0.19,-0.29C0.187,-0.29 0.185,-0.288 0.185,-0.285L0.185,-0.012C0.185,-0.009 0.184,-0.006 0.182,-0.004C0.179,-0.001 0.176,-0 0.173,-0L0.056,-0C0.053,-0 0.05,-0.001 0.048,-0.004C0.045,-0.006 0.044,-0.009 0.044,-0.012L0.044,-0.688C0.044,-0.691 0.045,-0.694 0.048,-0.697C0.05,-0.699 0.053,-0.7 0.056,-0.7L0.173,-0.7C0.176,-0.7 0.179,-0.699 0.182,-0.697C0.184,-0.694 0.185,-0.691 0.185,-0.688L0.185,-0.416C0.185,-0.413 0.187,-0.411 0.19,-0.411L0.29,-0.411C0.293,-0.411 0.295,-0.413 0.295,-0.416L0.295,-0.688Z" style="fill-rule:nonzero;"/>
                </g>
                <g transform="matrix(12,0,0,12,576.255,345.376)">
                    <path d="M0.432,-0.7C0.435,-0.7 0.438,-0.699 0.441,-0.697C0.443,-0.694 0.444,-0.691 0.444,-0.688L0.444,-0.591C0.444,-0.588 0.443,-0.585 0.441,-0.583C0.438,-0.58 0.435,-0.579 0.432,-0.579L0.307,-0.579C0.304,-0.579 0.302,-0.577 0.302,-0.574L0.302,-0.012C0.302,-0.009 0.301,-0.006 0.299,-0.004C0.296,-0.001 0.293,-0 0.29,-0L0.173,-0C0.17,-0 0.167,-0.001 0.165,-0.004C0.162,-0.006 0.161,-0.009 0.161,-0.012L0.161,-0.574C0.161,-0.577 0.159,-0.579 0.156,-0.579L0.036,-0.579C0.033,-0.579 0.03,-0.58 0.028,-0.583C0.025,-0.585 0.024,-0.588 0.024,-0.591L0.024,-0.688C0.024,-0.691 0.025,-0.694 0.028,-0.697C0.03,-0.699 0.033,-0.7 0.036,-0.7L0.432,-0.7Z" style="fill-rule:nonzero;"/>
                </g>
                <g transform="matrix(12,0,0,12,581.871,345.376)">
                    <path d="M0.224,0.008C0.185,0.008 0.151,0 0.122,-0.015C0.093,-0.03 0.07,-0.052 0.054,-0.08C0.038,-0.107 0.03,-0.139 0.03,-0.175L0.03,-0.204C0.03,-0.207 0.031,-0.21 0.034,-0.213C0.036,-0.215 0.039,-0.216 0.042,-0.216L0.157,-0.216C0.16,-0.216 0.163,-0.215 0.166,-0.213C0.168,-0.21 0.169,-0.207 0.169,-0.204L0.169,-0.182C0.169,-0.161 0.174,-0.145 0.185,-0.132C0.196,-0.119 0.209,-0.113 0.225,-0.113C0.241,-0.113 0.254,-0.119 0.265,-0.131C0.276,-0.143 0.281,-0.159 0.281,-0.178C0.281,-0.198 0.274,-0.215 0.261,-0.23C0.248,-0.244 0.222,-0.265 0.183,-0.293C0.15,-0.317 0.123,-0.338 0.102,-0.357C0.081,-0.376 0.064,-0.399 0.049,-0.426C0.034,-0.453 0.027,-0.485 0.027,-0.521C0.027,-0.578 0.045,-0.623 0.08,-0.657C0.115,-0.691 0.162,-0.708 0.22,-0.708C0.279,-0.708 0.326,-0.69 0.362,-0.655C0.397,-0.62 0.415,-0.573 0.415,-0.516L0.415,-0.492C0.415,-0.489 0.414,-0.486 0.411,-0.484C0.409,-0.481 0.406,-0.48 0.403,-0.48L0.288,-0.48C0.285,-0.48 0.282,-0.481 0.28,-0.484C0.277,-0.486 0.276,-0.489 0.276,-0.492L0.276,-0.519C0.276,-0.54 0.271,-0.556 0.261,-0.569C0.25,-0.581 0.237,-0.587 0.22,-0.587C0.204,-0.587 0.191,-0.581 0.181,-0.57C0.171,-0.558 0.166,-0.542 0.166,-0.521C0.166,-0.501 0.172,-0.483 0.185,-0.468C0.198,-0.453 0.223,-0.431 0.26,-0.404C0.301,-0.373 0.333,-0.348 0.354,-0.33C0.375,-0.311 0.391,-0.29 0.403,-0.267C0.414,-0.244 0.42,-0.216 0.42,-0.184C0.42,-0.125 0.402,-0.079 0.366,-0.044C0.33,-0.009 0.283,0.008 0.224,0.008Z" style="fill-rule:nonzero;"/>
                </g>
                <g transform="matrix(12,0,0,12,589.599,345.376)">
                    <path d="M0.403,-0.364C0.406,-0.364 0.409,-0.363 0.411,-0.361C0.414,-0.358 0.415,-0.355 0.415,-0.352L0.415,-0.27C0.415,-0.267 0.414,-0.264 0.411,-0.262C0.409,-0.259 0.406,-0.258 0.403,-0.258L0.277,-0.258C0.274,-0.258 0.272,-0.256 0.272,-0.253L0.272,-0.128C0.272,-0.125 0.271,-0.122 0.269,-0.119C0.266,-0.117 0.263,-0.116 0.26,-0.116L0.178,-0.116C0.175,-0.116 0.172,-0.117 0.17,-0.119C0.167,-0.122 0.166,-0.125 0.166,-0.128L0.166,-0.253C0.166,-0.256 0.164,-0.258 0.161,-0.258L0.036,-0.258C0.033,-0.258 0.03,-0.259 0.028,-0.262C0.025,-0.264 0.024,-0.267 0.024,-0.27L0.024,-0.352C0.024,-0.355 0.025,-0.358 0.028,-0.361C0.03,-0.363 0.033,-0.364 0.036,-0.364L0.161,-0.364C0.164,-0.364 0.166,-0.366 0.166,-0.369L0.166,-0.495C0.166,-0.498 0.167,-0.501 0.17,-0.503C0.172,-0.506 0.175,-0.507 0.178,-0.507L0.26,-0.507C0.263,-0.507 0.266,-0.506 0.269,-0.503C0.271,-0.501 0.272,-0.498 0.272,-0.495L0.272,-0.369C0.272,-0.366 0.274,-0.364 0.277,-0.364L0.403,-0.364Z" style="fill-rule:nonzero;"/>
                </g>
                <g transform="matrix(12,0,0,12,597.255,345.376)">
                    <path d="M0.33,-0.688C0.33,-0.691 0.331,-0.694 0.334,-0.697C0.336,-0.699 0.339,-0.7 0.342,-0.7L0.458,-0.7C0.461,-0.7 0.464,-0.699 0.467,-0.697C0.469,-0.694 0.47,-0.691 0.47,-0.688L0.47,-0.012C0.47,-0.009 0.469,-0.006 0.467,-0.004C0.464,-0.001 0.461,-0 0.458,-0L0.326,-0C0.319,-0 0.315,-0.003 0.313,-0.01L0.189,-0.397C0.188,-0.399 0.187,-0.4 0.186,-0.4C0.184,-0.399 0.183,-0.398 0.183,-0.396L0.184,-0.012C0.184,-0.009 0.183,-0.006 0.181,-0.004C0.178,-0.001 0.175,-0 0.172,-0L0.056,-0C0.053,-0 0.05,-0.001 0.048,-0.004C0.045,-0.006 0.044,-0.009 0.044,-0.012L0.044,-0.688C0.044,-0.691 0.045,-0.694 0.048,-0.697C0.05,-0.699 0.053,-0.7 0.056,-0.7L0.187,-0.7C0.194,-0.7 0.198,-0.697 0.2,-0.69L0.325,-0.303C0.326,-0.301 0.327,-0.3 0.329,-0.301C0.33,-0.301 0.331,-0.302 0.331,-0.304L0.33,-0.688Z" style="fill-rule:nonzero;"/>
                </g>
                <g transform="matrix(12,0,0,12,603.423,345.376)">
                    <path d="M0.236,0.008C0.175,0.008 0.126,-0.01 0.089,-0.046C0.052,-0.082 0.034,-0.13 0.034,-0.19L0.034,-0.51C0.034,-0.57 0.052,-0.618 0.089,-0.654C0.126,-0.69 0.175,-0.708 0.236,-0.708C0.297,-0.708 0.346,-0.69 0.384,-0.654C0.421,-0.618 0.439,-0.57 0.439,-0.51L0.439,-0.19C0.439,-0.13 0.421,-0.082 0.384,-0.046C0.346,-0.01 0.297,0.008 0.236,0.008ZM0.236,-0.113C0.255,-0.113 0.27,-0.119 0.281,-0.133C0.292,-0.146 0.298,-0.163 0.298,-0.184L0.298,-0.516C0.298,-0.537 0.292,-0.555 0.281,-0.568C0.27,-0.581 0.255,-0.587 0.236,-0.587C0.217,-0.587 0.203,-0.581 0.192,-0.568C0.181,-0.555 0.175,-0.537 0.175,-0.516L0.175,-0.184C0.175,-0.163 0.181,-0.146 0.192,-0.133C0.203,-0.119 0.217,-0.113 0.236,-0.113Z" style="fill-rule:nonzero;"/>
                </g>
                <g transform="matrix(12,0,0,12,609.099,345.376)">
                    <path d="M0.432,-0.7C0.435,-0.7 0.438,-0.699 0.441,-0.697C0.443,-0.694 0.444,-0.691 0.444,-0.688L0.444,-0.591C0.444,-0.588 0.443,-0.585 0.441,-0.583C0.438,-0.58 0.435,-0.579 0.432,-0.579L0.307,-0.579C0.304,-0.579 0.302,-0.577 0.302,-0.574L0.302,-0.012C0.302,-0.009 0.301,-0.006 0.299,-0.004C0.296,-0.001 0.293,-0 0.29,-0L0.173,-0C0.17,-0 0.167,-0.001 0.165,-0.004C0.162,-0.006 0.161,-0.009 0.161,-0.012L0.161,-0.574C0.161,-0.577 0.159,-0.579 0.156,-0.579L0.036,-0.579C0.033,-0.579 0.03,-0.58 0.028,-0.583C0.025,-0.585 0.024,-0.588 0.024,-0.591L0.024,-0.688C0.024,-0.691 0.025,-0.694 0.028,-0.697C0.03,-0.699 0.033,-0.7 0.036,-0.7L0.432,-0.7Z" style="fill-rule:nonzero;"/>
                </g>
                <g transform="matrix(12,0,0,12,614.715,345.376)">
                    <path d="M0.411,-0.591C0.411,-0.588 0.41,-0.585 0.407,-0.583C0.405,-0.58 0.402,-0.579 0.399,-0.579L0.19,-0.579C0.187,-0.579 0.185,-0.577 0.185,-0.574L0.185,-0.416C0.185,-0.413 0.187,-0.411 0.19,-0.411L0.31,-0.411C0.313,-0.411 0.316,-0.41 0.319,-0.407C0.321,-0.405 0.322,-0.402 0.322,-0.399L0.322,-0.302C0.322,-0.299 0.321,-0.296 0.319,-0.294C0.316,-0.291 0.313,-0.29 0.31,-0.29L0.19,-0.29C0.187,-0.29 0.185,-0.288 0.185,-0.285L0.185,-0.126C0.185,-0.123 0.187,-0.121 0.19,-0.121L0.399,-0.121C0.402,-0.121 0.405,-0.12 0.407,-0.117C0.41,-0.115 0.411,-0.112 0.411,-0.109L0.411,-0.012C0.411,-0.009 0.41,-0.006 0.407,-0.004C0.405,-0.001 0.402,-0 0.399,-0L0.056,-0C0.053,-0 0.05,-0.001 0.048,-0.004C0.045,-0.006 0.044,-0.009 0.044,-0.012L0.044,-0.688C0.044,-0.691 0.045,-0.694 0.048,-0.697C0.05,-0.699 0.053,-0.7 0.056,-0.7L0.399,-0.7C0.402,-0.7 0.405,-0.699 0.407,-0.697C0.41,-0.694 0.411,-0.691 0.411,-0.688L0.411,-0.591Z" style="fill-rule:nonzero;"/>
                </g>
                <g transform="matrix(12,0,0,12,619.971,345.376)">
                    <path d="M0.224,0.008C0.185,0.008 0.151,0 0.122,-0.015C0.093,-0.03 0.07,-0.052 0.054,-0.08C0.038,-0.107 0.03,-0.139 0.03,-0.175L0.03,-0.204C0.03,-0.207 0.031,-0.21 0.034,-0.213C0.036,-0.215 0.039,-0.216 0.042,-0.216L0.157,-0.216C0.16,-0.216 0.163,-0.215 0.166,-0.213C0.168,-0.21 0.169,-0.207 0.169,-0.204L0.169,-0.182C0.169,-0.161 0.174,-0.145 0.185,-0.132C0.196,-0.119 0.209,-0.113 0.225,-0.113C0.241,-0.113 0.254,-0.119 0.265,-0.131C0.276,-0.143 0.281,-0.159 0.281,-0.178C0.281,-0.198 0.274,-0.215 0.261,-0.23C0.248,-0.244 0.222,-0.265 0.183,-0.293C0.15,-0.317 0.123,-0.338 0.102,-0.357C0.081,-0.376 0.064,-0.399 0.049,-0.426C0.034,-0.453 0.027,-0.485 0.027,-0.521C0.027,-0.578 0.045,-0.623 0.08,-0.657C0.115,-0.691 0.162,-0.708 0.22,-0.708C0.279,-0.708 0.326,-0.69 0.362,-0.655C0.397,-0.62 0.415,-0.573 0.415,-0.516L0.415,-0.492C0.415,-0.489 0.414,-0.486 0.411,-0.484C0.409,-0.481 0.406,-0.48 0.403,-0.48L0.288,-0.48C0.285,-0.48 0.282,-0.481 0.28,-0.484C0.277,-0.486 0.276,-0.489 0.276,-0.492L0.276,-0.519C0.276,-0.54 0.271,-0.556 0.261,-0.569C0.25,-0.581 0.237,-0.587 0.22,-0.587C0.204,-0.587 0.191,-0.581 0.181,-0.57C0.171,-0.558 0.166,-0.542 0.166,-0.521C0.166,-0.501 0.172,-0.483 0.185,-0.468C0.198,-0.453 0.223,-0.431 0.26,-0.404C0.301,-0.373 0.333,-0.348 0.354,-0.33C0.375,-0.311 0.391,-0.29 0.403,-0.267C0.414,-0.244 0.42,-0.216 0.42,-0.184C0.42,-0.125 0.402,-0.079 0.366,-0.044C0.33,-0.009 0.283,0.008 0.224,0.008Z" style="fill-rule:nonzero;"/>
                </g>
                <g transform="matrix(12,0,0,12,627.699,345.376)">
                    <path d="M0.236,0.008C0.175,0.008 0.126,-0.01 0.089,-0.046C0.052,-0.082 0.034,-0.13 0.034,-0.19L0.034,-0.51C0.034,-0.57 0.052,-0.618 0.089,-0.654C0.126,-0.69 0.175,-0.708 0.236,-0.708C0.297,-0.708 0.346,-0.69 0.384,-0.654C0.421,-0.618 0.439,-0.57 0.439,-0.51L0.439,-0.19C0.439,-0.13 0.421,-0.082 0.384,-0.046C0.346,-0.01 0.297,0.008 0.236,0.008ZM0.236,-0.113C0.255,-0.113 0.27,-0.119 0.281,-0.133C0.292,-0.146 0.298,-0.163 0.298,-0.184L0.298,-0.516C0.298,-0.537 0.292,-0.555 0.281,-0.568C0.27,-0.581 0.255,-0.587 0.236,-0.587C0.217,-0.587 0.203,-0.581 0.192,-0.568C0.181,-0.555 0.175,-0.537 0.175,-0.516L0.175,-0.184C0.175,-0.163 0.181,-0.146 0.192,-0.133C0.203,-0.119 0.217,-0.113 0.236,-0.113Z" style="fill-rule:nonzero;"/>
                </g>
                <g transform="matrix(12,0,0,12,633.375,345.376)">
                    <path d="M0.33,-0.688C0.33,-0.691 0.331,-0.694 0.334,-0.697C0.336,-0.699 0.339,-0.7 0.342,-0.7L0.458,-0.7C0.461,-0.7 0.464,-0.699 0.467,-0.697C0.469,-0.694 0.47,-0.691 0.47,-0.688L0.47,-0.012C0.47,-0.009 0.469,-0.006 0.467,-0.004C0.464,-0.001 0.461,-0 0.458,-0L0.326,-0C0.319,-0 0.315,-0.003 0.313,-0.01L0.189,-0.397C0.188,-0.399 0.187,-0.4 0.186,-0.4C0.184,-0.399 0.183,-0.398 0.183,-0.396L0.184,-0.012C0.184,-0.009 0.183,-0.006 0.181,-0.004C0.178,-0.001 0.175,-0 0.172,-0L0.056,-0C0.053,-0 0.05,-0.001 0.048,-0.004C0.045,-0.006 0.044,-0.009 0.044,-0.012L0.044,-0.688C0.044,-0.691 0.045,-0.694 0.048,-0.697C0.05,-0.699 0.053,-0.7 0.056,-0.7L0.187,-0.7C0.194,-0.7 0.198,-0.697 0.2,-0.69L0.325,-0.303C0.326,-0.301 0.327,-0.3 0.329,-0.301C0.33,-0.301 0.331,-0.302 0.331,-0.304L0.33,-0.688Z" style="fill-rule:nonzero;"/>
                </g>
                <g transform="matrix(12,0,0,12,542.127,357.376)">
                    <path d="M0.257,-0.701C0.294,-0.701 0.326,-0.692 0.355,-0.674C0.384,-0.656 0.406,-0.631 0.422,-0.599C0.437,-0.566 0.445,-0.529 0.445,-0.488C0.445,-0.426 0.428,-0.376 0.395,-0.339C0.362,-0.302 0.318,-0.283 0.264,-0.283L0.189,-0.283C0.186,-0.283 0.184,-0.281 0.184,-0.278L0.184,-0.012C0.184,-0.009 0.183,-0.006 0.181,-0.004C0.178,-0.001 0.175,-0 0.172,-0L0.055,-0C0.052,-0 0.049,-0.001 0.047,-0.004C0.044,-0.006 0.043,-0.009 0.043,-0.012L0.043,-0.689C0.043,-0.692 0.044,-0.695 0.047,-0.698C0.049,-0.7 0.052,-0.701 0.055,-0.701L0.257,-0.701ZM0.233,-0.393C0.254,-0.393 0.272,-0.401 0.284,-0.418C0.298,-0.434 0.304,-0.456 0.304,-0.485C0.304,-0.514 0.298,-0.537 0.284,-0.554C0.272,-0.571 0.254,-0.579 0.233,-0.579L0.189,-0.579C0.186,-0.579 0.184,-0.577 0.184,-0.574L0.184,-0.398C0.184,-0.395 0.186,-0.393 0.189,-0.393L0.233,-0.393Z" style="fill-rule:nonzero;"/>
                </g>
                <g transform="matrix(12,0,0,12,547.707,357.376)">
                    <path d="M0.32,-0C0.313,-0 0.308,-0.003 0.306,-0.01L0.229,-0.286C0.228,-0.289 0.226,-0.29 0.224,-0.29L0.19,-0.29C0.187,-0.29 0.185,-0.288 0.185,-0.285L0.185,-0.012C0.185,-0.009 0.184,-0.006 0.182,-0.004C0.179,-0.001 0.176,-0 0.173,-0L0.056,-0C0.053,-0 0.05,-0.001 0.048,-0.004C0.045,-0.006 0.044,-0.009 0.044,-0.012L0.044,-0.688C0.044,-0.691 0.045,-0.694 0.048,-0.697C0.05,-0.699 0.053,-0.7 0.056,-0.7L0.258,-0.7C0.295,-0.7 0.327,-0.691 0.356,-0.674C0.385,-0.656 0.407,-0.631 0.423,-0.599C0.438,-0.567 0.446,-0.53 0.446,-0.489C0.446,-0.45 0.439,-0.415 0.424,-0.385C0.408,-0.355 0.388,-0.332 0.361,-0.315C0.36,-0.314 0.359,-0.314 0.358,-0.313C0.357,-0.312 0.357,-0.31 0.358,-0.309L0.45,-0.014L0.451,-0.01C0.451,-0.003 0.447,-0 0.44,-0L0.32,-0ZM0.19,-0.579C0.187,-0.579 0.185,-0.577 0.185,-0.574L0.185,-0.403C0.185,-0.4 0.187,-0.398 0.19,-0.398L0.235,-0.398C0.256,-0.398 0.273,-0.406 0.285,-0.423C0.299,-0.439 0.305,-0.461 0.305,-0.488C0.305,-0.516 0.299,-0.538 0.285,-0.555C0.273,-0.571 0.256,-0.579 0.235,-0.579L0.19,-0.579Z" style="fill-rule:nonzero;"/>
                </g>
                <g transform="matrix(12,0,0,12,553.359,357.376)">
                    <path d="M0.236,0.008C0.175,0.008 0.126,-0.01 0.089,-0.046C0.052,-0.082 0.034,-0.13 0.034,-0.19L0.034,-0.51C0.034,-0.57 0.052,-0.618 0.089,-0.654C0.126,-0.69 0.175,-0.708 0.236,-0.708C0.297,-0.708 0.346,-0.69 0.384,-0.654C0.421,-0.618 0.439,-0.57 0.439,-0.51L0.439,-0.19C0.439,-0.13 0.421,-0.082 0.384,-0.046C0.346,-0.01 0.297,0.008 0.236,0.008ZM0.236,-0.113C0.255,-0.113 0.27,-0.119 0.281,-0.133C0.292,-0.146 0.298,-0.163 0.298,-0.184L0.298,-0.516C0.298,-0.537 0.292,-0.555 0.281,-0.568C0.27,-0.581 0.255,-0.587 0.236,-0.587C0.217,-0.587 0.203,-0.581 0.192,-0.568C0.181,-0.555 0.175,-0.537 0.175,-0.516L0.175,-0.184C0.175,-0.163 0.181,-0.146 0.192,-0.133C0.203,-0.119 0.217,-0.113 0.236,-0.113Z" style="fill-rule:nonzero;"/>
                </g>
                <g transform="matrix(12,0,0,12,559.035,357.376)">
                    <path d="M0.233,0.008C0.173,0.008 0.125,-0.009 0.089,-0.043C0.052,-0.078 0.034,-0.124 0.034,-0.181L0.034,-0.519C0.034,-0.576 0.052,-0.622 0.089,-0.657C0.125,-0.691 0.173,-0.708 0.233,-0.708C0.293,-0.708 0.341,-0.691 0.378,-0.656C0.415,-0.621 0.433,-0.575 0.433,-0.518L0.433,-0.48C0.433,-0.477 0.432,-0.474 0.43,-0.471C0.427,-0.469 0.424,-0.468 0.421,-0.468L0.304,-0.468C0.301,-0.468 0.298,-0.469 0.296,-0.471C0.293,-0.474 0.292,-0.477 0.292,-0.48L0.292,-0.52C0.292,-0.54 0.287,-0.556 0.276,-0.569C0.265,-0.581 0.251,-0.587 0.233,-0.587C0.216,-0.587 0.202,-0.581 0.191,-0.569C0.18,-0.556 0.175,-0.54 0.175,-0.52L0.175,-0.18C0.175,-0.16 0.18,-0.144 0.191,-0.132C0.202,-0.119 0.216,-0.113 0.233,-0.113C0.251,-0.113 0.265,-0.119 0.276,-0.132C0.287,-0.144 0.292,-0.16 0.292,-0.18L0.292,-0.26C0.292,-0.263 0.29,-0.265 0.287,-0.265L0.243,-0.265C0.24,-0.265 0.237,-0.266 0.234,-0.269C0.232,-0.271 0.231,-0.274 0.231,-0.277L0.231,-0.366C0.231,-0.369 0.232,-0.372 0.234,-0.375C0.237,-0.377 0.24,-0.378 0.243,-0.378L0.421,-0.378C0.424,-0.378 0.427,-0.377 0.43,-0.375C0.432,-0.372 0.433,-0.369 0.433,-0.366L0.433,-0.181C0.433,-0.124 0.415,-0.078 0.378,-0.043C0.341,-0.009 0.293,0.008 0.233,0.008Z" style="fill-rule:nonzero;"/>
                </g>
                <g transform="matrix(12,0,0,12,564.639,357.376)">
                    <path d="M0.32,-0C0.313,-0 0.308,-0.003 0.306,-0.01L0.229,-0.286C0.228,-0.289 0.226,-0.29 0.224,-0.29L0.19,-0.29C0.187,-0.29 0.185,-0.288 0.185,-0.285L0.185,-0.012C0.185,-0.009 0.184,-0.006 0.182,-0.004C0.179,-0.001 0.176,-0 0.173,-0L0.056,-0C0.053,-0 0.05,-0.001 0.048,-0.004C0.045,-0.006 0.044,-0.009 0.044,-0.012L0.044,-0.688C0.044,-0.691 0.045,-0.694 0.048,-0.697C0.05,-0.699 0.053,-0.7 0.056,-0.7L0.258,-0.7C0.295,-0.7 0.327,-0.691 0.356,-0.674C0.385,-0.656 0.407,-0.631 0.423,-0.599C0.438,-0.567 0.446,-0.53 0.446,-0.489C0.446,-0.45 0.439,-0.415 0.424,-0.385C0.408,-0.355 0.388,-0.332 0.361,-0.315C0.36,-0.314 0.359,-0.314 0.358,-0.313C0.357,-0.312 0.357,-0.31 0.358,-0.309L0.45,-0.014L0.451,-0.01C0.451,-0.003 0.447,-0 0.44,-0L0.32,-0ZM0.19,-0.579C0.187,-0.579 0.185,-0.577 0.185,-0.574L0.185,-0.403C0.185,-0.4 0.187,-0.398 0.19,-0.398L0.235,-0.398C0.256,-0.398 0.273,-0.406 0.285,-0.423C0.299,-0.439 0.305,-0.461 0.305,-0.488C0.305,-0.516 0.299,-0.538 0.285,-0.555C0.273,-0.571 0.256,-0.579 0.235,-0.579L0.19,-0.579Z" style="fill-rule:nonzero;"/>
                </g>
                <g transform="matrix(12,0,0,12,570.351,357.376)">
                    <path d="M0.338,-0C0.33,-0 0.326,-0.004 0.325,-0.011L0.309,-0.107C0.309,-0.11 0.307,-0.112 0.303,-0.112L0.176,-0.112C0.172,-0.112 0.17,-0.11 0.17,-0.107L0.154,-0.011C0.153,-0.004 0.149,-0 0.141,-0L0.024,-0C0.015,-0 0.012,-0.004 0.014,-0.013L0.161,-0.689C0.162,-0.696 0.167,-0.7 0.174,-0.7L0.309,-0.7C0.316,-0.7 0.321,-0.696 0.322,-0.689L0.468,-0.013L0.469,-0.009C0.469,-0.003 0.465,-0 0.458,-0L0.338,-0ZM0.19,-0.226C0.19,-0.223 0.191,-0.221 0.194,-0.221L0.284,-0.221C0.287,-0.221 0.289,-0.223 0.288,-0.226L0.241,-0.499C0.24,-0.501 0.239,-0.502 0.238,-0.502C0.237,-0.502 0.236,-0.501 0.235,-0.499L0.19,-0.226Z" style="fill-rule:nonzero;"/>
                </g>
                <g transform="matrix(12,0,0,12,576.135,357.376)">
                    <path d="M0.364,-0.692C0.367,-0.697 0.372,-0.7 0.379,-0.7L0.495,-0.7C0.498,-0.7 0.501,-0.699 0.503,-0.697C0.506,-0.694 0.507,-0.691 0.507,-0.688L0.507,-0.012C0.507,-0.009 0.506,-0.006 0.503,-0.004C0.501,-0.001 0.498,-0 0.495,-0L0.378,-0C0.375,-0 0.372,-0.001 0.37,-0.004C0.367,-0.006 0.366,-0.009 0.366,-0.012L0.366,-0.461C0.366,-0.464 0.365,-0.465 0.364,-0.465C0.363,-0.465 0.361,-0.464 0.36,-0.462L0.282,-0.324C0.279,-0.319 0.276,-0.316 0.274,-0.316C0.272,-0.316 0.269,-0.319 0.266,-0.324L0.188,-0.462C0.187,-0.464 0.185,-0.465 0.184,-0.465C0.183,-0.465 0.182,-0.464 0.182,-0.461L0.182,-0.012C0.182,-0.009 0.181,-0.006 0.179,-0.004C0.176,-0.001 0.173,-0 0.17,-0L0.053,-0C0.05,-0 0.047,-0.001 0.045,-0.004C0.042,-0.006 0.041,-0.009 0.041,-0.012L0.041,-0.688C0.041,-0.691 0.042,-0.694 0.045,-0.697C0.047,-0.699 0.05,-0.7 0.053,-0.7L0.168,-0.7C0.175,-0.7 0.18,-0.697 0.183,-0.692L0.272,-0.533C0.274,-0.53 0.276,-0.53 0.278,-0.533L0.364,-0.692Z" style="fill-rule:nonzero;"/>
                </g>
                <g transform="matrix(12,0,0,12,582.711,357.376)">
                    <path d="M0.364,-0.692C0.367,-0.697 0.372,-0.7 0.379,-0.7L0.495,-0.7C0.498,-0.7 0.501,-0.699 0.503,-0.697C0.506,-0.694 0.507,-0.691 0.507,-0.688L0.507,-0.012C0.507,-0.009 0.506,-0.006 0.503,-0.004C0.501,-0.001 0.498,-0 0.495,-0L0.378,-0C0.375,-0 0.372,-0.001 0.37,-0.004C0.367,-0.006 0.366,-0.009 0.366,-0.012L0.366,-0.461C0.366,-0.464 0.365,-0.465 0.364,-0.465C0.363,-0.465 0.361,-0.464 0.36,-0.462L0.282,-0.324C0.279,-0.319 0.276,-0.316 0.274,-0.316C0.272,-0.316 0.269,-0.319 0.266,-0.324L0.188,-0.462C0.187,-0.464 0.185,-0.465 0.184,-0.465C0.183,-0.465 0.182,-0.464 0.182,-0.461L0.182,-0.012C0.182,-0.009 0.181,-0.006 0.179,-0.004C0.176,-0.001 0.173,-0 0.17,-0L0.053,-0C0.05,-0 0.047,-0.001 0.045,-0.004C0.042,-0.006 0.041,-0.009 0.041,-0.012L0.041,-0.688C0.041,-0.691 0.042,-0.694 0.045,-0.697C0.047,-0.699 0.05,-0.7 0.053,-0.7L0.168,-0.7C0.175,-0.7 0.18,-0.697 0.183,-0.692L0.272,-0.533C0.274,-0.53 0.276,-0.53 0.278,-0.533L0.364,-0.692Z" style="fill-rule:nonzero;"/>
                </g>
                <g transform="matrix(12,0,0,12,589.287,357.376)">
                    <path d="M0.056,-0C0.053,-0 0.05,-0.001 0.048,-0.004C0.045,-0.006 0.044,-0.009 0.044,-0.012L0.044,-0.688C0.044,-0.691 0.045,-0.694 0.048,-0.697C0.05,-0.699 0.053,-0.7 0.056,-0.7L0.173,-0.7C0.176,-0.7 0.179,-0.699 0.182,-0.697C0.184,-0.694 0.185,-0.691 0.185,-0.688L0.185,-0.012C0.185,-0.009 0.184,-0.006 0.182,-0.004C0.179,-0.001 0.176,-0 0.173,-0L0.056,-0Z" style="fill-rule:nonzero;"/>
                </g>
                <g transform="matrix(12,0,0,12,592.047,357.376)">
                    <path d="M0.33,-0.688C0.33,-0.691 0.331,-0.694 0.334,-0.697C0.336,-0.699 0.339,-0.7 0.342,-0.7L0.458,-0.7C0.461,-0.7 0.464,-0.699 0.467,-0.697C0.469,-0.694 0.47,-0.691 0.47,-0.688L0.47,-0.012C0.47,-0.009 0.469,-0.006 0.467,-0.004C0.464,-0.001 0.461,-0 0.458,-0L0.326,-0C0.319,-0 0.315,-0.003 0.313,-0.01L0.189,-0.397C0.188,-0.399 0.187,-0.4 0.186,-0.4C0.184,-0.399 0.183,-0.398 0.183,-0.396L0.184,-0.012C0.184,-0.009 0.183,-0.006 0.181,-0.004C0.178,-0.001 0.175,-0 0.172,-0L0.056,-0C0.053,-0 0.05,-0.001 0.048,-0.004C0.045,-0.006 0.044,-0.009 0.044,-0.012L0.044,-0.688C0.044,-0.691 0.045,-0.694 0.048,-0.697C0.05,-0.699 0.053,-0.7 0.056,-0.7L0.187,-0.7C0.194,-0.7 0.198,-0.697 0.2,-0.69L0.325,-0.303C0.326,-0.301 0.327,-0.3 0.329,-0.301C0.33,-0.301 0.331,-0.302 0.331,-0.304L0.33,-0.688Z" style="fill-rule:nonzero;"/>
                </g>
                <g transform="matrix(12,0,0,12,598.215,357.376)">
                    <path d="M0.233,0.008C0.173,0.008 0.125,-0.009 0.089,-0.043C0.052,-0.078 0.034,-0.124 0.034,-0.181L0.034,-0.519C0.034,-0.576 0.052,-0.622 0.089,-0.657C0.125,-0.691 0.173,-0.708 0.233,-0.708C0.293,-0.708 0.341,-0.691 0.378,-0.656C0.415,-0.621 0.433,-0.575 0.433,-0.518L0.433,-0.48C0.433,-0.477 0.432,-0.474 0.43,-0.471C0.427,-0.469 0.424,-0.468 0.421,-0.468L0.304,-0.468C0.301,-0.468 0.298,-0.469 0.296,-0.471C0.293,-0.474 0.292,-0.477 0.292,-0.48L0.292,-0.52C0.292,-0.54 0.287,-0.556 0.276,-0.569C0.265,-0.581 0.251,-0.587 0.233,-0.587C0.216,-0.587 0.202,-0.581 0.191,-0.569C0.18,-0.556 0.175,-0.54 0.175,-0.52L0.175,-0.18C0.175,-0.16 0.18,-0.144 0.191,-0.132C0.202,-0.119 0.216,-0.113 0.233,-0.113C0.251,-0.113 0.265,-0.119 0.276,-0.132C0.287,-0.144 0.292,-0.16 0.292,-0.18L0.292,-0.26C0.292,-0.263 0.29,-0.265 0.287,-0.265L0.243,-0.265C0.24,-0.265 0.237,-0.266 0.234,-0.269C0.232,-0.271 0.231,-0.274 0.231,-0.277L0.231,-0.366C0.231,-0.369 0.232,-0.372 0.234,-0.375C0.237,-0.377 0.24,-0.378 0.243,-0.378L0.421,-0.378C0.424,-0.378 0.427,-0.377 0.43,-0.375C0.432,-0.372 0.433,-0.369 0.433,-0.366L0.433,-0.181C0.433,-0.124 0.415,-0.078 0.378,-0.043C0.341,-0.009 0.293,0.008 0.233,0.008Z" style="fill-rule:nonzero;"/>
                </g>
                <g transform="matrix(12,0,0,12,606.219,357.376)">
                    <path d="M0.338,-0C0.33,-0 0.326,-0.004 0.325,-0.011L0.309,-0.107C0.309,-0.11 0.307,-0.112 0.303,-0.112L0.176,-0.112C0.172,-0.112 0.17,-0.11 0.17,-0.107L0.154,-0.011C0.153,-0.004 0.149,-0 0.141,-0L0.024,-0C0.015,-0 0.012,-0.004 0.014,-0.013L0.161,-0.689C0.162,-0.696 0.167,-0.7 0.174,-0.7L0.309,-0.7C0.316,-0.7 0.321,-0.696 0.322,-0.689L0.468,-0.013L0.469,-0.009C0.469,-0.003 0.465,-0 0.458,-0L0.338,-0ZM0.19,-0.226C0.19,-0.223 0.191,-0.221 0.194,-0.221L0.284,-0.221C0.287,-0.221 0.289,-0.223 0.288,-0.226L0.241,-0.499C0.24,-0.501 0.239,-0.502 0.238,-0.502C0.237,-0.502 0.236,-0.501 0.235,-0.499L0.19,-0.226Z" style="fill-rule:nonzero;"/>
                </g>
                <g transform="matrix(12,0,0,12,612.003,357.376)">
                    <path d="M0.33,-0.688C0.33,-0.691 0.331,-0.694 0.334,-0.697C0.336,-0.699 0.339,-0.7 0.342,-0.7L0.458,-0.7C0.461,-0.7 0.464,-0.699 0.467,-0.697C0.469,-0.694 0.47,-0.691 0.47,-0.688L0.47,-0.012C0.47,-0.009 0.469,-0.006 0.467,-0.004C0.464,-0.001 0.461,-0 0.458,-0L0.326,-0C0.319,-0 0.315,-0.003 0.313,-0.01L0.189,-0.397C0.188,-0.399 0.187,-0.4 0.186,-0.4C0.184,-0.399 0.183,-0.398 0.183,-0.396L0.184,-0.012C0.184,-0.009 0.183,-0.006 0.181,-0.004C0.178,-0.001 0.175,-0 0.172,-0L0.056,-0C0.053,-0 0.05,-0.001 0.048,-0.004C0.045,-0.006 0.044,-0.009 0.044,-0.012L0.044,-0.688C0.044,-0.691 0.045,-0.694 0.048,-0.697C0.05,-0.699 0.053,-0.7 0.056,-0.7L0.187,-0.7C0.194,-0.7 0.198,-0.697 0.2,-0.69L0.325,-0.303C0.326,-0.301 0.327,-0.3 0.329,-0.301C0.33,-0.301 0.331,-0.302 0.331,-0.304L0.33,-0.688Z" style="fill-rule:nonzero;"/>
                </g>
                <g transform="matrix(12,0,0,12,618.171,357.376)">
                    <path d="M0.056,-0C0.053,-0 0.05,-0.001 0.048,-0.004C0.045,-0.006 0.044,-0.009 0.044,-0.012L0.044,-0.688C0.044,-0.691 0.045,-0.694 0.048,-0.697C0.05,-0.699 0.053,-0.7 0.056,-0.7L0.237,-0.7C0.298,-0.7 0.346,-0.682 0.383,-0.647C0.42,-0.612 0.438,-0.565 0.438,-0.506L0.438,-0.194C0.438,-0.135 0.42,-0.088 0.383,-0.053C0.346,-0.018 0.298,-0 0.237,-0L0.056,-0ZM0.185,-0.126C0.185,-0.123 0.187,-0.121 0.19,-0.121L0.235,-0.122C0.253,-0.123 0.268,-0.13 0.279,-0.145C0.29,-0.16 0.296,-0.179 0.297,-0.203L0.297,-0.497C0.297,-0.522 0.291,-0.542 0.28,-0.557C0.269,-0.572 0.253,-0.579 0.234,-0.579L0.19,-0.579C0.187,-0.579 0.185,-0.577 0.185,-0.574L0.185,-0.126Z" style="fill-rule:nonzero;"/>
                </g>
                <g transform="matrix(12,0,0,12,626.283,357.376)">
                    <path d="M0.056,-0C0.053,-0 0.05,-0.001 0.048,-0.004C0.045,-0.006 0.044,-0.009 0.044,-0.012L0.044,-0.688C0.044,-0.691 0.045,-0.694 0.048,-0.697C0.05,-0.699 0.053,-0.7 0.056,-0.7L0.173,-0.7C0.176,-0.7 0.179,-0.699 0.182,-0.697C0.184,-0.694 0.185,-0.691 0.185,-0.688L0.185,-0.012C0.185,-0.009 0.184,-0.006 0.182,-0.004C0.179,-0.001 0.176,-0 0.173,-0L0.056,-0Z" style="fill-rule:nonzero;"/>
                </g>
                <g transform="matrix(12,0,0,12,629.043,357.376)">
                    <path d="M0.432,-0.7C0.435,-0.7 0.438,-0.699 0.441,-0.697C0.443,-0.694 0.444,-0.691 0.444,-0.688L0.444,-0.591C0.444,-0.588 0.443,-0.585 0.441,-0.583C0.438,-0.58 0.435,-0.579 0.432,-0.579L0.307,-0.579C0.304,-0.579 0.302,-0.577 0.302,-0.574L0.302,-0.012C0.302,-0.009 0.301,-0.006 0.299,-0.004C0.296,-0.001 0.293,-0 0.29,-0L0.173,-0C0.17,-0 0.167,-0.001 0.165,-0.004C0.162,-0.006 0.161,-0.009 0.161,-0.012L0.161,-0.574C0.161,-0.577 0.159,-0.579 0.156,-0.579L0.036,-0.579C0.033,-0.579 0.03,-0.58 0.028,-0.583C0.025,-0.585 0.024,-0.588 0.024,-0.591L0.024,-0.688C0.024,-0.691 0.025,-0.694 0.028,-0.697C0.03,-0.699 0.033,-0.7 0.036,-0.7L0.432,-0.7Z" style="fill-rule:nonzero;"/>
                </g>
            </g>
        </g>
        <g transform="matrix(0.989556,0,0,0.985447,11.6119,12.8469)">
            <g transform="matrix(2.36273,0,0,2.37258,-620.796,-478.868)">
                <g transform="matrix(12,0,0,12,542.127,345.376)">
                    <path d="M0.284,0.138C0.253,0.134 0.227,0.12 0.204,0.097C0.181,0.074 0.165,0.048 0.156,0.017C0.144,-0.01 0.138,-0.046 0.138,-0.089C0.138,-0.134 0.145,-0.181 0.158,-0.23C0.166,-0.257 0.171,-0.279 0.172,-0.296C0.173,-0.301 0.185,-0.328 0.207,-0.379C0.232,-0.436 0.248,-0.474 0.255,-0.493C0.269,-0.524 0.294,-0.565 0.331,-0.618C0.367,-0.67 0.391,-0.701 0.403,-0.71C0.404,-0.711 0.408,-0.715 0.415,-0.721C0.422,-0.727 0.428,-0.731 0.433,-0.732C0.436,-0.739 0.441,-0.745 0.449,-0.75C0.456,-0.754 0.463,-0.757 0.47,-0.757C0.481,-0.763 0.492,-0.766 0.505,-0.766C0.516,-0.766 0.526,-0.763 0.535,-0.757C0.544,-0.751 0.55,-0.742 0.553,-0.729L0.555,-0.717C0.555,-0.713 0.554,-0.71 0.551,-0.709C0.548,-0.707 0.542,-0.703 0.531,-0.698C0.522,-0.695 0.513,-0.691 0.504,-0.686C0.495,-0.681 0.488,-0.676 0.484,-0.671C0.478,-0.663 0.471,-0.656 0.464,-0.649C0.457,-0.642 0.451,-0.637 0.447,-0.634C0.435,-0.629 0.429,-0.624 0.429,-0.618C0.428,-0.615 0.424,-0.608 0.418,-0.597C0.412,-0.586 0.404,-0.573 0.393,-0.56C0.38,-0.539 0.371,-0.524 0.366,-0.515C0.363,-0.509 0.354,-0.494 0.34,-0.471C0.338,-0.468 0.334,-0.461 0.329,-0.451C0.324,-0.441 0.317,-0.432 0.31,-0.423C0.31,-0.42 0.309,-0.414 0.307,-0.407C0.304,-0.4 0.3,-0.392 0.295,-0.384C0.291,-0.369 0.283,-0.35 0.271,-0.325C0.263,-0.308 0.255,-0.285 0.246,-0.257C0.236,-0.228 0.232,-0.208 0.232,-0.199C0.23,-0.199 0.228,-0.195 0.227,-0.187C0.225,-0.179 0.223,-0.165 0.221,-0.146L0.216,-0.11C0.215,-0.066 0.217,-0.033 0.224,-0.01C0.231,0.013 0.243,0.034 0.262,0.054C0.27,0.061 0.278,0.066 0.285,0.069C0.292,0.072 0.301,0.074 0.31,0.075L0.344,0.096C0.34,0.111 0.332,0.122 0.321,0.129C0.309,0.136 0.297,0.139 0.284,0.138Z" style="fill-rule:nonzero;"/>
                </g>
                <g transform="matrix(12,0,0,12,546.087,345.376)">
                    <path d="M0.579,-0.023C0.57,-0.023 0.564,-0.024 0.559,-0.027C0.554,-0.029 0.547,-0.034 0.539,-0.042C0.53,-0.049 0.523,-0.06 0.517,-0.075C0.51,-0.089 0.507,-0.106 0.507,-0.126C0.507,-0.139 0.508,-0.15 0.509,-0.16C0.511,-0.169 0.512,-0.175 0.512,-0.178C0.512,-0.181 0.511,-0.183 0.509,-0.183C0.492,-0.183 0.454,-0.151 0.396,-0.088C0.394,-0.087 0.392,-0.085 0.391,-0.083C0.383,-0.077 0.376,-0.071 0.369,-0.064C0.359,-0.055 0.351,-0.048 0.344,-0.043C0.338,-0.039 0.331,-0.037 0.324,-0.036C0.319,-0.036 0.314,-0.038 0.309,-0.042L0.298,-0.051C0.295,-0.053 0.292,-0.057 0.289,-0.062C0.286,-0.067 0.285,-0.072 0.285,-0.077L0.285,-0.082L0.308,-0.149C0.325,-0.186 0.333,-0.207 0.333,-0.214C0.333,-0.215 0.333,-0.216 0.332,-0.216C0.326,-0.217 0.317,-0.212 0.306,-0.201C0.294,-0.19 0.277,-0.172 0.256,-0.149L0.211,-0.102C0.206,-0.097 0.191,-0.081 0.168,-0.054C0.153,-0.036 0.146,-0.027 0.145,-0.027C0.13,-0.027 0.117,-0.033 0.106,-0.044C0.094,-0.055 0.088,-0.069 0.088,-0.085C0.088,-0.093 0.089,-0.104 0.092,-0.117C0.095,-0.13 0.098,-0.144 0.101,-0.159C0.102,-0.164 0.104,-0.17 0.106,-0.177C0.107,-0.184 0.109,-0.191 0.111,-0.2C0.112,-0.207 0.114,-0.214 0.116,-0.222C0.117,-0.23 0.121,-0.241 0.126,-0.254C0.131,-0.267 0.139,-0.285 0.149,-0.308C0.152,-0.317 0.153,-0.326 0.153,-0.335C0.153,-0.34 0.153,-0.344 0.152,-0.348C0.151,-0.353 0.151,-0.356 0.151,-0.357C0.151,-0.367 0.156,-0.376 0.166,-0.383C0.175,-0.39 0.186,-0.393 0.198,-0.393C0.215,-0.393 0.228,-0.387 0.237,-0.375C0.246,-0.362 0.25,-0.349 0.25,-0.336C0.25,-0.325 0.247,-0.314 0.242,-0.303L0.231,-0.276C0.228,-0.27 0.224,-0.259 0.217,-0.244C0.21,-0.228 0.206,-0.218 0.206,-0.215C0.206,-0.213 0.207,-0.212 0.208,-0.212L0.209,-0.212C0.212,-0.212 0.218,-0.216 0.225,-0.223C0.246,-0.243 0.272,-0.264 0.303,-0.285C0.333,-0.307 0.355,-0.32 0.368,-0.324C0.373,-0.324 0.38,-0.321 0.389,-0.316C0.398,-0.311 0.405,-0.304 0.412,-0.295C0.419,-0.285 0.422,-0.276 0.422,-0.265L0.421,-0.257C0.42,-0.254 0.418,-0.243 0.412,-0.223C0.407,-0.203 0.404,-0.191 0.401,-0.188C0.414,-0.203 0.436,-0.221 0.467,-0.243C0.498,-0.264 0.521,-0.275 0.536,-0.276C0.558,-0.276 0.572,-0.267 0.579,-0.249C0.586,-0.231 0.59,-0.205 0.593,-0.17C0.596,-0.137 0.599,-0.115 0.604,-0.104C0.605,-0.1 0.61,-0.097 0.618,-0.094C0.626,-0.091 0.632,-0.088 0.637,-0.085C0.643,-0.081 0.645,-0.074 0.645,-0.063C0.645,-0.048 0.639,-0.038 0.625,-0.032C0.613,-0.026 0.597,-0.023 0.579,-0.023Z" style="fill-rule:nonzero;"/>
                </g>
                <g transform="matrix(12,0,0,12,552.915,345.376)">
                    <path d="M0.401,-0.371C0.407,-0.359 0.41,-0.345 0.41,-0.33C0.41,-0.311 0.406,-0.295 0.397,-0.282C0.39,-0.273 0.385,-0.259 0.38,-0.24C0.375,-0.221 0.37,-0.196 0.365,-0.165C0.359,-0.14 0.352,-0.101 0.343,-0.048C0.332,-0.02 0.326,0.001 0.323,0.015C0.322,0.019 0.319,0.027 0.314,0.04C0.308,0.053 0.303,0.063 0.3,0.07C0.27,0.131 0.234,0.176 0.194,0.207C0.153,0.238 0.111,0.254 0.068,0.257C0.057,0.258 0.051,0.259 0.049,0.259C0.043,0.259 0.038,0.258 0.033,0.256C0.028,0.254 0.022,0.251 0.016,0.248C0.003,0.239 -0.005,0.232 -0.007,0.228C-0.01,0.221 -0.012,0.215 -0.012,0.208C-0.012,0.198 -0.007,0.191 0.002,0.187C0.011,0.184 0.022,0.182 0.034,0.182C0.039,0.185 0.047,0.186 0.058,0.186C0.069,0.186 0.076,0.185 0.078,0.182C0.079,0.181 0.083,0.178 0.09,0.175C0.097,0.172 0.104,0.17 0.113,0.168C0.135,0.157 0.152,0.147 0.164,0.136C0.175,0.125 0.188,0.108 0.202,0.085C0.219,0.06 0.23,0.037 0.235,0.016C0.244,-0.006 0.254,-0.039 0.266,-0.082L0.265,-0.081C0.262,-0.077 0.253,-0.071 0.24,-0.064C0.227,-0.056 0.219,-0.052 0.216,-0.052C0.215,-0.052 0.214,-0.052 0.213,-0.051C0.212,-0.05 0.211,-0.049 0.211,-0.047C0.211,-0.044 0.202,-0.04 0.185,-0.035C0.168,-0.029 0.157,-0.026 0.152,-0.026C0.145,-0.026 0.138,-0.03 0.131,-0.037C0.123,-0.044 0.117,-0.051 0.114,-0.057C0.111,-0.063 0.106,-0.069 0.099,-0.075C0.091,-0.083 0.085,-0.09 0.081,-0.097C0.077,-0.103 0.075,-0.11 0.075,-0.119C0.075,-0.124 0.075,-0.127 0.076,-0.13C0.084,-0.16 0.099,-0.206 0.121,-0.269C0.142,-0.331 0.158,-0.37 0.168,-0.385C0.171,-0.389 0.176,-0.392 0.183,-0.395C0.19,-0.398 0.198,-0.399 0.205,-0.399C0.218,-0.399 0.227,-0.395 0.232,-0.387C0.24,-0.376 0.244,-0.366 0.244,-0.358C0.244,-0.349 0.239,-0.335 0.23,-0.317C0.227,-0.31 0.224,-0.302 0.22,-0.293C0.216,-0.284 0.214,-0.279 0.214,-0.277C0.213,-0.274 0.211,-0.266 0.208,-0.253C0.205,-0.239 0.202,-0.232 0.199,-0.232C0.195,-0.228 0.191,-0.214 0.186,-0.191C0.181,-0.167 0.178,-0.148 0.178,-0.134C0.178,-0.126 0.179,-0.122 0.181,-0.122C0.199,-0.122 0.216,-0.127 0.233,-0.137C0.25,-0.146 0.267,-0.162 0.285,-0.183C0.288,-0.2 0.292,-0.218 0.297,-0.237C0.302,-0.256 0.305,-0.269 0.307,-0.276C0.319,-0.317 0.327,-0.351 0.331,-0.376C0.335,-0.385 0.338,-0.391 0.34,-0.393C0.342,-0.394 0.346,-0.395 0.353,-0.395C0.361,-0.395 0.37,-0.393 0.38,-0.388C0.389,-0.383 0.396,-0.378 0.401,-0.371Z" style="fill-rule:nonzero;"/>
                </g>
                <g transform="matrix(12,0,0,12,559.911,345.376)">
                    <path d="M0.499,-0.294C0.501,-0.289 0.502,-0.284 0.502,-0.278C0.502,-0.261 0.491,-0.232 0.469,-0.191C0.458,-0.17 0.445,-0.151 0.43,-0.132C0.415,-0.113 0.401,-0.097 0.388,-0.084C0.383,-0.081 0.378,-0.077 0.371,-0.071C0.364,-0.065 0.357,-0.059 0.352,-0.052C0.339,-0.04 0.322,-0.031 0.303,-0.025C0.284,-0.019 0.264,-0.016 0.243,-0.016C0.222,-0.016 0.203,-0.019 0.186,-0.025C0.169,-0.032 0.159,-0.04 0.154,-0.051C0.154,-0.055 0.154,-0.059 0.153,-0.064C0.152,-0.069 0.151,-0.072 0.152,-0.074C0.145,-0.074 0.137,-0.075 0.129,-0.077C0.12,-0.078 0.116,-0.08 0.115,-0.082C0.116,-0.102 0.118,-0.116 0.122,-0.123C0.122,-0.126 0.125,-0.135 0.13,-0.15C0.134,-0.161 0.137,-0.169 0.138,-0.175C0.139,-0.18 0.142,-0.196 0.147,-0.221C0.152,-0.246 0.159,-0.269 0.168,-0.291C0.185,-0.352 0.2,-0.396 0.211,-0.422C0.22,-0.455 0.228,-0.482 0.235,-0.501C0.243,-0.52 0.253,-0.544 0.266,-0.571L0.281,-0.602C0.283,-0.606 0.288,-0.62 0.296,-0.644C0.299,-0.651 0.304,-0.656 0.31,-0.66C0.316,-0.663 0.322,-0.665 0.329,-0.665C0.337,-0.665 0.344,-0.662 0.35,-0.656C0.351,-0.655 0.354,-0.652 0.359,-0.648C0.363,-0.643 0.366,-0.639 0.368,-0.634C0.37,-0.63 0.371,-0.625 0.371,-0.62C0.371,-0.605 0.364,-0.582 0.351,-0.549C0.346,-0.542 0.34,-0.53 0.333,-0.511C0.326,-0.492 0.322,-0.48 0.32,-0.474C0.305,-0.437 0.291,-0.4 0.279,-0.363C0.274,-0.346 0.268,-0.329 0.261,-0.31C0.254,-0.291 0.249,-0.279 0.247,-0.273L0.274,-0.302C0.296,-0.321 0.322,-0.338 0.352,-0.35C0.382,-0.364 0.407,-0.37 0.426,-0.37C0.441,-0.37 0.455,-0.363 0.47,-0.348C0.485,-0.334 0.494,-0.316 0.499,-0.294ZM0.379,-0.2C0.39,-0.215 0.399,-0.23 0.406,-0.245C0.413,-0.26 0.416,-0.273 0.416,-0.284C0.416,-0.29 0.414,-0.293 0.411,-0.293C0.408,-0.293 0.396,-0.289 0.376,-0.281C0.356,-0.273 0.344,-0.267 0.339,-0.262C0.339,-0.26 0.337,-0.258 0.334,-0.257C0.331,-0.255 0.328,-0.254 0.327,-0.253C0.305,-0.236 0.289,-0.224 0.28,-0.216C0.271,-0.208 0.262,-0.199 0.255,-0.19L0.242,-0.173C0.236,-0.166 0.225,-0.15 0.21,-0.127C0.201,-0.11 0.194,-0.099 0.189,-0.092L0.205,-0.091C0.222,-0.092 0.233,-0.093 0.237,-0.093C0.249,-0.093 0.259,-0.094 0.268,-0.096C0.277,-0.098 0.287,-0.103 0.299,-0.11C0.32,-0.127 0.342,-0.151 0.365,-0.182L0.379,-0.2Z" style="fill-rule:nonzero;"/>
                </g>
                <g transform="matrix(12,0,0,12,565.239,345.376)">
                    <path d="M0.142,0.011C0.14,0.012 0.137,0.012 0.134,0.012C0.12,0.012 0.108,0.004 0.099,-0.012C0.09,-0.028 0.085,-0.048 0.085,-0.073C0.085,-0.086 0.086,-0.099 0.089,-0.112C0.096,-0.131 0.1,-0.145 0.1,-0.154C0.102,-0.167 0.109,-0.19 0.121,-0.223C0.132,-0.256 0.14,-0.275 0.143,-0.282C0.146,-0.282 0.148,-0.284 0.15,-0.289C0.152,-0.293 0.153,-0.298 0.153,-0.303C0.153,-0.309 0.154,-0.315 0.157,-0.322C0.159,-0.328 0.161,-0.332 0.164,-0.335C0.164,-0.337 0.165,-0.341 0.167,-0.346C0.168,-0.351 0.169,-0.355 0.169,-0.357C0.169,-0.358 0.17,-0.361 0.172,-0.365C0.173,-0.368 0.174,-0.371 0.174,-0.373C0.185,-0.394 0.203,-0.44 0.23,-0.513C0.257,-0.585 0.27,-0.625 0.27,-0.633C0.27,-0.638 0.272,-0.643 0.276,-0.648C0.28,-0.653 0.285,-0.655 0.29,-0.655C0.292,-0.657 0.296,-0.659 0.303,-0.66C0.31,-0.661 0.315,-0.661 0.319,-0.661L0.335,-0.645C0.342,-0.638 0.348,-0.632 0.352,-0.627C0.356,-0.622 0.358,-0.615 0.358,-0.608C0.358,-0.596 0.356,-0.584 0.352,-0.573C0.347,-0.561 0.335,-0.533 0.314,-0.49C0.313,-0.487 0.307,-0.475 0.298,-0.454C0.291,-0.441 0.288,-0.433 0.288,-0.431C0.288,-0.429 0.287,-0.425 0.284,-0.419C0.281,-0.412 0.279,-0.406 0.277,-0.399C0.272,-0.388 0.263,-0.37 0.252,-0.343C0.24,-0.316 0.234,-0.301 0.234,-0.298C0.234,-0.291 0.232,-0.285 0.229,-0.282C0.227,-0.282 0.226,-0.281 0.225,-0.278C0.224,-0.275 0.224,-0.272 0.224,-0.271C0.224,-0.264 0.219,-0.247 0.208,-0.218L0.199,-0.189C0.186,-0.146 0.178,-0.114 0.172,-0.094C0.168,-0.074 0.165,-0.057 0.165,-0.043C0.165,-0.028 0.163,-0.016 0.158,-0.007C0.153,0.002 0.148,0.008 0.142,0.011Z" style="fill-rule:nonzero;"/>
                </g>
                <g transform="matrix(12,0,0,12,567.375,345.376)">
                    <path d="M0.168,-0.007C0.16,-0.007 0.154,-0.008 0.149,-0.011C0.144,-0.014 0.138,-0.019 0.129,-0.026C0.116,-0.04 0.105,-0.055 0.098,-0.07C0.091,-0.085 0.088,-0.098 0.09,-0.109C0.092,-0.114 0.093,-0.118 0.093,-0.123C0.092,-0.128 0.092,-0.131 0.092,-0.132C0.089,-0.135 0.088,-0.137 0.088,-0.138C0.088,-0.139 0.089,-0.14 0.09,-0.141C0.091,-0.141 0.092,-0.143 0.093,-0.144C0.097,-0.144 0.098,-0.148 0.097,-0.155C0.096,-0.16 0.098,-0.172 0.104,-0.19C0.11,-0.208 0.118,-0.225 0.127,-0.24C0.134,-0.252 0.145,-0.267 0.16,-0.285C0.174,-0.303 0.187,-0.317 0.198,-0.326C0.231,-0.355 0.261,-0.372 0.288,-0.378C0.301,-0.381 0.314,-0.383 0.327,-0.383C0.346,-0.383 0.361,-0.378 0.372,-0.367C0.387,-0.361 0.397,-0.352 0.404,-0.341C0.411,-0.33 0.415,-0.315 0.417,-0.296C0.418,-0.292 0.418,-0.285 0.418,-0.276C0.418,-0.227 0.399,-0.175 0.362,-0.122C0.347,-0.1 0.331,-0.082 0.316,-0.069C0.301,-0.056 0.282,-0.042 0.26,-0.029C0.248,-0.021 0.235,-0.016 0.222,-0.013C0.209,-0.01 0.191,-0.008 0.168,-0.007ZM0.27,-0.129C0.283,-0.14 0.292,-0.152 0.298,-0.164C0.303,-0.175 0.311,-0.196 0.322,-0.225C0.326,-0.231 0.328,-0.243 0.328,-0.261C0.328,-0.277 0.326,-0.286 0.321,-0.288C0.318,-0.291 0.314,-0.292 0.309,-0.292C0.303,-0.292 0.293,-0.287 0.28,-0.278C0.257,-0.258 0.237,-0.237 0.222,-0.216C0.206,-0.194 0.195,-0.169 0.189,-0.141C0.188,-0.138 0.188,-0.134 0.188,-0.129C0.188,-0.106 0.196,-0.095 0.212,-0.095C0.227,-0.095 0.247,-0.106 0.27,-0.129Z" style="fill-rule:nonzero;"/>
                </g>
                <g transform="matrix(12,0,0,12,571.719,345.376)">
                    <path d="M0.185,0.195C0.166,0.195 0.146,0.19 0.127,0.179C0.108,0.169 0.092,0.156 0.079,0.141C0.066,0.126 0.06,0.112 0.06,0.099C0.06,0.086 0.063,0.077 0.068,0.071C0.073,0.066 0.08,0.063 0.088,0.063C0.094,0.063 0.1,0.065 0.107,0.07C0.114,0.075 0.121,0.083 0.13,0.092C0.139,0.101 0.146,0.107 0.153,0.112C0.16,0.117 0.166,0.12 0.172,0.12C0.195,0.12 0.212,0.106 0.224,0.077C0.236,0.048 0.248,0.008 0.261,-0.045L0.275,-0.105L0.277,-0.112C0.277,-0.113 0.277,-0.113 0.276,-0.113C0.275,-0.112 0.275,-0.112 0.274,-0.113C0.263,-0.105 0.242,-0.096 0.211,-0.086C0.18,-0.076 0.153,-0.071 0.132,-0.071C0.119,-0.071 0.108,-0.078 0.099,-0.091C0.089,-0.104 0.084,-0.122 0.084,-0.143L0.084,-0.149C0.085,-0.152 0.093,-0.172 0.107,-0.209C0.121,-0.246 0.131,-0.264 0.138,-0.263C0.14,-0.263 0.143,-0.267 0.148,-0.275C0.152,-0.282 0.154,-0.287 0.154,-0.29C0.155,-0.292 0.159,-0.296 0.166,-0.302C0.172,-0.307 0.178,-0.312 0.182,-0.315L0.208,-0.335C0.232,-0.357 0.253,-0.374 0.272,-0.385C0.291,-0.396 0.308,-0.402 0.323,-0.403L0.333,-0.402C0.335,-0.402 0.339,-0.402 0.344,-0.402C0.35,-0.401 0.36,-0.398 0.375,-0.393C0.39,-0.387 0.405,-0.372 0.42,-0.349C0.435,-0.326 0.444,-0.305 0.445,-0.288C0.444,-0.273 0.44,-0.258 0.435,-0.244C0.43,-0.229 0.424,-0.222 0.419,-0.222C0.41,-0.222 0.403,-0.22 0.398,-0.215C0.393,-0.21 0.389,-0.203 0.385,-0.192C0.378,-0.177 0.373,-0.167 0.37,-0.164L0.354,-0.087L0.34,-0.023C0.332,0.008 0.324,0.035 0.315,0.057C0.312,0.081 0.303,0.103 0.289,0.124C0.274,0.145 0.258,0.162 0.238,0.175C0.22,0.188 0.202,0.194 0.185,0.195ZM0.182,-0.15C0.195,-0.15 0.214,-0.155 0.239,-0.166C0.265,-0.176 0.281,-0.185 0.287,-0.194C0.29,-0.198 0.297,-0.207 0.307,-0.221C0.316,-0.234 0.327,-0.245 0.339,-0.252C0.343,-0.254 0.347,-0.258 0.35,-0.263C0.354,-0.268 0.356,-0.273 0.356,-0.278L0.356,-0.28C0.355,-0.283 0.353,-0.287 0.35,-0.294C0.347,-0.301 0.342,-0.307 0.336,-0.313C0.329,-0.319 0.322,-0.322 0.314,-0.322C0.307,-0.321 0.292,-0.309 0.268,-0.286C0.243,-0.263 0.221,-0.239 0.2,-0.214C0.179,-0.189 0.168,-0.171 0.168,-0.161C0.168,-0.154 0.173,-0.15 0.182,-0.15Z" style="fill-rule:nonzero;"/>
                </g>
                <g transform="matrix(12,0,0,12,576.087,345.376)">
                    <path d="M0.072,0.135C0.059,0.132 0.047,0.124 0.035,0.113C0.023,0.102 0.017,0.092 0.016,0.082C0.016,0.081 0.016,0.077 0.017,0.07C0.017,0.063 0.018,0.058 0.021,0.054C0.022,0.055 0.023,0.055 0.025,0.056C0.028,0.057 0.031,0.058 0.036,0.058C0.041,0.058 0.046,0.057 0.05,0.056C0.063,0.057 0.073,0.055 0.08,0.052C0.086,0.049 0.095,0.042 0.105,0.03L0.123,0.007C0.138,-0.011 0.147,-0.024 0.15,-0.031C0.159,-0.038 0.166,-0.044 0.171,-0.05C0.176,-0.055 0.181,-0.062 0.186,-0.071C0.186,-0.086 0.192,-0.103 0.204,-0.122C0.213,-0.141 0.219,-0.153 0.223,-0.16C0.231,-0.176 0.235,-0.185 0.235,-0.187C0.236,-0.188 0.237,-0.191 0.238,-0.196C0.24,-0.201 0.241,-0.206 0.24,-0.211C0.244,-0.213 0.248,-0.218 0.251,-0.225C0.254,-0.232 0.255,-0.239 0.254,-0.246C0.255,-0.249 0.258,-0.257 0.264,-0.271C0.269,-0.284 0.272,-0.298 0.273,-0.311C0.284,-0.345 0.291,-0.375 0.294,-0.401C0.297,-0.427 0.301,-0.468 0.304,-0.525L0.306,-0.578C0.307,-0.587 0.307,-0.597 0.307,-0.609C0.307,-0.619 0.306,-0.627 0.305,-0.632C0.304,-0.638 0.301,-0.644 0.297,-0.651C0.29,-0.672 0.285,-0.683 0.28,-0.683C0.279,-0.683 0.277,-0.685 0.276,-0.689C0.275,-0.692 0.274,-0.697 0.274,-0.703C0.274,-0.709 0.275,-0.715 0.277,-0.721C0.276,-0.724 0.281,-0.727 0.292,-0.73C0.302,-0.733 0.31,-0.735 0.316,-0.734C0.32,-0.734 0.325,-0.732 0.331,-0.729C0.336,-0.725 0.34,-0.722 0.343,-0.719C0.348,-0.724 0.358,-0.704 0.374,-0.66C0.38,-0.647 0.384,-0.637 0.386,-0.63C0.387,-0.623 0.388,-0.614 0.388,-0.602L0.386,-0.56L0.384,-0.527C0.383,-0.494 0.38,-0.456 0.375,-0.414C0.37,-0.372 0.363,-0.333 0.356,-0.298C0.347,-0.263 0.332,-0.218 0.311,-0.163C0.289,-0.107 0.273,-0.071 0.263,-0.055C0.266,-0.056 0.254,-0.038 0.229,-0.001L0.19,0.059C0.174,0.081 0.154,0.1 0.129,0.116C0.104,0.133 0.085,0.139 0.072,0.135Z" style="fill-rule:nonzero;"/>
                </g>
            </g>
        </g>
    </g>
</svg>
