<?xml version="1.0" encoding="UTF-8" standalone="no"?>
<!DOCTYPE svg PUBLIC "-//W3C//DTD SVG 1.1//EN" "http://www.w3.org/Graphics/SVG/1.1/DTD/svg11.dtd">
<svg width="100%" height="100%" viewBox="0 0 104 26" version="1.1" xmlns="http://www.w3.org/2000/svg" xmlns:xlink="http://www.w3.org/1999/xlink" xml:space="preserve" xmlns:serif="http://www.serif.com/" style="fill-rule:evenodd;clip-rule:evenodd;stroke-linejoin:round;stroke-miterlimit:2;">
    <g transform="matrix(1,0,0,1,-2216.14,-326.965)">
        <g transform="matrix(0.989556,0,0,0.985447,1573.06,12.8469)">
            <g transform="matrix(2.36273,0,0,2.37258,-634.944,-478.868)">
                <g transform="matrix(12,0,0,12,542.127,345.376)">
                    <path d="M0.284,0.138C0.253,0.134 0.227,0.12 0.204,0.097C0.181,0.074 0.165,0.048 0.156,0.017C0.144,-0.01 0.138,-0.046 0.138,-0.089C0.138,-0.134 0.145,-0.181 0.158,-0.23C0.166,-0.257 0.171,-0.279 0.172,-0.296C0.173,-0.301 0.185,-0.328 0.207,-0.379C0.232,-0.436 0.248,-0.474 0.255,-0.493C0.269,-0.524 0.294,-0.565 0.331,-0.618C0.367,-0.67 0.391,-0.701 0.403,-0.71C0.404,-0.711 0.408,-0.715 0.415,-0.721C0.422,-0.727 0.428,-0.731 0.433,-0.732C0.436,-0.739 0.441,-0.745 0.449,-0.75C0.456,-0.754 0.463,-0.757 0.47,-0.757C0.481,-0.763 0.492,-0.766 0.505,-0.766C0.516,-0.766 0.526,-0.763 0.535,-0.757C0.544,-0.751 0.55,-0.742 0.553,-0.729L0.555,-0.717C0.555,-0.713 0.554,-0.71 0.551,-0.709C0.548,-0.707 0.542,-0.703 0.531,-0.698C0.522,-0.695 0.513,-0.691 0.504,-0.686C0.495,-0.681 0.488,-0.676 0.484,-0.671C0.478,-0.663 0.471,-0.656 0.464,-0.649C0.457,-0.642 0.451,-0.637 0.447,-0.634C0.435,-0.629 0.429,-0.624 0.429,-0.618C0.428,-0.615 0.424,-0.608 0.418,-0.597C0.412,-0.586 0.404,-0.573 0.393,-0.56C0.38,-0.539 0.371,-0.524 0.366,-0.515C0.363,-0.509 0.354,-0.494 0.34,-0.471C0.338,-0.468 0.334,-0.461 0.329,-0.451C0.324,-0.441 0.317,-0.432 0.31,-0.423C0.31,-0.42 0.309,-0.414 0.307,-0.407C0.304,-0.4 0.3,-0.392 0.295,-0.384C0.291,-0.369 0.283,-0.35 0.271,-0.325C0.263,-0.308 0.255,-0.285 0.246,-0.257C0.236,-0.228 0.232,-0.208 0.232,-0.199C0.23,-0.199 0.228,-0.195 0.227,-0.187C0.225,-0.179 0.223,-0.165 0.221,-0.146L0.216,-0.11C0.215,-0.066 0.217,-0.033 0.224,-0.01C0.231,0.013 0.243,0.034 0.262,0.054C0.27,0.061 0.278,0.066 0.285,0.069C0.292,0.072 0.301,0.074 0.31,0.075L0.344,0.096C0.34,0.111 0.332,0.122 0.321,0.129C0.309,0.136 0.297,0.139 0.284,0.138Z" style="fill-rule:nonzero;"/>
                </g>
                <g transform="matrix(12,0,0,12,546.087,345.376)">
                    <path d="M0.124,-0.021C0.122,-0.025 0.116,-0.03 0.107,-0.037C0.098,-0.044 0.093,-0.048 0.093,-0.049C0.093,-0.052 0.092,-0.056 0.089,-0.061C0.086,-0.066 0.083,-0.07 0.08,-0.074C0.075,-0.079 0.078,-0.097 0.091,-0.126C0.104,-0.155 0.121,-0.19 0.142,-0.23C0.146,-0.234 0.151,-0.241 0.158,-0.251C0.164,-0.261 0.168,-0.267 0.17,-0.268C0.17,-0.271 0.171,-0.273 0.173,-0.276C0.175,-0.278 0.177,-0.279 0.18,-0.279L0.188,-0.295C0.191,-0.301 0.204,-0.315 0.227,-0.338C0.25,-0.361 0.269,-0.376 0.282,-0.384C0.295,-0.393 0.308,-0.397 0.323,-0.397C0.339,-0.397 0.353,-0.392 0.364,-0.383L0.391,-0.36C0.411,-0.343 0.422,-0.334 0.425,-0.331L0.462,-0.298L0.445,-0.248C0.439,-0.23 0.436,-0.213 0.436,-0.197C0.436,-0.172 0.443,-0.148 0.457,-0.126C0.46,-0.119 0.465,-0.113 0.47,-0.109C0.476,-0.105 0.484,-0.102 0.493,-0.101C0.508,-0.098 0.515,-0.091 0.515,-0.079C0.515,-0.064 0.512,-0.053 0.507,-0.046C0.502,-0.039 0.495,-0.034 0.488,-0.032C0.477,-0.031 0.47,-0.03 0.466,-0.03C0.447,-0.03 0.429,-0.035 0.413,-0.045C0.397,-0.055 0.383,-0.072 0.371,-0.096C0.368,-0.1 0.365,-0.107 0.361,-0.118C0.356,-0.129 0.354,-0.136 0.353,-0.14C0.348,-0.133 0.341,-0.125 0.33,-0.114C0.261,-0.045 0.206,-0.01 0.163,-0.01C0.148,-0.01 0.135,-0.014 0.124,-0.021ZM0.179,-0.104C0.19,-0.103 0.21,-0.115 0.241,-0.14C0.244,-0.143 0.248,-0.146 0.252,-0.15C0.256,-0.153 0.26,-0.157 0.265,-0.161C0.284,-0.176 0.298,-0.189 0.309,-0.2C0.319,-0.21 0.329,-0.222 0.34,-0.237L0.362,-0.273C0.355,-0.288 0.349,-0.298 0.344,-0.303C0.339,-0.308 0.333,-0.31 0.328,-0.31C0.315,-0.31 0.298,-0.298 0.278,-0.275C0.258,-0.251 0.234,-0.215 0.206,-0.167C0.199,-0.155 0.193,-0.142 0.188,-0.13C0.183,-0.117 0.18,-0.108 0.179,-0.104Z" style="fill-rule:nonzero;"/>
                </g>
                <g transform="matrix(12,0,0,12,551.439,345.376)">
                    <path d="M0.229,-0.006C0.204,-0.009 0.188,-0.019 0.18,-0.038C0.175,-0.043 0.172,-0.048 0.171,-0.051C0.17,-0.054 0.169,-0.058 0.17,-0.061C0.178,-0.061 0.183,-0.062 0.184,-0.065C0.184,-0.067 0.185,-0.068 0.188,-0.069C0.19,-0.07 0.192,-0.07 0.195,-0.069C0.212,-0.068 0.236,-0.077 0.268,-0.097C0.299,-0.117 0.332,-0.144 0.368,-0.177C0.387,-0.201 0.399,-0.218 0.406,-0.229C0.413,-0.239 0.416,-0.247 0.416,-0.254C0.416,-0.257 0.414,-0.262 0.411,-0.269C0.408,-0.274 0.402,-0.277 0.395,-0.277C0.383,-0.277 0.367,-0.27 0.346,-0.257C0.317,-0.239 0.294,-0.223 0.277,-0.207C0.26,-0.193 0.244,-0.175 0.229,-0.155C0.22,-0.144 0.212,-0.134 0.204,-0.125C0.197,-0.116 0.192,-0.109 0.189,-0.106C0.189,-0.103 0.185,-0.1 0.178,-0.096C0.17,-0.092 0.163,-0.09 0.158,-0.09C0.155,-0.091 0.151,-0.094 0.147,-0.098C0.142,-0.102 0.14,-0.107 0.139,-0.112C0.138,-0.113 0.135,-0.116 0.131,-0.118C0.126,-0.122 0.123,-0.125 0.121,-0.129C0.119,-0.133 0.118,-0.138 0.118,-0.143C0.118,-0.153 0.121,-0.17 0.128,-0.194C0.134,-0.221 0.141,-0.249 0.149,-0.276C0.156,-0.303 0.161,-0.317 0.164,-0.32C0.165,-0.321 0.166,-0.325 0.169,-0.331C0.171,-0.337 0.172,-0.343 0.172,-0.35C0.173,-0.356 0.175,-0.363 0.179,-0.371C0.182,-0.378 0.183,-0.383 0.183,-0.384C0.186,-0.387 0.197,-0.413 0.215,-0.463C0.215,-0.466 0.222,-0.483 0.237,-0.516C0.258,-0.566 0.272,-0.598 0.277,-0.612C0.28,-0.617 0.286,-0.627 0.294,-0.641C0.295,-0.643 0.298,-0.648 0.303,-0.655C0.307,-0.662 0.31,-0.666 0.313,-0.667C0.318,-0.668 0.328,-0.665 0.344,-0.657C0.359,-0.649 0.369,-0.641 0.374,-0.634C0.375,-0.633 0.376,-0.631 0.377,-0.629C0.378,-0.628 0.378,-0.626 0.378,-0.624C0.378,-0.621 0.376,-0.615 0.373,-0.606C0.369,-0.597 0.365,-0.589 0.361,-0.58C0.356,-0.571 0.353,-0.564 0.351,-0.559L0.322,-0.499C0.294,-0.438 0.27,-0.378 0.25,-0.32C0.244,-0.301 0.239,-0.286 0.234,-0.275L0.229,-0.253L0.255,-0.282C0.267,-0.294 0.282,-0.306 0.3,-0.319C0.308,-0.324 0.32,-0.33 0.335,-0.337C0.35,-0.344 0.361,-0.348 0.367,-0.349C0.388,-0.354 0.407,-0.357 0.422,-0.357C0.447,-0.357 0.469,-0.339 0.49,-0.304C0.496,-0.293 0.499,-0.28 0.499,-0.263C0.499,-0.251 0.497,-0.239 0.494,-0.227C0.491,-0.215 0.486,-0.204 0.481,-0.195C0.478,-0.192 0.474,-0.189 0.471,-0.185C0.468,-0.18 0.466,-0.177 0.466,-0.174C0.465,-0.17 0.46,-0.161 0.449,-0.147C0.438,-0.133 0.427,-0.119 0.414,-0.105C0.397,-0.087 0.374,-0.069 0.345,-0.051C0.317,-0.033 0.294,-0.021 0.275,-0.014C0.271,-0.013 0.264,-0.012 0.253,-0.011C0.242,-0.009 0.234,-0.007 0.229,-0.006Z" style="fill-rule:nonzero;"/>
                </g>
                <g transform="matrix(12,0,0,12,556.767,345.376)">
                    <path d="M0.195,-0.008C0.192,-0.007 0.187,-0.007 0.182,-0.007C0.173,-0.007 0.166,-0.009 0.161,-0.012C0.156,-0.015 0.149,-0.02 0.142,-0.027C0.127,-0.034 0.113,-0.047 0.102,-0.064C0.091,-0.081 0.086,-0.095 0.087,-0.105C0.09,-0.137 0.099,-0.172 0.114,-0.21C0.129,-0.247 0.148,-0.281 0.172,-0.312C0.195,-0.342 0.22,-0.363 0.247,-0.375C0.259,-0.38 0.27,-0.382 0.28,-0.382C0.301,-0.382 0.314,-0.375 0.321,-0.362C0.326,-0.353 0.328,-0.346 0.328,-0.341C0.328,-0.333 0.323,-0.328 0.314,-0.325C0.312,-0.325 0.31,-0.324 0.307,-0.322C0.304,-0.32 0.303,-0.318 0.303,-0.316C0.304,-0.315 0.307,-0.315 0.312,-0.315C0.323,-0.315 0.337,-0.317 0.354,-0.32C0.371,-0.323 0.381,-0.327 0.386,-0.331C0.39,-0.333 0.393,-0.334 0.396,-0.334L0.41,-0.332C0.421,-0.329 0.427,-0.325 0.427,-0.32C0.427,-0.317 0.428,-0.312 0.431,-0.307C0.433,-0.302 0.435,-0.299 0.437,-0.299C0.44,-0.299 0.442,-0.297 0.442,-0.292C0.442,-0.288 0.44,-0.283 0.436,-0.277C0.431,-0.27 0.425,-0.264 0.417,-0.258C0.414,-0.256 0.409,-0.253 0.403,-0.249C0.396,-0.245 0.393,-0.242 0.392,-0.239C0.391,-0.236 0.391,-0.233 0.392,-0.228C0.395,-0.223 0.396,-0.216 0.396,-0.208C0.396,-0.185 0.385,-0.159 0.363,-0.129C0.341,-0.098 0.314,-0.071 0.282,-0.048C0.251,-0.025 0.222,-0.011 0.195,-0.008ZM0.198,-0.092C0.202,-0.092 0.212,-0.096 0.228,-0.104C0.237,-0.113 0.244,-0.118 0.249,-0.12C0.251,-0.12 0.253,-0.122 0.255,-0.126C0.256,-0.129 0.259,-0.135 0.264,-0.142C0.268,-0.15 0.275,-0.16 0.285,-0.173C0.296,-0.185 0.303,-0.195 0.308,-0.202C0.312,-0.209 0.314,-0.217 0.314,-0.224C0.314,-0.227 0.313,-0.231 0.312,-0.238C0.311,-0.24 0.309,-0.242 0.306,-0.244C0.302,-0.245 0.298,-0.247 0.295,-0.248C0.292,-0.248 0.288,-0.247 0.285,-0.246C0.282,-0.244 0.279,-0.243 0.278,-0.243C0.275,-0.243 0.271,-0.245 0.267,-0.248L0.251,-0.268L0.234,-0.251C0.219,-0.236 0.206,-0.215 0.196,-0.189C0.185,-0.163 0.179,-0.139 0.177,-0.118C0.176,-0.109 0.178,-0.102 0.182,-0.099C0.185,-0.095 0.191,-0.093 0.198,-0.092Z" style="fill-rule:nonzero;"/>
                </g>
                <g transform="matrix(12,0,0,12,561.111,345.376)">
                    <path d="M0.17,-0.035C0.153,-0.05 0.141,-0.064 0.134,-0.076C0.126,-0.087 0.121,-0.105 0.118,-0.128C0.116,-0.143 0.119,-0.167 0.127,-0.199C0.134,-0.23 0.144,-0.261 0.157,-0.292C0.17,-0.322 0.182,-0.343 0.194,-0.355C0.209,-0.374 0.225,-0.383 0.244,-0.383C0.251,-0.383 0.258,-0.382 0.263,-0.379C0.271,-0.37 0.275,-0.358 0.275,-0.343C0.275,-0.328 0.271,-0.314 0.263,-0.302C0.25,-0.285 0.239,-0.263 0.229,-0.236C0.219,-0.209 0.212,-0.185 0.209,-0.162C0.205,-0.149 0.203,-0.139 0.203,-0.131C0.203,-0.124 0.205,-0.118 0.209,-0.115C0.212,-0.112 0.218,-0.11 0.226,-0.11C0.243,-0.11 0.261,-0.122 0.28,-0.146C0.299,-0.17 0.316,-0.201 0.331,-0.24C0.334,-0.249 0.337,-0.26 0.34,-0.274C0.345,-0.29 0.347,-0.299 0.348,-0.301C0.352,-0.315 0.359,-0.326 0.37,-0.335C0.38,-0.344 0.39,-0.348 0.4,-0.348C0.406,-0.348 0.41,-0.347 0.413,-0.344C0.433,-0.335 0.442,-0.32 0.44,-0.299C0.44,-0.284 0.438,-0.272 0.434,-0.261C0.43,-0.25 0.424,-0.235 0.415,-0.218C0.408,-0.205 0.402,-0.193 0.397,-0.181C0.387,-0.158 0.37,-0.132 0.346,-0.103C0.322,-0.075 0.301,-0.057 0.284,-0.05C0.261,-0.035 0.237,-0.028 0.212,-0.028C0.197,-0.028 0.183,-0.03 0.17,-0.035Z" style="fill-rule:nonzero;"/>
                </g>
                <g transform="matrix(12,0,0,12,565.551,345.376)">
                    <path d="M0.23,0.006C0.215,0.002 0.196,-0.01 0.173,-0.031C0.162,-0.046 0.155,-0.059 0.153,-0.07C0.151,-0.082 0.15,-0.105 0.15,-0.14C0.15,-0.156 0.158,-0.196 0.174,-0.26C0.175,-0.263 0.177,-0.272 0.181,-0.287C0.183,-0.294 0.18,-0.299 0.173,-0.301C0.166,-0.303 0.155,-0.304 0.142,-0.304C0.131,-0.304 0.124,-0.305 0.122,-0.306C0.12,-0.307 0.119,-0.31 0.118,-0.315C0.118,-0.32 0.118,-0.324 0.118,-0.326C0.118,-0.328 0.117,-0.33 0.114,-0.332C0.111,-0.334 0.108,-0.336 0.107,-0.338C0.105,-0.341 0.107,-0.346 0.112,-0.353C0.117,-0.36 0.123,-0.365 0.13,-0.366C0.134,-0.367 0.143,-0.368 0.156,-0.369C0.169,-0.37 0.182,-0.373 0.195,-0.377C0.207,-0.381 0.216,-0.387 0.222,-0.394C0.231,-0.417 0.241,-0.441 0.253,-0.466C0.264,-0.491 0.272,-0.506 0.277,-0.511C0.288,-0.516 0.297,-0.519 0.306,-0.519C0.321,-0.519 0.332,-0.513 0.34,-0.501C0.342,-0.498 0.344,-0.496 0.347,-0.493C0.35,-0.49 0.351,-0.487 0.351,-0.484C0.351,-0.479 0.349,-0.472 0.344,-0.462C0.34,-0.452 0.332,-0.436 0.319,-0.413L0.306,-0.388C0.308,-0.387 0.313,-0.387 0.32,-0.387C0.327,-0.387 0.333,-0.387 0.338,-0.388C0.353,-0.391 0.364,-0.392 0.372,-0.392C0.378,-0.392 0.382,-0.392 0.385,-0.391C0.413,-0.391 0.428,-0.376 0.431,-0.345C0.432,-0.337 0.43,-0.331 0.423,-0.326C0.416,-0.321 0.403,-0.318 0.386,-0.318C0.317,-0.315 0.283,-0.312 0.282,-0.309C0.279,-0.307 0.273,-0.297 0.266,-0.278C0.259,-0.259 0.253,-0.242 0.248,-0.225C0.24,-0.19 0.236,-0.158 0.236,-0.127C0.236,-0.098 0.24,-0.079 0.249,-0.07C0.252,-0.067 0.255,-0.066 0.26,-0.066C0.272,-0.066 0.289,-0.075 0.311,-0.093C0.318,-0.1 0.326,-0.103 0.335,-0.103C0.342,-0.103 0.348,-0.1 0.353,-0.095C0.357,-0.09 0.359,-0.083 0.359,-0.074C0.359,-0.064 0.356,-0.054 0.349,-0.045C0.339,-0.03 0.324,-0.017 0.304,-0.007C0.284,0.003 0.265,0.008 0.247,0.008C0.239,0.008 0.233,0.007 0.23,0.006Z" style="fill-rule:nonzero;"/>
                </g>
                <g transform="matrix(12,0,0,12,572.427,345.376)">
                    <path d="M0.597,-0.081C0.602,-0.074 0.604,-0.068 0.604,-0.062C0.604,-0.055 0.602,-0.049 0.597,-0.044C0.592,-0.039 0.588,-0.036 0.585,-0.036C0.569,-0.036 0.551,-0.04 0.532,-0.048C0.512,-0.055 0.502,-0.066 0.502,-0.081L0.502,-0.143C0.502,-0.17 0.5,-0.185 0.495,-0.189C0.485,-0.194 0.472,-0.187 0.455,-0.167C0.438,-0.146 0.418,-0.116 0.394,-0.076C0.385,-0.061 0.377,-0.051 0.37,-0.045C0.363,-0.038 0.357,-0.035 0.352,-0.035C0.347,-0.035 0.343,-0.036 0.34,-0.039C0.319,-0.045 0.309,-0.057 0.309,-0.074C0.309,-0.076 0.31,-0.08 0.311,-0.087C0.317,-0.108 0.324,-0.131 0.331,-0.156C0.338,-0.181 0.343,-0.203 0.347,-0.221C0.345,-0.225 0.342,-0.227 0.337,-0.227C0.33,-0.227 0.323,-0.224 0.314,-0.217C0.311,-0.215 0.307,-0.212 0.3,-0.207C0.293,-0.203 0.285,-0.198 0.279,-0.191C0.272,-0.184 0.264,-0.174 0.257,-0.162C0.254,-0.157 0.25,-0.15 0.243,-0.141C0.21,-0.09 0.189,-0.062 0.182,-0.055C0.179,-0.046 0.175,-0.039 0.172,-0.035C0.17,-0.032 0.166,-0.03 0.162,-0.03C0.159,-0.03 0.156,-0.031 0.152,-0.033C0.139,-0.039 0.129,-0.048 0.122,-0.059C0.114,-0.07 0.11,-0.083 0.11,-0.098C0.11,-0.108 0.113,-0.128 0.119,-0.158C0.125,-0.188 0.132,-0.216 0.139,-0.242C0.144,-0.253 0.149,-0.264 0.152,-0.276C0.155,-0.287 0.156,-0.295 0.156,-0.3C0.158,-0.313 0.162,-0.33 0.168,-0.352C0.174,-0.373 0.178,-0.385 0.181,-0.387C0.185,-0.391 0.192,-0.393 0.203,-0.393C0.21,-0.393 0.217,-0.392 0.224,-0.389C0.231,-0.386 0.235,-0.382 0.238,-0.377C0.247,-0.367 0.251,-0.353 0.251,-0.336C0.251,-0.32 0.248,-0.303 0.241,-0.285C0.234,-0.27 0.226,-0.247 0.216,-0.218C0.216,-0.218 0.217,-0.219 0.218,-0.22C0.234,-0.243 0.255,-0.268 0.28,-0.296C0.292,-0.309 0.306,-0.32 0.321,-0.327C0.336,-0.334 0.348,-0.338 0.357,-0.338C0.373,-0.335 0.387,-0.328 0.398,-0.315C0.408,-0.302 0.415,-0.284 0.418,-0.261C0.418,-0.253 0.417,-0.243 0.416,-0.232C0.415,-0.22 0.414,-0.212 0.413,-0.209C0.416,-0.212 0.423,-0.221 0.434,-0.234C0.445,-0.247 0.458,-0.26 0.474,-0.274C0.489,-0.285 0.502,-0.291 0.515,-0.291C0.526,-0.291 0.535,-0.287 0.543,-0.278C0.558,-0.269 0.569,-0.255 0.578,-0.236C0.586,-0.217 0.59,-0.195 0.59,-0.17C0.59,-0.161 0.59,-0.155 0.589,-0.15C0.588,-0.145 0.588,-0.139 0.588,-0.13C0.588,-0.121 0.589,-0.112 0.591,-0.103C0.593,-0.095 0.595,-0.088 0.597,-0.081Z" style="fill-rule:nonzero;"/>
                </g>
                <g transform="matrix(12,0,0,12,579.255,345.376)">
                    <path d="M0.223,-0C0.185,-0 0.154,-0.011 0.131,-0.032C0.108,-0.053 0.096,-0.084 0.096,-0.123C0.096,-0.138 0.097,-0.155 0.099,-0.174C0.1,-0.19 0.107,-0.212 0.118,-0.24C0.13,-0.268 0.146,-0.295 0.167,-0.322C0.187,-0.349 0.211,-0.368 0.238,-0.381C0.251,-0.387 0.261,-0.391 0.27,-0.394C0.279,-0.396 0.289,-0.397 0.3,-0.397C0.327,-0.397 0.349,-0.392 0.367,-0.382C0.384,-0.372 0.396,-0.361 0.403,-0.348C0.409,-0.335 0.413,-0.324 0.413,-0.315L0.413,-0.307C0.413,-0.299 0.408,-0.284 0.399,-0.263C0.39,-0.242 0.375,-0.222 0.355,-0.203C0.334,-0.184 0.308,-0.174 0.276,-0.172C0.26,-0.172 0.245,-0.173 0.23,-0.177C0.215,-0.18 0.205,-0.181 0.201,-0.181C0.191,-0.181 0.185,-0.177 0.182,-0.17C0.179,-0.163 0.178,-0.15 0.178,-0.133C0.18,-0.114 0.185,-0.101 0.194,-0.094C0.202,-0.087 0.214,-0.083 0.23,-0.083C0.238,-0.083 0.247,-0.085 0.258,-0.09C0.269,-0.095 0.281,-0.104 0.296,-0.115C0.304,-0.122 0.31,-0.126 0.315,-0.129C0.32,-0.132 0.325,-0.133 0.332,-0.133C0.338,-0.133 0.345,-0.129 0.353,-0.121C0.361,-0.113 0.365,-0.105 0.366,-0.098C0.365,-0.09 0.357,-0.078 0.344,-0.062C0.331,-0.046 0.313,-0.032 0.292,-0.019C0.271,-0.006 0.248,-0 0.223,-0ZM0.258,-0.241C0.271,-0.241 0.279,-0.242 0.284,-0.245C0.291,-0.248 0.301,-0.257 0.315,-0.271C0.328,-0.284 0.335,-0.294 0.336,-0.299C0.336,-0.306 0.333,-0.311 0.328,-0.316C0.322,-0.32 0.314,-0.323 0.304,-0.324L0.293,-0.324C0.284,-0.324 0.272,-0.317 0.256,-0.303C0.239,-0.288 0.225,-0.272 0.213,-0.253C0.214,-0.25 0.219,-0.247 0.228,-0.245C0.237,-0.242 0.247,-0.241 0.258,-0.241Z" style="fill-rule:nonzero;"/>
                </g>
                <g transform="matrix(12,0,0,12,583.263,345.376)">
                    <path d="M0.072,0.135C0.059,0.132 0.047,0.124 0.035,0.113C0.023,0.102 0.017,0.092 0.016,0.082C0.016,0.081 0.016,0.077 0.017,0.07C0.017,0.063 0.018,0.058 0.021,0.054C0.022,0.055 0.023,0.055 0.025,0.056C0.028,0.057 0.031,0.058 0.036,0.058C0.041,0.058 0.046,0.057 0.05,0.056C0.063,0.057 0.073,0.055 0.08,0.052C0.086,0.049 0.095,0.042 0.105,0.03L0.123,0.007C0.138,-0.011 0.147,-0.024 0.15,-0.031C0.159,-0.038 0.166,-0.044 0.171,-0.05C0.176,-0.055 0.181,-0.062 0.186,-0.071C0.186,-0.086 0.192,-0.103 0.204,-0.122C0.213,-0.141 0.219,-0.153 0.223,-0.16C0.231,-0.176 0.235,-0.185 0.235,-0.187C0.236,-0.188 0.237,-0.191 0.238,-0.196C0.24,-0.201 0.241,-0.206 0.24,-0.211C0.244,-0.213 0.248,-0.218 0.251,-0.225C0.254,-0.232 0.255,-0.239 0.254,-0.246C0.255,-0.249 0.258,-0.257 0.264,-0.271C0.269,-0.284 0.272,-0.298 0.273,-0.311C0.284,-0.345 0.291,-0.375 0.294,-0.401C0.297,-0.427 0.301,-0.468 0.304,-0.525L0.306,-0.578C0.307,-0.587 0.307,-0.597 0.307,-0.609C0.307,-0.619 0.306,-0.627 0.305,-0.632C0.304,-0.638 0.301,-0.644 0.297,-0.651C0.29,-0.672 0.285,-0.683 0.28,-0.683C0.279,-0.683 0.277,-0.685 0.276,-0.689C0.275,-0.692 0.274,-0.697 0.274,-0.703C0.274,-0.709 0.275,-0.715 0.277,-0.721C0.276,-0.724 0.281,-0.727 0.292,-0.73C0.302,-0.733 0.31,-0.735 0.316,-0.734C0.32,-0.734 0.325,-0.732 0.331,-0.729C0.336,-0.725 0.34,-0.722 0.343,-0.719C0.348,-0.724 0.358,-0.704 0.374,-0.66C0.38,-0.647 0.384,-0.637 0.386,-0.63C0.387,-0.623 0.388,-0.614 0.388,-0.602L0.386,-0.56L0.384,-0.527C0.383,-0.494 0.38,-0.456 0.375,-0.414C0.37,-0.372 0.363,-0.333 0.356,-0.298C0.347,-0.263 0.332,-0.218 0.311,-0.163C0.289,-0.107 0.273,-0.071 0.263,-0.055C0.266,-0.056 0.254,-0.038 0.229,-0.001L0.19,0.059C0.174,0.081 0.154,0.1 0.129,0.116C0.104,0.133 0.085,0.139 0.072,0.135Z" style="fill-rule:nonzero;"/>
                </g>
            </g>
        </g>
    </g>
</svg>
