<?xml version="1.0" encoding="UTF-8" standalone="no"?>
<!DOCTYPE svg PUBLIC "-//W3C//DTD SVG 1.1//EN" "http://www.w3.org/Graphics/SVG/1.1/DTD/svg11.dtd">
<svg width="100%" height="100%" viewBox="0 0 137 21" version="1.1" xmlns="http://www.w3.org/2000/svg" xmlns:xlink="http://www.w3.org/1999/xlink" xml:space="preserve" xmlns:serif="http://www.serif.com/" style="fill-rule:evenodd;clip-rule:evenodd;stroke-linejoin:round;stroke-miterlimit:2;">
    <g transform="matrix(1,0,0,1,-2212.47,-816.732)">
        <g transform="matrix(0.989556,0,0,0.985447,1573.06,12.8469)">
            <g transform="matrix(1.55373,0,0,1.56021,-196.422,294.249)">
                <g transform="matrix(12,0,0,12,542.127,345.376)">
                    <path d="M0.21,0.008C0.151,0.008 0.104,-0.009 0.068,-0.043C0.032,-0.078 0.014,-0.123 0.014,-0.18L0.014,-0.249C0.014,-0.252 0.015,-0.255 0.018,-0.258C0.02,-0.26 0.023,-0.261 0.026,-0.261L0.143,-0.261C0.146,-0.261 0.149,-0.26 0.152,-0.258C0.154,-0.255 0.155,-0.252 0.155,-0.249L0.155,-0.178C0.155,-0.159 0.16,-0.143 0.17,-0.131C0.18,-0.119 0.193,-0.113 0.21,-0.113C0.227,-0.113 0.241,-0.119 0.252,-0.131C0.262,-0.143 0.267,-0.159 0.267,-0.178L0.267,-0.688C0.267,-0.691 0.268,-0.694 0.271,-0.697C0.273,-0.699 0.276,-0.7 0.279,-0.7L0.396,-0.7C0.399,-0.7 0.402,-0.699 0.405,-0.697C0.407,-0.694 0.408,-0.691 0.408,-0.688L0.408,-0.18C0.408,-0.123 0.39,-0.078 0.354,-0.043C0.317,-0.009 0.269,0.008 0.21,0.008Z" style="fill-rule:nonzero;"/>
                </g>
                <g transform="matrix(12,0,0,12,547.479,345.376)">
                    <path d="M0.411,-0.591C0.411,-0.588 0.41,-0.585 0.407,-0.583C0.405,-0.58 0.402,-0.579 0.399,-0.579L0.19,-0.579C0.187,-0.579 0.185,-0.577 0.185,-0.574L0.185,-0.416C0.185,-0.413 0.187,-0.411 0.19,-0.411L0.31,-0.411C0.313,-0.411 0.316,-0.41 0.319,-0.407C0.321,-0.405 0.322,-0.402 0.322,-0.399L0.322,-0.302C0.322,-0.299 0.321,-0.296 0.319,-0.294C0.316,-0.291 0.313,-0.29 0.31,-0.29L0.19,-0.29C0.187,-0.29 0.185,-0.288 0.185,-0.285L0.185,-0.126C0.185,-0.123 0.187,-0.121 0.19,-0.121L0.399,-0.121C0.402,-0.121 0.405,-0.12 0.407,-0.117C0.41,-0.115 0.411,-0.112 0.411,-0.109L0.411,-0.012C0.411,-0.009 0.41,-0.006 0.407,-0.004C0.405,-0.001 0.402,-0 0.399,-0L0.056,-0C0.053,-0 0.05,-0.001 0.048,-0.004C0.045,-0.006 0.044,-0.009 0.044,-0.012L0.044,-0.688C0.044,-0.691 0.045,-0.694 0.048,-0.697C0.05,-0.699 0.053,-0.7 0.056,-0.7L0.399,-0.7C0.402,-0.7 0.405,-0.699 0.407,-0.697C0.41,-0.694 0.411,-0.691 0.411,-0.688L0.411,-0.591Z" style="fill-rule:nonzero;"/>
                </g>
                <g transform="matrix(12,0,0,12,552.735,345.376)">
                    <path d="M0.33,-0.688C0.33,-0.691 0.331,-0.694 0.334,-0.697C0.336,-0.699 0.339,-0.7 0.342,-0.7L0.458,-0.7C0.461,-0.7 0.464,-0.699 0.467,-0.697C0.469,-0.694 0.47,-0.691 0.47,-0.688L0.47,-0.012C0.47,-0.009 0.469,-0.006 0.467,-0.004C0.464,-0.001 0.461,-0 0.458,-0L0.326,-0C0.319,-0 0.315,-0.003 0.313,-0.01L0.189,-0.397C0.188,-0.399 0.187,-0.4 0.186,-0.4C0.184,-0.399 0.183,-0.398 0.183,-0.396L0.184,-0.012C0.184,-0.009 0.183,-0.006 0.181,-0.004C0.178,-0.001 0.175,-0 0.172,-0L0.056,-0C0.053,-0 0.05,-0.001 0.048,-0.004C0.045,-0.006 0.044,-0.009 0.044,-0.012L0.044,-0.688C0.044,-0.691 0.045,-0.694 0.048,-0.697C0.05,-0.699 0.053,-0.7 0.056,-0.7L0.187,-0.7C0.194,-0.7 0.198,-0.697 0.2,-0.69L0.325,-0.303C0.326,-0.301 0.327,-0.3 0.329,-0.301C0.33,-0.301 0.331,-0.302 0.331,-0.304L0.33,-0.688Z" style="fill-rule:nonzero;"/>
                </g>
                <g transform="matrix(12,0,0,12,558.903,345.376)">
                    <path d="M0.224,0.008C0.185,0.008 0.151,0 0.122,-0.015C0.093,-0.03 0.07,-0.052 0.054,-0.08C0.038,-0.107 0.03,-0.139 0.03,-0.175L0.03,-0.204C0.03,-0.207 0.031,-0.21 0.034,-0.213C0.036,-0.215 0.039,-0.216 0.042,-0.216L0.157,-0.216C0.16,-0.216 0.163,-0.215 0.166,-0.213C0.168,-0.21 0.169,-0.207 0.169,-0.204L0.169,-0.182C0.169,-0.161 0.174,-0.145 0.185,-0.132C0.196,-0.119 0.209,-0.113 0.225,-0.113C0.241,-0.113 0.254,-0.119 0.265,-0.131C0.276,-0.143 0.281,-0.159 0.281,-0.178C0.281,-0.198 0.274,-0.215 0.261,-0.23C0.248,-0.244 0.222,-0.265 0.183,-0.293C0.15,-0.317 0.123,-0.338 0.102,-0.357C0.081,-0.376 0.064,-0.399 0.049,-0.426C0.034,-0.453 0.027,-0.485 0.027,-0.521C0.027,-0.578 0.045,-0.623 0.08,-0.657C0.115,-0.691 0.162,-0.708 0.22,-0.708C0.279,-0.708 0.326,-0.69 0.362,-0.655C0.397,-0.62 0.415,-0.573 0.415,-0.516L0.415,-0.492C0.415,-0.489 0.414,-0.486 0.411,-0.484C0.409,-0.481 0.406,-0.48 0.403,-0.48L0.288,-0.48C0.285,-0.48 0.282,-0.481 0.28,-0.484C0.277,-0.486 0.276,-0.489 0.276,-0.492L0.276,-0.519C0.276,-0.54 0.271,-0.556 0.261,-0.569C0.25,-0.581 0.237,-0.587 0.22,-0.587C0.204,-0.587 0.191,-0.581 0.181,-0.57C0.171,-0.558 0.166,-0.542 0.166,-0.521C0.166,-0.501 0.172,-0.483 0.185,-0.468C0.198,-0.453 0.223,-0.431 0.26,-0.404C0.301,-0.373 0.333,-0.348 0.354,-0.33C0.375,-0.311 0.391,-0.29 0.403,-0.267C0.414,-0.244 0.42,-0.216 0.42,-0.184C0.42,-0.125 0.402,-0.079 0.366,-0.044C0.33,-0.009 0.283,0.008 0.224,0.008Z" style="fill-rule:nonzero;"/>
                </g>
                <g transform="matrix(12,0,0,12,585.831,345.376)">
                    <path d="M0.169,-0C0.162,-0 0.157,-0.004 0.156,-0.011L0.021,-0.687L0.02,-0.691C0.02,-0.697 0.024,-0.7 0.031,-0.7L0.153,-0.7C0.161,-0.7 0.165,-0.696 0.166,-0.689L0.223,-0.329C0.224,-0.326 0.225,-0.325 0.226,-0.325C0.227,-0.325 0.228,-0.326 0.229,-0.329L0.283,-0.689C0.284,-0.696 0.288,-0.7 0.296,-0.7L0.397,-0.7C0.405,-0.7 0.409,-0.696 0.41,-0.689L0.469,-0.329C0.47,-0.326 0.471,-0.325 0.472,-0.325C0.473,-0.325 0.474,-0.326 0.475,-0.329L0.526,-0.689C0.527,-0.696 0.531,-0.7 0.539,-0.7L0.657,-0.7C0.666,-0.7 0.669,-0.696 0.668,-0.687L0.541,-0.011C0.54,-0.004 0.536,-0 0.528,-0L0.42,-0C0.412,-0 0.408,-0.004 0.407,-0.011L0.348,-0.381C0.347,-0.384 0.346,-0.385 0.345,-0.385C0.344,-0.385 0.343,-0.384 0.342,-0.381L0.289,-0.011C0.288,-0.004 0.284,-0 0.276,-0L0.169,-0Z" style="fill-rule:nonzero;"/>
                </g>
                <g transform="matrix(12,0,0,12,593.199,345.376)">
                    <path d="M0.338,-0C0.33,-0 0.326,-0.004 0.325,-0.011L0.309,-0.107C0.309,-0.11 0.307,-0.112 0.303,-0.112L0.176,-0.112C0.172,-0.112 0.17,-0.11 0.17,-0.107L0.154,-0.011C0.153,-0.004 0.149,-0 0.141,-0L0.024,-0C0.015,-0 0.012,-0.004 0.014,-0.013L0.161,-0.689C0.162,-0.696 0.167,-0.7 0.174,-0.7L0.309,-0.7C0.316,-0.7 0.321,-0.696 0.322,-0.689L0.468,-0.013L0.469,-0.009C0.469,-0.003 0.465,-0 0.458,-0L0.338,-0ZM0.19,-0.226C0.19,-0.223 0.191,-0.221 0.194,-0.221L0.284,-0.221C0.287,-0.221 0.289,-0.223 0.288,-0.226L0.241,-0.499C0.24,-0.501 0.239,-0.502 0.238,-0.502C0.237,-0.502 0.236,-0.501 0.235,-0.499L0.19,-0.226Z" style="fill-rule:nonzero;"/>
                </g>
                <g transform="matrix(12,0,0,12,598.983,345.376)">
                    <path d="M0.056,-0C0.053,-0 0.05,-0.001 0.048,-0.004C0.045,-0.006 0.044,-0.009 0.044,-0.012L0.044,-0.688C0.044,-0.691 0.045,-0.694 0.048,-0.697C0.05,-0.699 0.053,-0.7 0.056,-0.7L0.173,-0.7C0.176,-0.7 0.179,-0.699 0.182,-0.697C0.184,-0.694 0.185,-0.691 0.185,-0.688L0.185,-0.126C0.185,-0.123 0.187,-0.121 0.19,-0.121L0.4,-0.121C0.403,-0.121 0.406,-0.12 0.408,-0.117C0.411,-0.115 0.412,-0.112 0.412,-0.109L0.412,-0.012C0.412,-0.009 0.411,-0.006 0.408,-0.004C0.406,-0.001 0.403,-0 0.4,-0L0.056,-0Z" style="fill-rule:nonzero;"/>
                </g>
                <g transform="matrix(12,0,0,12,604.095,345.376)">
                    <path d="M0.056,-0C0.053,-0 0.05,-0.001 0.048,-0.004C0.045,-0.006 0.044,-0.009 0.044,-0.012L0.044,-0.688C0.044,-0.691 0.045,-0.694 0.048,-0.697C0.05,-0.699 0.053,-0.7 0.056,-0.7L0.173,-0.7C0.176,-0.7 0.179,-0.699 0.182,-0.697C0.184,-0.694 0.185,-0.691 0.185,-0.688L0.185,-0.126C0.185,-0.123 0.187,-0.121 0.19,-0.121L0.4,-0.121C0.403,-0.121 0.406,-0.12 0.408,-0.117C0.411,-0.115 0.412,-0.112 0.412,-0.109L0.412,-0.012C0.412,-0.009 0.411,-0.006 0.408,-0.004C0.406,-0.001 0.403,-0 0.4,-0L0.056,-0Z" style="fill-rule:nonzero;"/>
                </g>
                <g transform="matrix(12,0,0,12,609.159,345.376)">
                    <path d="M0.233,0.008C0.173,0.008 0.125,-0.009 0.089,-0.043C0.052,-0.078 0.034,-0.124 0.034,-0.181L0.034,-0.519C0.034,-0.576 0.052,-0.622 0.089,-0.657C0.125,-0.691 0.173,-0.708 0.233,-0.708C0.293,-0.708 0.341,-0.691 0.378,-0.656C0.415,-0.621 0.433,-0.575 0.433,-0.518L0.433,-0.48C0.433,-0.477 0.432,-0.474 0.43,-0.471C0.427,-0.469 0.424,-0.468 0.421,-0.468L0.304,-0.468C0.301,-0.468 0.298,-0.469 0.296,-0.471C0.293,-0.474 0.292,-0.477 0.292,-0.48L0.292,-0.52C0.292,-0.54 0.287,-0.556 0.276,-0.569C0.265,-0.581 0.251,-0.587 0.233,-0.587C0.216,-0.587 0.202,-0.581 0.191,-0.569C0.18,-0.556 0.175,-0.54 0.175,-0.52L0.175,-0.18C0.175,-0.16 0.18,-0.144 0.191,-0.132C0.202,-0.119 0.216,-0.113 0.233,-0.113C0.251,-0.113 0.265,-0.119 0.276,-0.132C0.287,-0.144 0.292,-0.16 0.292,-0.18L0.292,-0.26C0.292,-0.263 0.29,-0.265 0.287,-0.265L0.243,-0.265C0.24,-0.265 0.237,-0.266 0.234,-0.269C0.232,-0.271 0.231,-0.274 0.231,-0.277L0.231,-0.366C0.231,-0.369 0.232,-0.372 0.234,-0.375C0.237,-0.377 0.24,-0.378 0.243,-0.378L0.421,-0.378C0.424,-0.378 0.427,-0.377 0.43,-0.375C0.432,-0.372 0.433,-0.369 0.433,-0.366L0.433,-0.181C0.433,-0.124 0.415,-0.078 0.378,-0.043C0.341,-0.009 0.293,0.008 0.233,0.008Z" style="fill-rule:nonzero;"/>
                </g>
                <g transform="matrix(12,0,0,12,614.763,345.376)">
                    <path d="M0.32,-0C0.313,-0 0.308,-0.003 0.306,-0.01L0.229,-0.286C0.228,-0.289 0.226,-0.29 0.224,-0.29L0.19,-0.29C0.187,-0.29 0.185,-0.288 0.185,-0.285L0.185,-0.012C0.185,-0.009 0.184,-0.006 0.182,-0.004C0.179,-0.001 0.176,-0 0.173,-0L0.056,-0C0.053,-0 0.05,-0.001 0.048,-0.004C0.045,-0.006 0.044,-0.009 0.044,-0.012L0.044,-0.688C0.044,-0.691 0.045,-0.694 0.048,-0.697C0.05,-0.699 0.053,-0.7 0.056,-0.7L0.258,-0.7C0.295,-0.7 0.327,-0.691 0.356,-0.674C0.385,-0.656 0.407,-0.631 0.423,-0.599C0.438,-0.567 0.446,-0.53 0.446,-0.489C0.446,-0.45 0.439,-0.415 0.424,-0.385C0.408,-0.355 0.388,-0.332 0.361,-0.315C0.36,-0.314 0.359,-0.314 0.358,-0.313C0.357,-0.312 0.357,-0.31 0.358,-0.309L0.45,-0.014L0.451,-0.01C0.451,-0.003 0.447,-0 0.44,-0L0.32,-0ZM0.19,-0.579C0.187,-0.579 0.185,-0.577 0.185,-0.574L0.185,-0.403C0.185,-0.4 0.187,-0.398 0.19,-0.398L0.235,-0.398C0.256,-0.398 0.273,-0.406 0.285,-0.423C0.299,-0.439 0.305,-0.461 0.305,-0.488C0.305,-0.516 0.299,-0.538 0.285,-0.555C0.273,-0.571 0.256,-0.579 0.235,-0.579L0.19,-0.579Z" style="fill-rule:nonzero;"/>
                </g>
                <g transform="matrix(12,0,0,12,620.415,345.376)">
                    <path d="M0.411,-0.591C0.411,-0.588 0.41,-0.585 0.407,-0.583C0.405,-0.58 0.402,-0.579 0.399,-0.579L0.19,-0.579C0.187,-0.579 0.185,-0.577 0.185,-0.574L0.185,-0.416C0.185,-0.413 0.187,-0.411 0.19,-0.411L0.31,-0.411C0.313,-0.411 0.316,-0.41 0.319,-0.407C0.321,-0.405 0.322,-0.402 0.322,-0.399L0.322,-0.302C0.322,-0.299 0.321,-0.296 0.319,-0.294C0.316,-0.291 0.313,-0.29 0.31,-0.29L0.19,-0.29C0.187,-0.29 0.185,-0.288 0.185,-0.285L0.185,-0.126C0.185,-0.123 0.187,-0.121 0.19,-0.121L0.399,-0.121C0.402,-0.121 0.405,-0.12 0.407,-0.117C0.41,-0.115 0.411,-0.112 0.411,-0.109L0.411,-0.012C0.411,-0.009 0.41,-0.006 0.407,-0.004C0.405,-0.001 0.402,-0 0.399,-0L0.056,-0C0.053,-0 0.05,-0.001 0.048,-0.004C0.045,-0.006 0.044,-0.009 0.044,-0.012L0.044,-0.688C0.044,-0.691 0.045,-0.694 0.048,-0.697C0.05,-0.699 0.053,-0.7 0.056,-0.7L0.399,-0.7C0.402,-0.7 0.405,-0.699 0.407,-0.697C0.41,-0.694 0.411,-0.691 0.411,-0.688L0.411,-0.591Z" style="fill-rule:nonzero;"/>
                </g>
                <g transform="matrix(12,0,0,12,625.671,345.376)">
                    <path d="M0.33,-0.688C0.33,-0.691 0.331,-0.694 0.334,-0.697C0.336,-0.699 0.339,-0.7 0.342,-0.7L0.458,-0.7C0.461,-0.7 0.464,-0.699 0.467,-0.697C0.469,-0.694 0.47,-0.691 0.47,-0.688L0.47,-0.012C0.47,-0.009 0.469,-0.006 0.467,-0.004C0.464,-0.001 0.461,-0 0.458,-0L0.326,-0C0.319,-0 0.315,-0.003 0.313,-0.01L0.189,-0.397C0.188,-0.399 0.187,-0.4 0.186,-0.4C0.184,-0.399 0.183,-0.398 0.183,-0.396L0.184,-0.012C0.184,-0.009 0.183,-0.006 0.181,-0.004C0.178,-0.001 0.175,-0 0.172,-0L0.056,-0C0.053,-0 0.05,-0.001 0.048,-0.004C0.045,-0.006 0.044,-0.009 0.044,-0.012L0.044,-0.688C0.044,-0.691 0.045,-0.694 0.048,-0.697C0.05,-0.699 0.053,-0.7 0.056,-0.7L0.187,-0.7C0.194,-0.7 0.198,-0.697 0.2,-0.69L0.325,-0.303C0.326,-0.301 0.327,-0.3 0.329,-0.301C0.33,-0.301 0.331,-0.302 0.331,-0.304L0.33,-0.688Z" style="fill-rule:nonzero;"/>
                </g>
            </g>
        </g>
        <g transform="matrix(0.989556,0,0,0.985447,1573.06,12.8469)">
            <g transform="matrix(0.681923,-0.0118853,0.0201233,1.16423,332.455,694.821)">
                <path d="M514.563,122.87C519.382,125.307 524.576,126.659 530.11,126.757C535.528,126.854 541.38,125.747 547.612,122.976C549.62,122.083 550.018,120.399 548.5,119.218C546.981,118.037 544.118,117.803 542.111,118.696C537.902,120.567 534.044,121.459 530.386,121.394C526.843,121.331 523.596,120.362 520.511,118.802C518.602,117.836 515.72,117.964 514.079,119.086C512.437,120.209 512.654,121.904 514.563,122.87Z"/>
            </g>
        </g>
        <g transform="matrix(0.989556,0,0,0.985447,1573.06,12.8469)">
            <g transform="matrix(-0.618989,0.28757,-0.286376,-0.62157,1042.86,727.638)">
                <path d="M519.934,90.187L518.915,93.042C517.98,95.658 519.346,98.54 521.961,99.474C524.577,100.408 527.46,99.043 528.394,96.427L529.413,93.572C530.348,90.957 528.982,88.074 526.366,87.14C523.751,86.206 520.868,87.571 519.934,90.187Z"/>
            </g>
        </g>
        <g transform="matrix(0.989556,0,0,0.985447,1573.06,12.8469)">
            <g transform="matrix(-0.647443,0.0503773,-0.209918,-0.284675,1060.77,819.792)">
                <path d="M519.934,90.187L518.915,93.042C516.676,99.311 516.981,105.16 519.597,106.094C522.213,107.028 526.155,102.697 528.394,96.427L529.413,93.572C531.652,87.303 531.347,81.454 528.731,80.52C526.115,79.586 522.173,83.918 519.934,90.187Z"/>
            </g>
        </g>
    </g>
</svg>
