<?xml version="1.0" encoding="UTF-8" standalone="no"?><!DOCTYPE svg PUBLIC "-//W3C//DTD SVG 1.1//EN" "http://www.w3.org/Graphics/SVG/1.1/DTD/svg11.dtd"><svg width="100%" height="100%" viewBox="0 0 362 144" version="1.1" xmlns="http://www.w3.org/2000/svg" xmlns:xlink="http://www.w3.org/1999/xlink" xml:space="preserve" xmlns:serif="http://www.serif.com/" style="fill-rule:evenodd;clip-rule:evenodd;stroke-linejoin:round;stroke-miterlimit:2;"><g transform="matrix(4.03495,0,0,3.8441,-2188.8,-1295)"><g transform="matrix(12,0,0,12,542.127,345.376)"><path d="M0.452,-0.7c0.003,0 0.006,0.001 0.008,0.004c0.002,0.002 0.003,0.005 0.002,0.008l-0.01,0.076c0,0.003 -0.001,0.006 -0.004,0.009c-0.003,0.002 -0.006,0.003 -0.009,0.003l-0.123,0c-0.003,0 -0.005,0.002 -0.005,0.005l-0.072,0.583c-0.001,0.003 -0.002,0.006 -0.005,0.009c-0.002,0.002 -0.005,0.003 -0.008,0.003l-0.089,0c-0.003,0 -0.006,-0.001 -0.008,-0.003c-0.002,-0.003 -0.003,-0.006 -0.002,-0.009l0.071,-0.583c0.001,-0.003 0,-0.005 -0.004,-0.005l-0.117,0c-0.007,0 -0.011,-0.004 -0.011,-0.012l0.01,-0.076c0.001,-0.003 0.002,-0.006 0.005,-0.008c0.002,-0.003 0.005,-0.004 0.008,-0.004l0.363,0Z" style="fill-rule:nonzero;"/></g><g transform="matrix(12,0,0,12,547.011,345.376)"><path d="M0.356,-0.688c0.001,-0.003 0.002,-0.006 0.005,-0.008c0.002,-0.003 0.005,-0.004 0.008,-0.004l0.089,0c0.007,0 0.011,0.004 0.011,0.012l-0.083,0.676c-0.001,0.003 -0.002,0.006 -0.005,0.009c-0.003,0.002 -0.006,0.003 -0.009,0.003l-0.089,0c-0.003,0 -0.006,-0.001 -0.008,-0.003c-0.002,-0.003 -0.003,-0.006 -0.002,-0.009l0.035,-0.283c0,-0.003 -0.001,-0.005 -0.004,-0.005l-0.124,0c-0.003,0 -0.005,0.002 -0.005,0.005l-0.035,0.283c-0.001,0.003 -0.002,0.006 -0.004,0.009c-0.003,0.002 -0.006,0.003 -0.009,0.003l-0.089,0c-0.003,0 -0.006,-0.001 -0.008,-0.003c-0.002,-0.003 -0.003,-0.006 -0.002,-0.009l0.083,-0.676c0.001,-0.003 0.002,-0.006 0.005,-0.008c0.002,-0.003 0.005,-0.004 0.008,-0.004l0.089,0c0.003,0 0.006,0.001 0.008,0.004c0.002,0.002 0.003,0.005 0.002,0.008l-0.034,0.282c-0.001,0.003 0,0.005 0.004,0.005l0.123,0c0.003,0 0.005,-0.002 0.005,-0.005l0.035,-0.282Z" style="fill-rule:nonzero;"/></g><g transform="matrix(12,0,0,12,552.399,345.376)"><path d="M0.2,0.008c-0.051,-0 -0.091,-0.014 -0.12,-0.043c-0.029,-0.029 -0.044,-0.068 -0.044,-0.117c-0,-0.005 0.001,-0.015 0.002,-0.03l0.041,-0.336c0.007,-0.057 0.029,-0.103 0.067,-0.138c0.039,-0.035 0.086,-0.052 0.142,-0.052c0.051,0 0.091,0.015 0.12,0.044c0.03,0.029 0.045,0.067 0.045,0.116c0,0.007 -0.001,0.017 -0.002,0.03l-0.042,0.336c-0.007,0.057 -0.029,0.103 -0.068,0.138c-0.038,0.035 -0.085,0.052 -0.141,0.052Zm0.012,-0.1c0.022,-0 0.041,-0.008 0.056,-0.024c0.015,-0.015 0.025,-0.036 0.028,-0.061l0.043,-0.346c0.001,-0.003 0.001,-0.008 0.001,-0.014c0,-0.022 -0.006,-0.039 -0.018,-0.052c-0.011,-0.013 -0.027,-0.019 -0.047,-0.019c-0.022,0 -0.041,0.008 -0.056,0.024c-0.015,0.015 -0.024,0.036 -0.027,0.061l-0.042,0.346c-0.001,0.003 -0.001,0.008 -0.001,0.015c-0,0.021 0.005,0.038 0.016,0.051c0.011,0.013 0.027,0.019 0.047,0.019Z" style="fill-rule:nonzero;"/></g><g transform="matrix(12,0,0,12,557.691,345.376)"><path d="M0.205,0.008c-0.049,-0 -0.089,-0.015 -0.118,-0.046c-0.029,-0.03 -0.043,-0.071 -0.043,-0.122c-0,-0.007 0.001,-0.018 0.002,-0.034l0.061,-0.494c0.001,-0.003 0.002,-0.006 0.004,-0.009c0.003,-0.002 0.006,-0.003 0.009,-0.003l0.089,0c0.003,0 0.006,0.001 0.008,0.003c0.002,0.003 0.003,0.006 0.002,0.009l-0.062,0.506c-0.001,0.004 -0.001,0.009 -0.001,0.016c-0,0.022 0.005,0.04 0.016,0.053c0.011,0.014 0.026,0.021 0.045,0.021c0.021,-0 0.039,-0.008 0.054,-0.025c0.015,-0.017 0.025,-0.038 0.028,-0.065l0.062,-0.506c0.001,-0.003 0.002,-0.006 0.004,-0.009c0.003,-0.002 0.006,-0.003 0.009,-0.003l0.089,0c0.003,0 0.006,0.001 0.008,0.003c0.002,0.003 0.003,0.006 0.002,0.009l-0.06,0.494c-0.007,0.061 -0.03,0.109 -0.068,0.146c-0.038,0.037 -0.085,0.056 -0.14,0.056Z" style="fill-rule:nonzero;"/></g><g transform="matrix(12,0,0,12,563.103,345.376)"><path d="M0.196,0.008c-0.05,-0 -0.089,-0.014 -0.118,-0.041c-0.029,-0.026 -0.043,-0.063 -0.043,-0.11c0,-0.007 0.001,-0.017 0.002,-0.03l0.043,-0.354c0.007,-0.055 0.029,-0.099 0.066,-0.132c0.037,-0.033 0.083,-0.049 0.138,-0.049c0.05,0 0.09,0.014 0.119,0.042c0.03,0.028 0.045,0.066 0.045,0.113c0,0.006 -0.001,0.015 -0.002,0.027l-0.005,0.039c-0.001,0.003 -0.002,0.006 -0.005,0.009c-0.002,0.002 -0.005,0.003 -0.008,0.003l-0.089,0c-0.007,0 -0.011,-0.004 -0.011,-0.012l0.006,-0.041l0.001,-0.012c0,-0.021 -0.006,-0.037 -0.017,-0.049c-0.011,-0.013 -0.027,-0.019 -0.046,-0.019c-0.021,0 -0.038,0.007 -0.053,0.022c-0.015,0.015 -0.024,0.034 -0.027,0.058l-0.044,0.356c-0.001,0.003 -0.001,0.008 -0.001,0.014c0,0.02 0.006,0.036 0.017,0.048c0.011,0.012 0.025,0.018 0.044,0.018c0.022,0 0.04,-0.007 0.055,-0.022c0.015,-0.015 0.024,-0.034 0.027,-0.058l0.012,-0.096c0,-0.003 -0.002,-0.005 -0.005,-0.005l-0.058,0c-0.003,0 -0.006,-0.001 -0.008,-0.004c-0.002,-0.002 -0.003,-0.005 -0.002,-0.008l0.009,-0.073c0.001,-0.003 0.002,-0.006 0.005,-0.008c0.002,-0.003 0.005,-0.004 0.008,-0.004l0.164,0c0.003,0 0.006,0.001 0.008,0.004c0.002,0.002 0.003,0.005 0.002,0.008l-0.023,0.185c-0.007,0.055 -0.029,0.099 -0.067,0.132c-0.037,0.033 -0.084,0.049 -0.139,0.049Z" style="fill-rule:nonzero;"/></g><g transform="matrix(12,0,0,12,568.299,345.376)"><path d="M0.356,-0.688c0.001,-0.003 0.002,-0.006 0.005,-0.008c0.002,-0.003 0.005,-0.004 0.008,-0.004l0.089,0c0.007,0 0.011,0.004 0.011,0.012l-0.083,0.676c-0.001,0.003 -0.002,0.006 -0.005,0.009c-0.003,0.002 -0.006,0.003 -0.009,0.003l-0.089,0c-0.003,0 -0.006,-0.001 -0.008,-0.003c-0.002,-0.003 -0.003,-0.006 -0.002,-0.009l0.035,-0.283c0,-0.003 -0.001,-0.005 -0.004,-0.005l-0.124,0c-0.003,0 -0.005,0.002 -0.005,0.005l-0.035,0.283c-0.001,0.003 -0.002,0.006 -0.004,0.009c-0.003,0.002 -0.006,0.003 -0.009,0.003l-0.089,0c-0.003,0 -0.006,-0.001 -0.008,-0.003c-0.002,-0.003 -0.003,-0.006 -0.002,-0.009l0.083,-0.676c0.001,-0.003 0.002,-0.006 0.005,-0.008c0.002,-0.003 0.005,-0.004 0.008,-0.004l0.089,0c0.003,0 0.006,0.001 0.008,0.004c0.002,0.002 0.003,0.005 0.002,0.008l-0.034,0.282c-0.001,0.003 0,0.005 0.004,0.005l0.123,0c0.003,0 0.005,-0.002 0.005,-0.005l0.035,-0.282Z" style="fill-rule:nonzero;"/></g><g transform="matrix(12,0,0,12,573.687,345.376)"><path d="M0.452,-0.7c0.003,0 0.006,0.001 0.008,0.004c0.002,0.002 0.003,0.005 0.002,0.008l-0.01,0.076c0,0.003 -0.001,0.006 -0.004,0.009c-0.003,0.002 -0.006,0.003 -0.009,0.003l-0.123,0c-0.003,0 -0.005,0.002 -0.005,0.005l-0.072,0.583c-0.001,0.003 -0.002,0.006 -0.005,0.009c-0.002,0.002 -0.005,0.003 -0.008,0.003l-0.089,0c-0.003,0 -0.006,-0.001 -0.008,-0.003c-0.002,-0.003 -0.003,-0.006 -0.002,-0.009l0.071,-0.583c0.001,-0.003 0,-0.005 -0.004,-0.005l-0.117,0c-0.007,0 -0.011,-0.004 -0.011,-0.012l0.01,-0.076c0.001,-0.003 0.002,-0.006 0.005,-0.008c0.002,-0.003 0.005,-0.004 0.008,-0.004l0.363,0Z" style="fill-rule:nonzero;"/></g><g transform="matrix(12,0,0,12,578.499,345.376)"><path d="M0.181,0.008c-0.049,-0 -0.087,-0.014 -0.116,-0.042c-0.029,-0.028 -0.043,-0.065 -0.043,-0.112c0,-0.006 0.001,-0.015 0.002,-0.027l0.003,-0.026c0.001,-0.003 0.002,-0.006 0.005,-0.008c0.002,-0.003 0.005,-0.004 0.008,-0.004l0.089,0c0.003,0 0.006,0.001 0.008,0.004c0.002,0.002 0.003,0.005 0.002,0.008l-0.003,0.02c-0.001,0.003 -0.001,0.009 -0.001,0.016c0,0.022 0.005,0.039 0.016,0.052c0.011,0.013 0.025,0.019 0.043,0.019c0.019,0 0.037,-0.007 0.052,-0.022c0.015,-0.015 0.024,-0.035 0.027,-0.06l0.001,-0.012c0,-0.021 -0.006,-0.038 -0.019,-0.053c-0.012,-0.015 -0.035,-0.036 -0.069,-0.065c-0.027,-0.022 -0.048,-0.041 -0.065,-0.057c-0.016,-0.017 -0.029,-0.036 -0.04,-0.059c-0.011,-0.023 -0.017,-0.049 -0.017,-0.078c0,-0.041 0.009,-0.078 0.027,-0.11c0.017,-0.032 0.041,-0.057 0.072,-0.074c0.03,-0.017 0.064,-0.026 0.101,-0.026c0.049,0 0.087,0.014 0.116,0.043c0.029,0.029 0.043,0.067 0.043,0.115c0,0.007 -0.001,0.017 -0.002,0.03l-0.003,0.024c-0.001,0.003 -0.002,0.006 -0.005,0.009c-0.002,0.002 -0.005,0.003 -0.008,0.003l-0.088,0c-0.003,0 -0.006,-0.001 -0.008,-0.004c-0.002,-0.002 -0.003,-0.005 -0.002,-0.008l0.003,-0.026c0.001,-0.004 0.001,-0.01 0.001,-0.017c0,-0.021 -0.005,-0.038 -0.016,-0.05c-0.011,-0.013 -0.025,-0.019 -0.043,-0.019c-0.019,0 -0.036,0.007 -0.05,0.022c-0.014,0.014 -0.023,0.034 -0.026,0.059c-0.001,0.003 -0.001,0.008 -0.001,0.014c0,0.019 0.006,0.037 0.018,0.052c0.012,0.016 0.034,0.037 0.065,0.064c0.032,0.027 0.057,0.049 0.074,0.066c0.017,0.017 0.031,0.036 0.04,0.055c0.009,0.02 0.014,0.042 0.014,0.067c0,0.006 -0.001,0.016 -0.002,0.029c-0.007,0.057 -0.029,0.102 -0.066,0.137c-0.038,0.034 -0.084,0.051 -0.137,0.051Z" style="fill-rule:nonzero;"/></g><g transform="matrix(12,0,0,12,585.639,345.376)"><path d="M0.412,-0.358c0.003,0 0.006,0.001 0.008,0.004c0.002,0.002 0.003,0.005 0.002,0.008l-0.008,0.064c-0.001,0.003 -0.002,0.006 -0.005,0.008c-0.002,0.003 -0.005,0.004 -0.008,0.004l-0.128,-0c-0.003,-0 -0.005,0.002 -0.006,0.005l-0.016,0.132c-0.001,0.003 -0.002,0.006 -0.005,0.008c-0.002,0.003 -0.005,0.004 -0.008,0.004l-0.062,-0c-0.003,-0 -0.006,-0.001 -0.008,-0.004c-0.002,-0.002 -0.003,-0.005 -0.002,-0.008l0.016,-0.132c0,-0.003 -0.001,-0.005 -0.004,-0.005l-0.128,-0c-0.007,-0 -0.011,-0.004 -0.011,-0.012l0.008,-0.064c0.001,-0.003 0.002,-0.006 0.005,-0.009c0.002,-0.002 0.005,-0.003 0.008,-0.003l0.128,0c0.004,0 0.006,-0.002 0.006,-0.005l0.016,-0.132c0.001,-0.003 0.002,-0.006 0.004,-0.008c0.003,-0.003 0.006,-0.004 0.009,-0.004l0.062,0c0.007,0 0.011,0.004 0.011,0.012l-0.017,0.132c0,0.003 0.002,0.005 0.005,0.005l0.128,0Z" style="fill-rule:nonzero;"/></g><g transform="matrix(12,0,0,12,593.043,345.376)"><path d="M0.386,-0.688c0.001,-0.003 0.002,-0.006 0.005,-0.008c0.002,-0.003 0.005,-0.004 0.008,-0.004l0.089,0c0.003,0 0.006,0.001 0.008,0.004c0.002,0.002 0.003,0.005 0.002,0.008l-0.083,0.676c-0.001,0.003 -0.002,0.006 -0.005,0.009c-0.002,0.002 -0.005,0.003 -0.008,0.003l-0.101,0c-0.006,0 -0.01,-0.003 -0.012,-0.01l-0.093,-0.421c0,-0.002 -0.001,-0.003 -0.002,-0.003c-0.002,0.001 -0.003,0.002 -0.003,0.004l-0.051,0.418c-0.001,0.003 -0.002,0.006 -0.004,0.009c-0.003,0.002 -0.006,0.003 -0.009,0.003l-0.089,0c-0.003,0 -0.006,-0.001 -0.008,-0.003c-0.002,-0.003 -0.003,-0.006 -0.002,-0.009l0.083,-0.676c0.001,-0.003 0.002,-0.006 0.005,-0.008c0.002,-0.003 0.005,-0.004 0.008,-0.004l0.101,0c0.006,0 0.01,0.003 0.011,0.01l0.093,0.424c0.001,0.002 0.002,0.003 0.004,0.003c0.001,-0.001 0.002,-0.002 0.002,-0.004l0.051,-0.421Z" style="fill-rule:nonzero;"/></g><g transform="matrix(12,0,0,12,598.779,345.376)"><path d="M0.2,0.008c-0.051,-0 -0.091,-0.014 -0.12,-0.043c-0.029,-0.029 -0.044,-0.068 -0.044,-0.117c-0,-0.005 0.001,-0.015 0.002,-0.03l0.041,-0.336c0.007,-0.057 0.029,-0.103 0.067,-0.138c0.039,-0.035 0.086,-0.052 0.142,-0.052c0.051,0 0.091,0.015 0.12,0.044c0.03,0.029 0.045,0.067 0.045,0.116c0,0.007 -0.001,0.017 -0.002,0.03l-0.042,0.336c-0.007,0.057 -0.029,0.103 -0.068,0.138c-0.038,0.035 -0.085,0.052 -0.141,0.052Zm0.012,-0.1c0.022,-0 0.041,-0.008 0.056,-0.024c0.015,-0.015 0.025,-0.036 0.028,-0.061l0.043,-0.346c0.001,-0.003 0.001,-0.008 0.001,-0.014c0,-0.022 -0.006,-0.039 -0.018,-0.052c-0.011,-0.013 -0.027,-0.019 -0.047,-0.019c-0.022,0 -0.041,0.008 -0.056,0.024c-0.015,0.015 -0.024,0.036 -0.027,0.061l-0.042,0.346c-0.001,0.003 -0.001,0.008 -0.001,0.015c-0,0.021 0.005,0.038 0.016,0.051c0.011,0.013 0.027,0.019 0.047,0.019Z" style="fill-rule:nonzero;"/></g><g transform="matrix(12,0,0,12,603.891,345.376)"><path d="M0.452,-0.7c0.003,0 0.006,0.001 0.008,0.004c0.002,0.002 0.003,0.005 0.002,0.008l-0.01,0.076c0,0.003 -0.001,0.006 -0.004,0.009c-0.003,0.002 -0.006,0.003 -0.009,0.003l-0.123,0c-0.003,0 -0.005,0.002 -0.005,0.005l-0.072,0.583c-0.001,0.003 -0.002,0.006 -0.005,0.009c-0.002,0.002 -0.005,0.003 -0.008,0.003l-0.089,0c-0.003,0 -0.006,-0.001 -0.008,-0.003c-0.002,-0.003 -0.003,-0.006 -0.002,-0.009l0.071,-0.583c0.001,-0.003 0,-0.005 -0.004,-0.005l-0.117,0c-0.007,0 -0.011,-0.004 -0.011,-0.012l0.01,-0.076c0.001,-0.003 0.002,-0.006 0.005,-0.008c0.002,-0.003 0.005,-0.004 0.008,-0.004l0.363,0Z" style="fill-rule:nonzero;"/></g><g transform="matrix(12,0,0,12,608.775,345.376)"><path d="M0.44,-0.612c-0.001,0.003 -0.002,0.006 -0.005,0.008c-0.002,0.003 -0.005,0.004 -0.008,0.004l-0.21,0c-0.003,0 -0.005,0.002 -0.005,0.005l-0.023,0.189c-0.001,0.003 0,0.005 0.004,0.005l0.124,-0c0.003,-0 0.006,0.001 0.008,0.003c0.002,0.003 0.003,0.006 0.002,0.009l-0.009,0.077c-0.001,0.003 -0.002,0.006 -0.005,0.008c-0.002,0.003 -0.005,0.004 -0.008,0.004l-0.125,-0c-0.003,-0 -0.005,0.002 -0.005,0.005l-0.023,0.19c-0.001,0.003 0,0.005 0.004,0.005l0.209,-0c0.007,-0 0.011,0.004 0.011,0.012l-0.01,0.076c-0.001,0.003 -0.002,0.006 -0.005,0.008c-0.002,0.003 -0.005,0.004 -0.008,0.004l-0.315,-0c-0.003,-0 -0.006,-0.001 -0.008,-0.004c-0.002,-0.002 -0.003,-0.005 -0.002,-0.008l0.083,-0.676c0.001,-0.003 0.002,-0.006 0.005,-0.009c0.002,-0.002 0.005,-0.003 0.008,-0.003l0.315,0c0.003,0 0.006,0.001 0.008,0.003c0.002,0.003 0.003,0.006 0.002,0.009l-0.009,0.076Z" style="fill-rule:nonzero;"/></g><g transform="matrix(12,0,0,12,613.611,345.376)"><path d="M0.181,0.008c-0.049,-0 -0.087,-0.014 -0.116,-0.042c-0.029,-0.028 -0.043,-0.065 -0.043,-0.112c0,-0.006 0.001,-0.015 0.002,-0.027l0.003,-0.026c0.001,-0.003 0.002,-0.006 0.005,-0.008c0.002,-0.003 0.005,-0.004 0.008,-0.004l0.089,0c0.003,0 0.006,0.001 0.008,0.004c0.002,0.002 0.003,0.005 0.002,0.008l-0.003,0.02c-0.001,0.003 -0.001,0.009 -0.001,0.016c0,0.022 0.005,0.039 0.016,0.052c0.011,0.013 0.025,0.019 0.043,0.019c0.019,0 0.037,-0.007 0.052,-0.022c0.015,-0.015 0.024,-0.035 0.027,-0.06l0.001,-0.012c0,-0.021 -0.006,-0.038 -0.019,-0.053c-0.012,-0.015 -0.035,-0.036 -0.069,-0.065c-0.027,-0.022 -0.048,-0.041 -0.065,-0.057c-0.016,-0.017 -0.029,-0.036 -0.04,-0.059c-0.011,-0.023 -0.017,-0.049 -0.017,-0.078c0,-0.041 0.009,-0.078 0.027,-0.11c0.017,-0.032 0.041,-0.057 0.072,-0.074c0.03,-0.017 0.064,-0.026 0.101,-0.026c0.049,0 0.087,0.014 0.116,0.043c0.029,0.029 0.043,0.067 0.043,0.115c0,0.007 -0.001,0.017 -0.002,0.03l-0.003,0.024c-0.001,0.003 -0.002,0.006 -0.005,0.009c-0.002,0.002 -0.005,0.003 -0.008,0.003l-0.088,0c-0.003,0 -0.006,-0.001 -0.008,-0.004c-0.002,-0.002 -0.003,-0.005 -0.002,-0.008l0.003,-0.026c0.001,-0.004 0.001,-0.01 0.001,-0.017c0,-0.021 -0.005,-0.038 -0.016,-0.05c-0.011,-0.013 -0.025,-0.019 -0.043,-0.019c-0.019,0 -0.036,0.007 -0.05,0.022c-0.014,0.014 -0.023,0.034 -0.026,0.059c-0.001,0.003 -0.001,0.008 -0.001,0.014c0,0.019 0.006,0.037 0.018,0.052c0.012,0.016 0.034,0.037 0.065,0.064c0.032,0.027 0.057,0.049 0.074,0.066c0.017,0.017 0.031,0.036 0.04,0.055c0.009,0.02 0.014,0.042 0.014,0.067c0,0.006 -0.001,0.016 -0.002,0.029c-0.007,0.057 -0.029,0.102 -0.066,0.137c-0.038,0.034 -0.084,0.051 -0.137,0.051Z" style="fill-rule:nonzero;"/></g><g transform="matrix(12,0,0,12,620.751,345.376)"><path d="M0.2,0.008c-0.051,-0 -0.091,-0.014 -0.12,-0.043c-0.029,-0.029 -0.044,-0.068 -0.044,-0.117c-0,-0.005 0.001,-0.015 0.002,-0.03l0.041,-0.336c0.007,-0.057 0.029,-0.103 0.067,-0.138c0.039,-0.035 0.086,-0.052 0.142,-0.052c0.051,0 0.091,0.015 0.12,0.044c0.03,0.029 0.045,0.067 0.045,0.116c0,0.007 -0.001,0.017 -0.002,0.03l-0.042,0.336c-0.007,0.057 -0.029,0.103 -0.068,0.138c-0.038,0.035 -0.085,0.052 -0.141,0.052Zm0.012,-0.1c0.022,-0 0.041,-0.008 0.056,-0.024c0.015,-0.015 0.025,-0.036 0.028,-0.061l0.043,-0.346c0.001,-0.003 0.001,-0.008 0.001,-0.014c0,-0.022 -0.006,-0.039 -0.018,-0.052c-0.011,-0.013 -0.027,-0.019 -0.047,-0.019c-0.022,0 -0.041,0.008 -0.056,0.024c-0.015,0.015 -0.024,0.036 -0.027,0.061l-0.042,0.346c-0.001,0.003 -0.001,0.008 -0.001,0.015c-0,0.021 0.005,0.038 0.016,0.051c0.011,0.013 0.027,0.019 0.047,0.019Z" style="fill-rule:nonzero;"/></g><g transform="matrix(12,0,0,12,626.043,345.376)"><path d="M0.386,-0.688c0.001,-0.003 0.002,-0.006 0.005,-0.008c0.002,-0.003 0.005,-0.004 0.008,-0.004l0.089,0c0.003,0 0.006,0.001 0.008,0.004c0.002,0.002 0.003,0.005 0.002,0.008l-0.083,0.676c-0.001,0.003 -0.002,0.006 -0.005,0.009c-0.002,0.002 -0.005,0.003 -0.008,0.003l-0.101,0c-0.006,0 -0.01,-0.003 -0.012,-0.01l-0.093,-0.421c0,-0.002 -0.001,-0.003 -0.002,-0.003c-0.002,0.001 -0.003,0.002 -0.003,0.004l-0.051,0.418c-0.001,0.003 -0.002,0.006 -0.004,0.009c-0.003,0.002 -0.006,0.003 -0.009,0.003l-0.089,0c-0.003,0 -0.006,-0.001 -0.008,-0.003c-0.002,-0.003 -0.003,-0.006 -0.002,-0.009l0.083,-0.676c0.001,-0.003 0.002,-0.006 0.005,-0.008c0.002,-0.003 0.005,-0.004 0.008,-0.004l0.101,0c0.006,0 0.01,0.003 0.011,0.01l0.093,0.424c0.001,0.002 0.002,0.003 0.004,0.003c0.001,-0.001 0.002,-0.002 0.002,-0.004l0.051,-0.421Z" style="fill-rule:nonzero;"/></g><g transform="matrix(12,0,0,12,542.127,357.376)"><path d="M0.306,-0.701c0.046,0 0.083,0.016 0.11,0.047c0.027,0.03 0.041,0.072 0.041,0.123c0,0.016 -0.001,0.028 -0.002,0.036c-0.007,0.06 -0.029,0.108 -0.064,0.145c-0.036,0.037 -0.079,0.055 -0.129,0.055l-0.082,0c-0.003,0 -0.005,0.002 -0.006,0.005l-0.034,0.278c-0.001,0.003 -0.002,0.006 -0.004,0.008c-0.003,0.003 -0.006,0.004 -0.009,0.004l-0.089,-0c-0.003,-0 -0.006,-0.001 -0.008,-0.004c-0.002,-0.002 -0.003,-0.005 -0.002,-0.008l0.083,-0.677c0.001,-0.003 0.002,-0.006 0.005,-0.008c0.002,-0.003 0.005,-0.004 0.008,-0.004l0.182,0Zm-0.057,0.315c0.027,0 0.05,-0.012 0.068,-0.035c0.017,-0.024 0.026,-0.055 0.026,-0.094c0,-0.027 -0.006,-0.048 -0.018,-0.063c-0.012,-0.015 -0.028,-0.023 -0.049,-0.023l-0.059,0c-0.003,0 -0.005,0.002 -0.005,0.005l-0.025,0.205c-0.001,0.003 0,0.005 0.004,0.005l0.058,0Z" style="fill-rule:nonzero;"/></g><g transform="matrix(12,0,0,12,547.299,357.376)"><path d="M0.295,-0c-0.006,-0 -0.01,-0.003 -0.012,-0.01l-0.047,-0.287c0,-0.003 -0.001,-0.004 -0.004,-0.004l-0.051,0c-0.004,0 -0.006,0.002 -0.006,0.005l-0.035,0.284c-0.001,0.003 -0.002,0.006 -0.004,0.009c-0.003,0.002 -0.006,0.003 -0.009,0.003l-0.089,0c-0.003,0 -0.006,-0.001 -0.008,-0.003c-0.002,-0.003 -0.003,-0.006 -0.002,-0.009l0.083,-0.676c0.001,-0.003 0.002,-0.006 0.005,-0.008c0.002,-0.003 0.005,-0.004 0.008,-0.004l0.182,0c0.046,0 0.083,0.015 0.11,0.046c0.027,0.031 0.041,0.071 0.041,0.122c0,0.016 -0.001,0.028 -0.002,0.036c-0.005,0.041 -0.017,0.076 -0.036,0.107c-0.02,0.031 -0.045,0.054 -0.074,0.069c-0.003,0.001 -0.004,0.003 -0.004,0.006l0.057,0.3l0,0.004c0,0.007 -0.004,0.01 -0.011,0.01l-0.092,0Zm-0.078,-0.6c-0.003,0 -0.005,0.002 -0.005,0.005l-0.025,0.199c0,0.003 0.002,0.005 0.005,0.005l0.058,-0c0.027,-0 0.049,-0.012 0.067,-0.035c0.017,-0.023 0.026,-0.053 0.026,-0.091c0,-0.026 -0.006,-0.046 -0.018,-0.061c-0.012,-0.015 -0.029,-0.022 -0.05,-0.022l-0.058,-0Z" style="fill-rule:nonzero;"/></g><g transform="matrix(12,0,0,12,552.543,357.376)"><path d="M0.2,0.008c-0.051,-0 -0.091,-0.014 -0.12,-0.043c-0.029,-0.029 -0.044,-0.068 -0.044,-0.117c-0,-0.005 0.001,-0.015 0.002,-0.03l0.041,-0.336c0.007,-0.057 0.029,-0.103 0.067,-0.138c0.039,-0.035 0.086,-0.052 0.142,-0.052c0.051,0 0.091,0.015 0.12,0.044c0.03,0.029 0.045,0.067 0.045,0.116c0,0.007 -0.001,0.017 -0.002,0.03l-0.042,0.336c-0.007,0.057 -0.029,0.103 -0.068,0.138c-0.038,0.035 -0.085,0.052 -0.141,0.052Zm0.012,-0.1c0.022,-0 0.041,-0.008 0.056,-0.024c0.015,-0.015 0.025,-0.036 0.028,-0.061l0.043,-0.346c0.001,-0.003 0.001,-0.008 0.001,-0.014c0,-0.022 -0.006,-0.039 -0.018,-0.052c-0.011,-0.013 -0.027,-0.019 -0.047,-0.019c-0.022,0 -0.041,0.008 -0.056,0.024c-0.015,0.015 -0.024,0.036 -0.027,0.061l-0.042,0.346c-0.001,0.003 -0.001,0.008 -0.001,0.015c-0,0.021 0.005,0.038 0.016,0.051c0.011,0.013 0.027,0.019 0.047,0.019Z" style="fill-rule:nonzero;"/></g><g transform="matrix(12,0,0,12,557.835,357.376)"><path d="M0.196,0.008c-0.05,-0 -0.089,-0.014 -0.118,-0.041c-0.029,-0.026 -0.043,-0.063 -0.043,-0.11c0,-0.007 0.001,-0.017 0.002,-0.03l0.043,-0.354c0.007,-0.055 0.029,-0.099 0.066,-0.132c0.037,-0.033 0.083,-0.049 0.138,-0.049c0.05,0 0.09,0.014 0.119,0.042c0.03,0.028 0.045,0.066 0.045,0.113c0,0.006 -0.001,0.015 -0.002,0.027l-0.005,0.039c-0.001,0.003 -0.002,0.006 -0.005,0.009c-0.002,0.002 -0.005,0.003 -0.008,0.003l-0.089,0c-0.007,0 -0.011,-0.004 -0.011,-0.012l0.006,-0.041l0.001,-0.012c0,-0.021 -0.006,-0.037 -0.017,-0.049c-0.011,-0.013 -0.027,-0.019 -0.046,-0.019c-0.021,0 -0.038,0.007 -0.053,0.022c-0.015,0.015 -0.024,0.034 -0.027,0.058l-0.044,0.356c-0.001,0.003 -0.001,0.008 -0.001,0.014c0,0.02 0.006,0.036 0.017,0.048c0.011,0.012 0.025,0.018 0.044,0.018c0.022,0 0.04,-0.007 0.055,-0.022c0.015,-0.015 0.024,-0.034 0.027,-0.058l0.012,-0.096c0,-0.003 -0.002,-0.005 -0.005,-0.005l-0.058,0c-0.003,0 -0.006,-0.001 -0.008,-0.004c-0.002,-0.002 -0.003,-0.005 -0.002,-0.008l0.009,-0.073c0.001,-0.003 0.002,-0.006 0.005,-0.008c0.002,-0.003 0.005,-0.004 0.008,-0.004l0.164,0c0.003,0 0.006,0.001 0.008,0.004c0.002,0.002 0.003,0.005 0.002,0.008l-0.023,0.185c-0.007,0.055 -0.029,0.099 -0.067,0.132c-0.037,0.033 -0.084,0.049 -0.139,0.049Z" style="fill-rule:nonzero;"/></g><g transform="matrix(12,0,0,12,563.031,357.376)"><path d="M0.295,-0c-0.006,-0 -0.01,-0.003 -0.012,-0.01l-0.047,-0.287c0,-0.003 -0.001,-0.004 -0.004,-0.004l-0.051,0c-0.004,0 -0.006,0.002 -0.006,0.005l-0.035,0.284c-0.001,0.003 -0.002,0.006 -0.004,0.009c-0.003,0.002 -0.006,0.003 -0.009,0.003l-0.089,0c-0.003,0 -0.006,-0.001 -0.008,-0.003c-0.002,-0.003 -0.003,-0.006 -0.002,-0.009l0.083,-0.676c0.001,-0.003 0.002,-0.006 0.005,-0.008c0.002,-0.003 0.005,-0.004 0.008,-0.004l0.182,0c0.046,0 0.083,0.015 0.11,0.046c0.027,0.031 0.041,0.071 0.041,0.122c0,0.016 -0.001,0.028 -0.002,0.036c-0.005,0.041 -0.017,0.076 -0.036,0.107c-0.02,0.031 -0.045,0.054 -0.074,0.069c-0.003,0.001 -0.004,0.003 -0.004,0.006l0.057,0.3l0,0.004c0,0.007 -0.004,0.01 -0.011,0.01l-0.092,0Zm-0.078,-0.6c-0.003,0 -0.005,0.002 -0.005,0.005l-0.025,0.199c0,0.003 0.002,0.005 0.005,0.005l0.058,-0c0.027,-0 0.049,-0.012 0.067,-0.035c0.017,-0.023 0.026,-0.053 0.026,-0.091c0,-0.026 -0.006,-0.046 -0.018,-0.061c-0.012,-0.015 -0.029,-0.022 -0.05,-0.022l-0.058,-0Z" style="fill-rule:nonzero;"/></g><g transform="matrix(12,0,0,12,568.275,357.376)"><path d="M0.307,-0c-0.008,-0 -0.012,-0.004 -0.012,-0.011l-0.005,-0.105c0,-0.001 -0.001,-0.003 -0.002,-0.004c-0.001,-0.001 -0.002,-0.001 -0.003,-0.001l-0.142,0c-0.003,0 -0.006,0.002 -0.007,0.005l-0.031,0.105c-0.002,0.007 -0.007,0.011 -0.014,0.011l-0.089,-0c-0.008,-0 -0.011,-0.004 -0.008,-0.013l0.225,-0.676c0.002,-0.007 0.007,-0.011 0.014,-0.011l0.104,0c0.007,0 0.011,0.004 0.011,0.011l0.061,0.676l0,0.002c0,0.007 -0.004,0.011 -0.012,0.011l-0.09,0Zm-0.141,-0.217c-0.001,0.003 0.001,0.005 0.005,0.005l0.107,0c0.004,0 0.006,-0.002 0.006,-0.005l-0.018,-0.316c0,-0.002 -0.001,-0.003 -0.002,-0.003c-0.001,0 -0.003,0.001 -0.004,0.003l-0.094,0.316Z" style="fill-rule:nonzero;"/></g><g transform="matrix(12,0,0,12,573.531,357.376)"><path d="M0.419,-0.692c0.003,-0.005 0.008,-0.008 0.015,-0.008l0.089,0c0.007,0 0.011,0.004 0.011,0.012l-0.083,0.676c-0.001,0.003 -0.002,0.006 -0.005,0.009c-0.003,0.002 -0.006,0.003 -0.009,0.003l-0.089,0c-0.003,0 -0.006,-0.001 -0.008,-0.003c-0.002,-0.003 -0.003,-0.006 -0.002,-0.009l0.058,-0.472c0.001,-0.003 0,-0.004 -0.001,-0.004c-0.002,0 -0.004,0.001 -0.005,0.003l-0.103,0.158c-0.004,0.005 -0.007,0.008 -0.01,0.008c-0.001,0 -0.003,-0.001 -0.004,-0.002c-0.002,-0.001 -0.003,-0.003 -0.004,-0.006l-0.065,-0.158c-0.001,-0.002 -0.002,-0.003 -0.003,-0.003c-0.001,0 -0.002,0.001 -0.003,0.004l-0.058,0.472c-0.001,0.003 -0.002,0.006 -0.004,0.009c-0.003,0.002 -0.006,0.003 -0.009,0.003l-0.089,0c-0.003,0 -0.006,-0.001 -0.008,-0.003c-0.002,-0.003 -0.003,-0.006 -0.002,-0.009l0.083,-0.676c0.001,-0.003 0.002,-0.006 0.005,-0.008c0.002,-0.003 0.005,-0.004 0.008,-0.004l0.089,0c0.006,0 0.011,0.003 0.014,0.008l0.073,0.171c0.001,0.003 0.003,0.003 0.006,0l0.113,-0.171Z" style="fill-rule:nonzero;"/></g><g transform="matrix(12,0,0,12,579.687,357.376)"><path d="M0.419,-0.692c0.003,-0.005 0.008,-0.008 0.015,-0.008l0.089,0c0.007,0 0.011,0.004 0.011,0.012l-0.083,0.676c-0.001,0.003 -0.002,0.006 -0.005,0.009c-0.003,0.002 -0.006,0.003 -0.009,0.003l-0.089,0c-0.003,0 -0.006,-0.001 -0.008,-0.003c-0.002,-0.003 -0.003,-0.006 -0.002,-0.009l0.058,-0.472c0.001,-0.003 0,-0.004 -0.001,-0.004c-0.002,0 -0.004,0.001 -0.005,0.003l-0.103,0.158c-0.004,0.005 -0.007,0.008 -0.01,0.008c-0.001,0 -0.003,-0.001 -0.004,-0.002c-0.002,-0.001 -0.003,-0.003 -0.004,-0.006l-0.065,-0.158c-0.001,-0.002 -0.002,-0.003 -0.003,-0.003c-0.001,0 -0.002,0.001 -0.003,0.004l-0.058,0.472c-0.001,0.003 -0.002,0.006 -0.004,0.009c-0.003,0.002 -0.006,0.003 -0.009,0.003l-0.089,0c-0.003,0 -0.006,-0.001 -0.008,-0.003c-0.002,-0.003 -0.003,-0.006 -0.002,-0.009l0.083,-0.676c0.001,-0.003 0.002,-0.006 0.005,-0.008c0.002,-0.003 0.005,-0.004 0.008,-0.004l0.089,0c0.006,0 0.011,0.003 0.014,0.008l0.073,0.171c0.001,0.003 0.003,0.003 0.006,0l0.113,-0.171Z" style="fill-rule:nonzero;"/></g><g transform="matrix(12,0,0,12,585.843,357.376)"><path d="M0.111,-0.688c0.001,-0.003 0.002,-0.006 0.005,-0.008c0.002,-0.003 0.005,-0.004 0.008,-0.004l0.089,0c0.003,0 0.006,0.001 0.008,0.004c0.002,0.002 0.003,0.005 0.002,0.008l-0.083,0.676c-0.001,0.003 -0.002,0.006 -0.005,0.009c-0.002,0.002 -0.005,0.003 -0.008,0.003l-0.089,0c-0.003,0 -0.006,-0.001 -0.008,-0.003c-0.002,-0.003 -0.003,-0.006 -0.002,-0.009l0.083,-0.676Z" style="fill-rule:nonzero;"/></g><g transform="matrix(12,0,0,12,588.291,357.376)"><path d="M0.386,-0.688c0.001,-0.003 0.002,-0.006 0.005,-0.008c0.002,-0.003 0.005,-0.004 0.008,-0.004l0.089,0c0.003,0 0.006,0.001 0.008,0.004c0.002,0.002 0.003,0.005 0.002,0.008l-0.083,0.676c-0.001,0.003 -0.002,0.006 -0.005,0.009c-0.002,0.002 -0.005,0.003 -0.008,0.003l-0.101,0c-0.006,0 -0.01,-0.003 -0.012,-0.01l-0.093,-0.421c0,-0.002 -0.001,-0.003 -0.002,-0.003c-0.002,0.001 -0.003,0.002 -0.003,0.004l-0.051,0.418c-0.001,0.003 -0.002,0.006 -0.004,0.009c-0.003,0.002 -0.006,0.003 -0.009,0.003l-0.089,0c-0.003,0 -0.006,-0.001 -0.008,-0.003c-0.002,-0.003 -0.003,-0.006 -0.002,-0.009l0.083,-0.676c0.001,-0.003 0.002,-0.006 0.005,-0.008c0.002,-0.003 0.005,-0.004 0.008,-0.004l0.101,0c0.006,0 0.01,0.003 0.011,0.01l0.093,0.424c0.001,0.002 0.002,0.003 0.004,0.003c0.001,-0.001 0.002,-0.002 0.002,-0.004l0.051,-0.421Z" style="fill-rule:nonzero;"/></g><g transform="matrix(12,0,0,12,594.027,357.376)"><path d="M0.196,0.008c-0.05,-0 -0.089,-0.014 -0.118,-0.041c-0.029,-0.026 -0.043,-0.063 -0.043,-0.11c0,-0.007 0.001,-0.017 0.002,-0.03l0.043,-0.354c0.007,-0.055 0.029,-0.099 0.066,-0.132c0.037,-0.033 0.083,-0.049 0.138,-0.049c0.05,0 0.09,0.014 0.119,0.042c0.03,0.028 0.045,0.066 0.045,0.113c0,0.006 -0.001,0.015 -0.002,0.027l-0.005,0.039c-0.001,0.003 -0.002,0.006 -0.005,0.009c-0.002,0.002 -0.005,0.003 -0.008,0.003l-0.089,0c-0.007,0 -0.011,-0.004 -0.011,-0.012l0.006,-0.041l0.001,-0.012c0,-0.021 -0.006,-0.037 -0.017,-0.049c-0.011,-0.013 -0.027,-0.019 -0.046,-0.019c-0.021,0 -0.038,0.007 -0.053,0.022c-0.015,0.015 -0.024,0.034 -0.027,0.058l-0.044,0.356c-0.001,0.003 -0.001,0.008 -0.001,0.014c0,0.02 0.006,0.036 0.017,0.048c0.011,0.012 0.025,0.018 0.044,0.018c0.022,0 0.04,-0.007 0.055,-0.022c0.015,-0.015 0.024,-0.034 0.027,-0.058l0.012,-0.096c0,-0.003 -0.002,-0.005 -0.005,-0.005l-0.058,0c-0.003,0 -0.006,-0.001 -0.008,-0.004c-0.002,-0.002 -0.003,-0.005 -0.002,-0.008l0.009,-0.073c0.001,-0.003 0.002,-0.006 0.005,-0.008c0.002,-0.003 0.005,-0.004 0.008,-0.004l0.164,0c0.003,0 0.006,0.001 0.008,0.004c0.002,0.002 0.003,0.005 0.002,0.008l-0.023,0.185c-0.007,0.055 -0.029,0.099 -0.067,0.132c-0.037,0.033 -0.084,0.049 -0.139,0.049Z" style="fill-rule:nonzero;"/></g><g transform="matrix(12,0,0,12,601.551,357.376)"><path d="M0.307,-0c-0.008,-0 -0.012,-0.004 -0.012,-0.011l-0.005,-0.105c0,-0.001 -0.001,-0.003 -0.002,-0.004c-0.001,-0.001 -0.002,-0.001 -0.003,-0.001l-0.142,0c-0.003,0 -0.006,0.002 -0.007,0.005l-0.031,0.105c-0.002,0.007 -0.007,0.011 -0.014,0.011l-0.089,-0c-0.008,-0 -0.011,-0.004 -0.008,-0.013l0.225,-0.676c0.002,-0.007 0.007,-0.011 0.014,-0.011l0.104,0c0.007,0 0.011,0.004 0.011,0.011l0.061,0.676l0,0.002c0,0.007 -0.004,0.011 -0.012,0.011l-0.09,0Zm-0.141,-0.217c-0.001,0.003 0.001,0.005 0.005,0.005l0.107,0c0.004,0 0.006,-0.002 0.006,-0.005l-0.018,-0.316c0,-0.002 -0.001,-0.003 -0.002,-0.003c-0.001,0 -0.003,0.001 -0.004,0.003l-0.094,0.316Z" style="fill-rule:nonzero;"/></g><g transform="matrix(12,0,0,12,606.807,357.376)"><path d="M0.386,-0.688c0.001,-0.003 0.002,-0.006 0.005,-0.008c0.002,-0.003 0.005,-0.004 0.008,-0.004l0.089,0c0.003,0 0.006,0.001 0.008,0.004c0.002,0.002 0.003,0.005 0.002,0.008l-0.083,0.676c-0.001,0.003 -0.002,0.006 -0.005,0.009c-0.002,0.002 -0.005,0.003 -0.008,0.003l-0.101,0c-0.006,0 -0.01,-0.003 -0.012,-0.01l-0.093,-0.421c0,-0.002 -0.001,-0.003 -0.002,-0.003c-0.002,0.001 -0.003,0.002 -0.003,0.004l-0.051,0.418c-0.001,0.003 -0.002,0.006 -0.004,0.009c-0.003,0.002 -0.006,0.003 -0.009,0.003l-0.089,0c-0.003,0 -0.006,-0.001 -0.008,-0.003c-0.002,-0.003 -0.003,-0.006 -0.002,-0.009l0.083,-0.676c0.001,-0.003 0.002,-0.006 0.005,-0.008c0.002,-0.003 0.005,-0.004 0.008,-0.004l0.101,0c0.006,0 0.01,0.003 0.011,0.01l0.093,0.424c0.001,0.002 0.002,0.003 0.004,0.003c0.001,-0.001 0.002,-0.002 0.002,-0.004l0.051,-0.421Z" style="fill-rule:nonzero;"/></g><g transform="matrix(12,0,0,12,612.543,357.376)"><path d="M0.111,-0.688c0.001,-0.003 0.002,-0.006 0.005,-0.008c0.002,-0.003 0.005,-0.004 0.008,-0.004l0.165,0c0.051,0 0.09,0.014 0.119,0.043c0.029,0.029 0.044,0.068 0.044,0.117c0,0.006 -0.001,0.016 -0.002,0.031l-0.04,0.318c-0.007,0.058 -0.029,0.104 -0.067,0.139c-0.038,0.035 -0.085,0.052 -0.14,0.052l-0.165,-0c-0.003,-0 -0.006,-0.001 -0.008,-0.004c-0.002,-0.002 -0.003,-0.005 -0.002,-0.008l0.083,-0.676Zm0.103,0.587c0.021,0 0.04,-0.009 0.055,-0.026c0.015,-0.018 0.025,-0.042 0.03,-0.071l0.037,-0.304c0.001,-0.011 0.002,-0.018 0.002,-0.022c0,-0.023 -0.006,-0.042 -0.017,-0.055c-0.011,-0.014 -0.027,-0.021 -0.047,-0.021l-0.057,0c-0.003,0 -0.005,0.002 -0.005,0.005l-0.06,0.49c-0.001,0.003 -0,0.005 0.004,0.005l0.058,-0.001Z" style="fill-rule:nonzero;"/></g><g transform="matrix(12,0,0,12,620.163,357.376)"><path d="M0.111,-0.688c0.001,-0.003 0.002,-0.006 0.005,-0.008c0.002,-0.003 0.005,-0.004 0.008,-0.004l0.089,0c0.003,0 0.006,0.001 0.008,0.004c0.002,0.002 0.003,0.005 0.002,0.008l-0.083,0.676c-0.001,0.003 -0.002,0.006 -0.005,0.009c-0.002,0.002 -0.005,0.003 -0.008,0.003l-0.089,0c-0.003,0 -0.006,-0.001 -0.008,-0.003c-0.002,-0.003 -0.003,-0.006 -0.002,-0.009l0.083,-0.676Z" style="fill-rule:nonzero;"/></g><g transform="matrix(12,0,0,12,622.611,357.376)"><path d="M0.452,-0.7c0.003,0 0.006,0.001 0.008,0.004c0.002,0.002 0.003,0.005 0.002,0.008l-0.01,0.076c0,0.003 -0.001,0.006 -0.004,0.009c-0.003,0.002 -0.006,0.003 -0.009,0.003l-0.123,0c-0.003,0 -0.005,0.002 -0.005,0.005l-0.072,0.583c-0.001,0.003 -0.002,0.006 -0.005,0.009c-0.002,0.002 -0.005,0.003 -0.008,0.003l-0.089,0c-0.003,0 -0.006,-0.001 -0.008,-0.003c-0.002,-0.003 -0.003,-0.006 -0.002,-0.009l0.071,-0.583c0.001,-0.003 0,-0.005 -0.004,-0.005l-0.117,0c-0.007,0 -0.011,-0.004 -0.011,-0.012l0.01,-0.076c0.001,-0.003 0.002,-0.006 0.005,-0.008c0.002,-0.003 0.005,-0.004 0.008,-0.004l0.363,0Z" style="fill-rule:nonzero;"/></g></g><path d="M148.505,140.415c-0.861,-0.112 -1.609,-0.491 -2.245,-1.136c-0.636,-0.645 -1.085,-1.398 -1.346,-2.258c-0.337,-0.767 -0.505,-1.759 -0.505,-2.974c-0,-1.254 0.187,-2.572 0.561,-3.956c0.224,-0.767 0.355,-1.385 0.393,-1.852c0.037,-0.131 0.364,-0.907 0.981,-2.329c0.711,-1.608 1.16,-2.675 1.347,-3.198c0.393,-0.861 1.099,-2.025 2.118,-3.493c1.02,-1.469 1.698,-2.334 2.035,-2.596c0.037,-0.037 0.149,-0.14 0.336,-0.308c0.187,-0.169 0.356,-0.271 0.505,-0.309c0.075,-0.187 0.22,-0.351 0.435,-0.491c0.215,-0.14 0.416,-0.21 0.603,-0.21c0.3,-0.169 0.627,-0.253 0.982,-0.253c0.318,0 0.599,0.084 0.842,0.253c0.243,0.168 0.412,0.43 0.505,0.785l0.056,0.337c0,0.112 -0.037,0.192 -0.112,0.238c-0.075,0.047 -0.262,0.145 -0.561,0.295c-0.243,0.094 -0.496,0.21 -0.758,0.351c-0.262,0.14 -0.449,0.276 -0.561,0.407c-0.168,0.224 -0.355,0.434 -0.561,0.631c-0.206,0.196 -0.365,0.332 -0.477,0.407c-0.337,0.131 -0.505,0.28 -0.505,0.449c-0.037,0.093 -0.14,0.294 -0.309,0.603c-0.168,0.308 -0.402,0.65 -0.701,1.024c-0.374,0.598 -0.627,1.019 -0.757,1.262c-0.094,0.169 -0.337,0.58 -0.73,1.235c-0.056,0.093 -0.159,0.28 -0.309,0.561c-0.149,0.281 -0.327,0.542 -0.533,0.786c0,0.093 -0.032,0.243 -0.098,0.449c-0.065,0.205 -0.173,0.42 -0.323,0.645c-0.112,0.411 -0.336,0.963 -0.673,1.655c-0.224,0.468 -0.463,1.108 -0.715,1.922c-0.253,0.814 -0.379,1.351 -0.379,1.613c-0.056,0 -0.108,0.113 -0.154,0.337c-0.047,0.224 -0.099,0.608 -0.155,1.15l-0.14,1.01c-0.037,1.235 0.037,2.17 0.224,2.806c0.187,0.636 0.543,1.235 1.067,1.796c0.224,0.187 0.439,0.327 0.645,0.421c0.206,0.093 0.439,0.149 0.701,0.168l0.954,0.589c-0.112,0.412 -0.332,0.72 -0.659,0.926c-0.327,0.206 -0.669,0.29 -1.024,0.252Z" style="fill-rule:nonzero;"/><path d="M166.04,135.898c-0.243,0 -0.43,-0.037 -0.561,-0.112c-0.149,-0.056 -0.341,-0.192 -0.575,-0.407c-0.234,-0.215 -0.44,-0.523 -0.617,-0.926c-0.178,-0.402 -0.267,-0.883 -0.267,-1.445c0,-0.355 0.024,-0.668 0.07,-0.939c0.047,-0.272 0.07,-0.445 0.07,-0.519c0,-0.094 -0.028,-0.141 -0.084,-0.141c-0.486,0 -1.543,0.889 -3.17,2.666c-0.056,0.037 -0.103,0.084 -0.14,0.14c-0.225,0.168 -0.431,0.346 -0.618,0.533c-0.28,0.262 -0.509,0.454 -0.687,0.575c-0.178,0.122 -0.369,0.192 -0.575,0.211c-0.131,-0 -0.271,-0.057 -0.421,-0.169l-0.309,-0.252c-0.093,-0.056 -0.177,-0.159 -0.252,-0.309c-0.075,-0.15 -0.112,-0.29 -0.112,-0.421l-0,-0.14l0.645,-1.88c0.468,-1.029 0.701,-1.636 0.701,-1.824c0,-0.037 -0.009,-0.056 -0.028,-0.056c-0.168,-0.018 -0.416,0.127 -0.743,0.435c-0.328,0.309 -0.79,0.79 -1.389,1.445l-1.263,1.319c-0.149,0.149 -0.551,0.598 -1.206,1.347c-0.412,0.505 -0.627,0.757 -0.645,0.757c-0.412,0 -0.781,-0.159 -1.109,-0.477c-0.327,-0.318 -0.491,-0.701 -0.491,-1.15c0,-0.225 0.038,-0.524 0.113,-0.898c0.074,-0.374 0.159,-0.767 0.252,-1.178c0.038,-0.15 0.08,-0.318 0.126,-0.505c0.047,-0.187 0.099,-0.403 0.155,-0.646c0.037,-0.187 0.079,-0.393 0.126,-0.617c0.047,-0.224 0.145,-0.519 0.295,-0.884c0.149,-0.365 0.364,-0.874 0.645,-1.529c0.075,-0.243 0.112,-0.496 0.112,-0.757c0,-0.131 -0.009,-0.258 -0.028,-0.379c-0.019,-0.122 -0.028,-0.201 -0.028,-0.239c0,-0.28 0.136,-0.519 0.407,-0.715c0.271,-0.196 0.575,-0.295 0.912,-0.295c0.486,0 0.851,0.173 1.094,0.519c0.243,0.346 0.365,0.706 0.365,1.081c-0,0.318 -0.075,0.626 -0.225,0.925l-0.308,0.758c-0.075,0.168 -0.211,0.472 -0.407,0.912c-0.197,0.439 -0.295,0.706 -0.295,0.799c0,0.057 0.019,0.085 0.056,0.085l0.028,-0c0.094,-0 0.243,-0.103 0.449,-0.309c0.599,-0.561 1.324,-1.146 2.175,-1.754c0.851,-0.607 1.463,-0.968 1.837,-1.08c0.15,0 0.346,0.075 0.59,0.225c0.243,0.149 0.458,0.35 0.645,0.603c0.187,0.252 0.28,0.528 0.28,0.828l-0.028,0.224c-0.018,0.075 -0.098,0.393 -0.238,0.954c-0.14,0.561 -0.248,0.888 -0.323,0.982c0.356,-0.412 0.973,-0.921 1.852,-1.529c0.879,-0.608 1.524,-0.921 1.936,-0.94c0.617,-0 1.019,0.252 1.206,0.757c0.187,0.505 0.318,1.244 0.393,2.217c0.075,0.916 0.178,1.534 0.309,1.852c0.037,0.112 0.168,0.205 0.392,0.28c0.225,0.075 0.407,0.164 0.548,0.267c0.14,0.103 0.21,0.304 0.21,0.603c0,0.412 -0.182,0.701 -0.547,0.87c-0.365,0.168 -0.8,0.252 -1.305,0.252Z" style="fill-rule:nonzero;"/><path d="M177.01,126.135c0.169,0.336 0.253,0.72 0.253,1.15c-0,0.542 -0.122,0.991 -0.365,1.347c-0.187,0.261 -0.351,0.654 -0.491,1.178c-0.14,0.524 -0.276,1.225 -0.407,2.104c-0.168,0.711 -0.374,1.805 -0.617,3.283c-0.299,0.785 -0.486,1.375 -0.561,1.767c-0.019,0.113 -0.108,0.346 -0.267,0.702c-0.159,0.355 -0.285,0.636 -0.378,0.842c-0.842,1.702 -1.838,2.983 -2.988,3.843c-1.151,0.861 -2.324,1.328 -3.521,1.403c-0.3,0.038 -0.477,0.056 -0.534,0.056c-0.168,0 -0.322,-0.028 -0.462,-0.084c-0.141,-0.056 -0.295,-0.131 -0.463,-0.224c-0.374,-0.262 -0.59,-0.449 -0.646,-0.561c-0.093,-0.188 -0.14,-0.375 -0.14,-0.562c0,-0.28 0.131,-0.472 0.393,-0.575c0.262,-0.103 0.561,-0.154 0.898,-0.154c0.131,0.075 0.355,0.112 0.673,0.112c0.318,0 0.505,-0.037 0.561,-0.112c0.038,-0.038 0.15,-0.098 0.337,-0.182c0.187,-0.085 0.402,-0.155 0.645,-0.211c0.617,-0.299 1.09,-0.598 1.417,-0.898c0.327,-0.299 0.687,-0.776 1.08,-1.431c0.468,-0.71 0.776,-1.356 0.926,-1.936c0.243,-0.617 0.533,-1.533 0.87,-2.749l-0.028,0.028c-0.094,0.112 -0.328,0.276 -0.702,0.491c-0.374,0.215 -0.598,0.323 -0.673,0.323c-0.019,-0 -0.047,0.009 -0.084,0.028c-0.038,0.018 -0.056,0.056 -0.056,0.112c-0,0.075 -0.243,0.192 -0.73,0.351c-0.486,0.159 -0.795,0.238 -0.926,0.238c-0.187,0 -0.388,-0.103 -0.603,-0.309c-0.215,-0.205 -0.369,-0.392 -0.463,-0.561c-0.075,-0.168 -0.215,-0.336 -0.421,-0.505c-0.224,-0.224 -0.392,-0.425 -0.505,-0.603c-0.112,-0.178 -0.168,-0.388 -0.168,-0.631c-0,-0.131 0.009,-0.234 0.028,-0.309c0.224,-0.841 0.641,-2.137 1.249,-3.886c0.607,-1.748 1.052,-2.838 1.332,-3.268c0.075,-0.112 0.215,-0.206 0.421,-0.281c0.206,-0.075 0.412,-0.112 0.617,-0.112c0.374,-0 0.627,0.112 0.758,0.337c0.224,0.318 0.337,0.589 0.337,0.813c-0,0.262 -0.131,0.646 -0.393,1.151c-0.075,0.205 -0.169,0.43 -0.281,0.673c-0.112,0.243 -0.168,0.393 -0.168,0.449c-0.019,0.075 -0.075,0.304 -0.169,0.687c-0.093,0.384 -0.177,0.575 -0.252,0.575c-0.112,0.113 -0.238,0.501 -0.379,1.165c-0.14,0.664 -0.21,1.192 -0.21,1.585c-0,0.224 0.028,0.337 0.084,0.337c0.505,-0 0.991,-0.136 1.459,-0.407c0.468,-0.271 0.954,-0.706 1.459,-1.305c0.075,-0.467 0.182,-0.972 0.323,-1.515c0.14,-0.542 0.238,-0.907 0.294,-1.094c0.337,-1.16 0.561,-2.095 0.673,-2.806c0.113,-0.262 0.197,-0.416 0.253,-0.463c0.056,-0.046 0.178,-0.07 0.365,-0.07c0.224,0 0.472,0.066 0.743,0.197c0.271,0.131 0.473,0.29 0.603,0.477Z" style="fill-rule:nonzero;"/><path d="M196.117,128.295c0.056,0.131 0.084,0.28 0.084,0.449c0,0.486 -0.308,1.3 -0.926,2.441c-0.318,0.58 -0.682,1.136 -1.094,1.669c-0.411,0.533 -0.804,0.977 -1.178,1.333c-0.131,0.075 -0.295,0.196 -0.491,0.365c-0.197,0.168 -0.37,0.346 -0.519,0.533c-0.374,0.336 -0.833,0.589 -1.375,0.757c-0.543,0.169 -1.104,0.253 -1.683,0.253c-0.599,-0 -1.132,-0.089 -1.6,-0.267c-0.467,-0.178 -0.767,-0.416 -0.898,-0.715c0,-0.113 -0.014,-0.234 -0.042,-0.365c-0.028,-0.131 -0.032,-0.224 -0.014,-0.281c-0.205,0 -0.425,-0.023 -0.659,-0.07c-0.234,-0.047 -0.36,-0.098 -0.379,-0.154c0.019,-0.561 0.084,-0.945 0.197,-1.15c-0,-0.094 0.074,-0.346 0.224,-0.758c0.112,-0.299 0.187,-0.533 0.225,-0.701c0.037,-0.15 0.121,-0.575 0.252,-1.277c0.131,-0.701 0.327,-1.361 0.589,-1.978c0.487,-1.721 0.889,-2.946 1.207,-3.675c0.243,-0.936 0.472,-1.674 0.687,-2.217c0.215,-0.542 0.5,-1.197 0.856,-1.964l0.421,-0.87c0.056,-0.112 0.196,-0.505 0.421,-1.178c0.093,-0.187 0.224,-0.332 0.392,-0.435c0.169,-0.103 0.346,-0.154 0.533,-0.154c0.225,-0 0.421,0.084 0.59,0.252c0.037,0.038 0.116,0.117 0.238,0.239c0.122,0.121 0.21,0.243 0.267,0.365c0.056,0.121 0.084,0.257 0.084,0.406c-0,0.412 -0.187,1.076 -0.561,1.992c-0.15,0.188 -0.318,0.543 -0.505,1.067c-0.187,0.523 -0.309,0.869 -0.365,1.038c-0.43,1.028 -0.814,2.067 -1.15,3.114c-0.131,0.468 -0.3,0.963 -0.505,1.487c-0.206,0.524 -0.337,0.87 -0.393,1.038l0.757,-0.814c0.618,-0.542 1.347,-0.996 2.189,-1.36c0.841,-0.365 1.533,-0.547 2.076,-0.547c0.411,-0 0.823,0.201 1.234,0.603c0.412,0.402 0.683,0.912 0.814,1.529Zm-3.367,2.637c0.318,-0.411 0.571,-0.827 0.758,-1.248c0.187,-0.421 0.28,-0.791 0.28,-1.109c0,-0.168 -0.046,-0.252 -0.14,-0.252c-0.093,-0 -0.421,0.112 -0.982,0.337c-0.561,0.224 -0.907,0.402 -1.038,0.533c-0,0.056 -0.047,0.107 -0.14,0.154c-0.094,0.047 -0.159,0.08 -0.197,0.098c-0.617,0.468 -1.057,0.814 -1.318,1.038c-0.262,0.225 -0.496,0.468 -0.702,0.73l-0.365,0.477c-0.168,0.206 -0.467,0.636 -0.897,1.29c-0.244,0.468 -0.44,0.795 -0.59,0.982l0.449,0.028c0.487,-0.037 0.786,-0.056 0.898,-0.056c0.337,0 0.627,-0.028 0.87,-0.084c0.243,-0.056 0.533,-0.187 0.87,-0.393c0.58,-0.467 1.197,-1.141 1.851,-2.02l0.393,-0.505Z" style="fill-rule:nonzero;"/><path d="M198.558,136.852c-0.056,0.019 -0.131,0.028 -0.224,0.028c-0.393,0 -0.721,-0.224 -0.982,-0.673c-0.262,-0.449 -0.393,-1.019 -0.393,-1.712c-0,-0.374 0.037,-0.738 0.112,-1.094c0.206,-0.542 0.309,-0.935 0.309,-1.178c0.056,-0.356 0.247,-0.996 0.575,-1.922c0.327,-0.926 0.537,-1.482 0.631,-1.669c0.075,-0 0.14,-0.061 0.196,-0.183c0.057,-0.121 0.085,-0.257 0.085,-0.407c-0,-0.168 0.032,-0.341 0.098,-0.519c0.065,-0.177 0.135,-0.304 0.21,-0.378c0,-0.057 0.024,-0.159 0.07,-0.309c0.047,-0.15 0.07,-0.253 0.07,-0.309c0,-0.037 0.024,-0.107 0.071,-0.21c0.046,-0.103 0.07,-0.182 0.07,-0.239c0.299,-0.579 0.823,-1.884 1.571,-3.913c0.748,-2.03 1.122,-3.157 1.122,-3.381c0,-0.15 0.056,-0.29 0.169,-0.421c0.112,-0.131 0.243,-0.197 0.392,-0.197c0.056,-0.056 0.178,-0.098 0.365,-0.126c0.187,-0.028 0.337,-0.042 0.449,-0.042l0.449,0.449c0.206,0.187 0.365,0.355 0.477,0.505c0.112,0.15 0.168,0.327 0.168,0.533c0,0.337 -0.061,0.669 -0.182,0.996c-0.122,0.327 -0.472,1.099 -1.052,2.315c-0.038,0.093 -0.187,0.43 -0.449,1.01c-0.187,0.374 -0.281,0.589 -0.281,0.645c0,0.056 -0.037,0.173 -0.112,0.351c-0.075,0.178 -0.14,0.36 -0.196,0.547c-0.15,0.299 -0.389,0.828 -0.716,1.585c-0.327,0.758 -0.491,1.174 -0.491,1.249c0,0.205 -0.047,0.355 -0.14,0.449c-0.056,-0 -0.094,0.042 -0.112,0.126c-0.019,0.084 -0.028,0.145 -0.028,0.182c-0,0.187 -0.15,0.683 -0.449,1.487l-0.253,0.814c-0.355,1.216 -0.603,2.104 -0.743,2.665c-0.141,0.561 -0.211,1.038 -0.211,1.431c0,0.412 -0.065,0.748 -0.196,1.01c-0.131,0.262 -0.281,0.43 -0.449,0.505Z" style="fill-rule:nonzero;"/><path d="M204.282,136.347c-0.225,0 -0.403,-0.037 -0.534,-0.112c-0.13,-0.075 -0.318,-0.215 -0.561,-0.421c-0.374,-0.393 -0.664,-0.799 -0.869,-1.22c-0.206,-0.421 -0.281,-0.791 -0.225,-1.109c0.056,-0.131 0.08,-0.261 0.07,-0.392c-0.009,-0.131 -0.014,-0.215 -0.014,-0.253c-0.075,-0.075 -0.112,-0.126 -0.112,-0.154c-0,-0.028 0.019,-0.056 0.056,-0.084c0.038,-0.028 0.066,-0.061 0.084,-0.099c0.112,0 0.15,-0.102 0.112,-0.308c-0.037,-0.15 0.029,-0.477 0.197,-0.982c0.168,-0.505 0.383,-0.973 0.645,-1.403c0.206,-0.337 0.51,-0.758 0.912,-1.263c0.402,-0.505 0.762,-0.888 1.08,-1.15c0.935,-0.804 1.777,-1.29 2.525,-1.459c0.374,-0.093 0.739,-0.14 1.095,-0.14c0.542,-0 0.963,0.15 1.262,0.449c0.412,0.168 0.711,0.411 0.898,0.729c0.187,0.318 0.309,0.739 0.365,1.263c0.018,0.112 0.028,0.299 0.028,0.561c-0,1.384 -0.524,2.824 -1.571,4.321c-0.431,0.617 -0.861,1.113 -1.291,1.487c-0.43,0.374 -0.954,0.748 -1.571,1.122c-0.337,0.224 -0.692,0.374 -1.066,0.449c-0.375,0.075 -0.88,0.131 -1.515,0.168Zm2.861,-3.423c0.356,-0.318 0.613,-0.64 0.772,-0.968c0.159,-0.327 0.388,-0.902 0.687,-1.725c0.112,-0.169 0.169,-0.505 0.169,-1.01c-0,-0.449 -0.066,-0.702 -0.197,-0.758c-0.093,-0.075 -0.206,-0.112 -0.336,-0.112c-0.169,0 -0.44,0.131 -0.814,0.393c-0.655,0.561 -1.202,1.145 -1.641,1.753c-0.44,0.608 -0.744,1.305 -0.912,2.091c-0.019,0.074 -0.028,0.187 -0.028,0.336c-0,0.636 0.224,0.954 0.673,0.954c0.43,0 0.973,-0.318 1.627,-0.954Z" style="fill-rule:nonzero;"/><path d="M214.915,142.015c-0.542,-0 -1.085,-0.145 -1.627,-0.435c-0.543,-0.29 -0.992,-0.65 -1.347,-1.08c-0.355,-0.431 -0.533,-0.823 -0.533,-1.179c-0,-0.355 0.075,-0.612 0.224,-0.771c0.15,-0.159 0.337,-0.239 0.562,-0.239c0.168,0 0.346,0.07 0.533,0.211c0.187,0.14 0.402,0.341 0.645,0.603c0.243,0.243 0.458,0.435 0.645,0.575c0.187,0.14 0.365,0.21 0.533,0.21c0.636,0 1.123,-0.402 1.459,-1.206c0.337,-0.804 0.683,-1.945 1.038,-3.423l0.393,-1.683l0.056,-0.197c0,-0.018 -0.009,-0.023 -0.028,-0.014c-0.019,0.01 -0.037,0.005 -0.056,-0.014c-0.299,0.225 -0.888,0.477 -1.768,0.758c-0.879,0.28 -1.617,0.421 -2.216,0.421c-0.355,-0 -0.669,-0.187 -0.94,-0.562c-0.271,-0.374 -0.407,-0.86 -0.407,-1.459l0,-0.168c0.038,-0.075 0.253,-0.636 0.646,-1.683c0.392,-1.048 0.682,-1.553 0.869,-1.515c0.056,-0 0.145,-0.108 0.267,-0.323c0.121,-0.215 0.182,-0.36 0.182,-0.435c0.019,-0.056 0.126,-0.164 0.323,-0.322c0.196,-0.159 0.351,-0.286 0.463,-0.379l0.729,-0.561c0.674,-0.618 1.272,-1.081 1.796,-1.389c0.524,-0.309 1.001,-0.482 1.431,-0.519l0.28,0.028c0.057,-0 0.164,0.004 0.323,0.014c0.159,0.009 0.444,0.089 0.856,0.238c0.411,0.169 0.832,0.58 1.262,1.235c0.431,0.654 0.664,1.225 0.702,1.711c-0.038,0.43 -0.131,0.847 -0.281,1.249c-0.149,0.402 -0.299,0.603 -0.449,0.603c-0.262,0 -0.458,0.065 -0.589,0.196c-0.131,0.131 -0.252,0.346 -0.365,0.646c-0.205,0.43 -0.346,0.692 -0.421,0.785l-0.448,2.161l-0.393,1.795c-0.225,0.879 -0.458,1.628 -0.702,2.245c-0.093,0.673 -0.341,1.304 -0.743,1.894c-0.402,0.589 -0.87,1.061 -1.403,1.417c-0.533,0.355 -1.033,0.542 -1.501,0.561Zm-0.084,-9.68c0.355,0 0.893,-0.145 1.613,-0.435c0.72,-0.29 1.164,-0.556 1.333,-0.799c0.093,-0.113 0.276,-0.36 0.547,-0.744c0.271,-0.383 0.575,-0.678 0.912,-0.884c0.112,-0.056 0.22,-0.159 0.322,-0.308c0.103,-0.15 0.155,-0.29 0.155,-0.421l-0,-0.056c-0.019,-0.075 -0.075,-0.206 -0.169,-0.393c-0.093,-0.187 -0.229,-0.365 -0.406,-0.533c-0.178,-0.168 -0.379,-0.253 -0.604,-0.253c-0.187,0.038 -0.622,0.374 -1.304,1.01c-0.683,0.636 -1.319,1.31 -1.908,2.02c-0.589,0.711 -0.884,1.207 -0.884,1.487c0,0.206 0.131,0.309 0.393,0.309Z" style="fill-rule:nonzero;"/><path d="M221.957,140.331c-0.355,-0.093 -0.701,-0.294 -1.038,-0.603c-0.337,-0.309 -0.514,-0.603 -0.533,-0.884c0,-0.037 0.005,-0.149 0.014,-0.336c0.009,-0.187 0.052,-0.337 0.126,-0.449c0.019,0.018 0.061,0.042 0.127,0.07c0.065,0.028 0.163,0.042 0.294,0.042c0.15,-0 0.281,-0.019 0.393,-0.056c0.355,0.018 0.631,-0.014 0.828,-0.098c0.196,-0.085 0.435,-0.295 0.715,-0.632l0.505,-0.645c0.43,-0.505 0.683,-0.86 0.758,-1.066c0.262,-0.187 0.458,-0.36 0.589,-0.519c0.131,-0.159 0.271,-0.36 0.421,-0.603c-0,-0.412 0.168,-0.889 0.505,-1.431c0.243,-0.524 0.421,-0.879 0.533,-1.066c0.224,-0.449 0.336,-0.702 0.336,-0.758c0.019,-0.037 0.052,-0.122 0.099,-0.253c0.046,-0.13 0.06,-0.271 0.042,-0.42c0.112,-0.056 0.21,-0.183 0.294,-0.379c0.085,-0.197 0.117,-0.398 0.099,-0.603c0.018,-0.075 0.107,-0.304 0.266,-0.688c0.159,-0.383 0.248,-0.762 0.267,-1.136c0.299,-0.954 0.495,-1.796 0.589,-2.525c0.093,-0.73 0.187,-1.889 0.28,-3.479l0.056,-1.487c0.019,-0.243 0.029,-0.533 0.029,-0.87c-0,-0.28 -0.019,-0.5 -0.057,-0.659c-0.037,-0.159 -0.112,-0.332 -0.224,-0.519c-0.187,-0.599 -0.346,-0.898 -0.477,-0.898c-0.037,-0 -0.075,-0.052 -0.112,-0.154c-0.038,-0.103 -0.056,-0.239 -0.056,-0.407c-0,-0.169 0.028,-0.337 0.084,-0.505c-0.019,-0.075 0.117,-0.159 0.407,-0.253c0.29,-0.093 0.519,-0.131 0.687,-0.112c0.112,-0 0.248,0.051 0.407,0.154c0.159,0.103 0.276,0.192 0.351,0.267c0.131,-0.131 0.42,0.421 0.869,1.655c0.169,0.374 0.276,0.655 0.323,0.842c0.047,0.187 0.07,0.449 0.07,0.785l-0.056,1.179l-0.056,0.926c-0.019,0.935 -0.103,1.992 -0.253,3.17c-0.149,1.179 -0.327,2.263 -0.533,3.255c-0.243,0.972 -0.668,2.24 -1.276,3.801c-0.608,1.562 -1.052,2.568 -1.333,3.016c0.075,-0.018 -0.243,0.487 -0.954,1.516l-1.094,1.683c-0.449,0.617 -1.019,1.155 -1.712,1.613c-0.692,0.458 -1.225,0.631 -1.599,0.519Z" style="fill-rule:nonzero;"/></svg>