<?xml version="1.0" encoding="UTF-8" standalone="no"?><!DOCTYPE svg PUBLIC "-//W3C//DTD SVG 1.1//EN" "http://www.w3.org/Graphics/SVG/1.1/DTD/svg11.dtd"><svg width="100%" height="100%" viewBox="0 0 318 166" version="1.1" xmlns="http://www.w3.org/2000/svg" xmlns:xlink="http://www.w3.org/1999/xlink" xml:space="preserve" xmlns:serif="http://www.serif.com/" style="fill-rule:evenodd;clip-rule:evenodd;stroke-linejoin:round;stroke-miterlimit:2;"><path d="M118.948,165.151c-0.86,-0.113 -1.608,-0.491 -2.244,-1.137c-0.636,-0.645 -1.085,-1.398 -1.347,-2.258c-0.337,-0.767 -0.505,-1.758 -0.505,-2.974c0,-1.253 0.187,-2.572 0.561,-3.956c0.225,-0.767 0.356,-1.384 0.393,-1.852c0.037,-0.131 0.365,-0.907 0.982,-2.329c0.711,-1.608 1.16,-2.674 1.347,-3.198c0.393,-0.86 1.099,-2.025 2.118,-3.493c1.019,-1.468 1.697,-2.334 2.034,-2.595c0.038,-0.038 0.15,-0.141 0.337,-0.309c0.187,-0.168 0.355,-0.271 0.505,-0.309c0.075,-0.187 0.22,-0.35 0.435,-0.491c0.215,-0.14 0.416,-0.21 0.603,-0.21c0.299,-0.168 0.627,-0.253 0.982,-0.253c0.318,0 0.598,0.085 0.842,0.253c0.243,0.168 0.411,0.43 0.505,0.786l0.056,0.336c-0,0.112 -0.038,0.192 -0.113,0.239c-0.074,0.046 -0.261,0.145 -0.561,0.294c-0.243,0.094 -0.495,0.211 -0.757,0.351c-0.262,0.14 -0.449,0.276 -0.561,0.407c-0.169,0.224 -0.356,0.435 -0.561,0.631c-0.206,0.196 -0.365,0.332 -0.477,0.407c-0.337,0.131 -0.505,0.28 -0.505,0.449c-0.038,0.093 -0.141,0.294 -0.309,0.603c-0.168,0.309 -0.402,0.65 -0.701,1.024c-0.375,0.599 -0.627,1.02 -0.758,1.263c-0.094,0.168 -0.337,0.58 -0.729,1.234c-0.057,0.094 -0.159,0.281 -0.309,0.561c-0.15,0.281 -0.327,0.543 -0.533,0.786c-0,0.093 -0.033,0.243 -0.098,0.449c-0.066,0.206 -0.173,0.421 -0.323,0.645c-0.112,0.412 -0.337,0.963 -0.673,1.655c-0.225,0.468 -0.463,1.109 -0.716,1.922c-0.252,0.814 -0.379,1.352 -0.379,1.614c-0.056,-0 -0.107,0.112 -0.154,0.336c-0.047,0.225 -0.098,0.608 -0.154,1.151l-0.14,1.01c-0.038,1.234 0.037,2.169 0.224,2.805c0.187,0.636 0.542,1.235 1.066,1.796c0.225,0.187 0.44,0.327 0.645,0.421c0.206,0.093 0.44,0.149 0.702,0.168l0.954,0.589c-0.112,0.412 -0.332,0.72 -0.66,0.926c-0.327,0.206 -0.668,0.29 -1.024,0.253Z" style="fill-rule:nonzero;"/><path d="M123.718,160.69c-0.056,-0.113 -0.215,-0.262 -0.477,-0.449c-0.262,-0.187 -0.393,-0.3 -0.393,-0.337c0,-0.075 -0.042,-0.182 -0.126,-0.323c-0.084,-0.14 -0.164,-0.266 -0.238,-0.378c-0.15,-0.15 -0.047,-0.636 0.308,-1.459c0.356,-0.823 0.832,-1.796 1.431,-2.918c0.112,-0.112 0.257,-0.309 0.435,-0.589c0.178,-0.281 0.294,-0.44 0.351,-0.477c-0,-0.075 0.028,-0.145 0.084,-0.211c0.056,-0.065 0.121,-0.098 0.196,-0.098l0.225,-0.449c0.074,-0.168 0.439,-0.57 1.094,-1.206c0.654,-0.636 1.169,-1.066 1.543,-1.291c0.355,-0.243 0.739,-0.365 1.15,-0.365c0.449,0 0.833,0.131 1.151,0.393l0.757,0.645c0.561,0.468 0.879,0.739 0.954,0.814l1.038,0.926l-0.477,1.403c-0.168,0.505 -0.252,0.982 -0.252,1.431c-0,0.71 0.196,1.374 0.589,1.992c0.093,0.205 0.22,0.364 0.379,0.477c0.159,0.112 0.369,0.187 0.631,0.224c0.411,0.075 0.617,0.281 0.617,0.617c0,0.412 -0.075,0.72 -0.224,0.926c-0.15,0.206 -0.328,0.337 -0.533,0.393c-0.3,0.037 -0.505,0.056 -0.618,0.056c-0.542,0 -1.038,-0.14 -1.487,-0.421c-0.449,-0.28 -0.841,-0.757 -1.178,-1.431c-0.075,-0.112 -0.173,-0.318 -0.295,-0.617c-0.121,-0.299 -0.191,-0.505 -0.21,-0.617c-0.131,0.187 -0.346,0.43 -0.645,0.729c-1.927,1.946 -3.489,2.918 -4.686,2.918c-0.411,0 -0.776,-0.103 -1.094,-0.308Zm1.543,-2.329c0.299,0.037 0.879,-0.299 1.74,-1.01c0.093,-0.075 0.196,-0.164 0.308,-0.267c0.112,-0.102 0.234,-0.21 0.365,-0.322c0.524,-0.43 0.931,-0.791 1.22,-1.08c0.29,-0.29 0.585,-0.641 0.884,-1.053l0.617,-1.01c-0.187,-0.411 -0.355,-0.687 -0.505,-0.827c-0.149,-0.141 -0.299,-0.211 -0.448,-0.211c-0.375,0 -0.842,0.332 -1.403,0.996c-0.561,0.664 -1.235,1.67 -2.02,3.016c-0.206,0.337 -0.374,0.688 -0.505,1.053c-0.131,0.364 -0.215,0.603 -0.253,0.715Z" style="fill-rule:nonzero;"/><path d="M139.177,161.111c-0.692,-0.075 -1.15,-0.375 -1.375,-0.898c-0.149,-0.15 -0.238,-0.272 -0.266,-0.365c-0.028,-0.094 -0.033,-0.187 -0.014,-0.281c0.224,0 0.355,-0.037 0.393,-0.112c-0,-0.056 0.032,-0.093 0.098,-0.112c0.065,-0.019 0.135,-0.019 0.21,-0c0.487,0.037 1.165,-0.225 2.034,-0.786c0.87,-0.561 1.81,-1.309 2.82,-2.244c0.524,-0.674 0.879,-1.155 1.066,-1.445c0.187,-0.29 0.281,-0.528 0.281,-0.716c-0,-0.093 -0.047,-0.233 -0.14,-0.42c-0.094,-0.15 -0.244,-0.225 -0.449,-0.225c-0.337,0 -0.795,0.187 -1.375,0.561c-0.804,0.505 -1.45,0.968 -1.936,1.389c-0.486,0.421 -0.935,0.912 -1.347,1.473c-0.243,0.318 -0.472,0.603 -0.687,0.856c-0.215,0.252 -0.36,0.425 -0.435,0.519c-0,0.075 -0.108,0.168 -0.323,0.28c-0.215,0.113 -0.397,0.169 -0.547,0.169c-0.093,-0.038 -0.201,-0.112 -0.322,-0.225c-0.122,-0.112 -0.192,-0.243 -0.211,-0.392c-0.037,-0.038 -0.117,-0.099 -0.238,-0.183c-0.122,-0.084 -0.211,-0.182 -0.267,-0.294c-0.056,-0.113 -0.084,-0.244 -0.084,-0.393c-0,-0.281 0.093,-0.758 0.28,-1.431c0.169,-0.767 0.361,-1.529 0.576,-2.287c0.215,-0.757 0.36,-1.173 0.435,-1.248c0.018,-0.038 0.06,-0.141 0.126,-0.309c0.065,-0.168 0.098,-0.346 0.098,-0.533c0.037,-0.168 0.098,-0.36 0.182,-0.575c0.085,-0.215 0.127,-0.341 0.127,-0.379c0.093,-0.075 0.392,-0.814 0.897,-2.216c0,-0.075 0.206,-0.571 0.618,-1.487c0.598,-1.403 0.972,-2.301 1.122,-2.694c0.093,-0.149 0.252,-0.421 0.477,-0.813c0.037,-0.057 0.117,-0.183 0.238,-0.379c0.122,-0.197 0.22,-0.314 0.295,-0.351c0.131,-0.037 0.416,0.056 0.856,0.281c0.439,0.224 0.725,0.439 0.855,0.645c0.019,0.037 0.043,0.079 0.071,0.126c0.028,0.047 0.042,0.098 0.042,0.154c-0,0.094 -0.052,0.262 -0.155,0.506c-0.103,0.243 -0.215,0.491 -0.336,0.743c-0.122,0.253 -0.211,0.444 -0.267,0.575l-0.814,1.684c-0.785,1.72 -1.458,3.394 -2.02,5.022c-0.168,0.523 -0.318,0.944 -0.448,1.262l-0.141,0.618l0.73,-0.814c0.336,-0.337 0.757,-0.683 1.262,-1.038c0.225,-0.15 0.552,-0.318 0.982,-0.505c0.43,-0.187 0.73,-0.3 0.898,-0.337c0.599,-0.15 1.113,-0.224 1.543,-0.224c0.692,-0 1.328,0.495 1.908,1.487c0.168,0.299 0.253,0.682 0.253,1.15c-0,0.337 -0.047,0.673 -0.141,1.01c-0.093,0.337 -0.215,0.636 -0.364,0.898c-0.094,0.075 -0.188,0.173 -0.281,0.294c-0.094,0.122 -0.14,0.22 -0.14,0.295c-0.019,0.112 -0.178,0.365 -0.477,0.758c-0.3,0.392 -0.627,0.785 -0.982,1.178c-0.487,0.505 -1.127,1.01 -1.922,1.515c-0.795,0.505 -1.454,0.851 -1.978,1.038c-0.112,0.019 -0.323,0.051 -0.631,0.098c-0.309,0.047 -0.529,0.089 -0.66,0.127Z" style="fill-rule:nonzero;"/><path d="M150.68,161.054c-0.093,0.019 -0.215,0.028 -0.364,0.028c-0.243,0 -0.44,-0.042 -0.589,-0.126c-0.15,-0.084 -0.328,-0.229 -0.534,-0.435c-0.43,-0.205 -0.804,-0.551 -1.122,-1.038c-0.318,-0.486 -0.458,-0.87 -0.421,-1.15c0.094,-0.898 0.346,-1.875 0.758,-2.932c0.411,-1.057 0.949,-2.011 1.613,-2.862c0.664,-0.851 1.37,-1.445 2.118,-1.781c0.337,-0.131 0.646,-0.197 0.926,-0.197c0.58,0 0.964,0.187 1.151,0.561c0.131,0.262 0.196,0.459 0.196,0.59c-0,0.224 -0.131,0.374 -0.393,0.448c-0.056,0 -0.121,0.028 -0.196,0.085c-0.075,0.056 -0.112,0.112 -0.112,0.168c0.018,0.019 0.102,0.028 0.252,0.028c0.318,0 0.711,-0.047 1.178,-0.14c0.468,-0.094 0.767,-0.197 0.898,-0.309c0.113,-0.056 0.206,-0.084 0.281,-0.084l0.393,0.056c0.318,0.094 0.477,0.206 0.477,0.337c-0,0.093 0.032,0.215 0.098,0.364c0.065,0.15 0.126,0.225 0.182,0.225c0.094,-0 0.14,0.065 0.14,0.196c0,0.113 -0.06,0.257 -0.182,0.435c-0.121,0.178 -0.295,0.351 -0.519,0.519c-0.093,0.056 -0.229,0.141 -0.407,0.253c-0.177,0.112 -0.28,0.205 -0.308,0.28c-0.028,0.075 -0.024,0.178 0.014,0.309c0.074,0.15 0.112,0.337 0.112,0.561c-0,0.636 -0.309,1.38 -0.926,2.231c-0.617,0.851 -1.37,1.603 -2.259,2.258c-0.888,0.655 -1.706,1.029 -2.455,1.122Zm0.085,-2.356c0.112,-0 0.392,-0.113 0.841,-0.337c0.243,-0.243 0.44,-0.393 0.59,-0.449c0.056,0 0.107,-0.051 0.154,-0.154c0.047,-0.103 0.131,-0.262 0.252,-0.477c0.122,-0.215 0.323,-0.501 0.604,-0.856c0.299,-0.337 0.509,-0.608 0.631,-0.814c0.121,-0.205 0.182,-0.411 0.182,-0.617c0,-0.075 -0.019,-0.206 -0.056,-0.393c-0.019,-0.056 -0.079,-0.107 -0.182,-0.154c-0.103,-0.047 -0.201,-0.089 -0.295,-0.126c-0.093,-0 -0.187,0.023 -0.28,0.07c-0.094,0.047 -0.159,0.07 -0.197,0.07c-0.093,0 -0.196,-0.047 -0.308,-0.14l-0.449,-0.561l-0.477,0.477c-0.431,0.43 -0.791,1.01 -1.081,1.739c-0.289,0.73 -0.462,1.394 -0.519,1.992c-0.018,0.262 0.024,0.444 0.127,0.547c0.103,0.103 0.257,0.164 0.463,0.183Z" style="fill-rule:nonzero;"/><path d="M160.136,160.297c-0.468,-0.43 -0.809,-0.809 -1.025,-1.136c-0.215,-0.328 -0.36,-0.819 -0.434,-1.473c-0.057,-0.431 0.023,-1.09 0.238,-1.978c0.215,-0.889 0.5,-1.759 0.856,-2.61c0.355,-0.851 0.701,-1.445 1.038,-1.781c0.411,-0.524 0.879,-0.786 1.403,-0.786c0.206,0 0.383,0.038 0.533,0.112c0.224,0.244 0.337,0.58 0.337,1.01c-0,0.431 -0.113,0.814 -0.337,1.151c-0.356,0.486 -0.674,1.103 -0.954,1.851c-0.281,0.749 -0.468,1.441 -0.561,2.077c-0.112,0.355 -0.169,0.645 -0.169,0.869c0,0.206 0.052,0.356 0.155,0.449c0.103,0.094 0.266,0.141 0.491,0.141c0.486,-0 0.991,-0.337 1.515,-1.01c0.524,-0.674 1,-1.553 1.431,-2.638c0.093,-0.243 0.177,-0.561 0.252,-0.954c0.131,-0.449 0.206,-0.701 0.225,-0.757c0.112,-0.393 0.313,-0.711 0.603,-0.954c0.29,-0.243 0.575,-0.365 0.856,-0.365c0.168,0 0.29,0.038 0.364,0.112c0.561,0.244 0.814,0.664 0.758,1.263c-0,0.411 -0.056,0.771 -0.168,1.08c-0.113,0.309 -0.29,0.706 -0.534,1.193c-0.205,0.355 -0.374,0.701 -0.505,1.038c-0.28,0.654 -0.757,1.379 -1.43,2.174c-0.674,0.795 -1.254,1.295 -1.74,1.501c-0.655,0.412 -1.328,0.617 -2.02,0.617c-0.412,0 -0.804,-0.065 -1.178,-0.196Z" style="fill-rule:nonzero;"/><path d="M172.2,161.447c-0.412,-0.112 -0.945,-0.458 -1.599,-1.038c-0.318,-0.411 -0.505,-0.781 -0.561,-1.108c-0.057,-0.327 -0.085,-0.977 -0.085,-1.95c0,-0.449 0.225,-1.571 0.674,-3.367c0.018,-0.075 0.084,-0.327 0.196,-0.757c0.056,-0.206 -0.019,-0.337 -0.224,-0.393c-0.206,-0.056 -0.496,-0.084 -0.87,-0.084c-0.318,-0 -0.505,-0.019 -0.561,-0.056c-0.056,-0.019 -0.089,-0.103 -0.098,-0.253c-0.01,-0.15 -0.014,-0.253 -0.014,-0.309c-0,-0.056 -0.043,-0.112 -0.127,-0.168c-0.084,-0.056 -0.145,-0.112 -0.182,-0.168c-0.056,-0.075 -0.009,-0.215 0.14,-0.421c0.15,-0.206 0.318,-0.327 0.505,-0.365c0.112,-0.019 0.356,-0.047 0.73,-0.084c0.374,-0.037 0.734,-0.112 1.08,-0.225c0.346,-0.112 0.603,-0.271 0.771,-0.476c0.244,-0.636 0.529,-1.31 0.856,-2.021c0.328,-0.71 0.557,-1.131 0.688,-1.262c0.299,-0.15 0.57,-0.225 0.813,-0.225c0.412,0 0.73,0.169 0.954,0.505c0.056,0.075 0.122,0.15 0.197,0.225c0.074,0.075 0.112,0.159 0.112,0.252c-0,0.131 -0.061,0.337 -0.183,0.618c-0.121,0.28 -0.36,0.738 -0.715,1.374l-0.365,0.702c0.056,0.019 0.187,0.028 0.393,0.028c0.206,-0 0.374,-0.009 0.505,-0.028c0.412,-0.075 0.73,-0.112 0.954,-0.112c0.168,-0 0.29,0.009 0.365,0.028c0.785,-0 1.216,0.43 1.29,1.29c0.038,0.225 -0.042,0.407 -0.238,0.547c-0.197,0.141 -0.538,0.211 -1.024,0.211c-1.927,0.075 -2.899,0.159 -2.918,0.252c-0.094,0.056 -0.243,0.346 -0.449,0.87c-0.206,0.524 -0.374,1.019 -0.505,1.487c-0.225,0.973 -0.337,1.889 -0.337,2.75c0,0.823 0.122,1.356 0.365,1.599c0.075,0.075 0.178,0.112 0.309,0.112c0.336,0 0.813,-0.252 1.431,-0.757c0.205,-0.187 0.43,-0.281 0.673,-0.281c0.206,0 0.369,0.075 0.491,0.224c0.121,0.15 0.182,0.347 0.182,0.59c0,0.28 -0.093,0.551 -0.28,0.813c-0.281,0.431 -0.702,0.786 -1.263,1.066c-0.561,0.281 -1.094,0.421 -1.599,0.421c-0.225,0 -0.384,-0.018 -0.477,-0.056Z" style="fill-rule:nonzero;"/><path d="M198.573,159.006c0.131,0.187 0.197,0.365 0.197,0.533c-0,0.187 -0.066,0.356 -0.197,0.505c-0.131,0.15 -0.243,0.225 -0.336,0.225c-0.449,-0 -0.95,-0.108 -1.502,-0.323c-0.551,-0.215 -0.827,-0.528 -0.827,-0.94l-0,-1.739c-0,-0.748 -0.066,-1.179 -0.197,-1.291c-0.28,-0.149 -0.654,0.061 -1.122,0.631c-0.467,0.571 -1.038,1.417 -1.711,2.54c-0.262,0.411 -0.487,0.706 -0.674,0.883c-0.187,0.178 -0.355,0.267 -0.505,0.267c-0.131,-0 -0.243,-0.038 -0.336,-0.112c-0.58,-0.169 -0.87,-0.496 -0.87,-0.982c-0,-0.056 0.019,-0.178 0.056,-0.365c0.168,-0.58 0.351,-1.225 0.547,-1.936c0.196,-0.711 0.351,-1.319 0.463,-1.824c-0.056,-0.112 -0.15,-0.168 -0.281,-0.168c-0.187,-0 -0.402,0.094 -0.645,0.281c-0.075,0.056 -0.21,0.145 -0.407,0.266c-0.196,0.122 -0.392,0.281 -0.589,0.477c-0.196,0.196 -0.397,0.463 -0.603,0.8c-0.075,0.131 -0.206,0.327 -0.393,0.589c-0.935,1.421 -1.506,2.226 -1.711,2.413c-0.094,0.262 -0.183,0.444 -0.267,0.547c-0.084,0.103 -0.182,0.154 -0.294,0.154c-0.075,0 -0.169,-0.028 -0.281,-0.084c-0.355,-0.168 -0.641,-0.407 -0.856,-0.715c-0.215,-0.309 -0.322,-0.678 -0.322,-1.109c-0,-0.28 0.084,-0.841 0.252,-1.683c0.168,-0.842 0.355,-1.627 0.561,-2.357c0.15,-0.299 0.267,-0.612 0.351,-0.94c0.084,-0.327 0.126,-0.556 0.126,-0.687c0.056,-0.356 0.169,-0.837 0.337,-1.445c0.168,-0.608 0.29,-0.94 0.365,-0.996c0.112,-0.112 0.318,-0.168 0.617,-0.168c0.206,-0 0.402,0.037 0.589,0.112c0.187,0.075 0.318,0.187 0.393,0.336c0.243,0.281 0.365,0.664 0.365,1.151c-0,0.449 -0.094,0.926 -0.281,1.431c-0.187,0.43 -0.421,1.057 -0.701,1.88c-0,-0 0.018,-0.019 0.056,-0.057c0.449,-0.636 1.028,-1.346 1.739,-2.132c0.337,-0.374 0.716,-0.664 1.137,-0.87c0.42,-0.205 0.762,-0.308 1.024,-0.308c0.449,0.075 0.827,0.294 1.136,0.659c0.309,0.365 0.5,0.865 0.575,1.501c0,0.225 -0.019,0.5 -0.056,0.828c-0.037,0.327 -0.066,0.537 -0.084,0.631c0.075,-0.094 0.266,-0.323 0.575,-0.687c0.309,-0.365 0.687,-0.744 1.136,-1.137c0.412,-0.318 0.795,-0.477 1.151,-0.477c0.299,0 0.561,0.122 0.785,0.365c0.412,0.243 0.734,0.636 0.968,1.178c0.234,0.543 0.351,1.16 0.351,1.852c-0,0.243 -0.01,0.43 -0.028,0.561c-0.019,0.131 -0.028,0.318 -0.028,0.561c-0,0.262 0.028,0.51 0.084,0.744c0.056,0.234 0.112,0.444 0.168,0.631Z" style="fill-rule:nonzero;"/><path d="M204.044,161.279c-1.066,-0 -1.926,-0.299 -2.581,-0.898c-0.655,-0.599 -0.982,-1.45 -0.982,-2.553c0,-0.43 0.028,-0.907 0.084,-1.431c0.038,-0.449 0.22,-1.066 0.547,-1.852c0.328,-0.785 0.777,-1.552 1.347,-2.3c0.571,-0.749 1.239,-1.3 2.006,-1.656c0.355,-0.168 0.655,-0.285 0.898,-0.35c0.243,-0.066 0.524,-0.099 0.842,-0.099c0.766,0 1.388,0.141 1.865,0.421c0.477,0.281 0.814,0.599 1.01,0.954c0.197,0.356 0.295,0.664 0.295,0.926l0,0.224c0,0.225 -0.131,0.636 -0.393,1.235c-0.262,0.598 -0.678,1.16 -1.248,1.683c-0.571,0.524 -1.305,0.814 -2.203,0.87c-0.449,0 -0.884,-0.042 -1.304,-0.126c-0.421,-0.084 -0.688,-0.126 -0.8,-0.126c-0.281,-0 -0.458,0.102 -0.533,0.308c-0.075,0.206 -0.112,0.552 -0.112,1.038c0.056,0.524 0.201,0.889 0.435,1.095c0.233,0.205 0.575,0.308 1.024,0.308c0.224,0 0.486,-0.065 0.785,-0.196c0.3,-0.15 0.655,-0.384 1.066,-0.702c0.225,-0.187 0.403,-0.318 0.533,-0.392c0.131,-0.075 0.29,-0.113 0.477,-0.113c0.169,0 0.365,0.113 0.59,0.337c0.224,0.224 0.346,0.44 0.364,0.645c-0.037,0.225 -0.243,0.561 -0.617,1.01c-0.374,0.449 -0.86,0.851 -1.459,1.207c-0.598,0.355 -1.244,0.533 -1.936,0.533Zm0.982,-6.762c0.356,0 0.599,-0.037 0.73,-0.112c0.187,-0.094 0.472,-0.332 0.855,-0.715c0.384,-0.384 0.585,-0.65 0.604,-0.8c-0,-0.187 -0.08,-0.341 -0.239,-0.463c-0.159,-0.122 -0.379,-0.201 -0.659,-0.239l-0.309,0c-0.243,0 -0.594,0.202 -1.052,0.604c-0.458,0.402 -0.856,0.865 -1.192,1.389c0.018,0.093 0.159,0.173 0.421,0.238c0.261,0.065 0.542,0.098 0.841,0.098Z" style="fill-rule:nonzero;"/><path d="M209.179,165.067c-0.356,-0.094 -0.702,-0.295 -1.038,-0.604c-0.337,-0.308 -0.515,-0.603 -0.534,-0.883c0,-0.038 0.005,-0.15 0.014,-0.337c0.01,-0.187 0.052,-0.337 0.127,-0.449c0.018,0.019 0.061,0.042 0.126,0.07c0.065,0.028 0.164,0.042 0.295,0.042c0.149,0 0.28,-0.019 0.392,-0.056c0.356,0.019 0.632,-0.014 0.828,-0.098c0.196,-0.084 0.435,-0.295 0.715,-0.631l0.506,-0.646c0.43,-0.505 0.682,-0.86 0.757,-1.066c0.262,-0.187 0.458,-0.36 0.589,-0.519c0.131,-0.159 0.271,-0.36 0.421,-0.603c0,-0.412 0.168,-0.889 0.505,-1.431c0.243,-0.524 0.421,-0.879 0.533,-1.066c0.225,-0.449 0.337,-0.702 0.337,-0.758c0.019,-0.037 0.051,-0.121 0.098,-0.252c0.047,-0.131 0.061,-0.271 0.042,-0.421c0.112,-0.056 0.211,-0.182 0.295,-0.379c0.084,-0.196 0.117,-0.397 0.098,-0.603c0.019,-0.075 0.107,-0.304 0.266,-0.687c0.159,-0.384 0.248,-0.763 0.267,-1.137c0.299,-0.954 0.496,-1.795 0.589,-2.525c0.094,-0.729 0.187,-1.889 0.281,-3.479l0.056,-1.487c0.019,-0.243 0.028,-0.533 0.028,-0.87c-0,-0.28 -0.019,-0.5 -0.056,-0.659c-0.038,-0.159 -0.112,-0.332 -0.225,-0.519c-0.187,-0.599 -0.346,-0.898 -0.477,-0.898c-0.037,0 -0.074,-0.051 -0.112,-0.154c-0.037,-0.103 -0.056,-0.239 -0.056,-0.407c0,-0.168 0.028,-0.337 0.084,-0.505c-0.018,-0.075 0.117,-0.159 0.407,-0.253c0.29,-0.093 0.519,-0.13 0.687,-0.112c0.113,0 0.248,0.052 0.407,0.155c0.159,0.102 0.276,0.191 0.351,0.266c0.131,-0.131 0.421,0.421 0.87,1.655c0.168,0.375 0.276,0.655 0.322,0.842c0.047,0.187 0.071,0.449 0.071,0.786l-0.057,1.178l-0.056,0.926c-0.018,0.935 -0.103,1.992 -0.252,3.17c-0.15,1.179 -0.328,2.264 -0.533,3.255c-0.243,0.973 -0.669,2.24 -1.277,3.802c-0.608,1.561 -1.052,2.567 -1.333,3.016c0.075,-0.019 -0.243,0.486 -0.953,1.515l-1.095,1.683c-0.449,0.617 -1.019,1.155 -1.711,1.613c-0.692,0.459 -1.225,0.632 -1.599,0.52Z" style="fill-rule:nonzero;"/><g transform="matrix(4.71663,0,0,4.71663,-2558.58,-1588.94)"><g transform="matrix(12,0,0,12,542.127,345.376)"><path d="M0.42,-0.194c-0.007,0.061 -0.03,0.109 -0.07,0.143c-0.038,0.034 -0.086,0.051 -0.142,0.051l-0.17,-0c-0.003,-0 -0.006,-0.001 -0.008,-0.004c-0.002,-0.002 -0.003,-0.005 -0.002,-0.008l0.083,-0.676c0.001,-0.003 0.002,-0.006 0.005,-0.008c0.002,-0.003 0.005,-0.004 0.008,-0.004l0.153,0c0.055,0 0.098,0.013 0.129,0.04c0.031,0.026 0.046,0.064 0.046,0.115c0,0.007 -0.001,0.018 -0.002,0.033c-0.009,0.069 -0.038,0.118 -0.088,0.147c-0.003,0.001 -0.004,0.003 -0.003,0.006c0.041,0.03 0.062,0.075 0.062,0.136c0,0.013 -0,0.022 -0.001,0.029Zm-0.203,-0.406c-0.003,0 -0.005,0.002 -0.005,0.005l-0.023,0.186c0,0.003 0.001,0.005 0.004,0.005l0.05,-0c0.03,-0 0.054,-0.01 0.071,-0.031c0.017,-0.021 0.026,-0.049 0.026,-0.086c0,-0.025 -0.006,-0.045 -0.019,-0.059c-0.013,-0.013 -0.031,-0.02 -0.054,-0.02l-0.05,0Zm-0.006,0.499c0.027,-0 0.048,-0.009 0.066,-0.028c0.016,-0.019 0.027,-0.045 0.032,-0.079c0.001,-0.005 0.001,-0.013 0.001,-0.023c-0,-0.027 -0.006,-0.049 -0.019,-0.065c-0.012,-0.015 -0.029,-0.023 -0.052,-0.023l-0.056,-0c-0.003,-0 -0.005,0.002 -0.006,0.005l-0.025,0.208c-0.001,0.003 -0,0.005 0.004,0.005l0.055,-0Z" style="fill-rule:nonzero;"/></g><g transform="matrix(12,0,0,12,547.371,345.376)"><path d="M0.205,0.008c-0.049,-0 -0.089,-0.015 -0.118,-0.046c-0.029,-0.03 -0.043,-0.071 -0.043,-0.122c-0,-0.007 0.001,-0.018 0.002,-0.034l0.061,-0.494c0.001,-0.003 0.002,-0.006 0.004,-0.009c0.003,-0.002 0.006,-0.003 0.009,-0.003l0.089,0c0.003,0 0.006,0.001 0.008,0.003c0.002,0.003 0.003,0.006 0.002,0.009l-0.062,0.506c-0.001,0.004 -0.001,0.009 -0.001,0.016c-0,0.022 0.005,0.04 0.016,0.053c0.011,0.014 0.026,0.021 0.045,0.021c0.021,-0 0.039,-0.008 0.054,-0.025c0.015,-0.017 0.025,-0.038 0.028,-0.065l0.062,-0.506c0.001,-0.003 0.002,-0.006 0.004,-0.009c0.003,-0.002 0.006,-0.003 0.009,-0.003l0.089,0c0.003,0 0.006,0.001 0.008,0.003c0.002,0.003 0.003,0.006 0.002,0.009l-0.06,0.494c-0.007,0.061 -0.03,0.109 -0.068,0.146c-0.038,0.037 -0.085,0.056 -0.14,0.056Z" style="fill-rule:nonzero;"/></g><g transform="matrix(12,0,0,12,552.783,345.376)"><path d="M0.111,-0.688c0.001,-0.003 0.002,-0.006 0.005,-0.008c0.002,-0.003 0.005,-0.004 0.008,-0.004l0.089,0c0.003,0 0.006,0.001 0.008,0.004c0.002,0.002 0.003,0.005 0.002,0.008l-0.083,0.676c-0.001,0.003 -0.002,0.006 -0.005,0.009c-0.002,0.002 -0.005,0.003 -0.008,0.003l-0.089,0c-0.003,0 -0.006,-0.001 -0.008,-0.003c-0.002,-0.003 -0.003,-0.006 -0.002,-0.009l0.083,-0.676Z" style="fill-rule:nonzero;"/></g><g transform="matrix(12,0,0,12,555.231,345.376)"><path d="M0.111,-0.688c0.001,-0.003 0.002,-0.006 0.005,-0.008c0.002,-0.003 0.005,-0.004 0.008,-0.004l0.089,0c0.003,0 0.006,0.001 0.008,0.004c0.002,0.002 0.003,0.005 0.002,0.008l-0.071,0.583c-0.001,0.003 0,0.005 0.004,0.005l0.209,0c0.007,0 0.011,0.004 0.011,0.012l-0.01,0.076c-0.001,0.003 -0.002,0.006 -0.005,0.009c-0.002,0.002 -0.005,0.003 -0.008,0.003l-0.315,0c-0.003,0 -0.006,-0.001 -0.008,-0.003c-0.002,-0.003 -0.003,-0.006 -0.002,-0.009l0.083,-0.676Z" style="fill-rule:nonzero;"/></g><g transform="matrix(12,0,0,12,559.971,345.376)"><path d="M0.111,-0.688c0.001,-0.003 0.002,-0.006 0.005,-0.008c0.002,-0.003 0.005,-0.004 0.008,-0.004l0.165,0c0.051,0 0.09,0.014 0.119,0.043c0.029,0.029 0.044,0.068 0.044,0.117c0,0.006 -0.001,0.016 -0.002,0.031l-0.04,0.318c-0.007,0.058 -0.029,0.104 -0.067,0.139c-0.038,0.035 -0.085,0.052 -0.14,0.052l-0.165,-0c-0.003,-0 -0.006,-0.001 -0.008,-0.004c-0.002,-0.002 -0.003,-0.005 -0.002,-0.008l0.083,-0.676Zm0.103,0.587c0.021,0 0.04,-0.009 0.055,-0.026c0.015,-0.018 0.025,-0.042 0.03,-0.071l0.037,-0.304c0.001,-0.011 0.002,-0.018 0.002,-0.022c0,-0.023 -0.006,-0.042 -0.017,-0.055c-0.011,-0.014 -0.027,-0.021 -0.047,-0.021l-0.057,0c-0.003,0 -0.005,0.002 -0.005,0.005l-0.06,0.49c-0.001,0.003 -0,0.005 0.004,0.005l0.058,-0.001Z" style="fill-rule:nonzero;"/></g><g transform="matrix(12,0,0,12,565.263,345.376)"><path d="M0.111,-0.688c0.001,-0.003 0.002,-0.006 0.005,-0.008c0.002,-0.003 0.005,-0.004 0.008,-0.004l0.089,0c0.003,0 0.006,0.001 0.008,0.004c0.002,0.002 0.003,0.005 0.002,0.008l-0.083,0.676c-0.001,0.003 -0.002,0.006 -0.005,0.009c-0.002,0.002 -0.005,0.003 -0.008,0.003l-0.089,0c-0.003,0 -0.006,-0.001 -0.008,-0.003c-0.002,-0.003 -0.003,-0.006 -0.002,-0.009l0.083,-0.676Z" style="fill-rule:nonzero;"/></g><g transform="matrix(12,0,0,12,567.711,345.376)"><path d="M0.386,-0.688c0.001,-0.003 0.002,-0.006 0.005,-0.008c0.002,-0.003 0.005,-0.004 0.008,-0.004l0.089,0c0.003,0 0.006,0.001 0.008,0.004c0.002,0.002 0.003,0.005 0.002,0.008l-0.083,0.676c-0.001,0.003 -0.002,0.006 -0.005,0.009c-0.002,0.002 -0.005,0.003 -0.008,0.003l-0.101,0c-0.006,0 -0.01,-0.003 -0.012,-0.01l-0.093,-0.421c0,-0.002 -0.001,-0.003 -0.002,-0.003c-0.002,0.001 -0.003,0.002 -0.003,0.004l-0.051,0.418c-0.001,0.003 -0.002,0.006 -0.004,0.009c-0.003,0.002 -0.006,0.003 -0.009,0.003l-0.089,0c-0.003,0 -0.006,-0.001 -0.008,-0.003c-0.002,-0.003 -0.003,-0.006 -0.002,-0.009l0.083,-0.676c0.001,-0.003 0.002,-0.006 0.005,-0.008c0.002,-0.003 0.005,-0.004 0.008,-0.004l0.101,0c0.006,0 0.01,0.003 0.011,0.01l0.093,0.424c0.001,0.002 0.002,0.003 0.004,0.003c0.001,-0.001 0.002,-0.002 0.002,-0.004l0.051,-0.421Z" style="fill-rule:nonzero;"/></g><g transform="matrix(12,0,0,12,573.447,345.376)"><path d="M0.196,0.008c-0.05,-0 -0.089,-0.014 -0.118,-0.041c-0.029,-0.026 -0.043,-0.063 -0.043,-0.11c0,-0.007 0.001,-0.017 0.002,-0.03l0.043,-0.354c0.007,-0.055 0.029,-0.099 0.066,-0.132c0.037,-0.033 0.083,-0.049 0.138,-0.049c0.05,0 0.09,0.014 0.119,0.042c0.03,0.028 0.045,0.066 0.045,0.113c0,0.006 -0.001,0.015 -0.002,0.027l-0.005,0.039c-0.001,0.003 -0.002,0.006 -0.005,0.009c-0.002,0.002 -0.005,0.003 -0.008,0.003l-0.089,0c-0.007,0 -0.011,-0.004 -0.011,-0.012l0.006,-0.041l0.001,-0.012c0,-0.021 -0.006,-0.037 -0.017,-0.049c-0.011,-0.013 -0.027,-0.019 -0.046,-0.019c-0.021,0 -0.038,0.007 -0.053,0.022c-0.015,0.015 -0.024,0.034 -0.027,0.058l-0.044,0.356c-0.001,0.003 -0.001,0.008 -0.001,0.014c0,0.02 0.006,0.036 0.017,0.048c0.011,0.012 0.025,0.018 0.044,0.018c0.022,0 0.04,-0.007 0.055,-0.022c0.015,-0.015 0.024,-0.034 0.027,-0.058l0.012,-0.096c0,-0.003 -0.002,-0.005 -0.005,-0.005l-0.058,0c-0.003,0 -0.006,-0.001 -0.008,-0.004c-0.002,-0.002 -0.003,-0.005 -0.002,-0.008l0.009,-0.073c0.001,-0.003 0.002,-0.006 0.005,-0.008c0.002,-0.003 0.005,-0.004 0.008,-0.004l0.164,0c0.003,0 0.006,0.001 0.008,0.004c0.002,0.002 0.003,0.005 0.002,0.008l-0.023,0.185c-0.007,0.055 -0.029,0.099 -0.067,0.132c-0.037,0.033 -0.084,0.049 -0.139,0.049Z" style="fill-rule:nonzero;"/></g><g transform="matrix(12,0,0,12,580.971,345.376)"><path d="M0.452,-0.7c0.003,0 0.006,0.001 0.008,0.004c0.002,0.002 0.003,0.005 0.002,0.008l-0.01,0.076c0,0.003 -0.001,0.006 -0.004,0.009c-0.003,0.002 -0.006,0.003 -0.009,0.003l-0.123,0c-0.003,0 -0.005,0.002 -0.005,0.005l-0.072,0.583c-0.001,0.003 -0.002,0.006 -0.005,0.009c-0.002,0.002 -0.005,0.003 -0.008,0.003l-0.089,0c-0.003,0 -0.006,-0.001 -0.008,-0.003c-0.002,-0.003 -0.003,-0.006 -0.002,-0.009l0.071,-0.583c0.001,-0.003 0,-0.005 -0.004,-0.005l-0.117,0c-0.007,0 -0.011,-0.004 -0.011,-0.012l0.01,-0.076c0.001,-0.003 0.002,-0.006 0.005,-0.008c0.002,-0.003 0.005,-0.004 0.008,-0.004l0.363,0Z" style="fill-rule:nonzero;"/></g><g transform="matrix(12,0,0,12,585.855,345.376)"><path d="M0.356,-0.688c0.001,-0.003 0.002,-0.006 0.005,-0.008c0.002,-0.003 0.005,-0.004 0.008,-0.004l0.089,0c0.007,0 0.011,0.004 0.011,0.012l-0.083,0.676c-0.001,0.003 -0.002,0.006 -0.005,0.009c-0.003,0.002 -0.006,0.003 -0.009,0.003l-0.089,0c-0.003,0 -0.006,-0.001 -0.008,-0.003c-0.002,-0.003 -0.003,-0.006 -0.002,-0.009l0.035,-0.283c0,-0.003 -0.001,-0.005 -0.004,-0.005l-0.124,0c-0.003,0 -0.005,0.002 -0.005,0.005l-0.035,0.283c-0.001,0.003 -0.002,0.006 -0.004,0.009c-0.003,0.002 -0.006,0.003 -0.009,0.003l-0.089,0c-0.003,0 -0.006,-0.001 -0.008,-0.003c-0.002,-0.003 -0.003,-0.006 -0.002,-0.009l0.083,-0.676c0.001,-0.003 0.002,-0.006 0.005,-0.008c0.002,-0.003 0.005,-0.004 0.008,-0.004l0.089,0c0.003,0 0.006,0.001 0.008,0.004c0.002,0.002 0.003,0.005 0.002,0.008l-0.034,0.282c-0.001,0.003 0,0.005 0.004,0.005l0.123,0c0.003,0 0.005,-0.002 0.005,-0.005l0.035,-0.282Z" style="fill-rule:nonzero;"/></g><g transform="matrix(12,0,0,12,591.243,345.376)"><path d="M0.111,-0.688c0.001,-0.003 0.002,-0.006 0.005,-0.008c0.002,-0.003 0.005,-0.004 0.008,-0.004l0.089,0c0.003,0 0.006,0.001 0.008,0.004c0.002,0.002 0.003,0.005 0.002,0.008l-0.083,0.676c-0.001,0.003 -0.002,0.006 -0.005,0.009c-0.002,0.002 -0.005,0.003 -0.008,0.003l-0.089,0c-0.003,0 -0.006,-0.001 -0.008,-0.003c-0.002,-0.003 -0.003,-0.006 -0.002,-0.009l0.083,-0.676Z" style="fill-rule:nonzero;"/></g><g transform="matrix(12,0,0,12,593.691,345.376)"><path d="M0.386,-0.688c0.001,-0.003 0.002,-0.006 0.005,-0.008c0.002,-0.003 0.005,-0.004 0.008,-0.004l0.089,0c0.003,0 0.006,0.001 0.008,0.004c0.002,0.002 0.003,0.005 0.002,0.008l-0.083,0.676c-0.001,0.003 -0.002,0.006 -0.005,0.009c-0.002,0.002 -0.005,0.003 -0.008,0.003l-0.101,0c-0.006,0 -0.01,-0.003 -0.012,-0.01l-0.093,-0.421c0,-0.002 -0.001,-0.003 -0.002,-0.003c-0.002,0.001 -0.003,0.002 -0.003,0.004l-0.051,0.418c-0.001,0.003 -0.002,0.006 -0.004,0.009c-0.003,0.002 -0.006,0.003 -0.009,0.003l-0.089,0c-0.003,0 -0.006,-0.001 -0.008,-0.003c-0.002,-0.003 -0.003,-0.006 -0.002,-0.009l0.083,-0.676c0.001,-0.003 0.002,-0.006 0.005,-0.008c0.002,-0.003 0.005,-0.004 0.008,-0.004l0.101,0c0.006,0 0.01,0.003 0.011,0.01l0.093,0.424c0.001,0.002 0.002,0.003 0.004,0.003c0.001,-0.001 0.002,-0.002 0.002,-0.004l0.051,-0.421Z" style="fill-rule:nonzero;"/></g><g transform="matrix(12,0,0,12,599.427,345.376)"><path d="M0.196,0.008c-0.05,-0 -0.089,-0.014 -0.118,-0.041c-0.029,-0.026 -0.043,-0.063 -0.043,-0.11c0,-0.007 0.001,-0.017 0.002,-0.03l0.043,-0.354c0.007,-0.055 0.029,-0.099 0.066,-0.132c0.037,-0.033 0.083,-0.049 0.138,-0.049c0.05,0 0.09,0.014 0.119,0.042c0.03,0.028 0.045,0.066 0.045,0.113c0,0.006 -0.001,0.015 -0.002,0.027l-0.005,0.039c-0.001,0.003 -0.002,0.006 -0.005,0.009c-0.002,0.002 -0.005,0.003 -0.008,0.003l-0.089,0c-0.007,0 -0.011,-0.004 -0.011,-0.012l0.006,-0.041l0.001,-0.012c0,-0.021 -0.006,-0.037 -0.017,-0.049c-0.011,-0.013 -0.027,-0.019 -0.046,-0.019c-0.021,0 -0.038,0.007 -0.053,0.022c-0.015,0.015 -0.024,0.034 -0.027,0.058l-0.044,0.356c-0.001,0.003 -0.001,0.008 -0.001,0.014c0,0.02 0.006,0.036 0.017,0.048c0.011,0.012 0.025,0.018 0.044,0.018c0.022,0 0.04,-0.007 0.055,-0.022c0.015,-0.015 0.024,-0.034 0.027,-0.058l0.012,-0.096c0,-0.003 -0.002,-0.005 -0.005,-0.005l-0.058,0c-0.003,0 -0.006,-0.001 -0.008,-0.004c-0.002,-0.002 -0.003,-0.005 -0.002,-0.008l0.009,-0.073c0.001,-0.003 0.002,-0.006 0.005,-0.008c0.002,-0.003 0.005,-0.004 0.008,-0.004l0.164,0c0.003,0 0.006,0.001 0.008,0.004c0.002,0.002 0.003,0.005 0.002,0.008l-0.023,0.185c-0.007,0.055 -0.029,0.099 -0.067,0.132c-0.037,0.033 -0.084,0.049 -0.139,0.049Z" style="fill-rule:nonzero;"/></g><g transform="matrix(12,0,0,12,604.623,345.376)"><path d="M0.181,0.008c-0.049,-0 -0.087,-0.014 -0.116,-0.042c-0.029,-0.028 -0.043,-0.065 -0.043,-0.112c0,-0.006 0.001,-0.015 0.002,-0.027l0.003,-0.026c0.001,-0.003 0.002,-0.006 0.005,-0.008c0.002,-0.003 0.005,-0.004 0.008,-0.004l0.089,0c0.003,0 0.006,0.001 0.008,0.004c0.002,0.002 0.003,0.005 0.002,0.008l-0.003,0.02c-0.001,0.003 -0.001,0.009 -0.001,0.016c0,0.022 0.005,0.039 0.016,0.052c0.011,0.013 0.025,0.019 0.043,0.019c0.019,0 0.037,-0.007 0.052,-0.022c0.015,-0.015 0.024,-0.035 0.027,-0.06l0.001,-0.012c0,-0.021 -0.006,-0.038 -0.019,-0.053c-0.012,-0.015 -0.035,-0.036 -0.069,-0.065c-0.027,-0.022 -0.048,-0.041 -0.065,-0.057c-0.016,-0.017 -0.029,-0.036 -0.04,-0.059c-0.011,-0.023 -0.017,-0.049 -0.017,-0.078c0,-0.041 0.009,-0.078 0.027,-0.11c0.017,-0.032 0.041,-0.057 0.072,-0.074c0.03,-0.017 0.064,-0.026 0.101,-0.026c0.049,0 0.087,0.014 0.116,0.043c0.029,0.029 0.043,0.067 0.043,0.115c0,0.007 -0.001,0.017 -0.002,0.03l-0.003,0.024c-0.001,0.003 -0.002,0.006 -0.005,0.009c-0.002,0.002 -0.005,0.003 -0.008,0.003l-0.088,0c-0.003,0 -0.006,-0.001 -0.008,-0.004c-0.002,-0.002 -0.003,-0.005 -0.002,-0.008l0.003,-0.026c0.001,-0.004 0.001,-0.01 0.001,-0.017c0,-0.021 -0.005,-0.038 -0.016,-0.05c-0.011,-0.013 -0.025,-0.019 -0.043,-0.019c-0.019,0 -0.036,0.007 -0.05,0.022c-0.014,0.014 -0.023,0.034 -0.026,0.059c-0.001,0.003 -0.001,0.008 -0.001,0.014c0,0.019 0.006,0.037 0.018,0.052c0.012,0.016 0.034,0.037 0.065,0.064c0.032,0.027 0.057,0.049 0.074,0.066c0.017,0.017 0.031,0.036 0.04,0.055c0.009,0.02 0.014,0.042 0.014,0.067c0,0.006 -0.001,0.016 -0.002,0.029c-0.007,0.057 -0.029,0.102 -0.066,0.137c-0.038,0.034 -0.084,0.051 -0.137,0.051Z" style="fill-rule:nonzero;"/></g><g transform="matrix(12,0,0,12,542.127,357.376)"><path d="M0.42,-0.194c-0.007,0.061 -0.03,0.109 -0.07,0.143c-0.038,0.034 -0.086,0.051 -0.142,0.051l-0.17,-0c-0.003,-0 -0.006,-0.001 -0.008,-0.004c-0.002,-0.002 -0.003,-0.005 -0.002,-0.008l0.083,-0.676c0.001,-0.003 0.002,-0.006 0.005,-0.008c0.002,-0.003 0.005,-0.004 0.008,-0.004l0.153,0c0.055,0 0.098,0.013 0.129,0.04c0.031,0.026 0.046,0.064 0.046,0.115c0,0.007 -0.001,0.018 -0.002,0.033c-0.009,0.069 -0.038,0.118 -0.088,0.147c-0.003,0.001 -0.004,0.003 -0.003,0.006c0.041,0.03 0.062,0.075 0.062,0.136c0,0.013 -0,0.022 -0.001,0.029Zm-0.203,-0.406c-0.003,0 -0.005,0.002 -0.005,0.005l-0.023,0.186c0,0.003 0.001,0.005 0.004,0.005l0.05,-0c0.03,-0 0.054,-0.01 0.071,-0.031c0.017,-0.021 0.026,-0.049 0.026,-0.086c0,-0.025 -0.006,-0.045 -0.019,-0.059c-0.013,-0.013 -0.031,-0.02 -0.054,-0.02l-0.05,0Zm-0.006,0.499c0.027,-0 0.048,-0.009 0.066,-0.028c0.016,-0.019 0.027,-0.045 0.032,-0.079c0.001,-0.005 0.001,-0.013 0.001,-0.023c-0,-0.027 -0.006,-0.049 -0.019,-0.065c-0.012,-0.015 -0.029,-0.023 -0.052,-0.023l-0.056,-0c-0.003,-0 -0.005,0.002 -0.006,0.005l-0.025,0.208c-0.001,0.003 -0,0.005 0.004,0.005l0.055,-0Z" style="fill-rule:nonzero;"/></g><g transform="matrix(12,0,0,12,547.371,357.376)"><path d="M0.295,-0c-0.006,-0 -0.01,-0.003 -0.012,-0.01l-0.047,-0.287c0,-0.003 -0.001,-0.004 -0.004,-0.004l-0.051,0c-0.004,0 -0.006,0.002 -0.006,0.005l-0.035,0.284c-0.001,0.003 -0.002,0.006 -0.004,0.009c-0.003,0.002 -0.006,0.003 -0.009,0.003l-0.089,0c-0.003,0 -0.006,-0.001 -0.008,-0.003c-0.002,-0.003 -0.003,-0.006 -0.002,-0.009l0.083,-0.676c0.001,-0.003 0.002,-0.006 0.005,-0.008c0.002,-0.003 0.005,-0.004 0.008,-0.004l0.182,0c0.046,0 0.083,0.015 0.11,0.046c0.027,0.031 0.041,0.071 0.041,0.122c0,0.016 -0.001,0.028 -0.002,0.036c-0.005,0.041 -0.017,0.076 -0.036,0.107c-0.02,0.031 -0.045,0.054 -0.074,0.069c-0.003,0.001 -0.004,0.003 -0.004,0.006l0.057,0.3l0,0.004c0,0.007 -0.004,0.01 -0.011,0.01l-0.092,0Zm-0.078,-0.6c-0.003,0 -0.005,0.002 -0.005,0.005l-0.025,0.199c0,0.003 0.002,0.005 0.005,0.005l0.058,-0c0.027,-0 0.049,-0.012 0.067,-0.035c0.017,-0.023 0.026,-0.053 0.026,-0.091c0,-0.026 -0.006,-0.046 -0.018,-0.061c-0.012,-0.015 -0.029,-0.022 -0.05,-0.022l-0.058,-0Z" style="fill-rule:nonzero;"/></g><g transform="matrix(12,0,0,12,552.615,357.376)"><path d="M0.111,-0.688c0.001,-0.003 0.002,-0.006 0.005,-0.008c0.002,-0.003 0.005,-0.004 0.008,-0.004l0.089,0c0.003,0 0.006,0.001 0.008,0.004c0.002,0.002 0.003,0.005 0.002,0.008l-0.083,0.676c-0.001,0.003 -0.002,0.006 -0.005,0.009c-0.002,0.002 -0.005,0.003 -0.008,0.003l-0.089,0c-0.003,0 -0.006,-0.001 -0.008,-0.003c-0.002,-0.003 -0.003,-0.006 -0.002,-0.009l0.083,-0.676Z" style="fill-rule:nonzero;"/></g><g transform="matrix(12,0,0,12,555.063,357.376)"><path d="M0.386,-0.688c0.001,-0.003 0.002,-0.006 0.005,-0.008c0.002,-0.003 0.005,-0.004 0.008,-0.004l0.089,0c0.003,0 0.006,0.001 0.008,0.004c0.002,0.002 0.003,0.005 0.002,0.008l-0.083,0.676c-0.001,0.003 -0.002,0.006 -0.005,0.009c-0.002,0.002 -0.005,0.003 -0.008,0.003l-0.101,0c-0.006,0 -0.01,-0.003 -0.012,-0.01l-0.093,-0.421c0,-0.002 -0.001,-0.003 -0.002,-0.003c-0.002,0.001 -0.003,0.002 -0.003,0.004l-0.051,0.418c-0.001,0.003 -0.002,0.006 -0.004,0.009c-0.003,0.002 -0.006,0.003 -0.009,0.003l-0.089,0c-0.003,0 -0.006,-0.001 -0.008,-0.003c-0.002,-0.003 -0.003,-0.006 -0.002,-0.009l0.083,-0.676c0.001,-0.003 0.002,-0.006 0.005,-0.008c0.002,-0.003 0.005,-0.004 0.008,-0.004l0.101,0c0.006,0 0.01,0.003 0.011,0.01l0.093,0.424c0.001,0.002 0.002,0.003 0.004,0.003c0.001,-0.001 0.002,-0.002 0.002,-0.004l0.051,-0.421Z" style="fill-rule:nonzero;"/></g><g transform="matrix(12,0,0,12,560.799,357.376)"><path d="M0.196,0.008c-0.05,-0 -0.089,-0.014 -0.118,-0.041c-0.029,-0.026 -0.043,-0.063 -0.043,-0.11c0,-0.007 0.001,-0.017 0.002,-0.03l0.043,-0.354c0.007,-0.055 0.029,-0.099 0.066,-0.132c0.037,-0.033 0.083,-0.049 0.138,-0.049c0.05,0 0.09,0.014 0.119,0.042c0.03,0.028 0.045,0.066 0.045,0.113c0,0.006 -0.001,0.015 -0.002,0.027l-0.005,0.039c-0.001,0.003 -0.002,0.006 -0.005,0.009c-0.002,0.002 -0.005,0.003 -0.008,0.003l-0.089,0c-0.007,0 -0.011,-0.004 -0.011,-0.012l0.006,-0.041l0.001,-0.012c0,-0.021 -0.006,-0.037 -0.017,-0.049c-0.011,-0.013 -0.027,-0.019 -0.046,-0.019c-0.021,0 -0.038,0.007 -0.053,0.022c-0.015,0.015 -0.024,0.034 -0.027,0.058l-0.044,0.356c-0.001,0.003 -0.001,0.008 -0.001,0.014c0,0.02 0.006,0.036 0.017,0.048c0.011,0.012 0.025,0.018 0.044,0.018c0.022,0 0.04,-0.007 0.055,-0.022c0.015,-0.015 0.024,-0.034 0.027,-0.058l0.012,-0.096c0,-0.003 -0.002,-0.005 -0.005,-0.005l-0.058,0c-0.003,0 -0.006,-0.001 -0.008,-0.004c-0.002,-0.002 -0.003,-0.005 -0.002,-0.008l0.009,-0.073c0.001,-0.003 0.002,-0.006 0.005,-0.008c0.002,-0.003 0.005,-0.004 0.008,-0.004l0.164,0c0.003,0 0.006,0.001 0.008,0.004c0.002,0.002 0.003,0.005 0.002,0.008l-0.023,0.185c-0.007,0.055 -0.029,0.099 -0.067,0.132c-0.037,0.033 -0.084,0.049 -0.139,0.049Z" style="fill-rule:nonzero;"/></g><g transform="matrix(12,0,0,12,565.995,357.376)"><path d="M0.181,0.008c-0.049,-0 -0.087,-0.014 -0.116,-0.042c-0.029,-0.028 -0.043,-0.065 -0.043,-0.112c0,-0.006 0.001,-0.015 0.002,-0.027l0.003,-0.026c0.001,-0.003 0.002,-0.006 0.005,-0.008c0.002,-0.003 0.005,-0.004 0.008,-0.004l0.089,0c0.003,0 0.006,0.001 0.008,0.004c0.002,0.002 0.003,0.005 0.002,0.008l-0.003,0.02c-0.001,0.003 -0.001,0.009 -0.001,0.016c0,0.022 0.005,0.039 0.016,0.052c0.011,0.013 0.025,0.019 0.043,0.019c0.019,0 0.037,-0.007 0.052,-0.022c0.015,-0.015 0.024,-0.035 0.027,-0.06l0.001,-0.012c0,-0.021 -0.006,-0.038 -0.019,-0.053c-0.012,-0.015 -0.035,-0.036 -0.069,-0.065c-0.027,-0.022 -0.048,-0.041 -0.065,-0.057c-0.016,-0.017 -0.029,-0.036 -0.04,-0.059c-0.011,-0.023 -0.017,-0.049 -0.017,-0.078c0,-0.041 0.009,-0.078 0.027,-0.11c0.017,-0.032 0.041,-0.057 0.072,-0.074c0.03,-0.017 0.064,-0.026 0.101,-0.026c0.049,0 0.087,0.014 0.116,0.043c0.029,0.029 0.043,0.067 0.043,0.115c0,0.007 -0.001,0.017 -0.002,0.03l-0.003,0.024c-0.001,0.003 -0.002,0.006 -0.005,0.009c-0.002,0.002 -0.005,0.003 -0.008,0.003l-0.088,0c-0.003,0 -0.006,-0.001 -0.008,-0.004c-0.002,-0.002 -0.003,-0.005 -0.002,-0.008l0.003,-0.026c0.001,-0.004 0.001,-0.01 0.001,-0.017c0,-0.021 -0.005,-0.038 -0.016,-0.05c-0.011,-0.013 -0.025,-0.019 -0.043,-0.019c-0.019,0 -0.036,0.007 -0.05,0.022c-0.014,0.014 -0.023,0.034 -0.026,0.059c-0.001,0.003 -0.001,0.008 -0.001,0.014c0,0.019 0.006,0.037 0.018,0.052c0.012,0.016 0.034,0.037 0.065,0.064c0.032,0.027 0.057,0.049 0.074,0.066c0.017,0.017 0.031,0.036 0.04,0.055c0.009,0.02 0.014,0.042 0.014,0.067c0,0.006 -0.001,0.016 -0.002,0.029c-0.007,0.057 -0.029,0.102 -0.066,0.137c-0.038,0.034 -0.084,0.051 -0.137,0.051Z" style="fill-rule:nonzero;"/></g><g transform="matrix(12,0,0,12,573.135,357.376)"><path d="M0.419,-0.692c0.003,-0.005 0.008,-0.008 0.015,-0.008l0.089,0c0.007,0 0.011,0.004 0.011,0.012l-0.083,0.676c-0.001,0.003 -0.002,0.006 -0.005,0.009c-0.003,0.002 -0.006,0.003 -0.009,0.003l-0.089,0c-0.003,0 -0.006,-0.001 -0.008,-0.003c-0.002,-0.003 -0.003,-0.006 -0.002,-0.009l0.058,-0.472c0.001,-0.003 0,-0.004 -0.001,-0.004c-0.002,0 -0.004,0.001 -0.005,0.003l-0.103,0.158c-0.004,0.005 -0.007,0.008 -0.01,0.008c-0.001,0 -0.003,-0.001 -0.004,-0.002c-0.002,-0.001 -0.003,-0.003 -0.004,-0.006l-0.065,-0.158c-0.001,-0.002 -0.002,-0.003 -0.003,-0.003c-0.001,0 -0.002,0.001 -0.003,0.004l-0.058,0.472c-0.001,0.003 -0.002,0.006 -0.004,0.009c-0.003,0.002 -0.006,0.003 -0.009,0.003l-0.089,0c-0.003,0 -0.006,-0.001 -0.008,-0.003c-0.002,-0.003 -0.003,-0.006 -0.002,-0.009l0.083,-0.676c0.001,-0.003 0.002,-0.006 0.005,-0.008c0.002,-0.003 0.005,-0.004 0.008,-0.004l0.089,0c0.006,0 0.011,0.003 0.014,0.008l0.073,0.171c0.001,0.003 0.003,0.003 0.006,0l0.113,-0.171Z" style="fill-rule:nonzero;"/></g><g transform="matrix(12,0,0,12,579.291,357.376)"><path d="M0.44,-0.612c-0.001,0.003 -0.002,0.006 -0.005,0.008c-0.002,0.003 -0.005,0.004 -0.008,0.004l-0.21,0c-0.003,0 -0.005,0.002 -0.005,0.005l-0.023,0.189c-0.001,0.003 0,0.005 0.004,0.005l0.124,-0c0.003,-0 0.006,0.001 0.008,0.003c0.002,0.003 0.003,0.006 0.002,0.009l-0.009,0.077c-0.001,0.003 -0.002,0.006 -0.005,0.008c-0.002,0.003 -0.005,0.004 -0.008,0.004l-0.125,-0c-0.003,-0 -0.005,0.002 -0.005,0.005l-0.023,0.19c-0.001,0.003 0,0.005 0.004,0.005l0.209,-0c0.007,-0 0.011,0.004 0.011,0.012l-0.01,0.076c-0.001,0.003 -0.002,0.006 -0.005,0.008c-0.002,0.003 -0.005,0.004 -0.008,0.004l-0.315,-0c-0.003,-0 -0.006,-0.001 -0.008,-0.004c-0.002,-0.002 -0.003,-0.005 -0.002,-0.008l0.083,-0.676c0.001,-0.003 0.002,-0.006 0.005,-0.009c0.002,-0.002 0.005,-0.003 0.008,-0.003l0.315,0c0.003,0 0.006,0.001 0.008,0.003c0.002,0.003 0.003,0.006 0.002,0.009l-0.009,0.076Z" style="fill-rule:nonzero;"/></g><g transform="matrix(12,0,0,12,586.455,357.376)"><path d="M0.177,0.008c-0.049,-0 -0.087,-0.014 -0.116,-0.042c-0.029,-0.027 -0.044,-0.065 -0.044,-0.112c0,-0.006 0.001,-0.015 0.002,-0.027l0.009,-0.074c0.001,-0.003 0.002,-0.006 0.005,-0.009c0.003,-0.002 0.006,-0.003 0.009,-0.003l0.089,0c0.003,0 0.006,0.001 0.008,0.004c0.002,0.002 0.003,0.005 0.002,0.008l-0.009,0.076c-0.001,0.003 -0.001,0.008 -0.001,0.014c0,0.02 0.005,0.036 0.016,0.047c0.011,0.012 0.025,0.018 0.043,0.018c0.02,-0 0.037,-0.007 0.052,-0.022c0.014,-0.015 0.022,-0.034 0.025,-0.057l0.064,-0.517c0.001,-0.003 0.002,-0.006 0.005,-0.009c0.002,-0.002 0.005,-0.003 0.008,-0.003l0.089,0c0.003,0 0.006,0.001 0.008,0.003c0.002,0.003 0.003,0.006 0.002,0.009l-0.063,0.515c-0.007,0.055 -0.029,0.098 -0.066,0.131c-0.037,0.033 -0.083,0.05 -0.137,0.05Z" style="fill-rule:nonzero;"/></g><g transform="matrix(12,0,0,12,591.507,357.376)"><path d="M0.2,0.008c-0.051,-0 -0.091,-0.014 -0.12,-0.043c-0.029,-0.029 -0.044,-0.068 -0.044,-0.117c-0,-0.005 0.001,-0.015 0.002,-0.03l0.041,-0.336c0.007,-0.057 0.029,-0.103 0.067,-0.138c0.039,-0.035 0.086,-0.052 0.142,-0.052c0.051,0 0.091,0.015 0.12,0.044c0.03,0.029 0.045,0.067 0.045,0.116c0,0.007 -0.001,0.017 -0.002,0.03l-0.042,0.336c-0.007,0.057 -0.029,0.103 -0.068,0.138c-0.038,0.035 -0.085,0.052 -0.141,0.052Zm0.012,-0.1c0.022,-0 0.041,-0.008 0.056,-0.024c0.015,-0.015 0.025,-0.036 0.028,-0.061l0.043,-0.346c0.001,-0.003 0.001,-0.008 0.001,-0.014c0,-0.022 -0.006,-0.039 -0.018,-0.052c-0.011,-0.013 -0.027,-0.019 -0.047,-0.019c-0.022,0 -0.041,0.008 -0.056,0.024c-0.015,0.015 -0.024,0.036 -0.027,0.061l-0.042,0.346c-0.001,0.003 -0.001,0.008 -0.001,0.015c-0,0.021 0.005,0.038 0.016,0.051c0.011,0.013 0.027,0.019 0.047,0.019Z" style="fill-rule:nonzero;"/></g><g transform="matrix(12,0,0,12,596.535,357.376)"><path d="M0.166,-0.292l-0.086,-0.394l0,-0.002c0,-0.008 0.004,-0.012 0.012,-0.012l0.093,0c0.007,0 0.011,0.003 0.012,0.01l0.041,0.257c0.001,0.002 0.002,0.003 0.003,0.003c0.001,-0 0.002,-0.001 0.003,-0.003l0.105,-0.257c0.001,-0.003 0.002,-0.005 0.005,-0.007c0.003,-0.002 0.006,-0.003 0.009,-0.003l0.093,0c0.004,0 0.007,0.001 0.008,0.003c0.002,0.003 0.002,0.006 -0,0.011l-0.184,0.394l-0.001,0.006l-0.034,0.273c-0.001,0.003 -0.002,0.006 -0.005,0.008c-0.002,0.003 -0.005,0.004 -0.008,0.004l-0.089,-0c-0.003,-0 -0.006,-0.001 -0.008,-0.004c-0.002,-0.002 -0.003,-0.005 -0.002,-0.008l0.033,-0.273l-0,-0.006Z" style="fill-rule:nonzero;"/></g><g transform="matrix(12,0,0,12,601.575,357.376)"><path d="M0.108,-0.688c0.001,-0.003 0.002,-0.006 0.005,-0.008c0.002,-0.003 0.005,-0.004 0.008,-0.004l0.089,0c0.003,0 0.006,0.001 0.008,0.004c0.002,0.002 0.003,0.005 0.002,0.008l-0.064,0.44c-0.001,0.003 -0.002,0.006 -0.005,0.009c-0.003,0.002 -0.006,0.003 -0.009,0.003l-0.066,0c-0.007,0 -0.011,-0.004 -0.011,-0.012l0.043,-0.44Zm-0.027,0.686c-0.019,0 -0.033,-0.006 -0.044,-0.017c-0.011,-0.011 -0.017,-0.026 -0.017,-0.044c0,-0.023 0.008,-0.042 0.023,-0.057c0.015,-0.015 0.033,-0.023 0.055,-0.023c0.018,0 0.033,0.005 0.043,0.016c0.012,0.011 0.017,0.026 0.017,0.043c0,0.023 -0.007,0.043 -0.022,0.058c-0.015,0.016 -0.034,0.024 -0.055,0.024Z" style="fill-rule:nonzero;"/></g></g></svg>