<?xml version="1.0" encoding="UTF-8" standalone="no"?>
<!DOCTYPE svg PUBLIC "-//W3C//DTD SVG 1.1//EN" "http://www.w3.org/Graphics/SVG/1.1/DTD/svg11.dtd">
<svg width="100%" height="100%" viewBox="0 0 454 208" version="1.1" xmlns="http://www.w3.org/2000/svg" xmlns:xlink="http://www.w3.org/1999/xlink" xml:space="preserve" xmlns:serif="http://www.serif.com/" style="fill-rule:evenodd;clip-rule:evenodd;stroke-linejoin:round;stroke-miterlimit:2;">
    <g transform="matrix(1,0,0,1,-245.648,-260.745)">
        <g transform="matrix(1.38951,0,0,0.847438,-88.6553,70.0816)">
            <path d="M391.652,454.142C391.121,454.142 390.69,453.435 390.69,452.564C390.69,451.693 391.121,450.986 391.652,450.986L399.971,450.986C407.247,450.986 413.948,444.5 417.464,434.054L434.286,384.073C438.9,370.363 447.695,361.85 457.245,361.85L463.119,361.85C463.65,361.85 464.081,362.558 464.081,363.429C464.081,364.3 463.65,365.007 463.119,365.007L457.245,365.007C448.396,365.007 440.247,372.894 435.971,385.598L419.149,435.579C415.295,447.031 407.948,454.142 399.971,454.142L391.652,454.142Z" style="fill:rgb(203,203,203);"/>
        </g>
        <g transform="matrix(1.38951,0,0,0.447501,-88.6553,208.837)">
            <path d="M391.652,455.552C391.121,455.552 390.69,454.213 390.69,452.564C390.69,450.914 391.121,449.575 391.652,449.575L403.928,449.575C409.074,449.575 414.023,443.409 417.741,432.36L434.343,383.034C439.223,368.534 445.717,360.44 452.472,360.44L463.119,360.44C463.65,360.44 464.081,361.779 464.081,363.429C464.081,365.078 463.65,366.417 463.119,366.417L452.472,366.417C446.213,366.417 440.196,373.917 435.673,387.353L419.072,436.679C414.995,448.791 409.57,455.552 403.928,455.552L391.652,455.552Z" style="fill:rgb(203,203,203);"/>
        </g>
        <g transform="matrix(1.38951,0,0,0.447501,-88.6553,202.446)">
            <path d="M391.652,365.574C391.121,365.574 390.69,364.235 390.69,362.586C390.69,360.936 391.121,359.597 391.652,359.597L463.119,360.44C463.65,360.44 464.081,361.779 464.081,363.429C464.081,365.078 463.65,366.417 463.119,366.417L391.652,365.574Z" style="fill:rgb(203,203,203);"/>
        </g>
        <g transform="matrix(1.38951,0,0,-0.416641,-88.6553,509.54)">
            <path d="M391.652,449.354C391.121,449.354 390.69,450.792 390.69,452.564C390.69,454.335 391.121,455.774 391.652,455.774L404.358,455.774C409.731,455.774 414.917,449.187 418.929,437.266L435.79,387.168C440.241,373.945 445.993,366.638 451.954,366.638L463.119,366.638C463.65,366.638 464.081,365.2 464.081,363.429C464.081,361.657 463.65,360.219 463.119,360.219L451.954,360.219C445.521,360.219 439.313,368.104 434.51,382.374L417.648,432.473C413.989,443.346 409.259,449.354 404.358,449.354L391.652,449.354Z" style="fill:rgb(203,203,203);"/>
        </g>
        <g transform="matrix(1.38951,-1.02544e-16,8.26641e-17,-0.828313,-88.6553,652.211)">
            <path d="M391.652,450.949C391.121,450.949 390.69,451.673 390.69,452.564C390.69,453.455 391.121,454.178 391.652,454.178L400.107,454.178C408.009,454.178 415.298,447.04 419.182,435.498L435.921,385.764C440.23,372.961 448.316,365.043 457.08,365.043L463.119,365.043C463.65,365.043 464.081,364.32 464.081,363.429C464.081,362.537 463.65,361.814 463.119,361.814L457.08,361.814C447.621,361.814 438.895,370.359 434.245,384.176L417.506,433.911C413.963,444.439 407.314,450.949 400.107,450.949L391.652,450.949Z" style="fill:rgb(203,203,203);"/>
        </g>
        <g transform="matrix(0.949503,0,0,0.915724,163.331,21.3738)">
            <path d="M564.286,357.619L564.286,390.952C564.286,400.151 557.083,407.619 548.212,407.619L425.121,407.619C416.25,407.619 409.048,400.151 409.048,390.952L409.048,357.619C409.048,348.42 416.25,340.952 425.121,340.952L548.212,340.952C557.083,340.952 564.286,348.42 564.286,357.619Z" style="fill:rgb(0,122,255);"/>
        </g>
        <g transform="matrix(1.34123,0,0,0.452355,-301.285,106.513)">
            <path d="M564.286,357.619L564.286,390.952C564.286,400.151 561.767,407.619 558.665,407.619L414.669,407.619C411.566,407.619 409.048,400.151 409.048,390.952L409.048,357.619C409.048,348.42 411.566,340.952 414.669,340.952L558.665,340.952C561.767,340.952 564.286,348.42 564.286,357.619Z" style="fill:rgb(221,221,221);"/>
        </g>
        <g transform="matrix(0.428175,0,0,0.452355,213.937,151.554)">
            <path d="M564.286,357.619L564.286,390.952C564.286,400.151 556.396,407.619 546.678,407.619L426.656,407.619C416.937,407.619 409.048,400.151 409.048,390.952L409.048,357.619C409.048,348.42 416.937,340.952 426.656,340.952L546.678,340.952C556.396,340.952 564.286,348.42 564.286,357.619Z" style="fill:rgb(221,221,221);"/>
        </g>
        <g transform="matrix(0.740771,0,0,0.452355,37.5434,195.036)">
            <path d="M564.286,357.619L564.286,390.952C564.286,400.151 559.725,407.619 554.108,407.619L419.225,407.619C413.608,407.619 409.048,400.151 409.048,390.952L409.048,357.619C409.048,348.42 413.608,340.952 419.225,340.952L554.108,340.952C559.725,340.952 564.286,348.42 564.286,357.619Z" style="fill:rgb(221,221,221);"/>
        </g>
        <g transform="matrix(1.35213,0,0,0.452355,-307.438,240.305)">
            <path d="M564.286,357.619L564.286,390.952C564.286,400.151 561.787,407.619 558.71,407.619L414.623,407.619C411.546,407.619 409.048,400.151 409.048,390.952L409.048,357.619C409.048,348.42 411.546,340.952 414.623,340.952L558.71,340.952C561.787,340.952 564.286,348.42 564.286,357.619Z" style="fill:rgb(221,221,221);"/>
        </g>
        <g transform="matrix(1.00467,0,0,0.452355,-111.372,284.291)">
            <path d="M564.286,357.619L564.286,390.952C564.286,400.151 560.923,407.619 556.782,407.619L416.552,407.619C412.41,407.619 409.048,400.151 409.048,390.952L409.048,357.619C409.048,348.42 412.41,340.952 416.552,340.952L556.782,340.952C560.923,340.952 564.286,348.42 564.286,357.619Z" style="fill:rgb(221,221,221);"/>
        </g>
        <g transform="matrix(1.66506,0,0,1.66506,-170.609,-324.422)">
            <g transform="matrix(24,0,0,24,443.636,421.943)">
                <path d="M0.09,-0L0.09,-0.687L0.354,-0.687L0.49,-0.353C0.495,-0.342 0.5,-0.327 0.507,-0.308C0.514,-0.289 0.521,-0.27 0.528,-0.25C0.535,-0.23 0.542,-0.212 0.547,-0.196L0.554,-0.196C0.559,-0.211 0.564,-0.227 0.571,-0.246C0.578,-0.265 0.585,-0.284 0.592,-0.303C0.599,-0.322 0.606,-0.339 0.611,-0.352L0.747,-0.687L1.004,-0.687L1.004,-0L0.835,-0L0.835,-0.433C0.836,-0.45 0.836,-0.467 0.837,-0.482C0.838,-0.498 0.838,-0.511 0.839,-0.522L0.831,-0.522C0.828,-0.511 0.823,-0.498 0.817,-0.482C0.812,-0.466 0.806,-0.45 0.801,-0.434C0.796,-0.418 0.79,-0.404 0.785,-0.392L0.623,-0L0.464,-0L0.302,-0.392C0.296,-0.407 0.29,-0.422 0.284,-0.438C0.278,-0.455 0.273,-0.47 0.268,-0.485C0.263,-0.5 0.259,-0.512 0.256,-0.522L0.248,-0.522C0.249,-0.512 0.249,-0.499 0.249,-0.484C0.25,-0.469 0.25,-0.452 0.251,-0.435C0.252,-0.418 0.252,-0.402 0.252,-0.385L0.252,-0L0.09,-0Z" style="fill:white;fill-rule:nonzero;"/>
            </g>
            <g transform="matrix(24,0,0,24,469.892,421.943)">
                <path d="M0.475,0.012C0.384,0.012 0.307,-0.001 0.245,-0.028C0.184,-0.055 0.137,-0.094 0.106,-0.147C0.075,-0.2 0.06,-0.266 0.06,-0.344C0.06,-0.458 0.095,-0.546 0.166,-0.607C0.237,-0.668 0.34,-0.699 0.474,-0.699C0.55,-0.699 0.617,-0.688 0.674,-0.665C0.732,-0.643 0.777,-0.611 0.809,-0.569C0.842,-0.528 0.858,-0.478 0.858,-0.419L0.692,-0.419C0.692,-0.45 0.683,-0.477 0.664,-0.498C0.646,-0.52 0.62,-0.536 0.587,-0.547C0.554,-0.558 0.516,-0.564 0.472,-0.564C0.422,-0.564 0.379,-0.556 0.344,-0.539C0.309,-0.522 0.281,-0.499 0.262,-0.468C0.243,-0.437 0.234,-0.4 0.234,-0.357L0.234,-0.331C0.234,-0.288 0.243,-0.251 0.262,-0.22C0.281,-0.189 0.309,-0.165 0.344,-0.148C0.379,-0.131 0.422,-0.123 0.471,-0.123C0.518,-0.123 0.558,-0.128 0.591,-0.139C0.625,-0.15 0.651,-0.166 0.669,-0.187C0.688,-0.209 0.697,-0.235 0.697,-0.266L0.859,-0.266C0.859,-0.209 0.843,-0.159 0.811,-0.117C0.78,-0.076 0.735,-0.044 0.677,-0.021C0.62,0.001 0.552,0.012 0.475,0.012Z" style="fill:white;fill-rule:nonzero;"/>
            </g>
            <g transform="matrix(24,0,0,24,491.924,421.943)">
                <path d="M0.09,-0L0.09,-0.687L0.585,-0.687C0.63,-0.687 0.67,-0.677 0.703,-0.658C0.736,-0.639 0.762,-0.612 0.78,-0.578C0.799,-0.544 0.808,-0.504 0.808,-0.459C0.808,-0.414 0.799,-0.375 0.78,-0.34C0.761,-0.305 0.735,-0.278 0.701,-0.259C0.667,-0.24 0.627,-0.23 0.581,-0.23L0.26,-0.23L0.26,-0L0.09,-0ZM0.26,-0.365L0.537,-0.365C0.57,-0.365 0.596,-0.373 0.613,-0.389C0.631,-0.406 0.64,-0.429 0.64,-0.459C0.64,-0.478 0.636,-0.495 0.628,-0.509C0.62,-0.523 0.608,-0.534 0.593,-0.541C0.578,-0.548 0.56,-0.552 0.537,-0.552L0.26,-0.552L0.26,-0.365Z" style="fill:white;fill-rule:nonzero;"/>
            </g>
        </g>
        <g transform="matrix(0.822516,0,0,0.822516,0.261851,-64.305)">
            <g transform="matrix(24,0,0,24,312.98,421.943)">
                <path d="M0.08,-0L0.08,-0.687L0.382,-0.687C0.457,-0.687 0.52,-0.674 0.573,-0.649C0.626,-0.624 0.666,-0.586 0.694,-0.535C0.723,-0.485 0.737,-0.421 0.737,-0.343C0.737,-0.266 0.723,-0.202 0.694,-0.151C0.666,-0.1 0.626,-0.062 0.573,-0.037C0.52,-0.012 0.457,-0 0.382,-0L0.08,-0ZM0.235,-0.126L0.379,-0.126C0.41,-0.126 0.438,-0.13 0.463,-0.139C0.488,-0.148 0.508,-0.16 0.525,-0.177C0.542,-0.194 0.555,-0.216 0.564,-0.241C0.573,-0.266 0.577,-0.296 0.577,-0.329L0.577,-0.357C0.577,-0.391 0.573,-0.421 0.564,-0.446C0.555,-0.471 0.542,-0.492 0.525,-0.509C0.508,-0.526 0.488,-0.538 0.463,-0.547C0.438,-0.556 0.41,-0.561 0.379,-0.561L0.235,-0.561L0.235,-0.126Z" style="fill:rgb(125,125,125);fill-rule:nonzero;"/>
            </g>
            <g transform="matrix(24,0,0,24,331.844,421.943)">
                <path d="M0.324,0.012C0.264,0.012 0.213,0.002 0.17,-0.018C0.128,-0.038 0.096,-0.068 0.073,-0.109C0.051,-0.15 0.04,-0.201 0.04,-0.263C0.04,-0.326 0.051,-0.377 0.073,-0.418C0.096,-0.459 0.128,-0.489 0.17,-0.509C0.213,-0.529 0.264,-0.539 0.324,-0.539C0.385,-0.539 0.437,-0.529 0.479,-0.509C0.521,-0.489 0.553,-0.459 0.575,-0.418C0.597,-0.377 0.608,-0.326 0.608,-0.263C0.608,-0.201 0.597,-0.15 0.575,-0.109C0.553,-0.068 0.521,-0.038 0.479,-0.018C0.437,0.002 0.385,0.012 0.324,0.012ZM0.324,-0.097C0.356,-0.097 0.382,-0.103 0.402,-0.114C0.423,-0.126 0.438,-0.144 0.447,-0.167C0.457,-0.19 0.462,-0.219 0.462,-0.252L0.462,-0.275C0.462,-0.308 0.457,-0.336 0.447,-0.359C0.438,-0.382 0.423,-0.4 0.402,-0.411C0.382,-0.423 0.356,-0.429 0.324,-0.429C0.293,-0.429 0.267,-0.423 0.246,-0.411C0.226,-0.4 0.211,-0.382 0.201,-0.359C0.192,-0.336 0.187,-0.308 0.187,-0.275L0.187,-0.252C0.187,-0.219 0.192,-0.19 0.201,-0.167C0.211,-0.144 0.226,-0.126 0.246,-0.114C0.267,-0.103 0.293,-0.097 0.324,-0.097Z" style="fill:rgb(125,125,125);fill-rule:nonzero;"/>
            </g>
            <g transform="matrix(24,0,0,24,347.42,421.943)">
                <path d="M0.316,0.012C0.257,0.012 0.206,0.002 0.165,-0.018C0.124,-0.038 0.093,-0.068 0.072,-0.109C0.051,-0.15 0.041,-0.201 0.041,-0.263C0.041,-0.326 0.052,-0.377 0.073,-0.418C0.094,-0.459 0.125,-0.489 0.166,-0.509C0.207,-0.529 0.257,-0.539 0.316,-0.539C0.354,-0.539 0.389,-0.534 0.42,-0.525C0.451,-0.516 0.478,-0.503 0.501,-0.485C0.524,-0.468 0.542,-0.445 0.554,-0.418C0.567,-0.391 0.573,-0.36 0.573,-0.325L0.429,-0.325C0.429,-0.348 0.424,-0.368 0.415,-0.383C0.406,-0.398 0.393,-0.41 0.376,-0.418C0.359,-0.426 0.339,-0.43 0.314,-0.43C0.285,-0.43 0.262,-0.424 0.243,-0.412C0.224,-0.4 0.21,-0.382 0.201,-0.359C0.192,-0.336 0.187,-0.308 0.187,-0.274L0.187,-0.252C0.187,-0.219 0.192,-0.19 0.201,-0.167C0.21,-0.144 0.225,-0.126 0.244,-0.114C0.264,-0.103 0.289,-0.097 0.32,-0.097C0.343,-0.097 0.364,-0.101 0.381,-0.109C0.398,-0.117 0.412,-0.129 0.421,-0.145C0.43,-0.161 0.435,-0.18 0.435,-0.203L0.573,-0.203C0.573,-0.168 0.567,-0.137 0.554,-0.11C0.542,-0.083 0.524,-0.061 0.501,-0.042C0.478,-0.024 0.451,-0.01 0.42,-0.001C0.389,0.008 0.354,0.012 0.316,0.012Z" style="fill:rgb(125,125,125);fill-rule:nonzero;"/>
            </g>
            <g transform="matrix(24,0,0,24,362.18,421.943)">
                <path d="M0.248,0.012C0.189,0.012 0.144,-0.003 0.111,-0.034C0.078,-0.065 0.062,-0.114 0.062,-0.182L0.062,-0.527L0.205,-0.527L0.205,-0.205C0.205,-0.187 0.207,-0.172 0.211,-0.159C0.216,-0.146 0.222,-0.136 0.23,-0.128C0.239,-0.121 0.249,-0.115 0.261,-0.111C0.274,-0.108 0.288,-0.106 0.303,-0.106C0.326,-0.106 0.346,-0.111 0.364,-0.121C0.383,-0.132 0.397,-0.146 0.408,-0.164C0.419,-0.183 0.425,-0.204 0.425,-0.227L0.425,-0.527L0.568,-0.527L0.568,-0L0.45,-0L0.44,-0.076L0.433,-0.076C0.419,-0.057 0.402,-0.041 0.383,-0.028C0.364,-0.015 0.343,-0.006 0.32,0.001C0.297,0.008 0.273,0.012 0.248,0.012Z" style="fill:rgb(125,125,125);fill-rule:nonzero;"/>
            </g>
            <g transform="matrix(24,0,0,24,377.372,421.943)">
                <path d="M0.065,-0L0.065,-0.527L0.183,-0.527L0.194,-0.45L0.201,-0.45C0.214,-0.469 0.23,-0.485 0.247,-0.498C0.265,-0.511 0.285,-0.521 0.306,-0.528C0.327,-0.535 0.35,-0.539 0.374,-0.539C0.411,-0.539 0.442,-0.532 0.469,-0.517C0.496,-0.503 0.516,-0.481 0.529,-0.45L0.537,-0.45C0.55,-0.469 0.566,-0.485 0.584,-0.498C0.602,-0.511 0.622,-0.521 0.644,-0.528C0.666,-0.535 0.689,-0.539 0.713,-0.539C0.75,-0.539 0.781,-0.532 0.807,-0.519C0.834,-0.506 0.854,-0.485 0.869,-0.457C0.884,-0.429 0.891,-0.393 0.891,-0.349L0.891,-0L0.747,-0L0.747,-0.324C0.747,-0.341 0.745,-0.356 0.741,-0.368C0.737,-0.381 0.731,-0.391 0.724,-0.398C0.717,-0.406 0.707,-0.412 0.696,-0.415C0.685,-0.419 0.673,-0.421 0.66,-0.421C0.639,-0.421 0.621,-0.416 0.604,-0.405C0.587,-0.395 0.574,-0.381 0.564,-0.362C0.555,-0.344 0.55,-0.323 0.55,-0.3L0.55,-0L0.407,-0L0.407,-0.324C0.407,-0.341 0.405,-0.356 0.4,-0.368C0.396,-0.381 0.39,-0.391 0.383,-0.398C0.376,-0.406 0.366,-0.412 0.355,-0.415C0.344,-0.419 0.332,-0.421 0.319,-0.421C0.298,-0.421 0.28,-0.416 0.263,-0.405C0.246,-0.395 0.233,-0.381 0.223,-0.362C0.213,-0.344 0.208,-0.323 0.208,-0.3L0.208,-0L0.065,-0Z" style="fill:rgb(125,125,125);fill-rule:nonzero;"/>
            </g>
            <g transform="matrix(24,0,0,24,400.22,421.943)">
                <path d="M0.323,0.012C0.262,0.012 0.211,0.002 0.169,-0.017C0.127,-0.037 0.095,-0.067 0.073,-0.108C0.051,-0.149 0.04,-0.2 0.04,-0.263C0.04,-0.326 0.051,-0.377 0.073,-0.418C0.095,-0.459 0.127,-0.489 0.168,-0.509C0.209,-0.529 0.26,-0.539 0.32,-0.539C0.377,-0.539 0.426,-0.529 0.465,-0.509C0.505,-0.49 0.535,-0.46 0.555,-0.421C0.576,-0.382 0.586,-0.331 0.586,-0.269L0.586,-0.231L0.187,-0.231C0.188,-0.2 0.194,-0.175 0.204,-0.154C0.214,-0.133 0.229,-0.118 0.248,-0.108C0.268,-0.098 0.293,-0.093 0.324,-0.093C0.34,-0.093 0.355,-0.095 0.369,-0.098C0.384,-0.102 0.396,-0.108 0.407,-0.116C0.418,-0.124 0.427,-0.134 0.433,-0.145C0.44,-0.156 0.443,-0.17 0.444,-0.185L0.585,-0.185C0.585,-0.154 0.579,-0.126 0.566,-0.101C0.554,-0.076 0.536,-0.056 0.513,-0.039C0.49,-0.022 0.462,-0.01 0.43,-0.001C0.398,0.008 0.362,0.012 0.323,0.012ZM0.189,-0.321L0.437,-0.321C0.437,-0.34 0.434,-0.357 0.429,-0.371C0.424,-0.385 0.416,-0.397 0.405,-0.406C0.395,-0.415 0.383,-0.422 0.369,-0.426C0.355,-0.431 0.339,-0.433 0.322,-0.433C0.295,-0.433 0.272,-0.429 0.253,-0.42C0.234,-0.412 0.22,-0.4 0.209,-0.383C0.198,-0.366 0.192,-0.346 0.189,-0.321Z" style="fill:rgb(125,125,125);fill-rule:nonzero;"/>
            </g>
            <g transform="matrix(24,0,0,24,415.268,421.943)">
                <path d="M0.065,-0L0.065,-0.527L0.183,-0.527L0.194,-0.45L0.201,-0.45C0.215,-0.469 0.231,-0.485 0.25,-0.498C0.269,-0.511 0.29,-0.521 0.313,-0.528C0.336,-0.535 0.36,-0.539 0.385,-0.539C0.424,-0.539 0.458,-0.532 0.485,-0.518C0.513,-0.505 0.534,-0.484 0.549,-0.455C0.564,-0.427 0.572,-0.39 0.572,-0.345L0.572,-0L0.428,-0L0.428,-0.322C0.428,-0.34 0.426,-0.355 0.421,-0.367C0.417,-0.38 0.411,-0.39 0.402,-0.398C0.393,-0.406 0.383,-0.412 0.371,-0.415C0.359,-0.419 0.345,-0.421 0.33,-0.421C0.307,-0.421 0.287,-0.416 0.268,-0.405C0.25,-0.395 0.235,-0.381 0.224,-0.362C0.213,-0.344 0.208,-0.323 0.208,-0.3L0.208,-0L0.065,-0Z" style="fill:rgb(125,125,125);fill-rule:nonzero;"/>
            </g>
            <g transform="matrix(24,0,0,24,430.484,421.943)">
                <path d="M0.241,0.012C0.206,0.012 0.178,0.006 0.156,-0.005C0.134,-0.017 0.118,-0.034 0.107,-0.055C0.097,-0.076 0.092,-0.102 0.092,-0.131L0.092,-0.417L0.018,-0.417L0.018,-0.527L0.097,-0.527L0.124,-0.678L0.235,-0.678L0.235,-0.527L0.343,-0.527L0.343,-0.417L0.235,-0.417L0.235,-0.153C0.235,-0.135 0.239,-0.121 0.247,-0.111C0.255,-0.102 0.269,-0.097 0.289,-0.097L0.343,-0.097L0.343,-0.005C0.335,-0.002 0.325,0.001 0.313,0.003C0.301,0.006 0.289,0.008 0.276,0.009C0.263,0.011 0.252,0.012 0.241,0.012Z" style="fill:rgb(125,125,125);fill-rule:nonzero;"/>
            </g>
            <g transform="matrix(24,0,0,24,444.812,421.943)">
                <path d="M0.367,0.012C0.324,0.012 0.283,0.008 0.244,-0C0.205,-0.007 0.171,-0.02 0.142,-0.037C0.113,-0.054 0.089,-0.077 0.072,-0.104C0.055,-0.132 0.047,-0.166 0.047,-0.206L0.047,-0.215C0.048,-0.218 0.048,-0.221 0.048,-0.223L0.202,-0.223C0.201,-0.222 0.201,-0.219 0.2,-0.215L0.2,-0.206C0.2,-0.185 0.207,-0.167 0.22,-0.153C0.233,-0.139 0.252,-0.128 0.277,-0.121C0.302,-0.114 0.33,-0.111 0.363,-0.111C0.382,-0.111 0.399,-0.112 0.415,-0.114C0.431,-0.116 0.445,-0.119 0.458,-0.123C0.471,-0.127 0.482,-0.132 0.491,-0.138C0.5,-0.144 0.507,-0.151 0.512,-0.159C0.517,-0.167 0.52,-0.176 0.52,-0.186C0.52,-0.204 0.513,-0.218 0.5,-0.229C0.487,-0.24 0.47,-0.25 0.448,-0.257C0.427,-0.264 0.402,-0.271 0.375,-0.277C0.348,-0.283 0.32,-0.289 0.291,-0.296C0.262,-0.303 0.234,-0.311 0.207,-0.321C0.18,-0.332 0.156,-0.344 0.134,-0.359C0.113,-0.374 0.095,-0.393 0.082,-0.416C0.069,-0.439 0.063,-0.467 0.063,-0.5C0.063,-0.534 0.07,-0.563 0.085,-0.588C0.1,-0.613 0.122,-0.634 0.149,-0.65C0.176,-0.667 0.208,-0.679 0.244,-0.687C0.281,-0.695 0.321,-0.699 0.365,-0.699C0.407,-0.699 0.446,-0.695 0.481,-0.686C0.517,-0.678 0.548,-0.666 0.574,-0.649C0.601,-0.632 0.621,-0.611 0.636,-0.586C0.651,-0.561 0.658,-0.531 0.658,-0.497L0.658,-0.484L0.507,-0.484L0.507,-0.493C0.507,-0.51 0.501,-0.525 0.49,-0.537C0.479,-0.55 0.462,-0.559 0.441,-0.566C0.42,-0.573 0.396,-0.577 0.368,-0.577C0.336,-0.577 0.309,-0.574 0.287,-0.569C0.266,-0.564 0.249,-0.556 0.238,-0.546C0.227,-0.536 0.222,-0.524 0.222,-0.511C0.222,-0.495 0.228,-0.482 0.241,-0.472C0.254,-0.462 0.271,-0.453 0.292,-0.446C0.314,-0.439 0.338,-0.433 0.365,-0.427C0.392,-0.422 0.42,-0.415 0.449,-0.408C0.478,-0.401 0.506,-0.393 0.533,-0.383C0.56,-0.374 0.585,-0.361 0.606,-0.346C0.628,-0.331 0.645,-0.312 0.658,-0.289C0.671,-0.267 0.678,-0.24 0.678,-0.208C0.678,-0.155 0.664,-0.113 0.637,-0.08C0.61,-0.048 0.574,-0.025 0.527,-0.01C0.48,0.005 0.427,0.012 0.367,0.012Z" style="fill:rgb(125,125,125);fill-rule:nonzero;"/>
            </g>
            <g transform="matrix(24,0,0,24,462.14,421.943)">
                <path d="M0.241,0.012C0.206,0.012 0.178,0.006 0.156,-0.005C0.134,-0.017 0.118,-0.034 0.107,-0.055C0.097,-0.076 0.092,-0.102 0.092,-0.131L0.092,-0.417L0.018,-0.417L0.018,-0.527L0.097,-0.527L0.124,-0.678L0.235,-0.678L0.235,-0.527L0.343,-0.527L0.343,-0.417L0.235,-0.417L0.235,-0.153C0.235,-0.135 0.239,-0.121 0.247,-0.111C0.255,-0.102 0.269,-0.097 0.289,-0.097L0.343,-0.097L0.343,-0.005C0.335,-0.002 0.325,0.001 0.313,0.003C0.301,0.006 0.289,0.008 0.276,0.009C0.263,0.011 0.252,0.012 0.241,0.012Z" style="fill:rgb(125,125,125);fill-rule:nonzero;"/>
            </g>
            <g transform="matrix(24,0,0,24,471.092,421.943)">
                <path d="M0.324,0.012C0.264,0.012 0.213,0.002 0.17,-0.018C0.128,-0.038 0.096,-0.068 0.073,-0.109C0.051,-0.15 0.04,-0.201 0.04,-0.263C0.04,-0.326 0.051,-0.377 0.073,-0.418C0.096,-0.459 0.128,-0.489 0.17,-0.509C0.213,-0.529 0.264,-0.539 0.324,-0.539C0.385,-0.539 0.437,-0.529 0.479,-0.509C0.521,-0.489 0.553,-0.459 0.575,-0.418C0.597,-0.377 0.608,-0.326 0.608,-0.263C0.608,-0.201 0.597,-0.15 0.575,-0.109C0.553,-0.068 0.521,-0.038 0.479,-0.018C0.437,0.002 0.385,0.012 0.324,0.012ZM0.324,-0.097C0.356,-0.097 0.382,-0.103 0.402,-0.114C0.423,-0.126 0.438,-0.144 0.447,-0.167C0.457,-0.19 0.462,-0.219 0.462,-0.252L0.462,-0.275C0.462,-0.308 0.457,-0.336 0.447,-0.359C0.438,-0.382 0.423,-0.4 0.402,-0.411C0.382,-0.423 0.356,-0.429 0.324,-0.429C0.293,-0.429 0.267,-0.423 0.246,-0.411C0.226,-0.4 0.211,-0.382 0.201,-0.359C0.192,-0.336 0.187,-0.308 0.187,-0.275L0.187,-0.252C0.187,-0.219 0.192,-0.19 0.201,-0.167C0.211,-0.144 0.226,-0.126 0.246,-0.114C0.267,-0.103 0.293,-0.097 0.324,-0.097Z" style="fill:rgb(125,125,125);fill-rule:nonzero;"/>
            </g>
            <g transform="matrix(24,0,0,24,486.668,421.943)">
                <path d="M0.065,-0L0.065,-0.527L0.183,-0.527L0.194,-0.442L0.201,-0.442C0.208,-0.46 0.218,-0.476 0.229,-0.491C0.241,-0.506 0.255,-0.517 0.272,-0.526C0.289,-0.535 0.309,-0.539 0.332,-0.539C0.344,-0.539 0.355,-0.538 0.364,-0.536C0.374,-0.534 0.382,-0.532 0.388,-0.529L0.388,-0.402L0.337,-0.402C0.315,-0.402 0.296,-0.399 0.28,-0.392C0.264,-0.386 0.251,-0.377 0.24,-0.364C0.229,-0.351 0.221,-0.336 0.216,-0.319C0.211,-0.302 0.208,-0.282 0.208,-0.26L0.208,-0L0.065,-0Z" style="fill:rgb(125,125,125);fill-rule:nonzero;"/>
            </g>
            <g transform="matrix(24,0,0,24,495.98,421.943)">
                <path d="M0.22,0.012C0.199,0.012 0.177,0.01 0.155,0.005C0.134,0.001 0.114,-0.006 0.096,-0.017C0.078,-0.028 0.063,-0.043 0.052,-0.062C0.041,-0.082 0.036,-0.107 0.036,-0.138C0.036,-0.176 0.045,-0.207 0.062,-0.231C0.08,-0.255 0.105,-0.273 0.138,-0.286C0.171,-0.299 0.209,-0.308 0.254,-0.313C0.299,-0.318 0.349,-0.32 0.404,-0.32L0.404,-0.355C0.404,-0.372 0.401,-0.386 0.394,-0.397C0.387,-0.409 0.377,-0.418 0.362,-0.424C0.348,-0.431 0.328,-0.434 0.303,-0.434C0.28,-0.434 0.261,-0.431 0.245,-0.426C0.23,-0.421 0.218,-0.415 0.211,-0.407C0.204,-0.399 0.2,-0.39 0.2,-0.379L0.2,-0.368L0.059,-0.368C0.058,-0.371 0.058,-0.373 0.058,-0.376L0.058,-0.387C0.058,-0.418 0.068,-0.444 0.087,-0.467C0.107,-0.49 0.135,-0.508 0.172,-0.52C0.209,-0.533 0.254,-0.539 0.306,-0.539C0.357,-0.539 0.401,-0.533 0.437,-0.52C0.473,-0.507 0.5,-0.488 0.519,-0.463C0.538,-0.438 0.547,-0.407 0.547,-0.368L0.547,-0.134C0.547,-0.122 0.55,-0.113 0.556,-0.106C0.563,-0.1 0.571,-0.097 0.581,-0.097L0.619,-0.097L0.619,-0.005C0.612,-0.002 0.6,0.002 0.585,0.005C0.57,0.009 0.553,0.011 0.532,0.011C0.51,0.011 0.491,0.008 0.475,0.002C0.46,-0.003 0.447,-0.011 0.437,-0.022C0.428,-0.033 0.421,-0.046 0.417,-0.061L0.411,-0.061C0.397,-0.046 0.381,-0.033 0.362,-0.022C0.344,-0.011 0.323,-0.003 0.299,0.003C0.276,0.009 0.249,0.012 0.22,0.012ZM0.265,-0.095C0.284,-0.095 0.301,-0.097 0.318,-0.102C0.335,-0.107 0.349,-0.115 0.362,-0.124C0.375,-0.133 0.385,-0.145 0.392,-0.158C0.4,-0.172 0.404,-0.187 0.404,-0.204L0.404,-0.233C0.359,-0.233 0.319,-0.23 0.285,-0.225C0.252,-0.22 0.226,-0.212 0.207,-0.2C0.189,-0.188 0.18,-0.172 0.18,-0.151C0.18,-0.138 0.184,-0.127 0.191,-0.119C0.198,-0.111 0.208,-0.105 0.221,-0.101C0.234,-0.097 0.248,-0.095 0.265,-0.095Z" style="fill:rgb(125,125,125);fill-rule:nonzero;"/>
            </g>
            <g transform="matrix(24,0,0,24,510.932,421.943)">
                <path d="M0.157,0.191C0.132,0.191 0.108,0.186 0.086,0.177C0.065,0.168 0.047,0.154 0.034,0.135C0.021,0.116 0.015,0.093 0.015,0.066C0.015,0.038 0.024,0.015 0.041,-0.003C0.058,-0.022 0.078,-0.036 0.101,-0.045C0.084,-0.054 0.071,-0.066 0.061,-0.081C0.052,-0.096 0.047,-0.113 0.047,-0.132C0.047,-0.158 0.056,-0.18 0.075,-0.197C0.094,-0.214 0.117,-0.225 0.144,-0.23C0.119,-0.245 0.1,-0.264 0.085,-0.287C0.071,-0.31 0.064,-0.336 0.064,-0.365C0.064,-0.404 0.074,-0.436 0.094,-0.461C0.115,-0.487 0.144,-0.506 0.182,-0.519C0.22,-0.532 0.265,-0.539 0.317,-0.539C0.338,-0.539 0.357,-0.538 0.375,-0.535C0.393,-0.533 0.409,-0.53 0.424,-0.525C0.451,-0.54 0.469,-0.556 0.48,-0.573C0.491,-0.591 0.498,-0.606 0.499,-0.617L0.632,-0.617C0.631,-0.592 0.626,-0.571 0.617,-0.553C0.608,-0.535 0.594,-0.52 0.577,-0.508C0.56,-0.497 0.539,-0.488 0.514,-0.482C0.532,-0.468 0.546,-0.451 0.555,-0.43C0.565,-0.41 0.57,-0.388 0.57,-0.364C0.57,-0.327 0.561,-0.295 0.542,-0.269C0.523,-0.243 0.497,-0.223 0.462,-0.21C0.427,-0.197 0.386,-0.19 0.337,-0.19L0.243,-0.19C0.226,-0.19 0.214,-0.187 0.205,-0.181C0.196,-0.175 0.192,-0.167 0.192,-0.156C0.192,-0.147 0.196,-0.139 0.204,-0.132C0.212,-0.125 0.225,-0.122 0.242,-0.122L0.482,-0.122C0.528,-0.122 0.564,-0.108 0.591,-0.08C0.618,-0.053 0.631,-0.017 0.631,0.026C0.631,0.058 0.622,0.086 0.605,0.111C0.588,0.136 0.565,0.156 0.536,0.17C0.507,0.184 0.473,0.191 0.435,0.191L0.157,0.191ZM0.213,0.096L0.426,0.096C0.437,0.096 0.448,0.094 0.457,0.09C0.466,0.086 0.474,0.08 0.479,0.071C0.484,0.063 0.487,0.054 0.487,0.044C0.487,0.027 0.481,0.014 0.47,0.005C0.459,-0.004 0.446,-0.008 0.43,-0.008L0.214,-0.008C0.198,-0.008 0.184,-0.003 0.173,0.006C0.162,0.015 0.157,0.028 0.157,0.044C0.157,0.059 0.162,0.072 0.173,0.081C0.184,0.091 0.197,0.096 0.213,0.096ZM0.317,-0.282C0.353,-0.282 0.38,-0.289 0.399,-0.302C0.418,-0.316 0.428,-0.337 0.428,-0.364C0.428,-0.392 0.418,-0.413 0.399,-0.426C0.38,-0.44 0.353,-0.447 0.317,-0.447C0.282,-0.447 0.254,-0.44 0.235,-0.426C0.216,-0.413 0.206,-0.392 0.206,-0.364C0.206,-0.346 0.21,-0.331 0.219,-0.318C0.228,-0.306 0.24,-0.297 0.256,-0.291C0.273,-0.285 0.293,-0.282 0.317,-0.282Z" style="fill:rgb(125,125,125);fill-rule:nonzero;"/>
            </g>
            <g transform="matrix(24,0,0,24,526.316,421.943)">
                <path d="M0.323,0.012C0.262,0.012 0.211,0.002 0.169,-0.017C0.127,-0.037 0.095,-0.067 0.073,-0.108C0.051,-0.149 0.04,-0.2 0.04,-0.263C0.04,-0.326 0.051,-0.377 0.073,-0.418C0.095,-0.459 0.127,-0.489 0.168,-0.509C0.209,-0.529 0.26,-0.539 0.32,-0.539C0.377,-0.539 0.426,-0.529 0.465,-0.509C0.505,-0.49 0.535,-0.46 0.555,-0.421C0.576,-0.382 0.586,-0.331 0.586,-0.269L0.586,-0.231L0.187,-0.231C0.188,-0.2 0.194,-0.175 0.204,-0.154C0.214,-0.133 0.229,-0.118 0.248,-0.108C0.268,-0.098 0.293,-0.093 0.324,-0.093C0.34,-0.093 0.355,-0.095 0.369,-0.098C0.384,-0.102 0.396,-0.108 0.407,-0.116C0.418,-0.124 0.427,-0.134 0.433,-0.145C0.44,-0.156 0.443,-0.17 0.444,-0.185L0.585,-0.185C0.585,-0.154 0.579,-0.126 0.566,-0.101C0.554,-0.076 0.536,-0.056 0.513,-0.039C0.49,-0.022 0.462,-0.01 0.43,-0.001C0.398,0.008 0.362,0.012 0.323,0.012ZM0.189,-0.321L0.437,-0.321C0.437,-0.34 0.434,-0.357 0.429,-0.371C0.424,-0.385 0.416,-0.397 0.405,-0.406C0.395,-0.415 0.383,-0.422 0.369,-0.426C0.355,-0.431 0.339,-0.433 0.322,-0.433C0.295,-0.433 0.272,-0.429 0.253,-0.42C0.234,-0.412 0.22,-0.4 0.209,-0.383C0.198,-0.366 0.192,-0.346 0.189,-0.321Z" style="fill:rgb(125,125,125);fill-rule:nonzero;"/>
            </g>
        </g>
        <g transform="matrix(0.822516,0,0,0.822516,8.33511,-19.2647)">
            <g transform="matrix(24,0,0,24,473.216,421.943)">
                <path d="M0.409,0.012C0.332,0.012 0.266,-0.001 0.212,-0.026C0.159,-0.052 0.118,-0.091 0.09,-0.143C0.063,-0.196 0.049,-0.262 0.049,-0.343C0.049,-0.462 0.08,-0.551 0.142,-0.61C0.205,-0.669 0.294,-0.699 0.409,-0.699C0.472,-0.699 0.529,-0.689 0.578,-0.668C0.628,-0.647 0.667,-0.617 0.696,-0.576C0.725,-0.535 0.739,-0.485 0.739,-0.425L0.584,-0.425C0.584,-0.456 0.577,-0.483 0.562,-0.505C0.547,-0.527 0.527,-0.544 0.5,-0.555C0.474,-0.567 0.444,-0.573 0.409,-0.573C0.364,-0.573 0.327,-0.565 0.297,-0.548C0.268,-0.531 0.246,-0.507 0.231,-0.475C0.216,-0.443 0.209,-0.404 0.209,-0.358L0.209,-0.329C0.209,-0.282 0.216,-0.243 0.231,-0.211C0.246,-0.179 0.268,-0.155 0.297,-0.138C0.327,-0.122 0.364,-0.114 0.408,-0.114C0.445,-0.114 0.477,-0.119 0.504,-0.13C0.531,-0.141 0.552,-0.158 0.567,-0.18C0.582,-0.202 0.589,-0.229 0.589,-0.26L0.739,-0.26C0.739,-0.201 0.725,-0.151 0.697,-0.11C0.669,-0.069 0.63,-0.039 0.58,-0.018C0.531,0.002 0.474,0.012 0.409,0.012Z" style="fill:rgb(125,125,125);fill-rule:nonzero;"/>
            </g>
            <g transform="matrix(24,0,0,24,492.056,421.943)">
                <path d="M0.08,-0L0.08,-0.687L0.499,-0.687C0.55,-0.687 0.591,-0.678 0.624,-0.659C0.657,-0.64 0.682,-0.615 0.699,-0.582C0.716,-0.55 0.724,-0.513 0.724,-0.471C0.724,-0.428 0.714,-0.389 0.693,-0.354C0.673,-0.319 0.643,-0.293 0.604,-0.274L0.746,-0L0.573,-0L0.452,-0.247L0.235,-0.247L0.235,-0L0.08,-0ZM0.235,-0.37L0.472,-0.37C0.501,-0.37 0.524,-0.379 0.541,-0.396C0.558,-0.414 0.566,-0.438 0.566,-0.469C0.566,-0.488 0.562,-0.505 0.555,-0.519C0.548,-0.533 0.537,-0.544 0.523,-0.551C0.509,-0.558 0.492,-0.562 0.472,-0.562L0.235,-0.562L0.235,-0.37Z" style="fill:rgb(125,125,125);fill-rule:nonzero;"/>
            </g>
            <g transform="matrix(24,0,0,24,510.728,421.943)">
                <path d="M0.08,-0L0.08,-0.687L0.317,-0.687L0.426,-0.34C0.43,-0.328 0.434,-0.313 0.439,-0.295C0.444,-0.278 0.449,-0.26 0.454,-0.242C0.459,-0.224 0.464,-0.208 0.467,-0.194L0.474,-0.194C0.477,-0.206 0.48,-0.22 0.484,-0.237C0.489,-0.254 0.493,-0.271 0.498,-0.289C0.503,-0.308 0.508,-0.325 0.513,-0.34L0.621,-0.687L0.854,-0.687L0.854,-0L0.701,-0L0.701,-0.42C0.702,-0.447 0.702,-0.47 0.703,-0.491C0.704,-0.512 0.705,-0.527 0.705,-0.534L0.697,-0.534C0.695,-0.526 0.691,-0.513 0.686,-0.494C0.681,-0.475 0.676,-0.456 0.67,-0.435C0.665,-0.415 0.66,-0.397 0.655,-0.382L0.532,-0L0.394,-0L0.271,-0.382C0.266,-0.396 0.261,-0.412 0.256,-0.43C0.251,-0.449 0.247,-0.467 0.242,-0.486C0.237,-0.505 0.233,-0.521 0.229,-0.534L0.221,-0.534C0.222,-0.519 0.222,-0.5 0.223,-0.477C0.224,-0.455 0.224,-0.432 0.225,-0.408C0.226,-0.385 0.226,-0.363 0.226,-0.342L0.226,-0L0.08,-0Z" style="fill:rgb(125,125,125);fill-rule:nonzero;"/>
            </g>
        </g>
        <g transform="matrix(0.822516,0,0,0.822516,8.33511,24.2176)">
            <g transform="matrix(24,0,0,24,415.952,421.943)">
                <path d="M0.08,-0L0.08,-0.687L0.382,-0.687C0.457,-0.687 0.52,-0.674 0.573,-0.649C0.626,-0.624 0.666,-0.586 0.694,-0.535C0.723,-0.485 0.737,-0.421 0.737,-0.343C0.737,-0.266 0.723,-0.202 0.694,-0.151C0.666,-0.1 0.626,-0.062 0.573,-0.037C0.52,-0.012 0.457,-0 0.382,-0L0.08,-0ZM0.235,-0.126L0.379,-0.126C0.41,-0.126 0.438,-0.13 0.463,-0.139C0.488,-0.148 0.508,-0.16 0.525,-0.177C0.542,-0.194 0.555,-0.216 0.564,-0.241C0.573,-0.266 0.577,-0.296 0.577,-0.329L0.577,-0.357C0.577,-0.391 0.573,-0.421 0.564,-0.446C0.555,-0.471 0.542,-0.492 0.525,-0.509C0.508,-0.526 0.488,-0.538 0.463,-0.547C0.438,-0.556 0.41,-0.561 0.379,-0.561L0.235,-0.561L0.235,-0.126Z" style="fill:rgb(125,125,125);fill-rule:nonzero;"/>
            </g>
            <g transform="matrix(24,0,0,24,434.816,421.943)">
                <path d="M0.22,0.012C0.199,0.012 0.177,0.01 0.155,0.005C0.134,0.001 0.114,-0.006 0.096,-0.017C0.078,-0.028 0.063,-0.043 0.052,-0.062C0.041,-0.082 0.036,-0.107 0.036,-0.138C0.036,-0.176 0.045,-0.207 0.062,-0.231C0.08,-0.255 0.105,-0.273 0.138,-0.286C0.171,-0.299 0.209,-0.308 0.254,-0.313C0.299,-0.318 0.349,-0.32 0.404,-0.32L0.404,-0.355C0.404,-0.372 0.401,-0.386 0.394,-0.397C0.387,-0.409 0.377,-0.418 0.362,-0.424C0.348,-0.431 0.328,-0.434 0.303,-0.434C0.28,-0.434 0.261,-0.431 0.245,-0.426C0.23,-0.421 0.218,-0.415 0.211,-0.407C0.204,-0.399 0.2,-0.39 0.2,-0.379L0.2,-0.368L0.059,-0.368C0.058,-0.371 0.058,-0.373 0.058,-0.376L0.058,-0.387C0.058,-0.418 0.068,-0.444 0.087,-0.467C0.107,-0.49 0.135,-0.508 0.172,-0.52C0.209,-0.533 0.254,-0.539 0.306,-0.539C0.357,-0.539 0.401,-0.533 0.437,-0.52C0.473,-0.507 0.5,-0.488 0.519,-0.463C0.538,-0.438 0.547,-0.407 0.547,-0.368L0.547,-0.134C0.547,-0.122 0.55,-0.113 0.556,-0.106C0.563,-0.1 0.571,-0.097 0.581,-0.097L0.619,-0.097L0.619,-0.005C0.612,-0.002 0.6,0.002 0.585,0.005C0.57,0.009 0.553,0.011 0.532,0.011C0.51,0.011 0.491,0.008 0.475,0.002C0.46,-0.003 0.447,-0.011 0.437,-0.022C0.428,-0.033 0.421,-0.046 0.417,-0.061L0.411,-0.061C0.397,-0.046 0.381,-0.033 0.362,-0.022C0.344,-0.011 0.323,-0.003 0.299,0.003C0.276,0.009 0.249,0.012 0.22,0.012ZM0.265,-0.095C0.284,-0.095 0.301,-0.097 0.318,-0.102C0.335,-0.107 0.349,-0.115 0.362,-0.124C0.375,-0.133 0.385,-0.145 0.392,-0.158C0.4,-0.172 0.404,-0.187 0.404,-0.204L0.404,-0.233C0.359,-0.233 0.319,-0.23 0.285,-0.225C0.252,-0.22 0.226,-0.212 0.207,-0.2C0.189,-0.188 0.18,-0.172 0.18,-0.151C0.18,-0.138 0.184,-0.127 0.191,-0.119C0.198,-0.111 0.208,-0.105 0.221,-0.101C0.234,-0.097 0.248,-0.095 0.265,-0.095Z" style="fill:rgb(125,125,125);fill-rule:nonzero;"/>
            </g>
            <g transform="matrix(24,0,0,24,449.768,421.943)">
                <path d="M0.241,0.012C0.206,0.012 0.178,0.006 0.156,-0.005C0.134,-0.017 0.118,-0.034 0.107,-0.055C0.097,-0.076 0.092,-0.102 0.092,-0.131L0.092,-0.417L0.018,-0.417L0.018,-0.527L0.097,-0.527L0.124,-0.678L0.235,-0.678L0.235,-0.527L0.343,-0.527L0.343,-0.417L0.235,-0.417L0.235,-0.153C0.235,-0.135 0.239,-0.121 0.247,-0.111C0.255,-0.102 0.269,-0.097 0.289,-0.097L0.343,-0.097L0.343,-0.005C0.335,-0.002 0.325,0.001 0.313,0.003C0.301,0.006 0.289,0.008 0.276,0.009C0.263,0.011 0.252,0.012 0.241,0.012Z" style="fill:rgb(125,125,125);fill-rule:nonzero;"/>
            </g>
            <g transform="matrix(24,0,0,24,458.72,421.943)">
                <path d="M0.22,0.012C0.199,0.012 0.177,0.01 0.155,0.005C0.134,0.001 0.114,-0.006 0.096,-0.017C0.078,-0.028 0.063,-0.043 0.052,-0.062C0.041,-0.082 0.036,-0.107 0.036,-0.138C0.036,-0.176 0.045,-0.207 0.062,-0.231C0.08,-0.255 0.105,-0.273 0.138,-0.286C0.171,-0.299 0.209,-0.308 0.254,-0.313C0.299,-0.318 0.349,-0.32 0.404,-0.32L0.404,-0.355C0.404,-0.372 0.401,-0.386 0.394,-0.397C0.387,-0.409 0.377,-0.418 0.362,-0.424C0.348,-0.431 0.328,-0.434 0.303,-0.434C0.28,-0.434 0.261,-0.431 0.245,-0.426C0.23,-0.421 0.218,-0.415 0.211,-0.407C0.204,-0.399 0.2,-0.39 0.2,-0.379L0.2,-0.368L0.059,-0.368C0.058,-0.371 0.058,-0.373 0.058,-0.376L0.058,-0.387C0.058,-0.418 0.068,-0.444 0.087,-0.467C0.107,-0.49 0.135,-0.508 0.172,-0.52C0.209,-0.533 0.254,-0.539 0.306,-0.539C0.357,-0.539 0.401,-0.533 0.437,-0.52C0.473,-0.507 0.5,-0.488 0.519,-0.463C0.538,-0.438 0.547,-0.407 0.547,-0.368L0.547,-0.134C0.547,-0.122 0.55,-0.113 0.556,-0.106C0.563,-0.1 0.571,-0.097 0.581,-0.097L0.619,-0.097L0.619,-0.005C0.612,-0.002 0.6,0.002 0.585,0.005C0.57,0.009 0.553,0.011 0.532,0.011C0.51,0.011 0.491,0.008 0.475,0.002C0.46,-0.003 0.447,-0.011 0.437,-0.022C0.428,-0.033 0.421,-0.046 0.417,-0.061L0.411,-0.061C0.397,-0.046 0.381,-0.033 0.362,-0.022C0.344,-0.011 0.323,-0.003 0.299,0.003C0.276,0.009 0.249,0.012 0.22,0.012ZM0.265,-0.095C0.284,-0.095 0.301,-0.097 0.318,-0.102C0.335,-0.107 0.349,-0.115 0.362,-0.124C0.375,-0.133 0.385,-0.145 0.392,-0.158C0.4,-0.172 0.404,-0.187 0.404,-0.204L0.404,-0.233C0.359,-0.233 0.319,-0.23 0.285,-0.225C0.252,-0.22 0.226,-0.212 0.207,-0.2C0.189,-0.188 0.18,-0.172 0.18,-0.151C0.18,-0.138 0.184,-0.127 0.191,-0.119C0.198,-0.111 0.208,-0.105 0.221,-0.101C0.234,-0.097 0.248,-0.095 0.265,-0.095Z" style="fill:rgb(125,125,125);fill-rule:nonzero;"/>
            </g>
            <g transform="matrix(24,0,0,24,473.672,421.943)">
                <path d="M0.374,0.012C0.338,0.012 0.305,0.005 0.275,-0.009C0.245,-0.023 0.22,-0.045 0.201,-0.074L0.194,-0.074L0.182,-0L0.065,-0L0.065,-0.724L0.208,-0.724L0.208,-0.467L0.215,-0.467C0.226,-0.482 0.24,-0.495 0.257,-0.506C0.274,-0.517 0.292,-0.526 0.313,-0.531C0.334,-0.536 0.356,-0.539 0.38,-0.539C0.423,-0.539 0.462,-0.529 0.495,-0.509C0.528,-0.49 0.554,-0.46 0.573,-0.419C0.592,-0.378 0.601,-0.327 0.601,-0.264C0.601,-0.201 0.592,-0.149 0.573,-0.108C0.554,-0.067 0.528,-0.037 0.494,-0.017C0.461,0.002 0.421,0.012 0.374,0.012ZM0.331,-0.105C0.36,-0.105 0.384,-0.11 0.402,-0.121C0.42,-0.132 0.433,-0.149 0.442,-0.171C0.451,-0.193 0.455,-0.22 0.455,-0.252L0.455,-0.273C0.455,-0.306 0.451,-0.333 0.442,-0.355C0.433,-0.377 0.42,-0.394 0.402,-0.405C0.384,-0.416 0.36,-0.422 0.331,-0.422C0.31,-0.422 0.292,-0.418 0.276,-0.411C0.261,-0.404 0.248,-0.394 0.238,-0.381C0.228,-0.368 0.22,-0.352 0.215,-0.333C0.21,-0.314 0.208,-0.293 0.208,-0.27L0.208,-0.255C0.208,-0.224 0.212,-0.197 0.221,-0.174C0.23,-0.152 0.243,-0.135 0.261,-0.123C0.28,-0.111 0.303,-0.105 0.331,-0.105Z" style="fill:rgb(125,125,125);fill-rule:nonzero;"/>
            </g>
            <g transform="matrix(24,0,0,24,489.056,421.943)">
                <path d="M0.22,0.012C0.199,0.012 0.177,0.01 0.155,0.005C0.134,0.001 0.114,-0.006 0.096,-0.017C0.078,-0.028 0.063,-0.043 0.052,-0.062C0.041,-0.082 0.036,-0.107 0.036,-0.138C0.036,-0.176 0.045,-0.207 0.062,-0.231C0.08,-0.255 0.105,-0.273 0.138,-0.286C0.171,-0.299 0.209,-0.308 0.254,-0.313C0.299,-0.318 0.349,-0.32 0.404,-0.32L0.404,-0.355C0.404,-0.372 0.401,-0.386 0.394,-0.397C0.387,-0.409 0.377,-0.418 0.362,-0.424C0.348,-0.431 0.328,-0.434 0.303,-0.434C0.28,-0.434 0.261,-0.431 0.245,-0.426C0.23,-0.421 0.218,-0.415 0.211,-0.407C0.204,-0.399 0.2,-0.39 0.2,-0.379L0.2,-0.368L0.059,-0.368C0.058,-0.371 0.058,-0.373 0.058,-0.376L0.058,-0.387C0.058,-0.418 0.068,-0.444 0.087,-0.467C0.107,-0.49 0.135,-0.508 0.172,-0.52C0.209,-0.533 0.254,-0.539 0.306,-0.539C0.357,-0.539 0.401,-0.533 0.437,-0.52C0.473,-0.507 0.5,-0.488 0.519,-0.463C0.538,-0.438 0.547,-0.407 0.547,-0.368L0.547,-0.134C0.547,-0.122 0.55,-0.113 0.556,-0.106C0.563,-0.1 0.571,-0.097 0.581,-0.097L0.619,-0.097L0.619,-0.005C0.612,-0.002 0.6,0.002 0.585,0.005C0.57,0.009 0.553,0.011 0.532,0.011C0.51,0.011 0.491,0.008 0.475,0.002C0.46,-0.003 0.447,-0.011 0.437,-0.022C0.428,-0.033 0.421,-0.046 0.417,-0.061L0.411,-0.061C0.397,-0.046 0.381,-0.033 0.362,-0.022C0.344,-0.011 0.323,-0.003 0.299,0.003C0.276,0.009 0.249,0.012 0.22,0.012ZM0.265,-0.095C0.284,-0.095 0.301,-0.097 0.318,-0.102C0.335,-0.107 0.349,-0.115 0.362,-0.124C0.375,-0.133 0.385,-0.145 0.392,-0.158C0.4,-0.172 0.404,-0.187 0.404,-0.204L0.404,-0.233C0.359,-0.233 0.319,-0.23 0.285,-0.225C0.252,-0.22 0.226,-0.212 0.207,-0.2C0.189,-0.188 0.18,-0.172 0.18,-0.151C0.18,-0.138 0.184,-0.127 0.191,-0.119C0.198,-0.111 0.208,-0.105 0.221,-0.101C0.234,-0.097 0.248,-0.095 0.265,-0.095Z" style="fill:rgb(125,125,125);fill-rule:nonzero;"/>
            </g>
            <g transform="matrix(24,0,0,24,504.008,421.943)">
                <path d="M0.293,0.012C0.256,0.012 0.221,0.008 0.19,-0C0.159,-0.007 0.133,-0.018 0.11,-0.032C0.087,-0.046 0.07,-0.063 0.057,-0.083C0.045,-0.103 0.039,-0.126 0.039,-0.152L0.039,-0.16C0.039,-0.163 0.039,-0.165 0.04,-0.167L0.18,-0.167L0.18,-0.158C0.181,-0.141 0.186,-0.128 0.197,-0.118C0.208,-0.108 0.222,-0.101 0.239,-0.096C0.257,-0.092 0.276,-0.09 0.296,-0.09C0.313,-0.09 0.33,-0.091 0.347,-0.094C0.364,-0.097 0.379,-0.103 0.39,-0.11C0.401,-0.118 0.407,-0.129 0.407,-0.143C0.407,-0.159 0.4,-0.171 0.386,-0.179C0.372,-0.187 0.353,-0.194 0.329,-0.199C0.306,-0.204 0.28,-0.21 0.251,-0.216C0.226,-0.221 0.202,-0.227 0.178,-0.234C0.155,-0.241 0.133,-0.251 0.114,-0.262C0.095,-0.274 0.08,-0.289 0.069,-0.307C0.058,-0.326 0.052,-0.349 0.052,-0.376C0.052,-0.404 0.058,-0.428 0.071,-0.449C0.084,-0.47 0.101,-0.486 0.123,-0.499C0.145,-0.512 0.171,-0.522 0.201,-0.528C0.232,-0.535 0.264,-0.538 0.299,-0.538C0.332,-0.538 0.363,-0.535 0.391,-0.528C0.419,-0.522 0.444,-0.513 0.465,-0.5C0.487,-0.488 0.504,-0.473 0.516,-0.454C0.528,-0.436 0.534,-0.415 0.534,-0.392L0.534,-0.38C0.534,-0.377 0.534,-0.374 0.533,-0.373L0.394,-0.373L0.394,-0.38C0.394,-0.392 0.39,-0.402 0.381,-0.41C0.372,-0.419 0.361,-0.425 0.346,-0.43C0.331,-0.435 0.314,-0.437 0.295,-0.437C0.283,-0.437 0.271,-0.436 0.259,-0.434C0.247,-0.433 0.236,-0.43 0.226,-0.426C0.217,-0.422 0.209,-0.417 0.203,-0.411C0.197,-0.406 0.194,-0.399 0.194,-0.39C0.194,-0.378 0.2,-0.368 0.211,-0.361C0.222,-0.354 0.237,-0.349 0.256,-0.344C0.275,-0.34 0.295,-0.335 0.318,-0.33C0.344,-0.325 0.371,-0.319 0.398,-0.312C0.425,-0.306 0.45,-0.297 0.473,-0.286C0.496,-0.275 0.515,-0.26 0.528,-0.24C0.542,-0.221 0.549,-0.194 0.549,-0.161C0.549,-0.129 0.543,-0.102 0.53,-0.079C0.517,-0.057 0.499,-0.039 0.476,-0.026C0.453,-0.013 0.426,-0.003 0.395,0.003C0.364,0.009 0.33,0.012 0.293,0.012Z" style="fill:rgb(125,125,125);fill-rule:nonzero;"/>
            </g>
            <g transform="matrix(24,0,0,24,518.096,421.943)">
                <path d="M0.323,0.012C0.262,0.012 0.211,0.002 0.169,-0.017C0.127,-0.037 0.095,-0.067 0.073,-0.108C0.051,-0.149 0.04,-0.2 0.04,-0.263C0.04,-0.326 0.051,-0.377 0.073,-0.418C0.095,-0.459 0.127,-0.489 0.168,-0.509C0.209,-0.529 0.26,-0.539 0.32,-0.539C0.377,-0.539 0.426,-0.529 0.465,-0.509C0.505,-0.49 0.535,-0.46 0.555,-0.421C0.576,-0.382 0.586,-0.331 0.586,-0.269L0.586,-0.231L0.187,-0.231C0.188,-0.2 0.194,-0.175 0.204,-0.154C0.214,-0.133 0.229,-0.118 0.248,-0.108C0.268,-0.098 0.293,-0.093 0.324,-0.093C0.34,-0.093 0.355,-0.095 0.369,-0.098C0.384,-0.102 0.396,-0.108 0.407,-0.116C0.418,-0.124 0.427,-0.134 0.433,-0.145C0.44,-0.156 0.443,-0.17 0.444,-0.185L0.585,-0.185C0.585,-0.154 0.579,-0.126 0.566,-0.101C0.554,-0.076 0.536,-0.056 0.513,-0.039C0.49,-0.022 0.462,-0.01 0.43,-0.001C0.398,0.008 0.362,0.012 0.323,0.012ZM0.189,-0.321L0.437,-0.321C0.437,-0.34 0.434,-0.357 0.429,-0.371C0.424,-0.385 0.416,-0.397 0.405,-0.406C0.395,-0.415 0.383,-0.422 0.369,-0.426C0.355,-0.431 0.339,-0.433 0.322,-0.433C0.295,-0.433 0.272,-0.429 0.253,-0.42C0.234,-0.412 0.22,-0.4 0.209,-0.383C0.198,-0.366 0.192,-0.346 0.189,-0.321Z" style="fill:rgb(125,125,125);fill-rule:nonzero;"/>
            </g>
        </g>
        <g transform="matrix(0.822516,0,0,0.822516,8.33511,69.4869)">
            <g transform="matrix(24,0,0,24,302.792,421.943)">
                <path d="M0.201,-0L0.009,-0.687L0.174,-0.687L0.28,-0.277C0.282,-0.27 0.284,-0.26 0.286,-0.248C0.289,-0.237 0.291,-0.225 0.293,-0.212C0.296,-0.199 0.298,-0.188 0.299,-0.178L0.305,-0.178C0.306,-0.186 0.308,-0.194 0.309,-0.203C0.31,-0.212 0.312,-0.222 0.313,-0.231C0.315,-0.24 0.317,-0.249 0.318,-0.257C0.32,-0.265 0.321,-0.272 0.322,-0.277L0.421,-0.687L0.612,-0.687L0.712,-0.277C0.714,-0.27 0.716,-0.26 0.718,-0.248C0.721,-0.237 0.723,-0.225 0.725,-0.212C0.728,-0.199 0.73,-0.188 0.731,-0.178L0.736,-0.178C0.737,-0.185 0.739,-0.193 0.741,-0.202C0.743,-0.211 0.745,-0.22 0.746,-0.229C0.748,-0.238 0.75,-0.247 0.752,-0.255C0.754,-0.263 0.756,-0.27 0.758,-0.277L0.863,-0.687L1.012,-0.687L0.82,-0L0.641,-0L0.533,-0.426C0.531,-0.435 0.529,-0.446 0.526,-0.458C0.523,-0.47 0.521,-0.482 0.519,-0.494C0.517,-0.506 0.515,-0.517 0.514,-0.526L0.51,-0.526C0.509,-0.517 0.507,-0.506 0.504,-0.493C0.502,-0.48 0.5,-0.468 0.498,-0.456C0.496,-0.444 0.494,-0.434 0.491,-0.426L0.385,-0L0.201,-0Z" style="fill:rgb(125,125,125);fill-rule:nonzero;"/>
            </g>
            <g transform="matrix(24,0,0,24,326.12,421.943)">
                <path d="M0.323,0.012C0.262,0.012 0.211,0.002 0.169,-0.017C0.127,-0.037 0.095,-0.067 0.073,-0.108C0.051,-0.149 0.04,-0.2 0.04,-0.263C0.04,-0.326 0.051,-0.377 0.073,-0.418C0.095,-0.459 0.127,-0.489 0.168,-0.509C0.209,-0.529 0.26,-0.539 0.32,-0.539C0.377,-0.539 0.426,-0.529 0.465,-0.509C0.505,-0.49 0.535,-0.46 0.555,-0.421C0.576,-0.382 0.586,-0.331 0.586,-0.269L0.586,-0.231L0.187,-0.231C0.188,-0.2 0.194,-0.175 0.204,-0.154C0.214,-0.133 0.229,-0.118 0.248,-0.108C0.268,-0.098 0.293,-0.093 0.324,-0.093C0.34,-0.093 0.355,-0.095 0.369,-0.098C0.384,-0.102 0.396,-0.108 0.407,-0.116C0.418,-0.124 0.427,-0.134 0.433,-0.145C0.44,-0.156 0.443,-0.17 0.444,-0.185L0.585,-0.185C0.585,-0.154 0.579,-0.126 0.566,-0.101C0.554,-0.076 0.536,-0.056 0.513,-0.039C0.49,-0.022 0.462,-0.01 0.43,-0.001C0.398,0.008 0.362,0.012 0.323,0.012ZM0.189,-0.321L0.437,-0.321C0.437,-0.34 0.434,-0.357 0.429,-0.371C0.424,-0.385 0.416,-0.397 0.405,-0.406C0.395,-0.415 0.383,-0.422 0.369,-0.426C0.355,-0.431 0.339,-0.433 0.322,-0.433C0.295,-0.433 0.272,-0.429 0.253,-0.42C0.234,-0.412 0.22,-0.4 0.209,-0.383C0.198,-0.366 0.192,-0.346 0.189,-0.321Z" style="fill:rgb(125,125,125);fill-rule:nonzero;"/>
            </g>
            <g transform="matrix(24,0,0,24,341.168,421.943)">
                <path d="M0.374,0.012C0.338,0.012 0.305,0.005 0.275,-0.009C0.245,-0.023 0.22,-0.045 0.201,-0.074L0.194,-0.074L0.182,-0L0.065,-0L0.065,-0.724L0.208,-0.724L0.208,-0.467L0.215,-0.467C0.226,-0.482 0.24,-0.495 0.257,-0.506C0.274,-0.517 0.292,-0.526 0.313,-0.531C0.334,-0.536 0.356,-0.539 0.38,-0.539C0.423,-0.539 0.462,-0.529 0.495,-0.509C0.528,-0.49 0.554,-0.46 0.573,-0.419C0.592,-0.378 0.601,-0.327 0.601,-0.264C0.601,-0.201 0.592,-0.149 0.573,-0.108C0.554,-0.067 0.528,-0.037 0.494,-0.017C0.461,0.002 0.421,0.012 0.374,0.012ZM0.331,-0.105C0.36,-0.105 0.384,-0.11 0.402,-0.121C0.42,-0.132 0.433,-0.149 0.442,-0.171C0.451,-0.193 0.455,-0.22 0.455,-0.252L0.455,-0.273C0.455,-0.306 0.451,-0.333 0.442,-0.355C0.433,-0.377 0.42,-0.394 0.402,-0.405C0.384,-0.416 0.36,-0.422 0.331,-0.422C0.31,-0.422 0.292,-0.418 0.276,-0.411C0.261,-0.404 0.248,-0.394 0.238,-0.381C0.228,-0.368 0.22,-0.352 0.215,-0.333C0.21,-0.314 0.208,-0.293 0.208,-0.27L0.208,-0.255C0.208,-0.224 0.212,-0.197 0.221,-0.174C0.23,-0.152 0.243,-0.135 0.261,-0.123C0.28,-0.111 0.303,-0.105 0.331,-0.105Z" style="fill:rgb(125,125,125);fill-rule:nonzero;"/>
            </g>
            <g transform="matrix(24,0,0,24,361.928,421.943)">
                <path d="M0.293,0.012C0.256,0.012 0.221,0.008 0.19,-0C0.159,-0.007 0.133,-0.018 0.11,-0.032C0.087,-0.046 0.07,-0.063 0.057,-0.083C0.045,-0.103 0.039,-0.126 0.039,-0.152L0.039,-0.16C0.039,-0.163 0.039,-0.165 0.04,-0.167L0.18,-0.167L0.18,-0.158C0.181,-0.141 0.186,-0.128 0.197,-0.118C0.208,-0.108 0.222,-0.101 0.239,-0.096C0.257,-0.092 0.276,-0.09 0.296,-0.09C0.313,-0.09 0.33,-0.091 0.347,-0.094C0.364,-0.097 0.379,-0.103 0.39,-0.11C0.401,-0.118 0.407,-0.129 0.407,-0.143C0.407,-0.159 0.4,-0.171 0.386,-0.179C0.372,-0.187 0.353,-0.194 0.329,-0.199C0.306,-0.204 0.28,-0.21 0.251,-0.216C0.226,-0.221 0.202,-0.227 0.178,-0.234C0.155,-0.241 0.133,-0.251 0.114,-0.262C0.095,-0.274 0.08,-0.289 0.069,-0.307C0.058,-0.326 0.052,-0.349 0.052,-0.376C0.052,-0.404 0.058,-0.428 0.071,-0.449C0.084,-0.47 0.101,-0.486 0.123,-0.499C0.145,-0.512 0.171,-0.522 0.201,-0.528C0.232,-0.535 0.264,-0.538 0.299,-0.538C0.332,-0.538 0.363,-0.535 0.391,-0.528C0.419,-0.522 0.444,-0.513 0.465,-0.5C0.487,-0.488 0.504,-0.473 0.516,-0.454C0.528,-0.436 0.534,-0.415 0.534,-0.392L0.534,-0.38C0.534,-0.377 0.534,-0.374 0.533,-0.373L0.394,-0.373L0.394,-0.38C0.394,-0.392 0.39,-0.402 0.381,-0.41C0.372,-0.419 0.361,-0.425 0.346,-0.43C0.331,-0.435 0.314,-0.437 0.295,-0.437C0.283,-0.437 0.271,-0.436 0.259,-0.434C0.247,-0.433 0.236,-0.43 0.226,-0.426C0.217,-0.422 0.209,-0.417 0.203,-0.411C0.197,-0.406 0.194,-0.399 0.194,-0.39C0.194,-0.378 0.2,-0.368 0.211,-0.361C0.222,-0.354 0.237,-0.349 0.256,-0.344C0.275,-0.34 0.295,-0.335 0.318,-0.33C0.344,-0.325 0.371,-0.319 0.398,-0.312C0.425,-0.306 0.45,-0.297 0.473,-0.286C0.496,-0.275 0.515,-0.26 0.528,-0.24C0.542,-0.221 0.549,-0.194 0.549,-0.161C0.549,-0.129 0.543,-0.102 0.53,-0.079C0.517,-0.057 0.499,-0.039 0.476,-0.026C0.453,-0.013 0.426,-0.003 0.395,0.003C0.364,0.009 0.33,0.012 0.293,0.012Z" style="fill:rgb(125,125,125);fill-rule:nonzero;"/>
            </g>
            <g transform="matrix(24,0,0,24,376.016,421.943)">
                <path d="M0.323,0.012C0.262,0.012 0.211,0.002 0.169,-0.017C0.127,-0.037 0.095,-0.067 0.073,-0.108C0.051,-0.149 0.04,-0.2 0.04,-0.263C0.04,-0.326 0.051,-0.377 0.073,-0.418C0.095,-0.459 0.127,-0.489 0.168,-0.509C0.209,-0.529 0.26,-0.539 0.32,-0.539C0.377,-0.539 0.426,-0.529 0.465,-0.509C0.505,-0.49 0.535,-0.46 0.555,-0.421C0.576,-0.382 0.586,-0.331 0.586,-0.269L0.586,-0.231L0.187,-0.231C0.188,-0.2 0.194,-0.175 0.204,-0.154C0.214,-0.133 0.229,-0.118 0.248,-0.108C0.268,-0.098 0.293,-0.093 0.324,-0.093C0.34,-0.093 0.355,-0.095 0.369,-0.098C0.384,-0.102 0.396,-0.108 0.407,-0.116C0.418,-0.124 0.427,-0.134 0.433,-0.145C0.44,-0.156 0.443,-0.17 0.444,-0.185L0.585,-0.185C0.585,-0.154 0.579,-0.126 0.566,-0.101C0.554,-0.076 0.536,-0.056 0.513,-0.039C0.49,-0.022 0.462,-0.01 0.43,-0.001C0.398,0.008 0.362,0.012 0.323,0.012ZM0.189,-0.321L0.437,-0.321C0.437,-0.34 0.434,-0.357 0.429,-0.371C0.424,-0.385 0.416,-0.397 0.405,-0.406C0.395,-0.415 0.383,-0.422 0.369,-0.426C0.355,-0.431 0.339,-0.433 0.322,-0.433C0.295,-0.433 0.272,-0.429 0.253,-0.42C0.234,-0.412 0.22,-0.4 0.209,-0.383C0.198,-0.366 0.192,-0.346 0.189,-0.321Z" style="fill:rgb(125,125,125);fill-rule:nonzero;"/>
            </g>
            <g transform="matrix(24,0,0,24,391.064,421.943)">
                <path d="M0.22,0.012C0.199,0.012 0.177,0.01 0.155,0.005C0.134,0.001 0.114,-0.006 0.096,-0.017C0.078,-0.028 0.063,-0.043 0.052,-0.062C0.041,-0.082 0.036,-0.107 0.036,-0.138C0.036,-0.176 0.045,-0.207 0.062,-0.231C0.08,-0.255 0.105,-0.273 0.138,-0.286C0.171,-0.299 0.209,-0.308 0.254,-0.313C0.299,-0.318 0.349,-0.32 0.404,-0.32L0.404,-0.355C0.404,-0.372 0.401,-0.386 0.394,-0.397C0.387,-0.409 0.377,-0.418 0.362,-0.424C0.348,-0.431 0.328,-0.434 0.303,-0.434C0.28,-0.434 0.261,-0.431 0.245,-0.426C0.23,-0.421 0.218,-0.415 0.211,-0.407C0.204,-0.399 0.2,-0.39 0.2,-0.379L0.2,-0.368L0.059,-0.368C0.058,-0.371 0.058,-0.373 0.058,-0.376L0.058,-0.387C0.058,-0.418 0.068,-0.444 0.087,-0.467C0.107,-0.49 0.135,-0.508 0.172,-0.52C0.209,-0.533 0.254,-0.539 0.306,-0.539C0.357,-0.539 0.401,-0.533 0.437,-0.52C0.473,-0.507 0.5,-0.488 0.519,-0.463C0.538,-0.438 0.547,-0.407 0.547,-0.368L0.547,-0.134C0.547,-0.122 0.55,-0.113 0.556,-0.106C0.563,-0.1 0.571,-0.097 0.581,-0.097L0.619,-0.097L0.619,-0.005C0.612,-0.002 0.6,0.002 0.585,0.005C0.57,0.009 0.553,0.011 0.532,0.011C0.51,0.011 0.491,0.008 0.475,0.002C0.46,-0.003 0.447,-0.011 0.437,-0.022C0.428,-0.033 0.421,-0.046 0.417,-0.061L0.411,-0.061C0.397,-0.046 0.381,-0.033 0.362,-0.022C0.344,-0.011 0.323,-0.003 0.299,0.003C0.276,0.009 0.249,0.012 0.22,0.012ZM0.265,-0.095C0.284,-0.095 0.301,-0.097 0.318,-0.102C0.335,-0.107 0.349,-0.115 0.362,-0.124C0.375,-0.133 0.385,-0.145 0.392,-0.158C0.4,-0.172 0.404,-0.187 0.404,-0.204L0.404,-0.233C0.359,-0.233 0.319,-0.23 0.285,-0.225C0.252,-0.22 0.226,-0.212 0.207,-0.2C0.189,-0.188 0.18,-0.172 0.18,-0.151C0.18,-0.138 0.184,-0.127 0.191,-0.119C0.198,-0.111 0.208,-0.105 0.221,-0.101C0.234,-0.097 0.248,-0.095 0.265,-0.095Z" style="fill:rgb(125,125,125);fill-rule:nonzero;"/>
            </g>
            <g transform="matrix(24,0,0,24,406.016,421.943)">
                <path d="M0.065,-0L0.065,-0.527L0.183,-0.527L0.194,-0.442L0.201,-0.442C0.208,-0.46 0.218,-0.476 0.229,-0.491C0.241,-0.506 0.255,-0.517 0.272,-0.526C0.289,-0.535 0.309,-0.539 0.332,-0.539C0.344,-0.539 0.355,-0.538 0.364,-0.536C0.374,-0.534 0.382,-0.532 0.388,-0.529L0.388,-0.402L0.337,-0.402C0.315,-0.402 0.296,-0.399 0.28,-0.392C0.264,-0.386 0.251,-0.377 0.24,-0.364C0.229,-0.351 0.221,-0.336 0.216,-0.319C0.211,-0.302 0.208,-0.282 0.208,-0.26L0.208,-0L0.065,-0Z" style="fill:rgb(125,125,125);fill-rule:nonzero;"/>
            </g>
            <g transform="matrix(24,0,0,24,415.328,421.943)">
                <path d="M0.316,0.012C0.257,0.012 0.206,0.002 0.165,-0.018C0.124,-0.038 0.093,-0.068 0.072,-0.109C0.051,-0.15 0.041,-0.201 0.041,-0.263C0.041,-0.326 0.052,-0.377 0.073,-0.418C0.094,-0.459 0.125,-0.489 0.166,-0.509C0.207,-0.529 0.257,-0.539 0.316,-0.539C0.354,-0.539 0.389,-0.534 0.42,-0.525C0.451,-0.516 0.478,-0.503 0.501,-0.485C0.524,-0.468 0.542,-0.445 0.554,-0.418C0.567,-0.391 0.573,-0.36 0.573,-0.325L0.429,-0.325C0.429,-0.348 0.424,-0.368 0.415,-0.383C0.406,-0.398 0.393,-0.41 0.376,-0.418C0.359,-0.426 0.339,-0.43 0.314,-0.43C0.285,-0.43 0.262,-0.424 0.243,-0.412C0.224,-0.4 0.21,-0.382 0.201,-0.359C0.192,-0.336 0.187,-0.308 0.187,-0.274L0.187,-0.252C0.187,-0.219 0.192,-0.19 0.201,-0.167C0.21,-0.144 0.225,-0.126 0.244,-0.114C0.264,-0.103 0.289,-0.097 0.32,-0.097C0.343,-0.097 0.364,-0.101 0.381,-0.109C0.398,-0.117 0.412,-0.129 0.421,-0.145C0.43,-0.161 0.435,-0.18 0.435,-0.203L0.573,-0.203C0.573,-0.168 0.567,-0.137 0.554,-0.11C0.542,-0.083 0.524,-0.061 0.501,-0.042C0.478,-0.024 0.451,-0.01 0.42,-0.001C0.389,0.008 0.354,0.012 0.316,0.012Z" style="fill:rgb(125,125,125);fill-rule:nonzero;"/>
            </g>
            <g transform="matrix(24,0,0,24,430.088,421.943)">
                <path d="M0.065,-0L0.065,-0.724L0.208,-0.724L0.208,-0.465L0.215,-0.465C0.228,-0.481 0.244,-0.494 0.261,-0.505C0.278,-0.516 0.297,-0.524 0.318,-0.53C0.339,-0.536 0.362,-0.539 0.385,-0.539C0.424,-0.539 0.458,-0.532 0.485,-0.518C0.513,-0.505 0.534,-0.484 0.549,-0.455C0.564,-0.427 0.572,-0.39 0.572,-0.345L0.572,-0L0.428,-0L0.428,-0.322C0.428,-0.34 0.426,-0.355 0.421,-0.367C0.417,-0.38 0.411,-0.39 0.402,-0.398C0.393,-0.406 0.383,-0.412 0.371,-0.415C0.359,-0.419 0.345,-0.421 0.33,-0.421C0.307,-0.421 0.287,-0.416 0.268,-0.405C0.25,-0.395 0.235,-0.381 0.224,-0.362C0.213,-0.344 0.208,-0.323 0.208,-0.3L0.208,-0L0.065,-0Z" style="fill:rgb(125,125,125);fill-rule:nonzero;"/>
            </g>
            <g transform="matrix(24,0,0,24,450.68,421.943)">
                <path d="M0.323,0.012C0.262,0.012 0.211,0.002 0.169,-0.017C0.127,-0.037 0.095,-0.067 0.073,-0.108C0.051,-0.149 0.04,-0.2 0.04,-0.263C0.04,-0.326 0.051,-0.377 0.073,-0.418C0.095,-0.459 0.127,-0.489 0.168,-0.509C0.209,-0.529 0.26,-0.539 0.32,-0.539C0.377,-0.539 0.426,-0.529 0.465,-0.509C0.505,-0.49 0.535,-0.46 0.555,-0.421C0.576,-0.382 0.586,-0.331 0.586,-0.269L0.586,-0.231L0.187,-0.231C0.188,-0.2 0.194,-0.175 0.204,-0.154C0.214,-0.133 0.229,-0.118 0.248,-0.108C0.268,-0.098 0.293,-0.093 0.324,-0.093C0.34,-0.093 0.355,-0.095 0.369,-0.098C0.384,-0.102 0.396,-0.108 0.407,-0.116C0.418,-0.124 0.427,-0.134 0.433,-0.145C0.44,-0.156 0.443,-0.17 0.444,-0.185L0.585,-0.185C0.585,-0.154 0.579,-0.126 0.566,-0.101C0.554,-0.076 0.536,-0.056 0.513,-0.039C0.49,-0.022 0.462,-0.01 0.43,-0.001C0.398,0.008 0.362,0.012 0.323,0.012ZM0.189,-0.321L0.437,-0.321C0.437,-0.34 0.434,-0.357 0.429,-0.371C0.424,-0.385 0.416,-0.397 0.405,-0.406C0.395,-0.415 0.383,-0.422 0.369,-0.426C0.355,-0.431 0.339,-0.433 0.322,-0.433C0.295,-0.433 0.272,-0.429 0.253,-0.42C0.234,-0.412 0.22,-0.4 0.209,-0.383C0.198,-0.366 0.192,-0.346 0.189,-0.321Z" style="fill:rgb(125,125,125);fill-rule:nonzero;"/>
            </g>
            <g transform="matrix(24,0,0,24,465.728,421.943)">
                <path d="M0.065,-0L0.065,-0.527L0.183,-0.527L0.194,-0.45L0.201,-0.45C0.215,-0.469 0.231,-0.485 0.25,-0.498C0.269,-0.511 0.29,-0.521 0.313,-0.528C0.336,-0.535 0.36,-0.539 0.385,-0.539C0.424,-0.539 0.458,-0.532 0.485,-0.518C0.513,-0.505 0.534,-0.484 0.549,-0.455C0.564,-0.427 0.572,-0.39 0.572,-0.345L0.572,-0L0.428,-0L0.428,-0.322C0.428,-0.34 0.426,-0.355 0.421,-0.367C0.417,-0.38 0.411,-0.39 0.402,-0.398C0.393,-0.406 0.383,-0.412 0.371,-0.415C0.359,-0.419 0.345,-0.421 0.33,-0.421C0.307,-0.421 0.287,-0.416 0.268,-0.405C0.25,-0.395 0.235,-0.381 0.224,-0.362C0.213,-0.344 0.208,-0.323 0.208,-0.3L0.208,-0L0.065,-0Z" style="fill:rgb(125,125,125);fill-rule:nonzero;"/>
            </g>
            <g transform="matrix(24,0,0,24,480.944,421.943)">
                <path d="M0.157,0.191C0.132,0.191 0.108,0.186 0.086,0.177C0.065,0.168 0.047,0.154 0.034,0.135C0.021,0.116 0.015,0.093 0.015,0.066C0.015,0.038 0.024,0.015 0.041,-0.003C0.058,-0.022 0.078,-0.036 0.101,-0.045C0.084,-0.054 0.071,-0.066 0.061,-0.081C0.052,-0.096 0.047,-0.113 0.047,-0.132C0.047,-0.158 0.056,-0.18 0.075,-0.197C0.094,-0.214 0.117,-0.225 0.144,-0.23C0.119,-0.245 0.1,-0.264 0.085,-0.287C0.071,-0.31 0.064,-0.336 0.064,-0.365C0.064,-0.404 0.074,-0.436 0.094,-0.461C0.115,-0.487 0.144,-0.506 0.182,-0.519C0.22,-0.532 0.265,-0.539 0.317,-0.539C0.338,-0.539 0.357,-0.538 0.375,-0.535C0.393,-0.533 0.409,-0.53 0.424,-0.525C0.451,-0.54 0.469,-0.556 0.48,-0.573C0.491,-0.591 0.498,-0.606 0.499,-0.617L0.632,-0.617C0.631,-0.592 0.626,-0.571 0.617,-0.553C0.608,-0.535 0.594,-0.52 0.577,-0.508C0.56,-0.497 0.539,-0.488 0.514,-0.482C0.532,-0.468 0.546,-0.451 0.555,-0.43C0.565,-0.41 0.57,-0.388 0.57,-0.364C0.57,-0.327 0.561,-0.295 0.542,-0.269C0.523,-0.243 0.497,-0.223 0.462,-0.21C0.427,-0.197 0.386,-0.19 0.337,-0.19L0.243,-0.19C0.226,-0.19 0.214,-0.187 0.205,-0.181C0.196,-0.175 0.192,-0.167 0.192,-0.156C0.192,-0.147 0.196,-0.139 0.204,-0.132C0.212,-0.125 0.225,-0.122 0.242,-0.122L0.482,-0.122C0.528,-0.122 0.564,-0.108 0.591,-0.08C0.618,-0.053 0.631,-0.017 0.631,0.026C0.631,0.058 0.622,0.086 0.605,0.111C0.588,0.136 0.565,0.156 0.536,0.17C0.507,0.184 0.473,0.191 0.435,0.191L0.157,0.191ZM0.213,0.096L0.426,0.096C0.437,0.096 0.448,0.094 0.457,0.09C0.466,0.086 0.474,0.08 0.479,0.071C0.484,0.063 0.487,0.054 0.487,0.044C0.487,0.027 0.481,0.014 0.47,0.005C0.459,-0.004 0.446,-0.008 0.43,-0.008L0.214,-0.008C0.198,-0.008 0.184,-0.003 0.173,0.006C0.162,0.015 0.157,0.028 0.157,0.044C0.157,0.059 0.162,0.072 0.173,0.081C0.184,0.091 0.197,0.096 0.213,0.096ZM0.317,-0.282C0.353,-0.282 0.38,-0.289 0.399,-0.302C0.418,-0.316 0.428,-0.337 0.428,-0.364C0.428,-0.392 0.418,-0.413 0.399,-0.426C0.38,-0.44 0.353,-0.447 0.317,-0.447C0.282,-0.447 0.254,-0.44 0.235,-0.426C0.216,-0.413 0.206,-0.392 0.206,-0.364C0.206,-0.346 0.21,-0.331 0.219,-0.318C0.228,-0.306 0.24,-0.297 0.256,-0.291C0.273,-0.285 0.293,-0.282 0.317,-0.282Z" style="fill:rgb(125,125,125);fill-rule:nonzero;"/>
            </g>
            <g transform="matrix(24,0,0,24,496.328,421.943)">
                <path d="M0.065,-0.604L0.065,-0.724L0.208,-0.724L0.208,-0.604L0.065,-0.604ZM0.065,-0L0.065,-0.527L0.208,-0.527L0.208,-0L0.065,-0Z" style="fill:rgb(125,125,125);fill-rule:nonzero;"/>
            </g>
            <g transform="matrix(24,0,0,24,502.88,421.943)">
                <path d="M0.065,-0L0.065,-0.527L0.183,-0.527L0.194,-0.45L0.201,-0.45C0.215,-0.469 0.231,-0.485 0.25,-0.498C0.269,-0.511 0.29,-0.521 0.313,-0.528C0.336,-0.535 0.36,-0.539 0.385,-0.539C0.424,-0.539 0.458,-0.532 0.485,-0.518C0.513,-0.505 0.534,-0.484 0.549,-0.455C0.564,-0.427 0.572,-0.39 0.572,-0.345L0.572,-0L0.428,-0L0.428,-0.322C0.428,-0.34 0.426,-0.355 0.421,-0.367C0.417,-0.38 0.411,-0.39 0.402,-0.398C0.393,-0.406 0.383,-0.412 0.371,-0.415C0.359,-0.419 0.345,-0.421 0.33,-0.421C0.307,-0.421 0.287,-0.416 0.268,-0.405C0.25,-0.395 0.235,-0.381 0.224,-0.362C0.213,-0.344 0.208,-0.323 0.208,-0.3L0.208,-0L0.065,-0Z" style="fill:rgb(125,125,125);fill-rule:nonzero;"/>
            </g>
            <g transform="matrix(24,0,0,24,518.096,421.943)">
                <path d="M0.323,0.012C0.262,0.012 0.211,0.002 0.169,-0.017C0.127,-0.037 0.095,-0.067 0.073,-0.108C0.051,-0.149 0.04,-0.2 0.04,-0.263C0.04,-0.326 0.051,-0.377 0.073,-0.418C0.095,-0.459 0.127,-0.489 0.168,-0.509C0.209,-0.529 0.26,-0.539 0.32,-0.539C0.377,-0.539 0.426,-0.529 0.465,-0.509C0.505,-0.49 0.535,-0.46 0.555,-0.421C0.576,-0.382 0.586,-0.331 0.586,-0.269L0.586,-0.231L0.187,-0.231C0.188,-0.2 0.194,-0.175 0.204,-0.154C0.214,-0.133 0.229,-0.118 0.248,-0.108C0.268,-0.098 0.293,-0.093 0.324,-0.093C0.34,-0.093 0.355,-0.095 0.369,-0.098C0.384,-0.102 0.396,-0.108 0.407,-0.116C0.418,-0.124 0.427,-0.134 0.433,-0.145C0.44,-0.156 0.443,-0.17 0.444,-0.185L0.585,-0.185C0.585,-0.154 0.579,-0.126 0.566,-0.101C0.554,-0.076 0.536,-0.056 0.513,-0.039C0.49,-0.022 0.462,-0.01 0.43,-0.001C0.398,0.008 0.362,0.012 0.323,0.012ZM0.189,-0.321L0.437,-0.321C0.437,-0.34 0.434,-0.357 0.429,-0.371C0.424,-0.385 0.416,-0.397 0.405,-0.406C0.395,-0.415 0.383,-0.422 0.369,-0.426C0.355,-0.431 0.339,-0.433 0.322,-0.433C0.295,-0.433 0.272,-0.429 0.253,-0.42C0.234,-0.412 0.22,-0.4 0.209,-0.383C0.198,-0.366 0.192,-0.346 0.189,-0.321Z" style="fill:rgb(125,125,125);fill-rule:nonzero;"/>
            </g>
        </g>
        <g transform="matrix(0.822516,0,0,0.822516,8.33511,113.473)">
            <g transform="matrix(24,0,0,24,368.648,421.943)">
                <path d="M0.367,0.012C0.324,0.012 0.283,0.008 0.244,-0C0.205,-0.007 0.171,-0.02 0.142,-0.037C0.113,-0.054 0.089,-0.077 0.072,-0.104C0.055,-0.132 0.047,-0.166 0.047,-0.206L0.047,-0.215C0.048,-0.218 0.048,-0.221 0.048,-0.223L0.202,-0.223C0.201,-0.222 0.201,-0.219 0.2,-0.215L0.2,-0.206C0.2,-0.185 0.207,-0.167 0.22,-0.153C0.233,-0.139 0.252,-0.128 0.277,-0.121C0.302,-0.114 0.33,-0.111 0.363,-0.111C0.382,-0.111 0.399,-0.112 0.415,-0.114C0.431,-0.116 0.445,-0.119 0.458,-0.123C0.471,-0.127 0.482,-0.132 0.491,-0.138C0.5,-0.144 0.507,-0.151 0.512,-0.159C0.517,-0.167 0.52,-0.176 0.52,-0.186C0.52,-0.204 0.513,-0.218 0.5,-0.229C0.487,-0.24 0.47,-0.25 0.448,-0.257C0.427,-0.264 0.402,-0.271 0.375,-0.277C0.348,-0.283 0.32,-0.289 0.291,-0.296C0.262,-0.303 0.234,-0.311 0.207,-0.321C0.18,-0.332 0.156,-0.344 0.134,-0.359C0.113,-0.374 0.095,-0.393 0.082,-0.416C0.069,-0.439 0.063,-0.467 0.063,-0.5C0.063,-0.534 0.07,-0.563 0.085,-0.588C0.1,-0.613 0.122,-0.634 0.149,-0.65C0.176,-0.667 0.208,-0.679 0.244,-0.687C0.281,-0.695 0.321,-0.699 0.365,-0.699C0.407,-0.699 0.446,-0.695 0.481,-0.686C0.517,-0.678 0.548,-0.666 0.574,-0.649C0.601,-0.632 0.621,-0.611 0.636,-0.586C0.651,-0.561 0.658,-0.531 0.658,-0.497L0.658,-0.484L0.507,-0.484L0.507,-0.493C0.507,-0.51 0.501,-0.525 0.49,-0.537C0.479,-0.55 0.462,-0.559 0.441,-0.566C0.42,-0.573 0.396,-0.577 0.368,-0.577C0.336,-0.577 0.309,-0.574 0.287,-0.569C0.266,-0.564 0.249,-0.556 0.238,-0.546C0.227,-0.536 0.222,-0.524 0.222,-0.511C0.222,-0.495 0.228,-0.482 0.241,-0.472C0.254,-0.462 0.271,-0.453 0.292,-0.446C0.314,-0.439 0.338,-0.433 0.365,-0.427C0.392,-0.422 0.42,-0.415 0.449,-0.408C0.478,-0.401 0.506,-0.393 0.533,-0.383C0.56,-0.374 0.585,-0.361 0.606,-0.346C0.628,-0.331 0.645,-0.312 0.658,-0.289C0.671,-0.267 0.678,-0.24 0.678,-0.208C0.678,-0.155 0.664,-0.113 0.637,-0.08C0.61,-0.048 0.574,-0.025 0.527,-0.01C0.48,0.005 0.427,0.012 0.367,0.012Z" style="fill:rgb(125,125,125);fill-rule:nonzero;"/>
            </g>
            <g transform="matrix(24,0,0,24,385.976,421.943)">
                <path d="M0.22,0.012C0.199,0.012 0.177,0.01 0.155,0.005C0.134,0.001 0.114,-0.006 0.096,-0.017C0.078,-0.028 0.063,-0.043 0.052,-0.062C0.041,-0.082 0.036,-0.107 0.036,-0.138C0.036,-0.176 0.045,-0.207 0.062,-0.231C0.08,-0.255 0.105,-0.273 0.138,-0.286C0.171,-0.299 0.209,-0.308 0.254,-0.313C0.299,-0.318 0.349,-0.32 0.404,-0.32L0.404,-0.355C0.404,-0.372 0.401,-0.386 0.394,-0.397C0.387,-0.409 0.377,-0.418 0.362,-0.424C0.348,-0.431 0.328,-0.434 0.303,-0.434C0.28,-0.434 0.261,-0.431 0.245,-0.426C0.23,-0.421 0.218,-0.415 0.211,-0.407C0.204,-0.399 0.2,-0.39 0.2,-0.379L0.2,-0.368L0.059,-0.368C0.058,-0.371 0.058,-0.373 0.058,-0.376L0.058,-0.387C0.058,-0.418 0.068,-0.444 0.087,-0.467C0.107,-0.49 0.135,-0.508 0.172,-0.52C0.209,-0.533 0.254,-0.539 0.306,-0.539C0.357,-0.539 0.401,-0.533 0.437,-0.52C0.473,-0.507 0.5,-0.488 0.519,-0.463C0.538,-0.438 0.547,-0.407 0.547,-0.368L0.547,-0.134C0.547,-0.122 0.55,-0.113 0.556,-0.106C0.563,-0.1 0.571,-0.097 0.581,-0.097L0.619,-0.097L0.619,-0.005C0.612,-0.002 0.6,0.002 0.585,0.005C0.57,0.009 0.553,0.011 0.532,0.011C0.51,0.011 0.491,0.008 0.475,0.002C0.46,-0.003 0.447,-0.011 0.437,-0.022C0.428,-0.033 0.421,-0.046 0.417,-0.061L0.411,-0.061C0.397,-0.046 0.381,-0.033 0.362,-0.022C0.344,-0.011 0.323,-0.003 0.299,0.003C0.276,0.009 0.249,0.012 0.22,0.012ZM0.265,-0.095C0.284,-0.095 0.301,-0.097 0.318,-0.102C0.335,-0.107 0.349,-0.115 0.362,-0.124C0.375,-0.133 0.385,-0.145 0.392,-0.158C0.4,-0.172 0.404,-0.187 0.404,-0.204L0.404,-0.233C0.359,-0.233 0.319,-0.23 0.285,-0.225C0.252,-0.22 0.226,-0.212 0.207,-0.2C0.189,-0.188 0.18,-0.172 0.18,-0.151C0.18,-0.138 0.184,-0.127 0.191,-0.119C0.198,-0.111 0.208,-0.105 0.221,-0.101C0.234,-0.097 0.248,-0.095 0.265,-0.095Z" style="fill:rgb(125,125,125);fill-rule:nonzero;"/>
            </g>
            <g transform="matrix(24,0,0,24,400.928,421.943)">
                <path d="M0.22,0.012C0.199,0.012 0.177,0.01 0.155,0.005C0.134,0.001 0.114,-0.006 0.096,-0.017C0.078,-0.028 0.063,-0.043 0.052,-0.062C0.041,-0.082 0.036,-0.107 0.036,-0.138C0.036,-0.176 0.045,-0.207 0.062,-0.231C0.08,-0.255 0.105,-0.273 0.138,-0.286C0.171,-0.299 0.209,-0.308 0.254,-0.313C0.299,-0.318 0.349,-0.32 0.404,-0.32L0.404,-0.355C0.404,-0.372 0.401,-0.386 0.394,-0.397C0.387,-0.409 0.377,-0.418 0.362,-0.424C0.348,-0.431 0.328,-0.434 0.303,-0.434C0.28,-0.434 0.261,-0.431 0.245,-0.426C0.23,-0.421 0.218,-0.415 0.211,-0.407C0.204,-0.399 0.2,-0.39 0.2,-0.379L0.2,-0.368L0.059,-0.368C0.058,-0.371 0.058,-0.373 0.058,-0.376L0.058,-0.387C0.058,-0.418 0.068,-0.444 0.087,-0.467C0.107,-0.49 0.135,-0.508 0.172,-0.52C0.209,-0.533 0.254,-0.539 0.306,-0.539C0.357,-0.539 0.401,-0.533 0.437,-0.52C0.473,-0.507 0.5,-0.488 0.519,-0.463C0.538,-0.438 0.547,-0.407 0.547,-0.368L0.547,-0.134C0.547,-0.122 0.55,-0.113 0.556,-0.106C0.563,-0.1 0.571,-0.097 0.581,-0.097L0.619,-0.097L0.619,-0.005C0.612,-0.002 0.6,0.002 0.585,0.005C0.57,0.009 0.553,0.011 0.532,0.011C0.51,0.011 0.491,0.008 0.475,0.002C0.46,-0.003 0.447,-0.011 0.437,-0.022C0.428,-0.033 0.421,-0.046 0.417,-0.061L0.411,-0.061C0.397,-0.046 0.381,-0.033 0.362,-0.022C0.344,-0.011 0.323,-0.003 0.299,0.003C0.276,0.009 0.249,0.012 0.22,0.012ZM0.265,-0.095C0.284,-0.095 0.301,-0.097 0.318,-0.102C0.335,-0.107 0.349,-0.115 0.362,-0.124C0.375,-0.133 0.385,-0.145 0.392,-0.158C0.4,-0.172 0.404,-0.187 0.404,-0.204L0.404,-0.233C0.359,-0.233 0.319,-0.23 0.285,-0.225C0.252,-0.22 0.226,-0.212 0.207,-0.2C0.189,-0.188 0.18,-0.172 0.18,-0.151C0.18,-0.138 0.184,-0.127 0.191,-0.119C0.198,-0.111 0.208,-0.105 0.221,-0.101C0.234,-0.097 0.248,-0.095 0.265,-0.095Z" style="fill:rgb(125,125,125);fill-rule:nonzero;"/>
            </g>
            <g transform="matrix(24,0,0,24,415.88,421.943)">
                <path d="M0.367,0.012C0.324,0.012 0.283,0.008 0.244,-0C0.205,-0.007 0.171,-0.02 0.142,-0.037C0.113,-0.054 0.089,-0.077 0.072,-0.104C0.055,-0.132 0.047,-0.166 0.047,-0.206L0.047,-0.215C0.048,-0.218 0.048,-0.221 0.048,-0.223L0.202,-0.223C0.201,-0.222 0.201,-0.219 0.2,-0.215L0.2,-0.206C0.2,-0.185 0.207,-0.167 0.22,-0.153C0.233,-0.139 0.252,-0.128 0.277,-0.121C0.302,-0.114 0.33,-0.111 0.363,-0.111C0.382,-0.111 0.399,-0.112 0.415,-0.114C0.431,-0.116 0.445,-0.119 0.458,-0.123C0.471,-0.127 0.482,-0.132 0.491,-0.138C0.5,-0.144 0.507,-0.151 0.512,-0.159C0.517,-0.167 0.52,-0.176 0.52,-0.186C0.52,-0.204 0.513,-0.218 0.5,-0.229C0.487,-0.24 0.47,-0.25 0.448,-0.257C0.427,-0.264 0.402,-0.271 0.375,-0.277C0.348,-0.283 0.32,-0.289 0.291,-0.296C0.262,-0.303 0.234,-0.311 0.207,-0.321C0.18,-0.332 0.156,-0.344 0.134,-0.359C0.113,-0.374 0.095,-0.393 0.082,-0.416C0.069,-0.439 0.063,-0.467 0.063,-0.5C0.063,-0.534 0.07,-0.563 0.085,-0.588C0.1,-0.613 0.122,-0.634 0.149,-0.65C0.176,-0.667 0.208,-0.679 0.244,-0.687C0.281,-0.695 0.321,-0.699 0.365,-0.699C0.407,-0.699 0.446,-0.695 0.481,-0.686C0.517,-0.678 0.548,-0.666 0.574,-0.649C0.601,-0.632 0.621,-0.611 0.636,-0.586C0.651,-0.561 0.658,-0.531 0.658,-0.497L0.658,-0.484L0.507,-0.484L0.507,-0.493C0.507,-0.51 0.501,-0.525 0.49,-0.537C0.479,-0.55 0.462,-0.559 0.441,-0.566C0.42,-0.573 0.396,-0.577 0.368,-0.577C0.336,-0.577 0.309,-0.574 0.287,-0.569C0.266,-0.564 0.249,-0.556 0.238,-0.546C0.227,-0.536 0.222,-0.524 0.222,-0.511C0.222,-0.495 0.228,-0.482 0.241,-0.472C0.254,-0.462 0.271,-0.453 0.292,-0.446C0.314,-0.439 0.338,-0.433 0.365,-0.427C0.392,-0.422 0.42,-0.415 0.449,-0.408C0.478,-0.401 0.506,-0.393 0.533,-0.383C0.56,-0.374 0.585,-0.361 0.606,-0.346C0.628,-0.331 0.645,-0.312 0.658,-0.289C0.671,-0.267 0.678,-0.24 0.678,-0.208C0.678,-0.155 0.664,-0.113 0.637,-0.08C0.61,-0.048 0.574,-0.025 0.527,-0.01C0.48,0.005 0.427,0.012 0.367,0.012Z" style="fill:rgb(125,125,125);fill-rule:nonzero;"/>
            </g>
            <g transform="matrix(24,0,0,24,438.584,421.943)">
                <path d="M0.065,0.181L0.065,-0.527L0.182,-0.527L0.194,-0.453L0.202,-0.453C0.221,-0.482 0.246,-0.504 0.275,-0.518C0.305,-0.532 0.338,-0.539 0.374,-0.539C0.421,-0.539 0.461,-0.529 0.494,-0.509C0.528,-0.49 0.554,-0.46 0.573,-0.419C0.592,-0.378 0.601,-0.326 0.601,-0.263C0.601,-0.2 0.592,-0.149 0.573,-0.108C0.554,-0.067 0.528,-0.037 0.495,-0.017C0.462,0.002 0.423,0.012 0.38,0.012C0.356,0.012 0.334,0.009 0.313,0.004C0.292,-0.001 0.274,-0.009 0.257,-0.02C0.24,-0.031 0.226,-0.044 0.215,-0.06L0.208,-0.06L0.208,0.181L0.065,0.181ZM0.331,-0.105C0.36,-0.105 0.384,-0.11 0.402,-0.121C0.42,-0.132 0.433,-0.149 0.442,-0.171C0.451,-0.193 0.455,-0.22 0.455,-0.252L0.455,-0.273C0.455,-0.306 0.451,-0.333 0.442,-0.355C0.433,-0.378 0.42,-0.394 0.402,-0.405C0.384,-0.416 0.36,-0.422 0.331,-0.422C0.303,-0.422 0.28,-0.416 0.261,-0.404C0.243,-0.392 0.23,-0.375 0.221,-0.352C0.212,-0.329 0.208,-0.302 0.208,-0.271L0.208,-0.256C0.208,-0.233 0.21,-0.212 0.215,-0.193C0.22,-0.174 0.228,-0.158 0.238,-0.145C0.248,-0.132 0.261,-0.122 0.276,-0.115C0.292,-0.108 0.31,-0.105 0.331,-0.105Z" style="fill:rgb(125,125,125);fill-rule:nonzero;"/>
            </g>
            <g transform="matrix(24,0,0,24,453.968,421.943)">
                <path d="M0.065,-0L0.065,-0.527L0.183,-0.527L0.194,-0.442L0.201,-0.442C0.208,-0.46 0.218,-0.476 0.229,-0.491C0.241,-0.506 0.255,-0.517 0.272,-0.526C0.289,-0.535 0.309,-0.539 0.332,-0.539C0.344,-0.539 0.355,-0.538 0.364,-0.536C0.374,-0.534 0.382,-0.532 0.388,-0.529L0.388,-0.402L0.337,-0.402C0.315,-0.402 0.296,-0.399 0.28,-0.392C0.264,-0.386 0.251,-0.377 0.24,-0.364C0.229,-0.351 0.221,-0.336 0.216,-0.319C0.211,-0.302 0.208,-0.282 0.208,-0.26L0.208,-0L0.065,-0Z" style="fill:rgb(125,125,125);fill-rule:nonzero;"/>
            </g>
            <g transform="matrix(24,0,0,24,463.28,421.943)">
                <path d="M0.324,0.012C0.264,0.012 0.213,0.002 0.17,-0.018C0.128,-0.038 0.096,-0.068 0.073,-0.109C0.051,-0.15 0.04,-0.201 0.04,-0.263C0.04,-0.326 0.051,-0.377 0.073,-0.418C0.096,-0.459 0.128,-0.489 0.17,-0.509C0.213,-0.529 0.264,-0.539 0.324,-0.539C0.385,-0.539 0.437,-0.529 0.479,-0.509C0.521,-0.489 0.553,-0.459 0.575,-0.418C0.597,-0.377 0.608,-0.326 0.608,-0.263C0.608,-0.201 0.597,-0.15 0.575,-0.109C0.553,-0.068 0.521,-0.038 0.479,-0.018C0.437,0.002 0.385,0.012 0.324,0.012ZM0.324,-0.097C0.356,-0.097 0.382,-0.103 0.402,-0.114C0.423,-0.126 0.438,-0.144 0.447,-0.167C0.457,-0.19 0.462,-0.219 0.462,-0.252L0.462,-0.275C0.462,-0.308 0.457,-0.336 0.447,-0.359C0.438,-0.382 0.423,-0.4 0.402,-0.411C0.382,-0.423 0.356,-0.429 0.324,-0.429C0.293,-0.429 0.267,-0.423 0.246,-0.411C0.226,-0.4 0.211,-0.382 0.201,-0.359C0.192,-0.336 0.187,-0.308 0.187,-0.275L0.187,-0.252C0.187,-0.219 0.192,-0.19 0.201,-0.167C0.211,-0.144 0.226,-0.126 0.246,-0.114C0.267,-0.103 0.293,-0.097 0.324,-0.097Z" style="fill:rgb(125,125,125);fill-rule:nonzero;"/>
            </g>
            <g transform="matrix(24,0,0,24,478.856,421.943)">
                <path d="M0.267,0.012C0.221,0.012 0.181,0.002 0.147,-0.017C0.113,-0.037 0.087,-0.067 0.068,-0.108C0.049,-0.149 0.04,-0.201 0.04,-0.264C0.04,-0.327 0.049,-0.378 0.068,-0.419C0.087,-0.46 0.114,-0.49 0.147,-0.509C0.18,-0.529 0.218,-0.539 0.261,-0.539C0.285,-0.539 0.307,-0.536 0.328,-0.531C0.349,-0.526 0.367,-0.518 0.384,-0.507C0.401,-0.496 0.415,-0.483 0.426,-0.467L0.433,-0.467L0.433,-0.724L0.576,-0.724L0.576,-0L0.459,-0L0.447,-0.074L0.44,-0.074C0.421,-0.045 0.396,-0.023 0.366,-0.009C0.336,0.005 0.303,0.012 0.267,0.012ZM0.31,-0.105C0.339,-0.105 0.362,-0.111 0.38,-0.123C0.398,-0.135 0.411,-0.152 0.42,-0.174C0.429,-0.197 0.433,-0.224 0.433,-0.255L0.433,-0.27C0.433,-0.293 0.43,-0.314 0.425,-0.333C0.42,-0.352 0.413,-0.368 0.403,-0.381C0.393,-0.394 0.38,-0.404 0.364,-0.411C0.349,-0.418 0.331,-0.422 0.31,-0.422C0.281,-0.422 0.257,-0.416 0.239,-0.405C0.221,-0.394 0.208,-0.377 0.199,-0.355C0.191,-0.333 0.187,-0.306 0.187,-0.273L0.187,-0.252C0.187,-0.22 0.191,-0.193 0.199,-0.171C0.208,-0.149 0.221,-0.132 0.239,-0.121C0.258,-0.11 0.281,-0.105 0.31,-0.105Z" style="fill:rgb(125,125,125);fill-rule:nonzero;"/>
            </g>
            <g transform="matrix(24,0,0,24,494.24,421.943)">
                <path d="M0.248,0.012C0.189,0.012 0.144,-0.003 0.111,-0.034C0.078,-0.065 0.062,-0.114 0.062,-0.182L0.062,-0.527L0.205,-0.527L0.205,-0.205C0.205,-0.187 0.207,-0.172 0.211,-0.159C0.216,-0.146 0.222,-0.136 0.23,-0.128C0.239,-0.121 0.249,-0.115 0.261,-0.111C0.274,-0.108 0.288,-0.106 0.303,-0.106C0.326,-0.106 0.346,-0.111 0.364,-0.121C0.383,-0.132 0.397,-0.146 0.408,-0.164C0.419,-0.183 0.425,-0.204 0.425,-0.227L0.425,-0.527L0.568,-0.527L0.568,-0L0.45,-0L0.44,-0.076L0.433,-0.076C0.419,-0.057 0.402,-0.041 0.383,-0.028C0.364,-0.015 0.343,-0.006 0.32,0.001C0.297,0.008 0.273,0.012 0.248,0.012Z" style="fill:rgb(125,125,125);fill-rule:nonzero;"/>
            </g>
            <g transform="matrix(24,0,0,24,509.432,421.943)">
                <path d="M0.316,0.012C0.257,0.012 0.206,0.002 0.165,-0.018C0.124,-0.038 0.093,-0.068 0.072,-0.109C0.051,-0.15 0.041,-0.201 0.041,-0.263C0.041,-0.326 0.052,-0.377 0.073,-0.418C0.094,-0.459 0.125,-0.489 0.166,-0.509C0.207,-0.529 0.257,-0.539 0.316,-0.539C0.354,-0.539 0.389,-0.534 0.42,-0.525C0.451,-0.516 0.478,-0.503 0.501,-0.485C0.524,-0.468 0.542,-0.445 0.554,-0.418C0.567,-0.391 0.573,-0.36 0.573,-0.325L0.429,-0.325C0.429,-0.348 0.424,-0.368 0.415,-0.383C0.406,-0.398 0.393,-0.41 0.376,-0.418C0.359,-0.426 0.339,-0.43 0.314,-0.43C0.285,-0.43 0.262,-0.424 0.243,-0.412C0.224,-0.4 0.21,-0.382 0.201,-0.359C0.192,-0.336 0.187,-0.308 0.187,-0.274L0.187,-0.252C0.187,-0.219 0.192,-0.19 0.201,-0.167C0.21,-0.144 0.225,-0.126 0.244,-0.114C0.264,-0.103 0.289,-0.097 0.32,-0.097C0.343,-0.097 0.364,-0.101 0.381,-0.109C0.398,-0.117 0.412,-0.129 0.421,-0.145C0.43,-0.161 0.435,-0.18 0.435,-0.203L0.573,-0.203C0.573,-0.168 0.567,-0.137 0.554,-0.11C0.542,-0.083 0.524,-0.061 0.501,-0.042C0.478,-0.024 0.451,-0.01 0.42,-0.001C0.389,0.008 0.354,0.012 0.316,0.012Z" style="fill:rgb(125,125,125);fill-rule:nonzero;"/>
            </g>
            <g transform="matrix(24,0,0,24,524.192,421.943)">
                <path d="M0.241,0.012C0.206,0.012 0.178,0.006 0.156,-0.005C0.134,-0.017 0.118,-0.034 0.107,-0.055C0.097,-0.076 0.092,-0.102 0.092,-0.131L0.092,-0.417L0.018,-0.417L0.018,-0.527L0.097,-0.527L0.124,-0.678L0.235,-0.678L0.235,-0.527L0.343,-0.527L0.343,-0.417L0.235,-0.417L0.235,-0.153C0.235,-0.135 0.239,-0.121 0.247,-0.111C0.255,-0.102 0.269,-0.097 0.289,-0.097L0.343,-0.097L0.343,-0.005C0.335,-0.002 0.325,0.001 0.313,0.003C0.301,0.006 0.289,0.008 0.276,0.009C0.263,0.011 0.252,0.012 0.241,0.012Z" style="fill:rgb(125,125,125);fill-rule:nonzero;"/>
            </g>
        </g>
    </g>
</svg>
