<?xml version="1.0" encoding="UTF-8" standalone="no"?>
<!DOCTYPE svg PUBLIC "-//W3C//DTD SVG 1.1//EN" "http://www.w3.org/Graphics/SVG/1.1/DTD/svg11.dtd">
<svg width="100%" height="100%" viewBox="0 0 533 169" version="1.1" xmlns="http://www.w3.org/2000/svg" xmlns:xlink="http://www.w3.org/1999/xlink" xml:space="preserve" xmlns:serif="http://www.serif.com/" style="fill-rule:evenodd;clip-rule:evenodd;stroke-linejoin:round;stroke-miterlimit:2;">
    <g transform="matrix(1,0,0,1,-293.595,-668.8)">
        <g transform="matrix(-0.914287,0,0,0.651072,849.098,526.21)">
            <path d="M391.652,450.669C390.908,450.669 390.303,451.518 390.303,452.564C390.303,453.61 390.908,454.458 391.652,454.458L398.85,454.458C407.604,454.458 415.574,447.369 419.315,436.255L437.791,381.357C441.086,371.567 448.106,365.323 455.817,365.323L463.119,365.323C463.863,365.323 464.468,364.474 464.468,363.429C464.468,362.383 463.863,361.534 463.119,361.534L455.817,361.534C447.062,361.534 439.093,368.623 435.352,379.738L416.875,434.635C413.58,444.425 406.561,450.669 398.85,450.669L391.652,450.669Z" style="fill:rgb(203,203,203);"/>
        </g>
        <g transform="matrix(-0.914287,0,0,0.222381,849.098,675.086)">
            <path d="M391.652,447.017C390.908,447.017 390.303,449.502 390.303,452.564C390.303,455.625 390.908,458.111 391.652,458.111L405.447,458.111C410.207,458.111 414.847,451.94 418.705,440.476L437.542,384.508C440.94,374.411 445.027,368.975 449.22,368.975L463.119,368.975C463.863,368.975 464.468,366.49 464.468,363.429C464.468,360.367 463.863,357.882 463.119,357.882L449.22,357.882C444.459,357.882 439.82,364.053 435.961,375.517L417.125,431.484C413.726,441.582 409.64,447.017 405.447,447.017L391.652,447.017Z" style="fill:rgb(203,203,203);"/>
        </g>
        <g transform="matrix(-0.914287,6.49678e-17,3.22235e-17,-0.190354,849.098,816.898)">
            <path d="M391.652,459.044C390.908,459.044 390.303,456.14 390.303,452.564C390.303,448.987 390.908,446.084 391.652,446.084L406.282,446.084C409.987,446.084 413.619,441.124 416.77,431.761L436.477,373.209C440.055,362.579 444.178,356.948 448.385,356.948L463.119,356.948C463.863,356.948 464.468,359.852 464.468,363.429C464.468,367.005 463.863,369.909 463.119,369.909L448.385,369.909C444.68,369.909 441.048,374.868 437.897,384.231L418.19,442.783C414.612,453.413 410.488,459.044 406.282,459.044L391.652,459.044Z" style="fill:rgb(203,203,203);"/>
        </g>
        <g transform="matrix(-0.914287,-1.11723e-16,-8.90346e-17,-0.618675,849.098,965.092)">
            <path d="M391.652,454.558C390.908,454.558 390.303,453.664 390.303,452.564C390.303,451.463 390.908,450.57 391.652,450.57L399.147,450.57C406.713,450.57 413.628,444.24 416.998,434.228L435.253,379.989C439.079,368.622 446.929,361.435 455.52,361.435L463.119,361.435C463.863,361.435 464.468,362.328 464.468,363.429C464.468,364.529 463.863,365.422 463.119,365.422L455.52,365.422C447.953,365.422 441.039,371.753 437.669,381.765L419.414,436.004C415.588,447.371 407.738,454.558 399.147,454.558L391.652,454.558Z" style="fill:rgb(203,203,203);"/>
        </g>
        <g transform="matrix(0.869269,0,0,0.838344,-61.9773,437.714)">
            <path d="M564.286,357.619L564.286,390.952C564.286,400.151 557.083,407.619 548.212,407.619L425.121,407.619C416.25,407.619 409.048,400.151 409.048,390.952L409.048,357.619C409.048,348.42 416.25,340.952 425.121,340.952L548.212,340.952C557.083,340.952 564.286,348.42 564.286,357.619Z" style="fill:rgb(0,122,255);"/>
        </g>
        <g transform="matrix(0.743482,0,0,0.492351,182.926,500.932)">
            <path d="M564.286,357.619L564.286,390.952C564.286,400.151 559.34,407.619 553.249,407.619L420.085,407.619C413.993,407.619 409.048,400.151 409.048,390.952L409.048,357.619C409.048,348.42 413.993,340.952 420.085,340.952L553.249,340.952C559.34,340.952 564.286,348.42 564.286,357.619Z" style="fill:rgb(223,223,223);"/>
        </g>
        <g transform="matrix(0.917317,0,0,0.492351,111.82,546.471)">
            <path d="M564.286,357.619L564.286,390.952C564.286,400.151 560.277,407.619 555.34,407.619L417.993,407.619C413.056,407.619 409.048,400.151 409.048,390.952L409.048,357.619C409.048,348.42 413.056,340.952 417.993,340.952L555.34,340.952C560.277,340.952 564.286,348.42 564.286,357.619Z" style="fill:rgb(223,223,223);"/>
        </g>
        <g transform="matrix(0.458659,0,0,0.492351,299.433,591.447)">
            <path d="M564.286,357.619L564.286,390.952C564.286,400.151 556.269,407.619 546.395,407.619L426.939,407.619C417.064,407.619 409.048,400.151 409.048,390.952L409.048,357.619C409.048,348.42 417.064,340.952 426.939,340.952L546.395,340.952C556.269,340.952 564.286,348.42 564.286,357.619Z" style="fill:rgb(223,223,223);"/>
        </g>
        <g transform="matrix(2.18486,0,0,0.492351,-406.667,636.582)">
            <path d="M564.286,357.619L564.286,390.952C564.286,400.151 562.603,407.619 560.53,407.619L412.803,407.619C410.731,407.619 409.048,400.151 409.048,390.952L409.048,357.619C409.048,348.42 410.731,340.952 412.803,340.952L560.53,340.952C562.603,340.952 564.286,348.42 564.286,357.619Z" style="fill:rgb(223,223,223);"/>
        </g>
        <g transform="matrix(1.52436,0,0,1.52436,-367.698,121.138)">
            <g transform="matrix(24,0,0,24,443.636,421.943)">
                <path d="M0.09,-0L0.09,-0.687L0.354,-0.687L0.49,-0.353C0.495,-0.342 0.5,-0.327 0.507,-0.308C0.514,-0.289 0.521,-0.27 0.528,-0.25C0.535,-0.23 0.542,-0.212 0.547,-0.196L0.554,-0.196C0.559,-0.211 0.564,-0.227 0.571,-0.246C0.578,-0.265 0.585,-0.284 0.592,-0.303C0.599,-0.322 0.606,-0.339 0.611,-0.352L0.747,-0.687L1.004,-0.687L1.004,-0L0.835,-0L0.835,-0.433C0.836,-0.45 0.836,-0.467 0.837,-0.482C0.838,-0.498 0.838,-0.511 0.839,-0.522L0.831,-0.522C0.828,-0.511 0.823,-0.498 0.817,-0.482C0.812,-0.466 0.806,-0.45 0.801,-0.434C0.796,-0.418 0.79,-0.404 0.785,-0.392L0.623,-0L0.464,-0L0.302,-0.392C0.296,-0.407 0.29,-0.422 0.284,-0.438C0.278,-0.455 0.273,-0.47 0.268,-0.485C0.263,-0.5 0.259,-0.512 0.256,-0.522L0.248,-0.522C0.249,-0.512 0.249,-0.499 0.249,-0.484C0.25,-0.469 0.25,-0.452 0.251,-0.435C0.252,-0.418 0.252,-0.402 0.252,-0.385L0.252,-0L0.09,-0Z" style="fill:white;fill-rule:nonzero;"/>
            </g>
            <g transform="matrix(24,0,0,24,469.892,421.943)">
                <path d="M0.475,0.012C0.384,0.012 0.307,-0.001 0.245,-0.028C0.184,-0.055 0.137,-0.094 0.106,-0.147C0.075,-0.2 0.06,-0.266 0.06,-0.344C0.06,-0.458 0.095,-0.546 0.166,-0.607C0.237,-0.668 0.34,-0.699 0.474,-0.699C0.55,-0.699 0.617,-0.688 0.674,-0.665C0.732,-0.643 0.777,-0.611 0.809,-0.569C0.842,-0.528 0.858,-0.478 0.858,-0.419L0.692,-0.419C0.692,-0.45 0.683,-0.477 0.664,-0.498C0.646,-0.52 0.62,-0.536 0.587,-0.547C0.554,-0.558 0.516,-0.564 0.472,-0.564C0.422,-0.564 0.379,-0.556 0.344,-0.539C0.309,-0.522 0.281,-0.499 0.262,-0.468C0.243,-0.437 0.234,-0.4 0.234,-0.357L0.234,-0.331C0.234,-0.288 0.243,-0.251 0.262,-0.22C0.281,-0.189 0.309,-0.165 0.344,-0.148C0.379,-0.131 0.422,-0.123 0.471,-0.123C0.518,-0.123 0.558,-0.128 0.591,-0.139C0.625,-0.15 0.651,-0.166 0.669,-0.187C0.688,-0.209 0.697,-0.235 0.697,-0.266L0.859,-0.266C0.859,-0.209 0.843,-0.159 0.811,-0.117C0.78,-0.076 0.735,-0.044 0.677,-0.021C0.62,0.001 0.552,0.012 0.475,0.012Z" style="fill:white;fill-rule:nonzero;"/>
            </g>
            <g transform="matrix(24,0,0,24,491.924,421.943)">
                <path d="M0.09,-0L0.09,-0.687L0.585,-0.687C0.63,-0.687 0.67,-0.677 0.703,-0.658C0.736,-0.639 0.762,-0.612 0.78,-0.578C0.799,-0.544 0.808,-0.504 0.808,-0.459C0.808,-0.414 0.799,-0.375 0.78,-0.34C0.761,-0.305 0.735,-0.278 0.701,-0.259C0.667,-0.24 0.627,-0.23 0.581,-0.23L0.26,-0.23L0.26,-0L0.09,-0ZM0.26,-0.365L0.537,-0.365C0.57,-0.365 0.596,-0.373 0.613,-0.389C0.631,-0.406 0.64,-0.429 0.64,-0.459C0.64,-0.478 0.636,-0.495 0.628,-0.509C0.62,-0.523 0.608,-0.534 0.593,-0.541C0.578,-0.548 0.56,-0.552 0.537,-0.552L0.26,-0.552L0.26,-0.365Z" style="fill:white;fill-rule:nonzero;"/>
            </g>
        </g>
        <g transform="matrix(0.89524,0,0,0.89524,252.53,315.011)">
            <g transform="matrix(24,0,0,24,275.852,421.943)">
                <path d="M0.409,0.012C0.332,0.012 0.266,-0.001 0.212,-0.026C0.159,-0.052 0.118,-0.091 0.09,-0.143C0.063,-0.196 0.049,-0.262 0.049,-0.343C0.049,-0.462 0.08,-0.551 0.142,-0.61C0.205,-0.669 0.294,-0.699 0.409,-0.699C0.472,-0.699 0.529,-0.689 0.578,-0.668C0.628,-0.647 0.667,-0.617 0.696,-0.576C0.725,-0.535 0.739,-0.485 0.739,-0.425L0.584,-0.425C0.584,-0.456 0.577,-0.483 0.562,-0.505C0.547,-0.527 0.527,-0.544 0.5,-0.555C0.474,-0.567 0.444,-0.573 0.409,-0.573C0.364,-0.573 0.327,-0.565 0.297,-0.548C0.268,-0.531 0.246,-0.507 0.231,-0.475C0.216,-0.443 0.209,-0.404 0.209,-0.358L0.209,-0.329C0.209,-0.282 0.216,-0.243 0.231,-0.211C0.246,-0.179 0.268,-0.155 0.297,-0.138C0.327,-0.122 0.364,-0.114 0.408,-0.114C0.445,-0.114 0.477,-0.119 0.504,-0.13C0.531,-0.141 0.552,-0.158 0.567,-0.18C0.582,-0.202 0.589,-0.229 0.589,-0.26L0.739,-0.26C0.739,-0.201 0.725,-0.151 0.697,-0.11C0.669,-0.069 0.63,-0.039 0.58,-0.018C0.531,0.002 0.474,0.012 0.409,0.012Z" style="fill:rgb(125,125,125);fill-rule:nonzero;"/>
            </g>
            <g transform="matrix(24,0,0,24,294.692,421.943)">
                <rect x="0.065" y="-0.724" width="0.143" height="0.724" style="fill:rgb(125,125,125);fill-rule:nonzero;"/>
            </g>
            <g transform="matrix(24,0,0,24,301.244,421.943)">
                <path d="M0.22,0.012C0.199,0.012 0.177,0.01 0.155,0.005C0.134,0.001 0.114,-0.006 0.096,-0.017C0.078,-0.028 0.063,-0.043 0.052,-0.062C0.041,-0.082 0.036,-0.107 0.036,-0.138C0.036,-0.176 0.045,-0.207 0.062,-0.231C0.08,-0.255 0.105,-0.273 0.138,-0.286C0.171,-0.299 0.209,-0.308 0.254,-0.313C0.299,-0.318 0.349,-0.32 0.404,-0.32L0.404,-0.355C0.404,-0.372 0.401,-0.386 0.394,-0.397C0.387,-0.409 0.377,-0.418 0.362,-0.424C0.348,-0.431 0.328,-0.434 0.303,-0.434C0.28,-0.434 0.261,-0.431 0.245,-0.426C0.23,-0.421 0.218,-0.415 0.211,-0.407C0.204,-0.399 0.2,-0.39 0.2,-0.379L0.2,-0.368L0.059,-0.368C0.058,-0.371 0.058,-0.373 0.058,-0.376L0.058,-0.387C0.058,-0.418 0.068,-0.444 0.087,-0.467C0.107,-0.49 0.135,-0.508 0.172,-0.52C0.209,-0.533 0.254,-0.539 0.306,-0.539C0.357,-0.539 0.401,-0.533 0.437,-0.52C0.473,-0.507 0.5,-0.488 0.519,-0.463C0.538,-0.438 0.547,-0.407 0.547,-0.368L0.547,-0.134C0.547,-0.122 0.55,-0.113 0.556,-0.106C0.563,-0.1 0.571,-0.097 0.581,-0.097L0.619,-0.097L0.619,-0.005C0.612,-0.002 0.6,0.002 0.585,0.005C0.57,0.009 0.553,0.011 0.532,0.011C0.51,0.011 0.491,0.008 0.475,0.002C0.46,-0.003 0.447,-0.011 0.437,-0.022C0.428,-0.033 0.421,-0.046 0.417,-0.061L0.411,-0.061C0.397,-0.046 0.381,-0.033 0.362,-0.022C0.344,-0.011 0.323,-0.003 0.299,0.003C0.276,0.009 0.249,0.012 0.22,0.012ZM0.265,-0.095C0.284,-0.095 0.301,-0.097 0.318,-0.102C0.335,-0.107 0.349,-0.115 0.362,-0.124C0.375,-0.133 0.385,-0.145 0.392,-0.158C0.4,-0.172 0.404,-0.187 0.404,-0.204L0.404,-0.233C0.359,-0.233 0.319,-0.23 0.285,-0.225C0.252,-0.22 0.226,-0.212 0.207,-0.2C0.189,-0.188 0.18,-0.172 0.18,-0.151C0.18,-0.138 0.184,-0.127 0.191,-0.119C0.198,-0.111 0.208,-0.105 0.221,-0.101C0.234,-0.097 0.248,-0.095 0.265,-0.095Z" style="fill:rgb(125,125,125);fill-rule:nonzero;"/>
            </g>
            <g transform="matrix(24,0,0,24,316.196,421.943)">
                <path d="M0.248,0.012C0.189,0.012 0.144,-0.003 0.111,-0.034C0.078,-0.065 0.062,-0.114 0.062,-0.182L0.062,-0.527L0.205,-0.527L0.205,-0.205C0.205,-0.187 0.207,-0.172 0.211,-0.159C0.216,-0.146 0.222,-0.136 0.23,-0.128C0.239,-0.121 0.249,-0.115 0.261,-0.111C0.274,-0.108 0.288,-0.106 0.303,-0.106C0.326,-0.106 0.346,-0.111 0.364,-0.121C0.383,-0.132 0.397,-0.146 0.408,-0.164C0.419,-0.183 0.425,-0.204 0.425,-0.227L0.425,-0.527L0.568,-0.527L0.568,-0L0.45,-0L0.44,-0.076L0.433,-0.076C0.419,-0.057 0.402,-0.041 0.383,-0.028C0.364,-0.015 0.343,-0.006 0.32,0.001C0.297,0.008 0.273,0.012 0.248,0.012Z" style="fill:rgb(125,125,125);fill-rule:nonzero;"/>
            </g>
            <g transform="matrix(24,0,0,24,331.388,421.943)">
                <path d="M0.267,0.012C0.221,0.012 0.181,0.002 0.147,-0.017C0.113,-0.037 0.087,-0.067 0.068,-0.108C0.049,-0.149 0.04,-0.201 0.04,-0.264C0.04,-0.327 0.049,-0.378 0.068,-0.419C0.087,-0.46 0.114,-0.49 0.147,-0.509C0.18,-0.529 0.218,-0.539 0.261,-0.539C0.285,-0.539 0.307,-0.536 0.328,-0.531C0.349,-0.526 0.367,-0.518 0.384,-0.507C0.401,-0.496 0.415,-0.483 0.426,-0.467L0.433,-0.467L0.433,-0.724L0.576,-0.724L0.576,-0L0.459,-0L0.447,-0.074L0.44,-0.074C0.421,-0.045 0.396,-0.023 0.366,-0.009C0.336,0.005 0.303,0.012 0.267,0.012ZM0.31,-0.105C0.339,-0.105 0.362,-0.111 0.38,-0.123C0.398,-0.135 0.411,-0.152 0.42,-0.174C0.429,-0.197 0.433,-0.224 0.433,-0.255L0.433,-0.27C0.433,-0.293 0.43,-0.314 0.425,-0.333C0.42,-0.352 0.413,-0.368 0.403,-0.381C0.393,-0.394 0.38,-0.404 0.364,-0.411C0.349,-0.418 0.331,-0.422 0.31,-0.422C0.281,-0.422 0.257,-0.416 0.239,-0.405C0.221,-0.394 0.208,-0.377 0.199,-0.355C0.191,-0.333 0.187,-0.306 0.187,-0.273L0.187,-0.252C0.187,-0.22 0.191,-0.193 0.199,-0.171C0.208,-0.149 0.221,-0.132 0.239,-0.121C0.258,-0.11 0.281,-0.105 0.31,-0.105Z" style="fill:rgb(125,125,125);fill-rule:nonzero;"/>
            </g>
            <g transform="matrix(24,0,0,24,346.772,421.943)">
                <path d="M0.323,0.012C0.262,0.012 0.211,0.002 0.169,-0.017C0.127,-0.037 0.095,-0.067 0.073,-0.108C0.051,-0.149 0.04,-0.2 0.04,-0.263C0.04,-0.326 0.051,-0.377 0.073,-0.418C0.095,-0.459 0.127,-0.489 0.168,-0.509C0.209,-0.529 0.26,-0.539 0.32,-0.539C0.377,-0.539 0.426,-0.529 0.465,-0.509C0.505,-0.49 0.535,-0.46 0.555,-0.421C0.576,-0.382 0.586,-0.331 0.586,-0.269L0.586,-0.231L0.187,-0.231C0.188,-0.2 0.194,-0.175 0.204,-0.154C0.214,-0.133 0.229,-0.118 0.248,-0.108C0.268,-0.098 0.293,-0.093 0.324,-0.093C0.34,-0.093 0.355,-0.095 0.369,-0.098C0.384,-0.102 0.396,-0.108 0.407,-0.116C0.418,-0.124 0.427,-0.134 0.433,-0.145C0.44,-0.156 0.443,-0.17 0.444,-0.185L0.585,-0.185C0.585,-0.154 0.579,-0.126 0.566,-0.101C0.554,-0.076 0.536,-0.056 0.513,-0.039C0.49,-0.022 0.462,-0.01 0.43,-0.001C0.398,0.008 0.362,0.012 0.323,0.012ZM0.189,-0.321L0.437,-0.321C0.437,-0.34 0.434,-0.357 0.429,-0.371C0.424,-0.385 0.416,-0.397 0.405,-0.406C0.395,-0.415 0.383,-0.422 0.369,-0.426C0.355,-0.431 0.339,-0.433 0.322,-0.433C0.295,-0.433 0.272,-0.429 0.253,-0.42C0.234,-0.412 0.22,-0.4 0.209,-0.383C0.198,-0.366 0.192,-0.346 0.189,-0.321Z" style="fill:rgb(125,125,125);fill-rule:nonzero;"/>
            </g>
        </g>
        <g transform="matrix(0.89524,0,0,0.89524,252.53,360.549)">
            <g transform="matrix(24,0,0,24,275.852,421.943)">
                <path d="M0.409,0.012C0.332,0.012 0.266,-0.001 0.212,-0.026C0.159,-0.052 0.118,-0.091 0.09,-0.143C0.063,-0.196 0.049,-0.262 0.049,-0.343C0.049,-0.462 0.08,-0.551 0.142,-0.61C0.205,-0.669 0.294,-0.699 0.409,-0.699C0.472,-0.699 0.529,-0.689 0.578,-0.668C0.628,-0.647 0.667,-0.617 0.696,-0.576C0.725,-0.535 0.739,-0.485 0.739,-0.425L0.584,-0.425C0.584,-0.456 0.577,-0.483 0.562,-0.505C0.547,-0.527 0.527,-0.544 0.5,-0.555C0.474,-0.567 0.444,-0.573 0.409,-0.573C0.364,-0.573 0.327,-0.565 0.297,-0.548C0.268,-0.531 0.246,-0.507 0.231,-0.475C0.216,-0.443 0.209,-0.404 0.209,-0.358L0.209,-0.329C0.209,-0.282 0.216,-0.243 0.231,-0.211C0.246,-0.179 0.268,-0.155 0.297,-0.138C0.327,-0.122 0.364,-0.114 0.408,-0.114C0.445,-0.114 0.477,-0.119 0.504,-0.13C0.531,-0.141 0.552,-0.158 0.567,-0.18C0.582,-0.202 0.589,-0.229 0.589,-0.26L0.739,-0.26C0.739,-0.201 0.725,-0.151 0.697,-0.11C0.669,-0.069 0.63,-0.039 0.58,-0.018C0.531,0.002 0.474,0.012 0.409,0.012Z" style="fill:rgb(125,125,125);fill-rule:nonzero;"/>
            </g>
            <g transform="matrix(24,0,0,24,294.692,421.943)">
                <path d="M0.065,-0L0.065,-0.724L0.208,-0.724L0.208,-0.465L0.215,-0.465C0.228,-0.481 0.244,-0.494 0.261,-0.505C0.278,-0.516 0.297,-0.524 0.318,-0.53C0.339,-0.536 0.362,-0.539 0.385,-0.539C0.424,-0.539 0.458,-0.532 0.485,-0.518C0.513,-0.505 0.534,-0.484 0.549,-0.455C0.564,-0.427 0.572,-0.39 0.572,-0.345L0.572,-0L0.428,-0L0.428,-0.322C0.428,-0.34 0.426,-0.355 0.421,-0.367C0.417,-0.38 0.411,-0.39 0.402,-0.398C0.393,-0.406 0.383,-0.412 0.371,-0.415C0.359,-0.419 0.345,-0.421 0.33,-0.421C0.307,-0.421 0.287,-0.416 0.268,-0.405C0.25,-0.395 0.235,-0.381 0.224,-0.362C0.213,-0.344 0.208,-0.323 0.208,-0.3L0.208,-0L0.065,-0Z" style="fill:rgb(125,125,125);fill-rule:nonzero;"/>
            </g>
            <g transform="matrix(24,0,0,24,309.908,421.943)">
                <path d="M0.22,0.012C0.199,0.012 0.177,0.01 0.155,0.005C0.134,0.001 0.114,-0.006 0.096,-0.017C0.078,-0.028 0.063,-0.043 0.052,-0.062C0.041,-0.082 0.036,-0.107 0.036,-0.138C0.036,-0.176 0.045,-0.207 0.062,-0.231C0.08,-0.255 0.105,-0.273 0.138,-0.286C0.171,-0.299 0.209,-0.308 0.254,-0.313C0.299,-0.318 0.349,-0.32 0.404,-0.32L0.404,-0.355C0.404,-0.372 0.401,-0.386 0.394,-0.397C0.387,-0.409 0.377,-0.418 0.362,-0.424C0.348,-0.431 0.328,-0.434 0.303,-0.434C0.28,-0.434 0.261,-0.431 0.245,-0.426C0.23,-0.421 0.218,-0.415 0.211,-0.407C0.204,-0.399 0.2,-0.39 0.2,-0.379L0.2,-0.368L0.059,-0.368C0.058,-0.371 0.058,-0.373 0.058,-0.376L0.058,-0.387C0.058,-0.418 0.068,-0.444 0.087,-0.467C0.107,-0.49 0.135,-0.508 0.172,-0.52C0.209,-0.533 0.254,-0.539 0.306,-0.539C0.357,-0.539 0.401,-0.533 0.437,-0.52C0.473,-0.507 0.5,-0.488 0.519,-0.463C0.538,-0.438 0.547,-0.407 0.547,-0.368L0.547,-0.134C0.547,-0.122 0.55,-0.113 0.556,-0.106C0.563,-0.1 0.571,-0.097 0.581,-0.097L0.619,-0.097L0.619,-0.005C0.612,-0.002 0.6,0.002 0.585,0.005C0.57,0.009 0.553,0.011 0.532,0.011C0.51,0.011 0.491,0.008 0.475,0.002C0.46,-0.003 0.447,-0.011 0.437,-0.022C0.428,-0.033 0.421,-0.046 0.417,-0.061L0.411,-0.061C0.397,-0.046 0.381,-0.033 0.362,-0.022C0.344,-0.011 0.323,-0.003 0.299,0.003C0.276,0.009 0.249,0.012 0.22,0.012ZM0.265,-0.095C0.284,-0.095 0.301,-0.097 0.318,-0.102C0.335,-0.107 0.349,-0.115 0.362,-0.124C0.375,-0.133 0.385,-0.145 0.392,-0.158C0.4,-0.172 0.404,-0.187 0.404,-0.204L0.404,-0.233C0.359,-0.233 0.319,-0.23 0.285,-0.225C0.252,-0.22 0.226,-0.212 0.207,-0.2C0.189,-0.188 0.18,-0.172 0.18,-0.151C0.18,-0.138 0.184,-0.127 0.191,-0.119C0.198,-0.111 0.208,-0.105 0.221,-0.101C0.234,-0.097 0.248,-0.095 0.265,-0.095Z" style="fill:rgb(125,125,125);fill-rule:nonzero;"/>
            </g>
            <g transform="matrix(24,0,0,24,324.86,421.943)">
                <path d="M0.241,0.012C0.206,0.012 0.178,0.006 0.156,-0.005C0.134,-0.017 0.118,-0.034 0.107,-0.055C0.097,-0.076 0.092,-0.102 0.092,-0.131L0.092,-0.417L0.018,-0.417L0.018,-0.527L0.097,-0.527L0.124,-0.678L0.235,-0.678L0.235,-0.527L0.343,-0.527L0.343,-0.417L0.235,-0.417L0.235,-0.153C0.235,-0.135 0.239,-0.121 0.247,-0.111C0.255,-0.102 0.269,-0.097 0.289,-0.097L0.343,-0.097L0.343,-0.005C0.335,-0.002 0.325,0.001 0.313,0.003C0.301,0.006 0.289,0.008 0.276,0.009C0.263,0.011 0.252,0.012 0.241,0.012Z" style="fill:rgb(125,125,125);fill-rule:nonzero;"/>
            </g>
            <g transform="matrix(24,0,0,24,333.812,421.943)">
                <path d="M0.41,0.012C0.295,0.012 0.206,-0.017 0.145,-0.075C0.084,-0.133 0.054,-0.222 0.054,-0.343C0.054,-0.423 0.069,-0.489 0.099,-0.541C0.129,-0.594 0.172,-0.633 0.229,-0.659C0.286,-0.686 0.354,-0.699 0.433,-0.699C0.482,-0.699 0.527,-0.694 0.569,-0.683C0.611,-0.673 0.648,-0.658 0.68,-0.637C0.712,-0.616 0.737,-0.59 0.754,-0.558C0.772,-0.527 0.781,-0.49 0.781,-0.448L0.626,-0.448C0.626,-0.469 0.621,-0.487 0.611,-0.502C0.601,-0.518 0.587,-0.531 0.57,-0.542C0.553,-0.553 0.533,-0.56 0.51,-0.565C0.487,-0.57 0.463,-0.573 0.438,-0.573C0.402,-0.573 0.37,-0.569 0.342,-0.56C0.314,-0.551 0.29,-0.538 0.271,-0.519C0.252,-0.501 0.238,-0.479 0.228,-0.452C0.219,-0.425 0.214,-0.394 0.214,-0.358L0.214,-0.329C0.214,-0.28 0.222,-0.239 0.238,-0.207C0.254,-0.175 0.278,-0.151 0.31,-0.136C0.342,-0.121 0.381,-0.114 0.427,-0.114C0.468,-0.114 0.503,-0.119 0.533,-0.13C0.563,-0.141 0.586,-0.156 0.603,-0.176C0.62,-0.197 0.629,-0.222 0.629,-0.251L0.629,-0.257L0.409,-0.257L0.409,-0.375L0.781,-0.375L0.781,-0L0.682,-0L0.668,-0.077C0.647,-0.057 0.623,-0.04 0.597,-0.027C0.572,-0.014 0.543,-0.004 0.512,0.002C0.481,0.009 0.447,0.012 0.41,0.012Z" style="fill:rgb(125,125,125);fill-rule:nonzero;"/>
            </g>
            <g transform="matrix(24,0,0,24,354.308,421.943)">
                <path d="M0.08,-0L0.08,-0.687L0.475,-0.687C0.523,-0.687 0.564,-0.678 0.597,-0.659C0.63,-0.64 0.656,-0.614 0.673,-0.581C0.69,-0.548 0.699,-0.508 0.699,-0.463C0.699,-0.418 0.69,-0.378 0.672,-0.344C0.654,-0.31 0.628,-0.284 0.594,-0.265C0.56,-0.246 0.519,-0.237 0.471,-0.237L0.235,-0.237L0.235,-0L0.08,-0ZM0.235,-0.362L0.444,-0.362C0.476,-0.362 0.5,-0.371 0.517,-0.388C0.534,-0.406 0.543,-0.431 0.543,-0.462C0.543,-0.483 0.539,-0.501 0.532,-0.515C0.525,-0.53 0.514,-0.541 0.499,-0.549C0.484,-0.557 0.466,-0.561 0.444,-0.561L0.235,-0.561L0.235,-0.362Z" style="fill:rgb(125,125,125);fill-rule:nonzero;"/>
            </g>
            <g transform="matrix(24,0,0,24,371.204,421.943)">
                <path d="M0.265,-0L0.265,-0.556L0.025,-0.556L0.025,-0.687L0.661,-0.687L0.661,-0.556L0.421,-0.556L0.421,-0L0.265,-0Z" style="fill:rgb(125,125,125);fill-rule:nonzero;"/>
            </g>
        </g>
        <g transform="matrix(0.89524,0,0,0.89524,252.53,405.525)">
            <g transform="matrix(24,0,0,24,275.852,421.943)">
                <path d="M0.031,-0L0.031,-0.065L0.409,-0.561L0.058,-0.561L0.058,-0.687L0.65,-0.687L0.65,-0.621L0.272,-0.126L0.658,-0.126L0.658,-0L0.031,-0Z" style="fill:rgb(125,125,125);fill-rule:nonzero;"/>
            </g>
            <g transform="matrix(24,0,0,24,292.652,421.943)">
                <path d="M0.323,0.012C0.262,0.012 0.211,0.002 0.169,-0.017C0.127,-0.037 0.095,-0.067 0.073,-0.108C0.051,-0.149 0.04,-0.2 0.04,-0.263C0.04,-0.326 0.051,-0.377 0.073,-0.418C0.095,-0.459 0.127,-0.489 0.168,-0.509C0.209,-0.529 0.26,-0.539 0.32,-0.539C0.377,-0.539 0.426,-0.529 0.465,-0.509C0.505,-0.49 0.535,-0.46 0.555,-0.421C0.576,-0.382 0.586,-0.331 0.586,-0.269L0.586,-0.231L0.187,-0.231C0.188,-0.2 0.194,-0.175 0.204,-0.154C0.214,-0.133 0.229,-0.118 0.248,-0.108C0.268,-0.098 0.293,-0.093 0.324,-0.093C0.34,-0.093 0.355,-0.095 0.369,-0.098C0.384,-0.102 0.396,-0.108 0.407,-0.116C0.418,-0.124 0.427,-0.134 0.433,-0.145C0.44,-0.156 0.443,-0.17 0.444,-0.185L0.585,-0.185C0.585,-0.154 0.579,-0.126 0.566,-0.101C0.554,-0.076 0.536,-0.056 0.513,-0.039C0.49,-0.022 0.462,-0.01 0.43,-0.001C0.398,0.008 0.362,0.012 0.323,0.012ZM0.189,-0.321L0.437,-0.321C0.437,-0.34 0.434,-0.357 0.429,-0.371C0.424,-0.385 0.416,-0.397 0.405,-0.406C0.395,-0.415 0.383,-0.422 0.369,-0.426C0.355,-0.431 0.339,-0.433 0.322,-0.433C0.295,-0.433 0.272,-0.429 0.253,-0.42C0.234,-0.412 0.22,-0.4 0.209,-0.383C0.198,-0.366 0.192,-0.346 0.189,-0.321Z" style="fill:rgb(125,125,125);fill-rule:nonzero;"/>
            </g>
            <g transform="matrix(24,0,0,24,307.7,421.943)">
                <path d="M0.267,0.012C0.221,0.012 0.181,0.002 0.147,-0.017C0.113,-0.037 0.087,-0.067 0.068,-0.108C0.049,-0.149 0.04,-0.201 0.04,-0.264C0.04,-0.327 0.049,-0.378 0.068,-0.419C0.087,-0.46 0.114,-0.49 0.147,-0.509C0.18,-0.529 0.218,-0.539 0.261,-0.539C0.285,-0.539 0.307,-0.536 0.328,-0.531C0.349,-0.526 0.367,-0.518 0.384,-0.507C0.401,-0.496 0.415,-0.483 0.426,-0.467L0.433,-0.467L0.433,-0.724L0.576,-0.724L0.576,-0L0.459,-0L0.447,-0.074L0.44,-0.074C0.421,-0.045 0.396,-0.023 0.366,-0.009C0.336,0.005 0.303,0.012 0.267,0.012ZM0.31,-0.105C0.339,-0.105 0.362,-0.111 0.38,-0.123C0.398,-0.135 0.411,-0.152 0.42,-0.174C0.429,-0.197 0.433,-0.224 0.433,-0.255L0.433,-0.27C0.433,-0.293 0.43,-0.314 0.425,-0.333C0.42,-0.352 0.413,-0.368 0.403,-0.381C0.393,-0.394 0.38,-0.404 0.364,-0.411C0.349,-0.418 0.331,-0.422 0.31,-0.422C0.281,-0.422 0.257,-0.416 0.239,-0.405C0.221,-0.394 0.208,-0.377 0.199,-0.355C0.191,-0.333 0.187,-0.306 0.187,-0.273L0.187,-0.252C0.187,-0.22 0.191,-0.193 0.199,-0.171C0.208,-0.149 0.221,-0.132 0.239,-0.121C0.258,-0.11 0.281,-0.105 0.31,-0.105Z" style="fill:rgb(125,125,125);fill-rule:nonzero;"/>
            </g>
        </g>
        <g transform="matrix(0.89524,0,0,0.89524,252.53,450.66)">
            <g transform="matrix(24,0,0,24,275.852,421.943)">
                <path d="M0.08,-0L0.08,-0.687L0.499,-0.687C0.55,-0.687 0.591,-0.678 0.624,-0.659C0.657,-0.64 0.682,-0.615 0.699,-0.582C0.716,-0.55 0.724,-0.513 0.724,-0.471C0.724,-0.428 0.714,-0.389 0.693,-0.354C0.673,-0.319 0.643,-0.293 0.604,-0.274L0.746,-0L0.573,-0L0.452,-0.247L0.235,-0.247L0.235,-0L0.08,-0ZM0.235,-0.37L0.472,-0.37C0.501,-0.37 0.524,-0.379 0.541,-0.396C0.558,-0.414 0.566,-0.438 0.566,-0.469C0.566,-0.488 0.562,-0.505 0.555,-0.519C0.548,-0.533 0.537,-0.544 0.523,-0.551C0.509,-0.558 0.492,-0.562 0.472,-0.562L0.235,-0.562L0.235,-0.37Z" style="fill:rgb(125,125,125);fill-rule:nonzero;"/>
            </g>
            <g transform="matrix(24,0,0,24,294.284,421.943)">
                <path d="M0.22,0.012C0.199,0.012 0.177,0.01 0.155,0.005C0.134,0.001 0.114,-0.006 0.096,-0.017C0.078,-0.028 0.063,-0.043 0.052,-0.062C0.041,-0.082 0.036,-0.107 0.036,-0.138C0.036,-0.176 0.045,-0.207 0.062,-0.231C0.08,-0.255 0.105,-0.273 0.138,-0.286C0.171,-0.299 0.209,-0.308 0.254,-0.313C0.299,-0.318 0.349,-0.32 0.404,-0.32L0.404,-0.355C0.404,-0.372 0.401,-0.386 0.394,-0.397C0.387,-0.409 0.377,-0.418 0.362,-0.424C0.348,-0.431 0.328,-0.434 0.303,-0.434C0.28,-0.434 0.261,-0.431 0.245,-0.426C0.23,-0.421 0.218,-0.415 0.211,-0.407C0.204,-0.399 0.2,-0.39 0.2,-0.379L0.2,-0.368L0.059,-0.368C0.058,-0.371 0.058,-0.373 0.058,-0.376L0.058,-0.387C0.058,-0.418 0.068,-0.444 0.087,-0.467C0.107,-0.49 0.135,-0.508 0.172,-0.52C0.209,-0.533 0.254,-0.539 0.306,-0.539C0.357,-0.539 0.401,-0.533 0.437,-0.52C0.473,-0.507 0.5,-0.488 0.519,-0.463C0.538,-0.438 0.547,-0.407 0.547,-0.368L0.547,-0.134C0.547,-0.122 0.55,-0.113 0.556,-0.106C0.563,-0.1 0.571,-0.097 0.581,-0.097L0.619,-0.097L0.619,-0.005C0.612,-0.002 0.6,0.002 0.585,0.005C0.57,0.009 0.553,0.011 0.532,0.011C0.51,0.011 0.491,0.008 0.475,0.002C0.46,-0.003 0.447,-0.011 0.437,-0.022C0.428,-0.033 0.421,-0.046 0.417,-0.061L0.411,-0.061C0.397,-0.046 0.381,-0.033 0.362,-0.022C0.344,-0.011 0.323,-0.003 0.299,0.003C0.276,0.009 0.249,0.012 0.22,0.012ZM0.265,-0.095C0.284,-0.095 0.301,-0.097 0.318,-0.102C0.335,-0.107 0.349,-0.115 0.362,-0.124C0.375,-0.133 0.385,-0.145 0.392,-0.158C0.4,-0.172 0.404,-0.187 0.404,-0.204L0.404,-0.233C0.359,-0.233 0.319,-0.23 0.285,-0.225C0.252,-0.22 0.226,-0.212 0.207,-0.2C0.189,-0.188 0.18,-0.172 0.18,-0.151C0.18,-0.138 0.184,-0.127 0.191,-0.119C0.198,-0.111 0.208,-0.105 0.221,-0.101C0.234,-0.097 0.248,-0.095 0.265,-0.095Z" style="fill:rgb(125,125,125);fill-rule:nonzero;"/>
            </g>
            <g transform="matrix(24,0,0,24,309.236,421.943)">
                <path d="M0.065,-0L0.065,-0.527L0.183,-0.527L0.194,-0.45L0.201,-0.45C0.215,-0.469 0.231,-0.485 0.25,-0.498C0.269,-0.511 0.29,-0.521 0.313,-0.528C0.336,-0.535 0.36,-0.539 0.385,-0.539C0.424,-0.539 0.458,-0.532 0.485,-0.518C0.513,-0.505 0.534,-0.484 0.549,-0.455C0.564,-0.427 0.572,-0.39 0.572,-0.345L0.572,-0L0.428,-0L0.428,-0.322C0.428,-0.34 0.426,-0.355 0.421,-0.367C0.417,-0.38 0.411,-0.39 0.402,-0.398C0.393,-0.406 0.383,-0.412 0.371,-0.415C0.359,-0.419 0.345,-0.421 0.33,-0.421C0.307,-0.421 0.287,-0.416 0.268,-0.405C0.25,-0.395 0.235,-0.381 0.224,-0.362C0.213,-0.344 0.208,-0.323 0.208,-0.3L0.208,-0L0.065,-0Z" style="fill:rgb(125,125,125);fill-rule:nonzero;"/>
            </g>
            <g transform="matrix(24,0,0,24,324.452,421.943)">
                <path d="M0.267,0.012C0.221,0.012 0.181,0.002 0.147,-0.017C0.113,-0.037 0.087,-0.067 0.068,-0.108C0.049,-0.149 0.04,-0.201 0.04,-0.264C0.04,-0.327 0.049,-0.378 0.068,-0.419C0.087,-0.46 0.114,-0.49 0.147,-0.509C0.18,-0.529 0.218,-0.539 0.261,-0.539C0.285,-0.539 0.307,-0.536 0.328,-0.531C0.349,-0.526 0.367,-0.518 0.384,-0.507C0.401,-0.496 0.415,-0.483 0.426,-0.467L0.433,-0.467L0.433,-0.724L0.576,-0.724L0.576,-0L0.459,-0L0.447,-0.074L0.44,-0.074C0.421,-0.045 0.396,-0.023 0.366,-0.009C0.336,0.005 0.303,0.012 0.267,0.012ZM0.31,-0.105C0.339,-0.105 0.362,-0.111 0.38,-0.123C0.398,-0.135 0.411,-0.152 0.42,-0.174C0.429,-0.197 0.433,-0.224 0.433,-0.255L0.433,-0.27C0.433,-0.293 0.43,-0.314 0.425,-0.333C0.42,-0.352 0.413,-0.368 0.403,-0.381C0.393,-0.394 0.38,-0.404 0.364,-0.411C0.349,-0.418 0.331,-0.422 0.31,-0.422C0.281,-0.422 0.257,-0.416 0.239,-0.405C0.221,-0.394 0.208,-0.377 0.199,-0.355C0.191,-0.333 0.187,-0.306 0.187,-0.273L0.187,-0.252C0.187,-0.22 0.191,-0.193 0.199,-0.171C0.208,-0.149 0.221,-0.132 0.239,-0.121C0.258,-0.11 0.281,-0.105 0.31,-0.105Z" style="fill:rgb(125,125,125);fill-rule:nonzero;"/>
            </g>
            <g transform="matrix(24,0,0,24,339.836,421.943)">
                <path d="M0.324,0.012C0.264,0.012 0.213,0.002 0.17,-0.018C0.128,-0.038 0.096,-0.068 0.073,-0.109C0.051,-0.15 0.04,-0.201 0.04,-0.263C0.04,-0.326 0.051,-0.377 0.073,-0.418C0.096,-0.459 0.128,-0.489 0.17,-0.509C0.213,-0.529 0.264,-0.539 0.324,-0.539C0.385,-0.539 0.437,-0.529 0.479,-0.509C0.521,-0.489 0.553,-0.459 0.575,-0.418C0.597,-0.377 0.608,-0.326 0.608,-0.263C0.608,-0.201 0.597,-0.15 0.575,-0.109C0.553,-0.068 0.521,-0.038 0.479,-0.018C0.437,0.002 0.385,0.012 0.324,0.012ZM0.324,-0.097C0.356,-0.097 0.382,-0.103 0.402,-0.114C0.423,-0.126 0.438,-0.144 0.447,-0.167C0.457,-0.19 0.462,-0.219 0.462,-0.252L0.462,-0.275C0.462,-0.308 0.457,-0.336 0.447,-0.359C0.438,-0.382 0.423,-0.4 0.402,-0.411C0.382,-0.423 0.356,-0.429 0.324,-0.429C0.293,-0.429 0.267,-0.423 0.246,-0.411C0.226,-0.4 0.211,-0.382 0.201,-0.359C0.192,-0.336 0.187,-0.308 0.187,-0.275L0.187,-0.252C0.187,-0.219 0.192,-0.19 0.201,-0.167C0.211,-0.144 0.226,-0.126 0.246,-0.114C0.267,-0.103 0.293,-0.097 0.324,-0.097Z" style="fill:rgb(125,125,125);fill-rule:nonzero;"/>
            </g>
            <g transform="matrix(24,0,0,24,355.412,421.943)">
                <path d="M0.065,-0L0.065,-0.527L0.183,-0.527L0.194,-0.45L0.201,-0.45C0.214,-0.469 0.23,-0.485 0.247,-0.498C0.265,-0.511 0.285,-0.521 0.306,-0.528C0.327,-0.535 0.35,-0.539 0.374,-0.539C0.411,-0.539 0.442,-0.532 0.469,-0.517C0.496,-0.503 0.516,-0.481 0.529,-0.45L0.537,-0.45C0.55,-0.469 0.566,-0.485 0.584,-0.498C0.602,-0.511 0.622,-0.521 0.644,-0.528C0.666,-0.535 0.689,-0.539 0.713,-0.539C0.75,-0.539 0.781,-0.532 0.807,-0.519C0.834,-0.506 0.854,-0.485 0.869,-0.457C0.884,-0.429 0.891,-0.393 0.891,-0.349L0.891,-0L0.747,-0L0.747,-0.324C0.747,-0.341 0.745,-0.356 0.741,-0.368C0.737,-0.381 0.731,-0.391 0.724,-0.398C0.717,-0.406 0.707,-0.412 0.696,-0.415C0.685,-0.419 0.673,-0.421 0.66,-0.421C0.639,-0.421 0.621,-0.416 0.604,-0.405C0.587,-0.395 0.574,-0.381 0.564,-0.362C0.555,-0.344 0.55,-0.323 0.55,-0.3L0.55,-0L0.407,-0L0.407,-0.324C0.407,-0.341 0.405,-0.356 0.4,-0.368C0.396,-0.381 0.39,-0.391 0.383,-0.398C0.376,-0.406 0.366,-0.412 0.355,-0.415C0.344,-0.419 0.332,-0.421 0.319,-0.421C0.298,-0.421 0.28,-0.416 0.263,-0.405C0.246,-0.395 0.233,-0.381 0.223,-0.362C0.213,-0.344 0.208,-0.323 0.208,-0.3L0.208,-0L0.065,-0Z" style="fill:rgb(125,125,125);fill-rule:nonzero;"/>
            </g>
            <g transform="matrix(24,0,0,24,383.636,421.943)">
                <path d="M0.316,0.012C0.257,0.012 0.206,0.002 0.165,-0.018C0.124,-0.038 0.093,-0.068 0.072,-0.109C0.051,-0.15 0.041,-0.201 0.041,-0.263C0.041,-0.326 0.052,-0.377 0.073,-0.418C0.094,-0.459 0.125,-0.489 0.166,-0.509C0.207,-0.529 0.257,-0.539 0.316,-0.539C0.354,-0.539 0.389,-0.534 0.42,-0.525C0.451,-0.516 0.478,-0.503 0.501,-0.485C0.524,-0.468 0.542,-0.445 0.554,-0.418C0.567,-0.391 0.573,-0.36 0.573,-0.325L0.429,-0.325C0.429,-0.348 0.424,-0.368 0.415,-0.383C0.406,-0.398 0.393,-0.41 0.376,-0.418C0.359,-0.426 0.339,-0.43 0.314,-0.43C0.285,-0.43 0.262,-0.424 0.243,-0.412C0.224,-0.4 0.21,-0.382 0.201,-0.359C0.192,-0.336 0.187,-0.308 0.187,-0.274L0.187,-0.252C0.187,-0.219 0.192,-0.19 0.201,-0.167C0.21,-0.144 0.225,-0.126 0.244,-0.114C0.264,-0.103 0.289,-0.097 0.32,-0.097C0.343,-0.097 0.364,-0.101 0.381,-0.109C0.398,-0.117 0.412,-0.129 0.421,-0.145C0.43,-0.161 0.435,-0.18 0.435,-0.203L0.573,-0.203C0.573,-0.168 0.567,-0.137 0.554,-0.11C0.542,-0.083 0.524,-0.061 0.501,-0.042C0.478,-0.024 0.451,-0.01 0.42,-0.001C0.389,0.008 0.354,0.012 0.316,0.012Z" style="fill:rgb(125,125,125);fill-rule:nonzero;"/>
            </g>
            <g transform="matrix(24,0,0,24,398.396,421.943)">
                <path d="M0.065,-0L0.065,-0.724L0.208,-0.724L0.208,-0.465L0.215,-0.465C0.228,-0.481 0.244,-0.494 0.261,-0.505C0.278,-0.516 0.297,-0.524 0.318,-0.53C0.339,-0.536 0.362,-0.539 0.385,-0.539C0.424,-0.539 0.458,-0.532 0.485,-0.518C0.513,-0.505 0.534,-0.484 0.549,-0.455C0.564,-0.427 0.572,-0.39 0.572,-0.345L0.572,-0L0.428,-0L0.428,-0.322C0.428,-0.34 0.426,-0.355 0.421,-0.367C0.417,-0.38 0.411,-0.39 0.402,-0.398C0.393,-0.406 0.383,-0.412 0.371,-0.415C0.359,-0.419 0.345,-0.421 0.33,-0.421C0.307,-0.421 0.287,-0.416 0.268,-0.405C0.25,-0.395 0.235,-0.381 0.224,-0.362C0.213,-0.344 0.208,-0.323 0.208,-0.3L0.208,-0L0.065,-0Z" style="fill:rgb(125,125,125);fill-rule:nonzero;"/>
            </g>
            <g transform="matrix(24,0,0,24,413.612,421.943)">
                <path d="M0.22,0.012C0.199,0.012 0.177,0.01 0.155,0.005C0.134,0.001 0.114,-0.006 0.096,-0.017C0.078,-0.028 0.063,-0.043 0.052,-0.062C0.041,-0.082 0.036,-0.107 0.036,-0.138C0.036,-0.176 0.045,-0.207 0.062,-0.231C0.08,-0.255 0.105,-0.273 0.138,-0.286C0.171,-0.299 0.209,-0.308 0.254,-0.313C0.299,-0.318 0.349,-0.32 0.404,-0.32L0.404,-0.355C0.404,-0.372 0.401,-0.386 0.394,-0.397C0.387,-0.409 0.377,-0.418 0.362,-0.424C0.348,-0.431 0.328,-0.434 0.303,-0.434C0.28,-0.434 0.261,-0.431 0.245,-0.426C0.23,-0.421 0.218,-0.415 0.211,-0.407C0.204,-0.399 0.2,-0.39 0.2,-0.379L0.2,-0.368L0.059,-0.368C0.058,-0.371 0.058,-0.373 0.058,-0.376L0.058,-0.387C0.058,-0.418 0.068,-0.444 0.087,-0.467C0.107,-0.49 0.135,-0.508 0.172,-0.52C0.209,-0.533 0.254,-0.539 0.306,-0.539C0.357,-0.539 0.401,-0.533 0.437,-0.52C0.473,-0.507 0.5,-0.488 0.519,-0.463C0.538,-0.438 0.547,-0.407 0.547,-0.368L0.547,-0.134C0.547,-0.122 0.55,-0.113 0.556,-0.106C0.563,-0.1 0.571,-0.097 0.581,-0.097L0.619,-0.097L0.619,-0.005C0.612,-0.002 0.6,0.002 0.585,0.005C0.57,0.009 0.553,0.011 0.532,0.011C0.51,0.011 0.491,0.008 0.475,0.002C0.46,-0.003 0.447,-0.011 0.437,-0.022C0.428,-0.033 0.421,-0.046 0.417,-0.061L0.411,-0.061C0.397,-0.046 0.381,-0.033 0.362,-0.022C0.344,-0.011 0.323,-0.003 0.299,0.003C0.276,0.009 0.249,0.012 0.22,0.012ZM0.265,-0.095C0.284,-0.095 0.301,-0.097 0.318,-0.102C0.335,-0.107 0.349,-0.115 0.362,-0.124C0.375,-0.133 0.385,-0.145 0.392,-0.158C0.4,-0.172 0.404,-0.187 0.404,-0.204L0.404,-0.233C0.359,-0.233 0.319,-0.23 0.285,-0.225C0.252,-0.22 0.226,-0.212 0.207,-0.2C0.189,-0.188 0.18,-0.172 0.18,-0.151C0.18,-0.138 0.184,-0.127 0.191,-0.119C0.198,-0.111 0.208,-0.105 0.221,-0.101C0.234,-0.097 0.248,-0.095 0.265,-0.095Z" style="fill:rgb(125,125,125);fill-rule:nonzero;"/>
            </g>
            <g transform="matrix(24,0,0,24,428.564,421.943)">
                <path d="M0.241,0.012C0.206,0.012 0.178,0.006 0.156,-0.005C0.134,-0.017 0.118,-0.034 0.107,-0.055C0.097,-0.076 0.092,-0.102 0.092,-0.131L0.092,-0.417L0.018,-0.417L0.018,-0.527L0.097,-0.527L0.124,-0.678L0.235,-0.678L0.235,-0.527L0.343,-0.527L0.343,-0.417L0.235,-0.417L0.235,-0.153C0.235,-0.135 0.239,-0.121 0.247,-0.111C0.255,-0.102 0.269,-0.097 0.289,-0.097L0.343,-0.097L0.343,-0.005C0.335,-0.002 0.325,0.001 0.313,0.003C0.301,0.006 0.289,0.008 0.276,0.009C0.263,0.011 0.252,0.012 0.241,0.012Z" style="fill:rgb(125,125,125);fill-rule:nonzero;"/>
            </g>
            <g transform="matrix(24,0,0,24,442.892,421.943)">
                <path d="M0.22,0.012C0.199,0.012 0.177,0.01 0.155,0.005C0.134,0.001 0.114,-0.006 0.096,-0.017C0.078,-0.028 0.063,-0.043 0.052,-0.062C0.041,-0.082 0.036,-0.107 0.036,-0.138C0.036,-0.176 0.045,-0.207 0.062,-0.231C0.08,-0.255 0.105,-0.273 0.138,-0.286C0.171,-0.299 0.209,-0.308 0.254,-0.313C0.299,-0.318 0.349,-0.32 0.404,-0.32L0.404,-0.355C0.404,-0.372 0.401,-0.386 0.394,-0.397C0.387,-0.409 0.377,-0.418 0.362,-0.424C0.348,-0.431 0.328,-0.434 0.303,-0.434C0.28,-0.434 0.261,-0.431 0.245,-0.426C0.23,-0.421 0.218,-0.415 0.211,-0.407C0.204,-0.399 0.2,-0.39 0.2,-0.379L0.2,-0.368L0.059,-0.368C0.058,-0.371 0.058,-0.373 0.058,-0.376L0.058,-0.387C0.058,-0.418 0.068,-0.444 0.087,-0.467C0.107,-0.49 0.135,-0.508 0.172,-0.52C0.209,-0.533 0.254,-0.539 0.306,-0.539C0.357,-0.539 0.401,-0.533 0.437,-0.52C0.473,-0.507 0.5,-0.488 0.519,-0.463C0.538,-0.438 0.547,-0.407 0.547,-0.368L0.547,-0.134C0.547,-0.122 0.55,-0.113 0.556,-0.106C0.563,-0.1 0.571,-0.097 0.581,-0.097L0.619,-0.097L0.619,-0.005C0.612,-0.002 0.6,0.002 0.585,0.005C0.57,0.009 0.553,0.011 0.532,0.011C0.51,0.011 0.491,0.008 0.475,0.002C0.46,-0.003 0.447,-0.011 0.437,-0.022C0.428,-0.033 0.421,-0.046 0.417,-0.061L0.411,-0.061C0.397,-0.046 0.381,-0.033 0.362,-0.022C0.344,-0.011 0.323,-0.003 0.299,0.003C0.276,0.009 0.249,0.012 0.22,0.012ZM0.265,-0.095C0.284,-0.095 0.301,-0.097 0.318,-0.102C0.335,-0.107 0.349,-0.115 0.362,-0.124C0.375,-0.133 0.385,-0.145 0.392,-0.158C0.4,-0.172 0.404,-0.187 0.404,-0.204L0.404,-0.233C0.359,-0.233 0.319,-0.23 0.285,-0.225C0.252,-0.22 0.226,-0.212 0.207,-0.2C0.189,-0.188 0.18,-0.172 0.18,-0.151C0.18,-0.138 0.184,-0.127 0.191,-0.119C0.198,-0.111 0.208,-0.105 0.221,-0.101C0.234,-0.097 0.248,-0.095 0.265,-0.095Z" style="fill:rgb(125,125,125);fill-rule:nonzero;"/>
            </g>
            <g transform="matrix(24,0,0,24,457.844,421.943)">
                <path d="M0.065,0.181L0.065,-0.527L0.182,-0.527L0.194,-0.453L0.202,-0.453C0.221,-0.482 0.246,-0.504 0.275,-0.518C0.305,-0.532 0.338,-0.539 0.374,-0.539C0.421,-0.539 0.461,-0.529 0.494,-0.509C0.528,-0.49 0.554,-0.46 0.573,-0.419C0.592,-0.378 0.601,-0.326 0.601,-0.263C0.601,-0.2 0.592,-0.149 0.573,-0.108C0.554,-0.067 0.528,-0.037 0.495,-0.017C0.462,0.002 0.423,0.012 0.38,0.012C0.356,0.012 0.334,0.009 0.313,0.004C0.292,-0.001 0.274,-0.009 0.257,-0.02C0.24,-0.031 0.226,-0.044 0.215,-0.06L0.208,-0.06L0.208,0.181L0.065,0.181ZM0.331,-0.105C0.36,-0.105 0.384,-0.11 0.402,-0.121C0.42,-0.132 0.433,-0.149 0.442,-0.171C0.451,-0.193 0.455,-0.22 0.455,-0.252L0.455,-0.273C0.455,-0.306 0.451,-0.333 0.442,-0.355C0.433,-0.378 0.42,-0.394 0.402,-0.405C0.384,-0.416 0.36,-0.422 0.331,-0.422C0.303,-0.422 0.28,-0.416 0.261,-0.404C0.243,-0.392 0.23,-0.375 0.221,-0.352C0.212,-0.329 0.208,-0.302 0.208,-0.271L0.208,-0.256C0.208,-0.233 0.21,-0.212 0.215,-0.193C0.22,-0.174 0.228,-0.158 0.238,-0.145C0.248,-0.132 0.261,-0.122 0.276,-0.115C0.292,-0.108 0.31,-0.105 0.331,-0.105Z" style="fill:rgb(125,125,125);fill-rule:nonzero;"/>
            </g>
            <g transform="matrix(24,0,0,24,473.228,421.943)">
                <path d="M0.065,0.181L0.065,-0.527L0.182,-0.527L0.194,-0.453L0.202,-0.453C0.221,-0.482 0.246,-0.504 0.275,-0.518C0.305,-0.532 0.338,-0.539 0.374,-0.539C0.421,-0.539 0.461,-0.529 0.494,-0.509C0.528,-0.49 0.554,-0.46 0.573,-0.419C0.592,-0.378 0.601,-0.326 0.601,-0.263C0.601,-0.2 0.592,-0.149 0.573,-0.108C0.554,-0.067 0.528,-0.037 0.495,-0.017C0.462,0.002 0.423,0.012 0.38,0.012C0.356,0.012 0.334,0.009 0.313,0.004C0.292,-0.001 0.274,-0.009 0.257,-0.02C0.24,-0.031 0.226,-0.044 0.215,-0.06L0.208,-0.06L0.208,0.181L0.065,0.181ZM0.331,-0.105C0.36,-0.105 0.384,-0.11 0.402,-0.121C0.42,-0.132 0.433,-0.149 0.442,-0.171C0.451,-0.193 0.455,-0.22 0.455,-0.252L0.455,-0.273C0.455,-0.306 0.451,-0.333 0.442,-0.355C0.433,-0.378 0.42,-0.394 0.402,-0.405C0.384,-0.416 0.36,-0.422 0.331,-0.422C0.303,-0.422 0.28,-0.416 0.261,-0.404C0.243,-0.392 0.23,-0.375 0.221,-0.352C0.212,-0.329 0.208,-0.302 0.208,-0.271L0.208,-0.256C0.208,-0.233 0.21,-0.212 0.215,-0.193C0.22,-0.174 0.228,-0.158 0.238,-0.145C0.248,-0.132 0.261,-0.122 0.276,-0.115C0.292,-0.108 0.31,-0.105 0.331,-0.105Z" style="fill:rgb(125,125,125);fill-rule:nonzero;"/>
            </g>
            <g transform="matrix(24,0,0,24,493.988,421.943)">
                <path d="M0.213,-0L0.004,-0.527L0.156,-0.527L0.242,-0.298C0.246,-0.287 0.251,-0.273 0.256,-0.254C0.262,-0.236 0.268,-0.217 0.274,-0.198C0.281,-0.179 0.286,-0.161 0.29,-0.145L0.296,-0.145C0.301,-0.16 0.306,-0.177 0.311,-0.196C0.317,-0.215 0.323,-0.234 0.328,-0.252C0.334,-0.271 0.339,-0.286 0.343,-0.298L0.428,-0.527L0.574,-0.527L0.364,-0L0.213,-0Z" style="fill:rgb(125,125,125);fill-rule:nonzero;"/>
            </g>
            <g transform="matrix(24,0,0,24,507.86,421.943)">
                <path d="M0.323,0.012C0.262,0.012 0.211,0.002 0.169,-0.017C0.127,-0.037 0.095,-0.067 0.073,-0.108C0.051,-0.149 0.04,-0.2 0.04,-0.263C0.04,-0.326 0.051,-0.377 0.073,-0.418C0.095,-0.459 0.127,-0.489 0.168,-0.509C0.209,-0.529 0.26,-0.539 0.32,-0.539C0.377,-0.539 0.426,-0.529 0.465,-0.509C0.505,-0.49 0.535,-0.46 0.555,-0.421C0.576,-0.382 0.586,-0.331 0.586,-0.269L0.586,-0.231L0.187,-0.231C0.188,-0.2 0.194,-0.175 0.204,-0.154C0.214,-0.133 0.229,-0.118 0.248,-0.108C0.268,-0.098 0.293,-0.093 0.324,-0.093C0.34,-0.093 0.355,-0.095 0.369,-0.098C0.384,-0.102 0.396,-0.108 0.407,-0.116C0.418,-0.124 0.427,-0.134 0.433,-0.145C0.44,-0.156 0.443,-0.17 0.444,-0.185L0.585,-0.185C0.585,-0.154 0.579,-0.126 0.566,-0.101C0.554,-0.076 0.536,-0.056 0.513,-0.039C0.49,-0.022 0.462,-0.01 0.43,-0.001C0.398,0.008 0.362,0.012 0.323,0.012ZM0.189,-0.321L0.437,-0.321C0.437,-0.34 0.434,-0.357 0.429,-0.371C0.424,-0.385 0.416,-0.397 0.405,-0.406C0.395,-0.415 0.383,-0.422 0.369,-0.426C0.355,-0.431 0.339,-0.433 0.322,-0.433C0.295,-0.433 0.272,-0.429 0.253,-0.42C0.234,-0.412 0.22,-0.4 0.209,-0.383C0.198,-0.366 0.192,-0.346 0.189,-0.321Z" style="fill:rgb(125,125,125);fill-rule:nonzero;"/>
            </g>
            <g transform="matrix(24,0,0,24,522.908,421.943)">
                <path d="M0.065,-0L0.065,-0.527L0.183,-0.527L0.194,-0.45L0.201,-0.45C0.215,-0.469 0.231,-0.485 0.25,-0.498C0.269,-0.511 0.29,-0.521 0.313,-0.528C0.336,-0.535 0.36,-0.539 0.385,-0.539C0.424,-0.539 0.458,-0.532 0.485,-0.518C0.513,-0.505 0.534,-0.484 0.549,-0.455C0.564,-0.427 0.572,-0.39 0.572,-0.345L0.572,-0L0.428,-0L0.428,-0.322C0.428,-0.34 0.426,-0.355 0.421,-0.367C0.417,-0.38 0.411,-0.39 0.402,-0.398C0.393,-0.406 0.383,-0.412 0.371,-0.415C0.359,-0.419 0.345,-0.421 0.33,-0.421C0.307,-0.421 0.287,-0.416 0.268,-0.405C0.25,-0.395 0.235,-0.381 0.224,-0.362C0.213,-0.344 0.208,-0.323 0.208,-0.3L0.208,-0L0.065,-0Z" style="fill:rgb(125,125,125);fill-rule:nonzero;"/>
            </g>
            <g transform="matrix(24,0,0,24,538.124,421.943)">
                <path d="M0.267,0.012C0.221,0.012 0.181,0.002 0.147,-0.017C0.113,-0.037 0.087,-0.067 0.068,-0.108C0.049,-0.149 0.04,-0.201 0.04,-0.264C0.04,-0.327 0.049,-0.378 0.068,-0.419C0.087,-0.46 0.114,-0.49 0.147,-0.509C0.18,-0.529 0.218,-0.539 0.261,-0.539C0.285,-0.539 0.307,-0.536 0.328,-0.531C0.349,-0.526 0.367,-0.518 0.384,-0.507C0.401,-0.496 0.415,-0.483 0.426,-0.467L0.433,-0.467L0.433,-0.724L0.576,-0.724L0.576,-0L0.459,-0L0.447,-0.074L0.44,-0.074C0.421,-0.045 0.396,-0.023 0.366,-0.009C0.336,0.005 0.303,0.012 0.267,0.012ZM0.31,-0.105C0.339,-0.105 0.362,-0.111 0.38,-0.123C0.398,-0.135 0.411,-0.152 0.42,-0.174C0.429,-0.197 0.433,-0.224 0.433,-0.255L0.433,-0.27C0.433,-0.293 0.43,-0.314 0.425,-0.333C0.42,-0.352 0.413,-0.368 0.403,-0.381C0.393,-0.394 0.38,-0.404 0.364,-0.411C0.349,-0.418 0.331,-0.422 0.31,-0.422C0.281,-0.422 0.257,-0.416 0.239,-0.405C0.221,-0.394 0.208,-0.377 0.199,-0.355C0.191,-0.333 0.187,-0.306 0.187,-0.273L0.187,-0.252C0.187,-0.22 0.191,-0.193 0.199,-0.171C0.208,-0.149 0.221,-0.132 0.239,-0.121C0.258,-0.11 0.281,-0.105 0.31,-0.105Z" style="fill:rgb(125,125,125);fill-rule:nonzero;"/>
            </g>
            <g transform="matrix(24,0,0,24,553.508,421.943)">
                <path d="M0.324,0.012C0.264,0.012 0.213,0.002 0.17,-0.018C0.128,-0.038 0.096,-0.068 0.073,-0.109C0.051,-0.15 0.04,-0.201 0.04,-0.263C0.04,-0.326 0.051,-0.377 0.073,-0.418C0.096,-0.459 0.128,-0.489 0.17,-0.509C0.213,-0.529 0.264,-0.539 0.324,-0.539C0.385,-0.539 0.437,-0.529 0.479,-0.509C0.521,-0.489 0.553,-0.459 0.575,-0.418C0.597,-0.377 0.608,-0.326 0.608,-0.263C0.608,-0.201 0.597,-0.15 0.575,-0.109C0.553,-0.068 0.521,-0.038 0.479,-0.018C0.437,0.002 0.385,0.012 0.324,0.012ZM0.324,-0.097C0.356,-0.097 0.382,-0.103 0.402,-0.114C0.423,-0.126 0.438,-0.144 0.447,-0.167C0.457,-0.19 0.462,-0.219 0.462,-0.252L0.462,-0.275C0.462,-0.308 0.457,-0.336 0.447,-0.359C0.438,-0.382 0.423,-0.4 0.402,-0.411C0.382,-0.423 0.356,-0.429 0.324,-0.429C0.293,-0.429 0.267,-0.423 0.246,-0.411C0.226,-0.4 0.211,-0.382 0.201,-0.359C0.192,-0.336 0.187,-0.308 0.187,-0.275L0.187,-0.252C0.187,-0.219 0.192,-0.19 0.201,-0.167C0.211,-0.144 0.226,-0.126 0.246,-0.114C0.267,-0.103 0.293,-0.097 0.324,-0.097Z" style="fill:rgb(125,125,125);fill-rule:nonzero;"/>
            </g>
            <g transform="matrix(24,0,0,24,569.084,421.943)">
                <path d="M0.065,-0L0.065,-0.527L0.183,-0.527L0.194,-0.442L0.201,-0.442C0.208,-0.46 0.218,-0.476 0.229,-0.491C0.241,-0.506 0.255,-0.517 0.272,-0.526C0.289,-0.535 0.309,-0.539 0.332,-0.539C0.344,-0.539 0.355,-0.538 0.364,-0.536C0.374,-0.534 0.382,-0.532 0.388,-0.529L0.388,-0.402L0.337,-0.402C0.315,-0.402 0.296,-0.399 0.28,-0.392C0.264,-0.386 0.251,-0.377 0.24,-0.364C0.229,-0.351 0.221,-0.336 0.216,-0.319C0.211,-0.302 0.208,-0.282 0.208,-0.26L0.208,-0L0.065,-0Z" style="fill:rgb(125,125,125);fill-rule:nonzero;"/>
            </g>
        </g>
    </g>
</svg>
