<?xml version="1.0" encoding="UTF-8" standalone="no"?><!DOCTYPE svg PUBLIC "-//W3C//DTD SVG 1.1//EN" "http://www.w3.org/Graphics/SVG/1.1/DTD/svg11.dtd"><svg width="100%" height="100%" viewBox="0 0 625 362" version="1.1" xmlns="http://www.w3.org/2000/svg" xmlns:xlink="http://www.w3.org/1999/xlink" xml:space="preserve" xmlns:serif="http://www.serif.com/" style="fill-rule:evenodd;clip-rule:evenodd;stroke-linecap:round;stroke-miterlimit:6;"><path d="M449.888,16.448c0,-6.635 -5.386,-12.021 -12.021,-12.021l-251.419,-0c-6.635,-0 -12.021,5.386 -12.021,12.021l-0,126.226c-0,6.635 5.386,12.022 12.021,12.022l251.419,-0c6.635,-0 12.021,-5.387 12.021,-12.022l0,-126.226Z" style="fill:#848484;fill-opacity:0.14;stroke:#919191;stroke-width:1.46px;"/><rect x="196.062" y="43.985" width="79.172" height="20.917" style="fill:#595959;stroke:#919191;stroke-width:1.46px;"/><path d="M238.152,104.444c0,-0.884 -0.718,-1.602 -1.603,-1.602l-28.752,-0c-0.884,-0 -1.603,0.718 -1.603,1.602l0,3.206c0,0.885 0.719,1.603 1.603,1.603l28.752,0c0.885,0 1.603,-0.718 1.603,-1.603l0,-3.206Z" style="fill:#aeaeae;"/><path d="M218.902,16.31c-0,-0.885 -0.719,-1.603 -1.603,-1.603l-28.752,-0c-0.885,-0 -1.603,0.718 -1.603,1.603l-0,3.206c-0,0.884 0.718,1.603 1.603,1.603l28.752,-0c0.884,-0 1.603,-0.719 1.603,-1.603l-0,-3.206Z" style="fill:#aeaeae;"/><path d="M428.97,16.31c0,-0.885 -0.718,-1.603 -1.603,-1.603l-58.81,-0c-0.885,-0 -1.603,0.718 -1.603,1.603l0,3.206c0,0.884 0.718,1.603 1.603,1.603l58.81,-0c0.885,-0 1.603,-0.719 1.603,-1.603l0,-3.206Z" style="fill:#aeaeae;"/><path d="M286.154,104.444c0,-0.884 -0.718,-1.602 -1.603,-1.602l-28.752,-0c-0.884,-0 -1.603,0.718 -1.603,1.602l0,3.206c0,0.885 0.719,1.603 1.603,1.603l28.752,0c0.885,0 1.603,-0.718 1.603,-1.603l0,-3.206Z" style="fill:#aeaeae;"/><path d="M342.733,104.444c0,-0.884 -0.718,-1.602 -1.603,-1.602l-39.265,-0c-0.885,-0 -1.603,0.718 -1.603,1.602l-0,3.206c-0,0.885 0.718,1.603 1.603,1.603l39.265,0c0.885,0 1.603,-0.718 1.603,-1.603l0,-3.206Z" style="fill:#aeaeae;"/><path d="M419.647,104.444c0,-0.884 -0.718,-1.602 -1.603,-1.602l-60.154,-0c-0.884,-0 -1.603,0.718 -1.603,1.602l0,3.206c0,0.885 0.719,1.603 1.603,1.603l60.154,0c0.885,0 1.603,-0.718 1.603,-1.603l0,-3.206Z" style="fill:#aeaeae;"/><path d="M238.152,117.444c0,-0.884 -0.718,-1.602 -1.603,-1.602l-28.752,-0c-0.884,-0 -1.603,0.718 -1.603,1.602l0,3.206c0,0.885 0.719,1.603 1.603,1.603l28.752,0c0.885,0 1.603,-0.718 1.603,-1.603l0,-3.206Z" style="fill:#aeaeae;"/><path d="M286.154,117.444c0,-0.884 -0.718,-1.602 -1.603,-1.602l-28.752,-0c-0.884,-0 -1.603,0.718 -1.603,1.602l0,3.206c0,0.885 0.719,1.603 1.603,1.603l28.752,0c0.885,0 1.603,-0.718 1.603,-1.603l0,-3.206Z" style="fill:#aeaeae;"/><path d="M342.733,117.444c0,-0.884 -0.718,-1.602 -1.603,-1.602l-39.265,-0c-0.885,-0 -1.603,0.718 -1.603,1.602l-0,3.206c-0,0.885 0.718,1.603 1.603,1.603l39.265,0c0.885,0 1.603,-0.718 1.603,-1.603l0,-3.206Z" style="fill:#aeaeae;"/><path d="M419.647,117.444c0,-0.884 -0.718,-1.602 -1.603,-1.602l-60.154,-0c-0.884,-0 -1.603,0.718 -1.603,1.602l0,3.206c0,0.885 0.719,1.603 1.603,1.603l60.154,0c0.885,0 1.603,-0.718 1.603,-1.603l0,-3.206Z" style="fill:#aeaeae;"/><path d="M238.152,130.444c0,-0.884 -0.718,-1.602 -1.603,-1.602l-28.752,-0c-0.884,-0 -1.603,0.718 -1.603,1.602l0,3.206c0,0.885 0.719,1.603 1.603,1.603l28.752,0c0.885,0 1.603,-0.718 1.603,-1.603l0,-3.206Z" style="fill:#aeaeae;"/><path d="M286.154,130.444c0,-0.884 -0.718,-1.602 -1.603,-1.602l-28.752,-0c-0.884,-0 -1.603,0.718 -1.603,1.602l0,3.206c0,0.885 0.719,1.603 1.603,1.603l28.752,0c0.885,0 1.603,-0.718 1.603,-1.603l0,-3.206Z" style="fill:#aeaeae;"/><path d="M342.733,130.444c0,-0.884 -0.718,-1.602 -1.603,-1.602l-39.265,-0c-0.885,-0 -1.603,0.718 -1.603,1.602l-0,3.206c-0,0.885 0.718,1.603 1.603,1.603l39.265,0c0.885,0 1.603,-0.718 1.603,-1.603l0,-3.206Z" style="fill:#aeaeae;"/><path d="M419.647,130.444c0,-0.884 -0.718,-1.602 -1.603,-1.602l-60.154,-0c-0.884,-0 -1.603,0.718 -1.603,1.602l0,3.206c0,0.885 0.719,1.603 1.603,1.603l60.154,0c0.885,0 1.603,-0.718 1.603,-1.603l0,-3.206Z" style="fill:#aeaeae;"/><path d="M268.152,143.444c0,-0.884 -0.718,-1.602 -1.603,-1.602l-28.752,-0c-0.884,-0 -1.603,0.718 -1.603,1.602l0,3.206c0,0.885 0.719,1.603 1.603,1.603l28.752,0c0.885,0 1.603,-0.718 1.603,-1.603l0,-3.206Z" style="fill:#aeaeae;"/><path d="M286.154,143.444c0,-0.884 -0.718,-1.602 -1.603,-1.602l-28.752,-0c-0.884,-0 -1.603,0.718 -1.603,1.602l0,3.206c0,0.885 0.719,1.603 1.603,1.603l28.752,0c0.885,0 1.603,-0.718 1.603,-1.603l0,-3.206Z" style="fill:#aeaeae;"/><path d="M342.733,143.444c0,-0.884 -0.718,-1.602 -1.603,-1.602l-39.265,-0c-0.885,-0 -1.603,0.718 -1.603,1.602l-0,3.206c-0,0.885 0.718,1.603 1.603,1.603l39.265,0c0.885,0 1.603,-0.718 1.603,-1.603l0,-3.206Z" style="fill:#aeaeae;"/><path d="M419.647,143.444c0,-0.884 -0.718,-1.602 -1.603,-1.602l-60.154,-0c-0.884,-0 -1.603,0.718 -1.603,1.602l0,3.206c0,0.885 0.719,1.603 1.603,1.603l60.154,0c0.885,0 1.603,-0.718 1.603,-1.603l0,-3.206Z" style="fill:#aeaeae;"/><rect x="195.936" y="95.65" width="233.98" height="58.756" style="fill:none;stroke:#919191;stroke-width:1.46px;"/><text x="207.868px" y="89.084px" style="font-family:'BarlowSemiCondensed-Bold', 'Barlow Semi Condensed';font-weight:700;font-stretch:semi-condensed;font-size:9.291px;">Id</text><text x="254.761px" y="89.084px" style="font-family:'BarlowSemiCondensed-Bold', 'Barlow Semi Condensed';font-weight:700;font-stretch:semi-condensed;font-size:9.291px;">Time</text><text x="300.792px" y="89.084px" style="font-family:'BarlowSemiCondensed-Bold', 'Barlow Semi Condensed';font-weight:700;font-stretch:semi-condensed;font-size:9.291px;">Status</text><text x="357.109px" y="89.084px" style="font-family:'BarlowSemiCondensed-Bold', 'Barlow Semi Condensed';font-weight:700;font-stretch:semi-condensed;font-size:9.291px;">Counterpart</text><text x="290.496px" y="61.677px" style="font-family:'Barlow-Bold', 'Barlow';font-weight:700;font-size:20.975px;">list:</text><path d="M279.888,218.671c0,-6.635 -5.386,-12.022 -12.021,-12.022l-251.419,0c-6.635,0 -12.021,5.387 -12.021,12.022l-0,126.226c-0,6.635 5.386,12.022 12.021,12.022l251.419,-0c6.635,-0 12.021,-5.387 12.021,-12.022l0,-126.226Z" style="fill:#848484;fill-opacity:0.14;stroke:#919191;stroke-width:1.46px;"/><path d="M68.152,306.667c0,-0.884 -0.718,-1.603 -1.603,-1.603l-28.752,0c-0.884,0 -1.603,0.719 -1.603,1.603l0,3.206c0,0.885 0.719,1.603 1.603,1.603l28.752,0c0.885,0 1.603,-0.718 1.603,-1.603l0,-3.206Z" style="fill:#aeaeae;"/><path d="M48.902,218.533c-0,-0.885 -0.719,-1.603 -1.603,-1.603l-28.752,-0c-0.885,-0 -1.603,0.718 -1.603,1.603l-0,3.206c-0,0.884 0.718,1.603 1.603,1.603l28.752,-0c0.884,-0 1.603,-0.719 1.603,-1.603l-0,-3.206Z" style="fill:#aeaeae;"/><path d="M258.97,218.533c0,-0.885 -0.718,-1.603 -1.603,-1.603l-58.81,-0c-0.885,-0 -1.603,0.718 -1.603,1.603l0,3.206c0,0.884 0.718,1.603 1.603,1.603l58.81,-0c0.885,-0 1.603,-0.719 1.603,-1.603l0,-3.206Z" style="fill:#aeaeae;"/><path d="M116.154,306.667c0,-0.884 -0.718,-1.603 -1.603,-1.603l-28.752,0c-0.884,0 -1.603,0.719 -1.603,1.603l0,3.206c0,0.885 0.719,1.603 1.603,1.603l28.752,0c0.885,0 1.603,-0.718 1.603,-1.603l0,-3.206Z" style="fill:#aeaeae;"/><path d="M172.733,306.667c0,-0.884 -0.718,-1.603 -1.603,-1.603l-39.265,0c-0.885,0 -1.603,0.719 -1.603,1.603l-0,3.206c-0,0.885 0.718,1.603 1.603,1.603l39.265,0c0.885,0 1.603,-0.718 1.603,-1.603l0,-3.206Z" style="fill:#aeaeae;"/><path d="M249.647,306.667c0,-0.884 -0.718,-1.603 -1.603,-1.603l-60.154,0c-0.884,0 -1.603,0.719 -1.603,1.603l0,3.206c0,0.885 0.719,1.603 1.603,1.603l60.154,0c0.885,0 1.603,-0.718 1.603,-1.603l0,-3.206Z" style="fill:#aeaeae;"/><path d="M68.152,319.667c0,-0.884 -0.718,-1.603 -1.603,-1.603l-28.752,0c-0.884,0 -1.603,0.719 -1.603,1.603l0,3.206c0,0.885 0.719,1.603 1.603,1.603l28.752,0c0.885,0 1.603,-0.718 1.603,-1.603l0,-3.206Z" style="fill:#aeaeae;"/><path d="M116.154,319.667c0,-0.884 -0.718,-1.603 -1.603,-1.603l-28.752,0c-0.884,0 -1.603,0.719 -1.603,1.603l0,3.206c0,0.885 0.719,1.603 1.603,1.603l28.752,0c0.885,0 1.603,-0.718 1.603,-1.603l0,-3.206Z" style="fill:#aeaeae;"/><path d="M172.733,319.667c0,-0.884 -0.718,-1.603 -1.603,-1.603l-39.265,0c-0.885,0 -1.603,0.719 -1.603,1.603l-0,3.206c-0,0.885 0.718,1.603 1.603,1.603l39.265,0c0.885,0 1.603,-0.718 1.603,-1.603l0,-3.206Z" style="fill:#aeaeae;"/><path d="M249.647,319.667c0,-0.884 -0.718,-1.603 -1.603,-1.603l-60.154,0c-0.884,0 -1.603,0.719 -1.603,1.603l0,3.206c0,0.885 0.719,1.603 1.603,1.603l60.154,0c0.885,0 1.603,-0.718 1.603,-1.603l0,-3.206Z" style="fill:#aeaeae;"/><path d="M68.152,332.667c0,-0.884 -0.718,-1.603 -1.603,-1.603l-28.752,0c-0.884,0 -1.603,0.719 -1.603,1.603l0,3.206c0,0.885 0.719,1.603 1.603,1.603l28.752,0c0.885,0 1.603,-0.718 1.603,-1.603l0,-3.206Z" style="fill:#aeaeae;"/><path d="M116.154,332.667c0,-0.884 -0.718,-1.603 -1.603,-1.603l-28.752,0c-0.884,0 -1.603,0.719 -1.603,1.603l0,3.206c0,0.885 0.719,1.603 1.603,1.603l28.752,0c0.885,0 1.603,-0.718 1.603,-1.603l0,-3.206Z" style="fill:#aeaeae;"/><path d="M172.733,332.667c0,-0.884 -0.718,-1.603 -1.603,-1.603l-39.265,0c-0.885,0 -1.603,0.719 -1.603,1.603l-0,3.206c-0,0.885 0.718,1.603 1.603,1.603l39.265,0c0.885,0 1.603,-0.718 1.603,-1.603l0,-3.206Z" style="fill:#aeaeae;"/><path d="M249.647,332.667c0,-0.884 -0.718,-1.603 -1.603,-1.603l-60.154,0c-0.884,0 -1.603,0.719 -1.603,1.603l0,3.206c0,0.885 0.719,1.603 1.603,1.603l60.154,0c0.885,0 1.603,-0.718 1.603,-1.603l0,-3.206Z" style="fill:#aeaeae;"/><path d="M68.152,345.667c0,-0.884 -0.718,-1.603 -1.603,-1.603l-28.752,0c-0.884,0 -1.603,0.719 -1.603,1.603l0,3.206c0,0.885 0.719,1.603 1.603,1.603l28.752,0c0.885,0 1.603,-0.718 1.603,-1.603l0,-3.206Z" style="fill:#aeaeae;"/><path d="M116.154,345.667c0,-0.884 -0.718,-1.603 -1.603,-1.603l-28.752,0c-0.884,0 -1.603,0.719 -1.603,1.603l0,3.206c0,0.885 0.719,1.603 1.603,1.603l28.752,0c0.885,0 1.603,-0.718 1.603,-1.603l0,-3.206Z" style="fill:#aeaeae;"/><path d="M172.733,345.667c0,-0.884 -0.718,-1.603 -1.603,-1.603l-39.265,0c-0.885,0 -1.603,0.719 -1.603,1.603l-0,3.206c-0,0.885 0.718,1.603 1.603,1.603l39.265,0c0.885,0 1.603,-0.718 1.603,-1.603l0,-3.206Z" style="fill:#aeaeae;"/><path d="M249.647,345.667c0,-0.884 -0.718,-1.603 -1.603,-1.603l-60.154,0c-0.884,0 -1.603,0.719 -1.603,1.603l0,3.206c0,0.885 0.719,1.603 1.603,1.603l60.154,0c0.885,0 1.603,-0.718 1.603,-1.603l0,-3.206Z" style="fill:#aeaeae;"/><rect x="25.936" y="297.873" width="233.98" height="58.756" style="fill:none;stroke:#919191;stroke-width:1.46px;"/><text x="37.868px" y="291.306px" style="font-family:'BarlowSemiCondensed-Bold', 'Barlow Semi Condensed';font-weight:700;font-stretch:semi-condensed;font-size:9.291px;">Id</text><text x="84.761px" y="291.306px" style="font-family:'BarlowSemiCondensed-Bold', 'Barlow Semi Condensed';font-weight:700;font-stretch:semi-condensed;font-size:9.291px;">Time</text><text x="130.792px" y="291.306px" style="font-family:'BarlowSemiCondensed-Bold', 'Barlow Semi Condensed';font-weight:700;font-stretch:semi-condensed;font-size:9.291px;">Status</text><text x="187.109px" y="291.306px" style="font-family:'BarlowSemiCondensed-Bold', 'Barlow Semi Condensed';font-weight:700;font-stretch:semi-condensed;font-size:9.291px;">Counterpart</text><text x="106.135px" y="263.9px" style="font-family:'Barlow-Bold', 'Barlow';font-weight:700;font-size:20.975px;">list:</text><text x="31.879px" y="263.9px" style="font-family:'Barlow-Bold', 'Barlow';font-weight:700;font-size:20.975px;fill:#0067ff;">In<tspan x="49.016px 59.588px " y="263.9px 263.9px ">vo</tspan>ice</text><path d="M619.888,218.671c0,-6.635 -5.386,-12.022 -12.021,-12.022l-251.419,0c-6.635,0 -12.021,5.387 -12.021,12.022l-0,126.226c-0,6.635 5.386,12.022 12.021,12.022l251.419,-0c6.635,-0 12.021,-5.387 12.021,-12.022l0,-126.226Z" style="fill:#848484;fill-opacity:0.14;stroke:#919191;stroke-width:1.46px;"/><path d="M408.152,306.667c0,-0.884 -0.718,-1.603 -1.603,-1.603l-28.752,0c-0.884,0 -1.603,0.719 -1.603,1.603l0,3.206c0,0.885 0.719,1.603 1.603,1.603l28.752,0c0.885,0 1.603,-0.718 1.603,-1.603l0,-3.206Z" style="fill:#aeaeae;"/><path d="M388.902,218.533c-0,-0.885 -0.719,-1.603 -1.603,-1.603l-28.752,-0c-0.885,-0 -1.603,0.718 -1.603,1.603l-0,3.206c-0,0.884 0.718,1.603 1.603,1.603l28.752,-0c0.884,-0 1.603,-0.719 1.603,-1.603l-0,-3.206Z" style="fill:#aeaeae;"/><path d="M598.97,218.533c0,-0.885 -0.718,-1.603 -1.603,-1.603l-58.81,-0c-0.885,-0 -1.603,0.718 -1.603,1.603l0,3.206c0,0.884 0.718,1.603 1.603,1.603l58.81,-0c0.885,-0 1.603,-0.719 1.603,-1.603l0,-3.206Z" style="fill:#aeaeae;"/><path d="M456.154,306.667c0,-0.884 -0.718,-1.603 -1.603,-1.603l-28.752,0c-0.884,0 -1.603,0.719 -1.603,1.603l0,3.206c0,0.885 0.719,1.603 1.603,1.603l28.752,0c0.885,0 1.603,-0.718 1.603,-1.603l0,-3.206Z" style="fill:#aeaeae;"/><path d="M512.733,306.667c0,-0.884 -0.718,-1.603 -1.603,-1.603l-39.265,0c-0.885,0 -1.603,0.719 -1.603,1.603l-0,3.206c-0,0.885 0.718,1.603 1.603,1.603l39.265,0c0.885,0 1.603,-0.718 1.603,-1.603l0,-3.206Z" style="fill:#aeaeae;"/><path d="M589.647,306.667c0,-0.884 -0.718,-1.603 -1.603,-1.603l-60.154,0c-0.884,0 -1.603,0.719 -1.603,1.603l0,3.206c0,0.885 0.719,1.603 1.603,1.603l60.154,0c0.885,0 1.603,-0.718 1.603,-1.603l0,-3.206Z" style="fill:#aeaeae;"/><path d="M408.152,319.667c0,-0.884 -0.718,-1.603 -1.603,-1.603l-28.752,0c-0.884,0 -1.603,0.719 -1.603,1.603l0,3.206c0,0.885 0.719,1.603 1.603,1.603l28.752,0c0.885,0 1.603,-0.718 1.603,-1.603l0,-3.206Z" style="fill:#aeaeae;"/><path d="M456.154,319.667c0,-0.884 -0.718,-1.603 -1.603,-1.603l-28.752,0c-0.884,0 -1.603,0.719 -1.603,1.603l0,3.206c0,0.885 0.719,1.603 1.603,1.603l28.752,0c0.885,0 1.603,-0.718 1.603,-1.603l0,-3.206Z" style="fill:#aeaeae;"/><path d="M512.733,319.667c0,-0.884 -0.718,-1.603 -1.603,-1.603l-39.265,0c-0.885,0 -1.603,0.719 -1.603,1.603l-0,3.206c-0,0.885 0.718,1.603 1.603,1.603l39.265,0c0.885,0 1.603,-0.718 1.603,-1.603l0,-3.206Z" style="fill:#aeaeae;"/><path d="M589.647,319.667c0,-0.884 -0.718,-1.603 -1.603,-1.603l-60.154,0c-0.884,0 -1.603,0.719 -1.603,1.603l0,3.206c0,0.885 0.719,1.603 1.603,1.603l60.154,0c0.885,0 1.603,-0.718 1.603,-1.603l0,-3.206Z" style="fill:#aeaeae;"/><path d="M408.152,332.667c0,-0.884 -0.718,-1.603 -1.603,-1.603l-28.752,0c-0.884,0 -1.603,0.719 -1.603,1.603l0,3.206c0,0.885 0.719,1.603 1.603,1.603l28.752,0c0.885,0 1.603,-0.718 1.603,-1.603l0,-3.206Z" style="fill:#aeaeae;"/><path d="M456.154,332.667c0,-0.884 -0.718,-1.603 -1.603,-1.603l-28.752,0c-0.884,0 -1.603,0.719 -1.603,1.603l0,3.206c0,0.885 0.719,1.603 1.603,1.603l28.752,0c0.885,0 1.603,-0.718 1.603,-1.603l0,-3.206Z" style="fill:#aeaeae;"/><path d="M512.733,332.667c0,-0.884 -0.718,-1.603 -1.603,-1.603l-39.265,0c-0.885,0 -1.603,0.719 -1.603,1.603l-0,3.206c-0,0.885 0.718,1.603 1.603,1.603l39.265,0c0.885,0 1.603,-0.718 1.603,-1.603l0,-3.206Z" style="fill:#aeaeae;"/><path d="M589.647,332.667c0,-0.884 -0.718,-1.603 -1.603,-1.603l-60.154,0c-0.884,0 -1.603,0.719 -1.603,1.603l0,3.206c0,0.885 0.719,1.603 1.603,1.603l60.154,0c0.885,0 1.603,-0.718 1.603,-1.603l0,-3.206Z" style="fill:#aeaeae;"/><path d="M408.152,345.667c0,-0.884 -0.718,-1.603 -1.603,-1.603l-28.752,0c-0.884,0 -1.603,0.719 -1.603,1.603l0,3.206c0,0.885 0.719,1.603 1.603,1.603l28.752,0c0.885,0 1.603,-0.718 1.603,-1.603l0,-3.206Z" style="fill:#aeaeae;"/><path d="M456.154,345.667c0,-0.884 -0.718,-1.603 -1.603,-1.603l-28.752,0c-0.884,0 -1.603,0.719 -1.603,1.603l0,3.206c0,0.885 0.719,1.603 1.603,1.603l28.752,0c0.885,0 1.603,-0.718 1.603,-1.603l0,-3.206Z" style="fill:#aeaeae;"/><path d="M512.733,345.667c0,-0.884 -0.718,-1.603 -1.603,-1.603l-39.265,0c-0.885,0 -1.603,0.719 -1.603,1.603l-0,3.206c-0,0.885 0.718,1.603 1.603,1.603l39.265,0c0.885,0 1.603,-0.718 1.603,-1.603l0,-3.206Z" style="fill:#aeaeae;"/><path d="M589.647,345.667c0,-0.884 -0.718,-1.603 -1.603,-1.603l-60.154,0c-0.884,0 -1.603,0.719 -1.603,1.603l0,3.206c0,0.885 0.719,1.603 1.603,1.603l60.154,0c0.885,0 1.603,-0.718 1.603,-1.603l0,-3.206Z" style="fill:#aeaeae;"/><rect x="365.936" y="297.873" width="233.98" height="58.756" style="fill:none;stroke:#919191;stroke-width:1.46px;"/><text x="377.868px" y="291.306px" style="font-family:'BarlowSemiCondensed-Bold', 'Barlow Semi Condensed';font-weight:700;font-stretch:semi-condensed;font-size:9.291px;">Id</text><text x="424.761px" y="291.306px" style="font-family:'BarlowSemiCondensed-Bold', 'Barlow Semi Condensed';font-weight:700;font-stretch:semi-condensed;font-size:9.291px;">Time</text><text x="470.792px" y="291.306px" style="font-family:'BarlowSemiCondensed-Bold', 'Barlow Semi Condensed';font-weight:700;font-stretch:semi-condensed;font-size:9.291px;">Status</text><text x="527.109px" y="291.306px" style="font-family:'BarlowSemiCondensed-Bold', 'Barlow Semi Condensed';font-weight:700;font-stretch:semi-condensed;font-size:9.291px;">Counterpart</text><text x="433.085px" y="263.9px" style="font-family:'Barlow-Bold', 'Barlow';font-weight:700;font-size:20.975px;">list:</text><text x="372.137px" y="263.9px" style="font-family:'Barlow-Bold', 'Barlow';font-weight:700;font-size:20.975px;fill:#0067ff;">Order</text><path d="M246.103,189.394l-7.212,0l-0,-7.212" style="fill:none;stroke:#4d4d4d;stroke-width:3.4px;stroke-miterlimit:10;"/><path d="M256.91,171.375c0,-0 -13.235,13.235 -18.019,18.019" style="fill:none;stroke:#4d4d4d;stroke-width:3.4px;"/><path d="M384.519,182.182l-0,7.212l-7.213,0" style="fill:none;stroke:#4d4d4d;stroke-width:3.4px;stroke-miterlimit:10;"/><path d="M366.499,171.375c-0,-0 13.235,13.235 18.02,18.019" style="fill:none;stroke:#4d4d4d;stroke-width:3.4px;"/></svg>